<?xml version="1.0" encoding="UTF-8" standalone="no"?><!DOCTYPE svg PUBLIC "-//W3C//DTD SVG 1.1//EN" "http://www.w3.org/Graphics/SVG/1.1/DTD/svg11.dtd"><svg width="100%" height="100%" viewBox="0 0 445 365" version="1.1" xmlns="http://www.w3.org/2000/svg" xmlns:xlink="http://www.w3.org/1999/xlink" xml:space="preserve" xmlns:serif="http://www.serif.com/" style="fill-rule:evenodd;clip-rule:evenodd;stroke-linejoin:round;stroke-miterlimit:2;"><path d="M83.284,90.049c-0.029,-2.696 -1.492,-5.063 -3.454,-6.854c-1.967,-1.763 -4.525,-3.034 -7.271,-3.05c-1.463,-0 -2.975,0.4 -4.3,1.3c-1.763,1.133 -2.842,2.97 -2.783,4.829c0.016,0.954 0.229,1.841 0.575,2.696l-0,0.058c-0,1.992 0.608,4.042 1.908,5.717c1.154,1.504 2.983,2.62 5.196,2.82c1.9,1.784 3.716,3.488 4.671,4.613c-1.367,0.683 -3.092,1.579 -4.63,2.571c-0.954,0.604 -1.82,1.221 -2.554,1.933c-0.683,0.725 -1.433,1.542 -1.479,2.967c-0.029,1.337 0.942,2.404 1.888,2.866c0.987,0.53 2.162,0.842 3.75,1.08c0.579,0.058 1.108,0.108 1.65,0.108l0.075,-0c2.041,-0 3.85,-0.696 5.054,-1.996c1.212,-1.317 1.704,-3.042 1.704,-4.754c-0,-1.879 -0.55,-3.804 -1.504,-5.65c-0.825,-1.483 -2.279,-2.946 -3.917,-4.504c3.488,-1.321 5.471,-3.929 5.421,-6.75m-3.892,15.566c0.1,0.471 0.138,0.925 0.138,1.338c-0.013,1.021 -0.279,1.712 -0.692,2.137c-0.404,0.434 -1.042,0.8 -2.387,0.809c-0.338,-0 -0.725,-0.009 -1.146,-0.088c-0.909,-0.112 -1.592,-0.287 -2.013,-0.45c1.067,-1.05 3.975,-2.666 6.1,-3.746m-3.616,-12.12c-0.413,0.125 -0.821,0.191 -1.167,0.25c-0.113,-0.096 -0.213,-0.192 -0.288,-0.28c-1.925,-1.77 -3.562,-3.716 -4.437,-5.225c0.258,-1.695 1.05,-2.637 2.571,-2.666c0.604,-0 1.433,0.171 2.475,0.654c0.758,0.346 1.616,0.154 2.146,-0.425c0.095,0.079 0.17,0.146 0.25,0.221c1.404,1.254 2.241,2.896 2.204,4.025c-0.05,1.175 -0.509,2.358 -3.754,3.446" style="fill:#231f20;fill-rule:nonzero;"/><path d="M2.576,40.992l-0.009,0.046c-0.262,0.975 0.296,1.975 1.25,2.283c0.192,0.058 0.375,0.096 0.559,0.096c0.8,-0 1.55,-0.529 1.808,-1.338c0.212,-0.846 0.167,-1.416 0.183,-2.454c0,-2.475 -0.2,-6.471 -0.2,-8.858c0,-0.809 0.038,-1.471 0.075,-1.575c0.163,-1.034 -0.508,-2.013 -1.541,-2.196c-1.009,-0.175 -1.984,0.5 -2.163,1.537c-0.096,0.646 -0.117,1.321 -0.117,2.234c0,2.562 0.205,6.558 0.205,8.858c-0,0.454 -0.021,0.817 -0.034,1.088c0,0.125 -0.016,0.241 -0.016,0.279" style="fill:#231f20;fill-rule:nonzero;"/><path d="M15.696,81.702c0.175,0.904 0.954,1.529 1.82,1.529c0.113,0 0.25,-0.008 0.375,-0.037c1.021,-0.2 1.663,-1.192 1.463,-2.213c-0,0 -0.008,-0.079 -0.008,-0.212c-0.05,-1.771 1.72,-6.846 1.962,-10.534c0.038,-0.97 -0.633,-1.787 -1.558,-1.95c-0.954,-0.166 -1.859,0.413 -2.121,1.346c-0.471,1.638 -1.25,3.254 -2.242,4.388c-0.646,-0.517 -0.883,-1.067 -0.883,-1.538c0.008,-0.262 0.067,-0.566 0.279,-0.975c0.508,-0.921 0.163,-2.066 -0.733,-2.566c-0.925,-0.513 -2.063,-0.175 -2.55,0.75c-0.484,0.895 -0.742,1.837 -0.742,2.791c0.008,2.646 1.875,4.629 4.129,5.613c0.329,0.141 0.663,0.183 1.013,0.141c-0.175,0.905 -0.279,1.763 -0.3,2.534c-0,0.271 0.021,0.579 0.096,0.933" style="fill:#231f20;fill-rule:nonzero;"/><path d="M442.468,318.562l-0.287,0c-10.313,0.008 -21.525,-2.512 -32.134,-3.908c-1.033,-0.146 -1.975,0.587 -2.1,1.629c-0.146,1.029 0.588,1.992 1.617,2.125c7.346,0.962 15.171,2.542 22.971,3.371c-2.784,0.933 -5.634,1.904 -8.471,2.887c-0,-0.183 0.092,-0.358 0.025,-0.55c-0.325,-1 -1.396,-1.512 -2.396,-1.162c-6.054,2.146 -14.833,2.137 -21.958,2.433c-14.046,0.625 -28.1,1.754 -42.029,1.896c-6.567,0.079 -13.109,0.079 -19.675,0.137c-0.146,-1.408 -0.3,-2.783 -0.3,-3.95c-0,-0.17 -0,-0.316 0.029,-0.462c0.021,-0.729 -0.367,-1.421 -1.021,-1.758c-0.375,-0.184 -0.779,-0.388 -1.383,-0.396c-0.542,-0.038 -1.3,0.329 -1.638,0.758c-0.192,0.242 -0.308,0.438 -0.387,0.588c-0.392,0.454 -0.575,1.1 -0.421,1.733c0.154,0.625 0.596,1.108 1.146,1.321c0.045,0.721 0.141,1.454 0.22,2.183c-22.383,0.204 -44.775,0.404 -67.191,0.463c-0.396,-0.009 -0.813,-0 -1.196,-0c-11.983,-0 -23.95,-0.48 -35.908,-1.146c0.095,-1.896 0.25,-3.592 0.262,-4.542c0,-1.05 -0.85,-1.887 -1.871,-1.887c-1.037,-0 -1.875,0.837 -1.875,1.887l-0.008,0c0.008,0.575 -0.167,2.308 -0.263,4.329c-28.762,-1.675 -57.583,-4.312 -86.558,-4.329l-0.129,0c-0.796,0 -1.546,0.038 -2.329,0.038c-0.009,-1.925 -0.221,-3.871 -0.942,-5.775c-0.367,-0.984 -1.454,-1.475 -2.417,-1.1c-0.97,0.375 -1.441,1.483 -1.095,2.466c0.516,1.329 0.7,2.829 0.72,4.496c-12.737,0.2 -25.337,0.846 -37.862,0.846c-4.563,-0 -9.088,-0.088 -13.621,-0.338c-9.154,-0.516 -18.367,-0.787 -27.617,-0.787c-3.575,-0 -7.162,0.058 -10.745,0.142c-0.23,-10.913 -0.213,-21.863 -0.588,-32.884c-0.5,-14.796 -0.837,-29.9 -0.825,-44.983c-0.012,-13.342 0.258,-26.667 0.921,-39.708c0.829,-16.8 1.158,-33.88 1.158,-50.984c0,-7.029 -0.204,-13.996 -0.291,-20.996c1.129,-0.075 2.275,-0.133 3.341,-0.154c0.367,0.434 0.896,0.704 1.463,0.704c0.146,0 0.3,-0.029 0.454,-0.066c0.521,-0.146 1.008,-0.309 1.396,-0.471c0.104,-0.042 0.221,-0.088 0.316,-0.117c0.721,-0.079 1.33,-0.571 1.58,-1.291c0.087,-0.25 0.087,-0.605 0.087,-0.605c0.029,-0.829 -0.587,-1.512 -0.975,-1.679c-0.392,-0.208 -0.671,-0.229 -0.921,-0.229l-0.137,0c-0.7,-0.037 -1.396,-0.058 -2.125,-0.058c-1.446,-0 -2.996,0.079 -4.525,0.154c-0.104,-7.104 -0.125,-14.267 -0.288,-21.313c-0.079,-2.77 -0.108,-5.575 -0.108,-8.345c-0,-6.334 0.167,-12.688 0.417,-19.05c0.545,-0.021 1.183,-0.038 1.7,-0.038c1.033,0 1.87,-0.858 1.87,-1.908c0,-1.042 -0.837,-1.888 -1.87,-1.888c-0.517,0 -1.03,0.021 -1.538,0.029c0.567,-13.525 1.367,-27.087 1.817,-40.67c0.021,-0 0.029,0.008 0.058,0.016c0.358,0.484 0.933,0.8 1.533,0.8c0.2,0 0.405,-0.037 0.588,-0.112c0.458,-0.167 1.229,-0.309 2.079,-0.85c0.75,-0.463 1.088,-1.375 0.808,-2.213c-0.279,-0.829 -1.079,-1.366 -1.937,-1.291c-0.288,0.02 -0.583,0.037 -0.875,0.037c-0.692,0.013 -1.433,-0.104 -2.175,-0.229c0.104,-4.092 0.25,-8.163 0.25,-12.254c-0,-2.6 -0.021,-5.2 -0.088,-7.809c-0.008,-1.037 -0.866,-1.866 -1.904,-1.837c-0.291,-0 -0.491,0.192 -0.712,0.317c0.683,-1.538 1.271,-3.063 1.8,-4.321c2.712,6.325 7.141,13.766 7.171,17.962c0.058,1.05 0.895,1.867 1.933,1.85c1.042,-0.05 1.858,-0.916 1.829,-1.966c-0.375,-7.084 -6.912,-16.384 -8.679,-22.438c-0.204,-0.587 -0.675,-1.067 -1.283,-1.25c-0.625,-0.154 -1.28,-0.021 -1.742,0.392c-3.379,3.216 -3.592,7.758 -5.458,10.246c-2.6,3.916 -8.192,7.941 -10.242,13.062c-0.375,0.963 0.096,2.067 1.067,2.454c0.212,0.096 0.462,0.125 0.675,0.125c0.762,0 1.462,-0.462 1.75,-1.204l-0,-0.008c1.233,-3.484 6.616,-7.692 9.85,-12.267c0.087,-0.142 0.116,-0.296 0.204,-0.442c0.054,2.367 0.083,4.746 0.083,7.134c0,3.804 -0.154,7.612 -0.25,11.437c-1.8,-0.462 -3.704,-0.887 -5.7,-0.925c-1.367,0 -2.792,0.242 -4.196,0.859c-0.941,0.441 -1.366,1.545 -0.941,2.52c0.412,0.942 1.512,1.367 2.47,0.955c0.83,-0.388 1.688,-0.53 2.667,-0.542c1.658,-0.029 3.554,0.483 5.613,1.012c-0.434,13.805 -1.259,27.655 -1.83,41.559c-0.266,-0 -0.545,0.016 -0.787,0.016c-1.946,0 -3.725,-0.154 -5.179,-0.683c-0.963,-0.346 -2.029,0.154 -2.409,1.146c-0.325,0.992 0.184,2.079 1.167,2.425l-0.008,-0c2.096,0.754 4.312,0.887 6.429,0.904c0.212,0 0.404,-0.017 0.625,-0.017c-0.221,6.325 -0.396,12.642 -0.396,18.955c0,2.82 0.021,5.641 0.088,8.441c0.183,7.104 0.183,14.304 0.3,21.479c-2.117,0.142 -4.005,0.296 -5.18,0.296c-1.041,0.013 -1.866,0.867 -1.858,1.909c0,1.045 0.846,1.895 1.888,1.875c1.316,-0 3.183,-0.142 5.195,-0.288c0.1,6.929 0.28,13.804 0.28,20.754c-0,17.059 -0.317,34.079 -1.134,50.779c-0.666,13.142 -0.933,26.521 -0.933,39.913c-0,15.142 0.317,30.296 0.825,45.117c0.379,10.887 0.337,21.816 0.587,32.762c-5.37,-0.058 -11.983,-0.587 -18.183,-0.587c-4.446,0.016 -8.675,0.279 -12.196,1.287c-1,0.292 -1.571,1.35 -1.291,2.35c0.291,1.013 1.329,1.592 2.329,1.3c2.908,-0.846 6.866,-1.146 11.158,-1.137c6.046,-0 12.671,0.529 18.271,0.587c0.096,3.246 0.287,7.904 0.675,12.429c0.508,5.267 1.05,9.934 2.617,12.6c0.366,0.579 0.975,0.888 1.579,0.888c0.358,-0 0.704,-0.109 1.021,-0.309c0.866,-0.558 1.137,-1.725 0.579,-2.608c-0.754,-1.021 -1.667,-5.921 -2.05,-10.908c-0.388,-4.35 -0.571,-8.904 -0.667,-12.109c3.542,-0.1 7.117,-0.154 10.658,-0.154c9.184,0 18.33,0.288 27.405,0.788c4.633,0.262 9.233,0.358 13.833,0.358c12.562,0 25.079,-0.646 37.604,-0.85c-0.225,2.388 -0.512,4.871 -0.521,7.433c0,0.684 0.017,1.405 0.096,2.1c0.075,0.721 0.508,1.296 1.163,1.58c0.225,0.095 0.462,0.125 0.704,0.125c0.433,-0 0.858,-0.146 1.204,-0.425c0.942,-0.742 1.204,-2.071 1.146,-2.646c-0,-0.359 -0.029,-0.6 -0.029,-0.784c-0,-0.104 0.008,-0.191 0.029,-0.279c0.075,-0.604 -0.117,-1.162 -0.5,-1.579c0.125,-1.771 0.325,-3.667 0.5,-5.608c0.829,-0.013 1.646,-0.05 2.483,-0.05l0.075,0.008c28.833,-0.008 57.675,2.65 86.613,4.313c0.087,2.725 0.2,5.383 2.291,7.287c0.346,0.279 0.75,0.404 1.146,0.404c0.554,0 1.125,-0.25 1.479,-0.721c0.638,-0.845 0.484,-2.02 -0.316,-2.675c-0.038,0.009 -0.434,-0.541 -0.609,-1.541c-0.141,-0.692 -0.208,-1.588 -0.237,-2.542c11.966,0.675 23.95,1.167 35.954,1.167l1.183,-0c22.554,-0.071 45.063,-0.271 67.559,-0.471c0.095,0.779 0.191,1.617 0.191,2.221c0,0.433 -0.037,0.821 -0.066,1.137c-0.155,1.038 0.57,1.992 1.579,2.138c0.108,0.029 0.191,0.029 0.279,0.029c0.904,-0 1.725,-0.696 1.85,-1.646c0.087,-0.521 0.104,-1.071 0.104,-1.658c0,-0.721 -0.05,-1.471 -0.125,-2.25c6.433,-0.05 12.879,-0.059 19.292,-0.125c14.121,-0.167 28.216,-1.284 42.154,-1.909c4.342,-0.2 9.417,-0.287 14.333,-0.854c-0.854,0.346 -1.787,0.642 -2.637,0.988c-0.95,0.408 -1.404,1.512 -1.009,2.496c0.309,0.712 1,1.162 1.734,1.162c0.237,0 0.487,-0.046 0.712,-0.142c9.375,-3.92 20.434,-7.229 29.938,-10.579c0.829,-0.291 1.358,-1.137 1.25,-2.041c-0.134,-0.875 -0.846,-1.58 -1.742,-1.638" style="fill:#231f20;fill-rule:nonzero;"/><path d="M349.446,348.82c-2.012,-1.455 -4.416,-2.121 -6.641,-2.138c-1.484,0.017 -2.879,0.288 -4.113,1.029c-1.2,0.704 -2.241,2.15 -2.204,3.834c0,1.087 0.379,2.191 1.013,3.254c0.075,0.104 0.125,0.191 0.191,0.275l0,0.446c0.088,5.004 4.254,8.566 8.471,8.625l0.196,-0c3.087,-0 6.071,-2.609 6.533,-6.921c0.067,-0.513 0.109,-0.963 0.109,-1.425c0.016,-3.079 -1.55,-5.546 -3.555,-6.979m-0.258,7.875c-0.587,3.154 -1.675,3.541 -3.025,3.645c-1,0.03 -2.25,-0.5 -3.183,-1.404c-0.934,-0.912 -1.542,-2.116 -1.542,-3.416c0,-0.934 0.288,-1.955 1.096,-3.138c0.396,-0.579 0.425,-1.308 0.146,-1.9c0.037,-0.008 0.075,-0.008 0.125,-0.008c1.454,-0.009 3.196,0.5 4.429,1.425c1.229,0.933 1.983,2.079 2.012,3.9c0,0.3 -0.029,0.575 -0.058,0.896" style="fill:#231f20;fill-rule:nonzero;"/><path d="M223.427,345.199c-0.721,-0.337 -1.571,-0.2 -2.129,0.367c-1.384,1.433 -2.375,3.342 -3.309,5.1c-0.896,1.725 -1.812,3.371 -2.187,3.679c-0.75,0.75 -0.759,1.954 -0.038,2.704c0.713,0.75 1.896,0.763 2.659,0.029l-0.013,-0.008l0.079,-0.087c-0.058,0.566 -0.096,1.116 -0.108,1.666c-0,1.229 0.204,2.513 0.85,3.675c0.337,0.625 0.962,0.984 1.633,0.984c0.3,-0 0.617,-0.08 0.896,-0.242c0.925,-0.5 1.233,-1.654 0.742,-2.588c-0.221,-0.387 -0.367,-0.991 -0.367,-1.829c-0.046,-2.946 1.917,-7.662 2.35,-11.525c0.088,-0.808 -0.337,-1.571 -1.058,-1.925" style="fill:#231f20;fill-rule:nonzero;"/><path d="M9.728,136.833c0.095,0.021 0.17,0.133 0.279,0.133c0.25,0 0.5,-0.037 0.741,-0.133c0.175,-0.075 0.355,-0.163 0.617,-0.392c0.258,-0.196 0.729,-0.741 0.729,-1.533c-0.183,-1.3 -0.691,-1.588 -1.021,-1.75c0.542,-1.696 1.117,-3.313 1.871,-4.333c0.096,-0.067 0.184,-0.155 0.259,-0.234c0.058,-0.066 0.125,-0.141 0.2,-0.229c0.041,-0.058 0.058,-0.096 0.137,-0.204c0.046,-0.163 0.213,-0.088 0.296,-1.029c-0.017,-0.588 -0.121,-0.713 -0.279,-0.979c-0.154,-0.175 -0.296,-0.784 -1.596,-0.917c-0.925,0.104 -0.946,0.25 -1.013,0.3c-0.558,0.075 -1.125,0.112 -1.691,0.112c-2.204,0 -4.604,-0.508 -7.271,-0.683c-1.029,-0.067 -1.904,0.733 -1.983,1.783c-0.055,1.05 0.733,1.942 1.754,2.013c2.05,0.104 4.237,0.558 6.633,0.654c-0.383,0.963 -0.683,1.913 -0.971,2.792c-1.291,-0.175 -2.591,-0.288 -3.554,-0.288l-0.221,0c-1.021,0.054 -1.829,0.95 -1.754,2c0.038,1.05 0.946,1.85 1.975,1.792l0,-0.008c0.45,-0 1.263,0.075 2.079,0.162c-0.058,0.096 -0.154,0.213 -0.2,0.229c-0.821,0.638 -0.983,1.829 -0.35,2.675c0.375,0.484 0.925,0.734 1.484,0.734c0.395,-0 0.808,-0.134 1.145,-0.384c0.809,-0.675 1.3,-1.462 1.705,-2.283" style="fill:#231f20;fill-rule:nonzero;"/><path d="M331.051,351.823c1.416,-0.788 3.15,-2.35 3.12,-4.871c0,-0.55 -0.079,-1.096 -0.204,-1.675c-0.183,-0.779 -0.837,-1.367 -1.616,-1.463c-0.234,-0.012 -0.346,-0.012 -0.346,-0.012c-1.513,-0 -3.188,0.212 -4.688,0.579c-1.533,0.404 -2.783,0.758 -3.891,1.754c-0.759,0.729 -0.78,1.925 -0.067,2.675c0.733,0.758 1.904,0.788 2.658,0.058c0,0 0.221,-0.154 0.617,-0.308c0.825,-0.358 2.233,-0.696 3.579,-0.846c-0.192,0.275 -0.587,0.517 -1.375,0.988c-1.242,0.704 -3.283,1.408 -4.775,3.4c-0.454,0.604 -0.492,1.446 -0.096,2.1c0.384,0.662 1.104,1.021 1.846,0.904c0.646,-0.079 1.225,-0.125 1.704,-0.125c1.492,-0 2.263,0.354 2.6,0.646c0.317,0.275 0.434,0.516 0.442,1.058c0.012,0.738 -0.45,1.933 -1.308,2.821c-0.846,0.896 -1.955,1.45 -3.005,1.442c-0.566,-0 -1.145,-0.155 -1.808,-0.538c-0.904,-0.529 -2.05,-0.233 -2.579,0.663c-0.529,0.887 -0.25,2.07 0.642,2.6c1.216,0.72 2.512,1.066 3.745,1.066c4.634,-0.162 7.942,-4.108 8.067,-8.054c0.029,-1.425 -0.558,-2.958 -1.817,-3.996c-0.433,-0.358 -0.916,-0.646 -1.445,-0.866" style="fill:#231f20;fill-rule:nonzero;"/><path d="M136.606,344.034c-0.905,-0.508 -2.042,-0.204 -2.55,0.692c-0.013,0.029 -0.013,0.029 -0.021,0.042c-0.009,0.037 -0.05,0.083 -0.059,0.125c-0.154,0.266 -0.287,0.537 -0.412,0.808c-0.646,1.3 -1.196,2.587 -1.85,3.542c-0.838,1.212 -1.588,1.85 -3.063,2.07c-1.016,0.113 -1.75,1.067 -1.625,2.109c0.134,1.037 1.05,1.771 2.088,1.654c1.042,-0.125 1.967,-0.45 2.754,-0.883c-0.008,0.333 -0.008,0.67 -0.008,0.987c-0,2.4 0.162,4.738 0.162,6.854c0,1.042 0.846,1.9 1.879,1.9c1.03,0 1.875,-0.858 1.875,-1.9c0,-2.3 -0.162,-4.629 -0.162,-6.854c-0.008,-2.887 0.271,-5.554 1.279,-7.758c0.125,-0.25 0.242,-0.471 0.358,-0.692c0.009,-0.029 0.038,-0.058 0.046,-0.096c0,-0.012 0.021,-0.021 0.021,-0.029c0.508,-0.904 0.183,-2.05 -0.712,-2.571" style="fill:#231f20;fill-rule:nonzero;"/><path d="M245.366,358.686c-0.454,-0.412 -1.1,-0.579 -1.704,-0.425c-2.079,0.513 -4.334,0.675 -6.654,0.675c-0.913,0 -1.825,-0.029 -2.763,-0.058c0.308,-0.75 0.904,-1.567 1.704,-2.504c1.088,-1.346 2.746,-2.788 2.842,-5.371c-0,-0.617 -0.117,-1.279 -0.396,-1.904c-0.925,-2.313 -3.196,-3.429 -5.071,-3.342c-2.841,0.058 -5.412,1.521 -7.125,2.783c-0.646,0.509 -0.916,1.388 -0.625,2.155c0.271,0.779 1.021,1.3 1.846,1.254c0.654,-0.029 1.342,-0.029 2.021,-0.029l0.771,-0c1.041,0.016 1.896,-0.821 1.908,-1.867c0,-0.108 0,-0.213 -0.012,-0.321c0.445,-0.125 0.858,-0.183 1.216,-0.183c0.921,0.1 1.154,0.125 1.625,1.071c0.075,0.175 0.088,0.27 0.088,0.383c0.104,0.358 -0.638,1.483 -1.909,2.9c-1.191,1.412 -2.829,3.271 -2.845,6.046c-0,0.346 0.016,0.7 0.083,1.046c0.146,0.887 0.887,1.533 1.754,1.579c1.588,0.079 3.233,0.166 4.888,0.166c1.775,0 3.562,-0.087 5.362,-0.366c0.571,0.375 1.321,0.404 1.917,0.058c0.087,0 0.183,-0.021 0.358,-0.058c0.15,-0.038 0.363,-0.079 0.758,-0.338c0.367,-0.204 0.867,-0.933 0.821,-1.616c-0.166,-1.388 -0.616,-1.388 -0.858,-1.734" style="fill:#231f20;fill-rule:nonzero;"/><path d="M187.529,34.956c0.288,-0.066 0.492,-0.087 0.684,-0.087c0.625,0.021 0.925,0.183 1.404,0.712c1.579,1.713 2.129,7.113 3.196,10.379c0.366,0.992 1.437,1.48 2.429,1.125c0.971,-0.366 1.462,-1.445 1.104,-2.425c-0.558,-1.5 -0.971,-4.65 -1.858,-7.479c-0.442,-1.446 -1.009,-2.841 -1.992,-4.037c-0.954,-1.184 -2.504,-2.096 -4.283,-2.075c-0.521,-0 -1.03,0.075 -1.521,0.191c-2.763,0.671 -5.159,2.742 -7.046,5.263c-0.058,0.05 -0.079,0.087 -0.108,0.137c-1.317,-5.525 -3.338,-11.025 -7.471,-14.891c-0.767,-0.696 -1.942,-0.638 -2.654,0.141c-0.705,0.771 -0.625,1.955 0.133,2.671c4.217,3.742 5.979,10.692 7.287,17.538c-0.287,1.021 -0.441,2.05 -0.441,3.079c-0.029,2.079 0.729,4.275 2.504,5.796c0.346,0.3 0.779,0.462 1.221,0.462c0.325,0 0.662,-0.096 0.954,-0.271c0.692,-0.412 1.058,-1.233 0.883,-2.029c-0.462,-2.071 -0.837,-4.362 -1.258,-6.771c0.421,-1.22 1.096,-2.47 1.942,-3.587c1.483,-2.05 3.504,-3.554 4.891,-3.842" style="fill:#231f20;fill-rule:nonzero;"/><path d="M260.681,221.508c0,0.105 0.009,0.242 0.009,0.367c0.066,0.683 0.491,1.3 1.108,1.588c2.3,1.041 4.158,1.529 5.754,1.541l0.071,0c1.279,0 2.483,-0.387 3.35,-1.212c0.904,-0.85 1.258,-2.025 1.25,-3.063c-0.075,-2.541 -1.8,-5.046 -4.496,-6.066c-0.037,-0.442 -0.191,-0.884 -0.537,-1.192c-0.204,-0.625 -0.417,-2.813 -0.396,-5.554c-0,-12.254 2.717,-37.525 2.725,-44.975c-0,-0.329 -0.008,-0.638 -0.008,-0.904c-0.667,-16.388 -4.825,-30.488 -20.005,-39.105c-0.541,-0.329 -1.233,-0.337 -1.791,-0.05c-0.867,0.455 -1.675,0.617 -2.646,0.617c-1.117,0.008 -2.496,-0.229 -3.988,-0.425c1.55,-1.346 2.909,-2.983 3.93,-4.858c2.462,-4.504 3.645,-10.188 3.666,-15.625c-0.05,-6.517 -1.646,-12.842 -5.833,-16.384c-0.904,-0.741 -1.838,-1.175 -2.754,-1.645c0.104,-2.917 1.821,-5.025 4.841,-6.259c0.955,-0.383 1.446,-1.491 1.071,-2.454c-0.379,-0.983 -1.462,-1.462 -2.437,-1.087c-3.725,1.425 -6.525,4.583 -7.054,8.662c-0.475,-0.075 -0.963,-0.279 -1.438,-0.279c-2.125,0.008 -4.071,0.704 -5.833,1.733c0.5,-2.071 1.416,-3.996 2.579,-5.354c0.675,-0.808 0.587,-2 -0.208,-2.675c-0.8,-0.683 -1.984,-0.587 -2.65,0.213c-2.367,2.82 -3.83,6.758 -3.917,10.82c-0,0.125 0.117,0.2 0.146,0.33c-0.475,0.516 -0.975,0.987 -1.409,1.537c-0.295,0.383 -0.545,0.817 -0.837,1.225c-1.558,-2.342 -3.033,-3.987 -2.933,-6.037c-0,-0.338 0.029,-0.675 0.104,-1.03c0.183,-1.029 -0.471,-2.025 -1.492,-2.245c-1.021,-0.192 -2.012,0.483 -2.204,1.504c-0.108,0.625 -0.175,1.212 -0.175,1.771c0.108,4.745 3.292,7.17 4.487,9.654c-1.204,2.329 -2.129,4.708 -2.608,6.866c-0.308,1.346 -0.462,2.771 -0.462,4.234c0.087,8.271 4.429,17.666 12.245,19.975l0.48,-1.838l-0.48,1.838c0.125,0.029 0.221,0.021 0.346,0.037c-1.475,0.954 -2.821,1.925 -4.15,2.542c-6.787,3.35 -13.621,5.921 -19.629,12.671c-15.392,17.421 -16.025,45.658 -16.075,66.933c0,0.463 0.213,0.846 0.471,1.183c-2.754,1.088 -4.454,3.338 -4.417,5.717c0,3.15 2.646,5.95 6.267,5.95c0.875,0 1.829,-0.154 2.771,-0.5c3.121,-1.379 4.141,-4.708 5.383,-8.125c1.117,-3.417 1.933,-7.133 2.55,-8.933c3.446,-10.534 5.304,-21.004 10.213,-29.509c0.05,-0.025 0.108,-0.054 0.137,-0.095c0,2.15 -0.012,4.287 -0.012,6.433c-0,39.892 1.462,79.496 1.762,118.925c0,0.3 0.2,0.529 0.317,0.779c-1.692,0.529 -3.396,1.225 -4.967,2.138c-2.771,1.645 -5.429,3.754 -5.575,7.154c0,2.3 1.521,4.283 3.988,5.754c1.366,0.846 2.858,1.183 4.32,1.183c3.167,-0.037 6.221,-1.479 8.609,-3.291c2.029,-1.646 3.675,-3.396 4.158,-5.63c0.354,0.471 0.808,0.817 1.404,0.817c0.096,0 0.213,-0.017 0.309,-0.029c0.308,-0.046 0.47,-0.279 0.704,-0.433c1.454,1.908 3.762,3.495 6.4,4.97c3.379,1.78 7.212,3.096 10.533,3.134c1.338,-0 2.617,-0.209 3.783,-0.875c2.03,-1.134 3.409,-2.829 3.409,-4.842c-0.196,-3.329 -2.879,-5.179 -5.642,-6.729c-1.8,-0.942 -3.717,-1.558 -5.604,-1.992c0.067,-0.375 0.133,-0.762 -0.029,-1.137c-0.404,-0.875 -0.646,-2.367 -0.634,-4.159c-0.012,-4.87 1.55,-11.629 2.471,-15.67c2.1,-9.317 2.879,-18.684 4.554,-28.08c0.721,-4.083 1.475,-8.087 2.196,-12.075c0.288,-0.17 0.579,-0.362 0.75,-0.662c0.221,-0.471 0.442,-0.942 0.454,-1.608c0.017,-0.5 -0.25,-1.03 -0.558,-1.442c1.625,-9.138 2.975,-18.271 3.05,-28.063c0.058,-7.104 0,-15.766 0.288,-23.787c0.387,3.233 0.754,6.517 1.195,9.829c1.067,7.642 2.617,15.229 6.634,21.054c-0.5,0.471 -0.713,1.175 -0.559,1.867c-0.629,1.087 -0.866,2.242 -0.8,3.262l0,1.175Zm-48.441,-64.65c-0.479,4.175 -0.913,9.942 -1.029,13.542c-6.009,9.579 -7.788,20.908 -11.359,31.558c-0.691,2.138 -1.504,5.725 -2.55,8.921c-0.925,3.238 -2.641,5.846 -3.071,5.759c-0.57,0.2 -1.07,0.279 -1.512,0.279c-1.675,-0.021 -2.483,-1.167 -2.513,-2.167c0.038,-0.787 0.367,-1.742 2.588,-2.462c0.983,-0.28 1.558,-1.33 1.279,-2.33c-0.075,-0.329 -0.354,-0.504 -0.575,-0.733c0.383,-0.337 0.646,-0.821 0.646,-1.375c-0.038,-21.192 1.008,-48.654 15.112,-64.412c0.942,-1.059 1.946,-1.888 2.938,-2.725c0.471,3.341 0.671,5.662 0.671,7.866c-0,2.346 -0.238,4.717 -0.625,8.279m55.45,62.117c0.521,0.6 0.8,1.379 0.787,1.754c-0.008,0.271 -0.058,0.271 -0.075,0.3c-0.021,0.017 -0.175,0.171 -0.85,0.171c-0.641,0 -1.671,-0.183 -3.108,-0.742l-0,-0.125c0.079,-0.933 -0.058,-0.925 0.262,-1.329c0.45,0.146 0.921,0.279 1.413,0.375c0.579,0.109 1.137,-0.054 1.571,-0.404m-46.267,-113.283c0,-1.196 0.117,-2.35 0.358,-3.409c0.684,-3.041 2.492,-7.066 4.93,-10.175c2.475,-3.137 5.475,-5.187 8.362,-5.158c1.638,0 3.4,0.575 5.392,2.204c2.762,2.184 4.496,7.559 4.45,13.438c0.016,4.879 -1.117,10.041 -3.188,13.775c-2.1,3.796 -4.854,5.979 -8.354,5.987c-0.762,0 -1.6,-0.112 -2.496,-0.366c-5.216,-1.221 -9.537,-9.317 -9.454,-16.296m6.096,165.641c-0,0.925 0.029,1.83 0.112,2.738c0.071,0.854 0.1,1.8 0.1,2.771c0.017,7.758 -2.062,17.5 -2.07,25.125c-0,0.654 0.087,1.25 0.104,1.875c-0.009,-0.017 -0.009,-0.054 -0.038,-0.075c-0.683,-0.792 -1.879,-0.859 -2.646,-0.175c-0.741,0.687 -0.85,1.791 -0.262,2.562c-0.054,0.442 -1.104,2.184 -2.875,3.438c-1.879,1.454 -4.392,2.541 -6.338,2.512c-0.912,0 -1.683,-0.183 -2.358,-0.616c-1.942,-1.221 -2.204,-2.05 -2.183,-2.521c-0.154,-0.704 1.221,-2.534 3.666,-3.871c2.359,-1.367 5.421,-2.371 7.45,-2.571c1.042,-0.104 1.784,-1.029 1.675,-2.079c-0.104,-1.038 -1.029,-1.8 -2.058,-1.683l0,-0.021c-0.154,0.037 -0.358,0.116 -0.529,0.146c-0.167,-20.688 -0.617,-41.396 -1.029,-62.15c0.037,0.037 0.046,0.058 0.066,0.066c1.655,1.042 3.609,1.367 5.525,1.388c1.8,-0.021 3.534,-0.359 5.13,-0.896c0.695,2.379 1.137,4.892 1.137,7.683c0.029,8.259 -2.55,17.838 -2.579,26.354m16.808,-20.05c-1.704,9.638 -2.475,18.938 -4.496,27.909c-0.925,4.079 -2.57,10.933 -2.579,16.516c0.009,1.742 0.221,3.371 0.713,4.863c-0.954,0.117 -1.688,0.904 -1.659,1.904c0.038,1.05 0.917,1.858 1.963,1.833l-0,-0.02l0.183,-0c1.734,-0.03 4.767,0.816 7.088,2.058c2.425,1.204 3.8,3.025 3.616,3.379c0,0.175 -0.016,0.667 -1.5,1.542c-0.366,0.212 -1.012,0.383 -1.933,0.375c-2.283,0.021 -5.825,-1.109 -8.779,-2.688c-2.958,-1.521 -5.413,-3.741 -5.683,-4.646c-0.296,-0.741 -1.03,-1.041 -1.78,-1.033c-0.008,-0.462 -0.087,-0.825 -0.087,-1.308c-0.008,-6.979 2.062,-16.779 2.079,-25.125c0,-1.029 -0.029,-2.079 -0.096,-3.079c-0.075,-0.792 -0.104,-1.6 -0.104,-2.43c-0.021,-7.775 2.558,-17.362 2.588,-26.354c-0,-2.012 -0.155,-3.996 -0.5,-5.941c2.495,1.837 5.65,2.562 8.675,2.562c1.412,0 2.82,-0.133 4.158,-0.404c-0.625,3.329 -1.25,6.658 -1.867,10.087m5.85,-43.195c-0.075,9.475 -1.383,18.408 -3.012,27.475c-0.317,0.412 -0.521,0.916 -0.421,1.483c-0,0.046 -0,0.096 0.017,0.146c-1.455,0.383 -3.1,0.633 -4.725,0.616c-3.717,0 -6.942,-1.204 -8.28,-3.737c-0.191,-0.383 -0.558,-0.596 -0.933,-0.758c-0.05,-0.13 -0.021,-0.271 -0.108,-0.396c-0.392,-0.484 -0.963,-0.625 -1.559,-0.6c-0.491,-0.904 -1.608,-1.242 -2.52,-0.746c-0.78,0.412 -1.03,1.325 -0.8,2.162c-1.221,0.396 -2.646,0.696 -4.005,0.667c-1.454,0.017 -2.762,-0.321 -3.504,-0.8c-0.75,-0.512 -1.058,-0.942 -1.125,-2.15c0,-0.171 0.029,-0.375 0.067,-0.596c0.096,-0.854 -0.454,-1.529 -1.175,-1.858c-0.133,-7.025 -0.258,-14.054 -0.358,-21.088c3.929,2.288 11.083,3.375 18.091,3.425c5.313,-0.029 10.279,-0.616 13.534,-2.6c0.587,-0.375 0.854,-1.029 0.816,-1.712l0,1.067Zm8.946,-14.459c-1.108,-8.104 -1.675,-16.575 -3.65,-23.775c0.058,-0.337 0.096,-0.725 0.163,-1.05c0.145,-0.808 -0.317,-1.454 -0.963,-1.85l0,-0.016c-0.271,-0.763 -0.962,-1.08 -1.712,-1.117c-0.021,-0.588 -0.105,-1.129 -0.105,-1.775c-0.02,-8.179 2.984,-20.004 5.363,-25.546c0.325,-0.762 0.112,-1.637 -0.492,-2.167c-0.071,-0.066 -0.358,-0.337 -0.587,-0.587c-0.138,-0.117 -0.242,-0.242 -0.375,-0.346c-0.059,-0.067 -0.109,-0.125 -0.213,-0.183c-0.05,-0.046 -0.096,-0.088 -0.221,-0.167c-0.154,-0.037 -0.195,-0.217 -0.991,-0.287c-0.292,-0 -0.838,0.116 -1.242,0.491c-0.721,0.721 -0.6,1.279 -0.637,1.438c0.058,0.708 0.183,0.746 0.233,0.9c0.154,0.291 0.212,0.329 0.325,0.496c0.079,0.083 0.146,0.17 0.212,0.245c-2.462,6.425 -5.091,17.292 -5.129,25.713c0,2.929 0.317,5.575 1.213,7.762c0.183,0.459 0.546,0.75 0.95,0.934c-1.175,10.241 -1.029,23.546 -1.088,33.979c-0.162,-0.758 -0.75,-1.338 -1.5,-1.471c-0.366,-0.05 -0.683,-0.079 -1.021,-0.079c-1.82,0.042 -2.812,0.667 -3.754,0.808c-0.625,0.146 -1.108,0.542 -1.346,1.071c-2.004,0.338 -4.333,0.521 -6.729,0.5c-6.729,0.058 -14.279,-1.404 -16.512,-3.021c-0.509,-0.337 -1.075,-0.337 -1.609,-0.166c-0.095,-8.134 -0.179,-16.259 -0.179,-24.392c0,-2.379 0,-4.754 0.009,-7.133c-0,-1.05 -0.83,-1.896 -1.88,-1.896c-0.133,-0 -0.229,0.112 -0.383,0.154c0.346,-0.483 0.638,-1.013 1.013,-1.475c0.625,-0.817 0.479,-2.021 -0.338,-2.667c-0.233,-0.183 -0.521,-0.154 -0.792,-0.221c0.192,-3.108 0.492,-6.691 0.8,-9.441c0.396,-3.592 0.663,-6.104 0.663,-8.713c-0,-2.666 -0.279,-5.354 -0.817,-9.291c-0.066,-0.384 -0.329,-0.663 -0.558,-0.942c2.029,-1.396 4.196,-2.629 6.458,-3.754c-0.154,0.45 -0.154,0.933 0.05,1.383c2.213,4.996 6.834,7.038 11.254,7.038l0.221,-0c4.004,-0.009 8.059,-1.384 11.234,-3.35c3.108,-2.021 5.65,-4.484 5.775,-7.825c-0,-1.067 -0.338,-2.159 -1.038,-3.05c-0.608,-0.83 -1.792,-0.984 -2.608,-0.367c-0.838,0.633 -0.984,1.837 -0.367,2.675c0.2,0.271 0.258,0.462 0.258,0.742c0.125,0.837 -1.308,3.004 -3.983,4.591c-2.6,1.625 -6.133,2.8 -9.271,2.792c-3.6,-0.058 -6.412,-1.263 -8.058,-4.821c-0.221,-0.492 -0.617,-0.821 -1.071,-0.996c1.188,-0.566 2.392,-1.125 3.65,-1.75c3.6,-1.837 6.192,-4.329 9.263,-4.891c0.5,-0.105 1,-0.155 1.508,-0.155c1.908,-0.016 4.037,0.646 6.55,0.667c1.067,0.017 2.221,-0.133 3.396,-0.579c13.054,7.904 16.529,19.804 17.271,35.496c0.016,0.191 0.016,0.45 0.016,0.75c0.013,6.937 -2.712,32.371 -2.712,44.975c-0,0.471 0.021,0.875 0.021,1.3c-2.005,-4.459 -3.159,-9.85 -3.938,-15.588" style="fill:#231f20;fill-rule:nonzero;"/><path d="M153.21,169.824c0.529,-0 1.029,-0.213 1.417,-0.617c1.046,-1.221 1.346,-2.408 1.358,-3.292c0,-0.183 -0.012,-0.354 -0.087,-0.625c-0.021,-0.095 -0.05,-0.22 -0.125,-0.375c-0.213,-0.779 -0.896,-1.366 -1.734,-1.387c-1.041,-0.038 -1.908,0.771 -1.954,1.808c-0.037,0.821 -0.137,1.1 -0.396,1.492c-0.579,0.837 -0.412,1.954 0.367,2.583c0.346,0.279 0.758,0.413 1.154,0.413" style="fill:#231f20;fill-rule:nonzero;"/><path d="M240.581,112.662c0.596,-0.858 0.404,-2.033 -0.433,-2.646c-0.859,-0.616 -2.013,-0.416 -2.63,0.442c-0.92,1.354 -2.85,2.012 -5.129,2.012c-1.733,0 -3.591,-0.416 -4.725,-0.916c-0.966,-0.404 -2.054,0.058 -2.466,1.012c-0.413,0.963 0.05,2.079 1,2.484c1.675,0.72 3.891,1.212 6.191,1.22c2.888,0 6.171,-0.816 8.192,-3.608" style="fill:#231f20;fill-rule:nonzero;"/><path d="M151.487,51.543c0.263,0.82 1,1.345 1.8,1.345c0.184,0 0.367,-0.016 0.55,-0.083c1.838,-0.579 3.629,-1.3 5.392,-2.033c0.567,2.887 0.979,5.516 0.971,6.237c-0,0.05 -0,0.05 -0.021,0.071c-0.125,1.038 0.6,1.992 1.637,2.104c0.08,0.029 0.163,0.029 0.234,0.029c0.933,0 1.741,-0.691 1.866,-1.662c0.009,-0.117 0.03,-0.308 0.03,-0.542c-0.03,-1.366 -0.53,-4.454 -1.167,-7.65c1.808,-0.696 3.533,-1.3 5.187,-1.55c1.021,-0.154 1.717,-1.129 1.58,-2.166c-0.171,-1.034 -1.134,-1.742 -2.146,-1.588c-1.859,0.304 -3.659,0.904 -5.421,1.546c-0.421,-1.896 -0.875,-3.608 -1.25,-4.742c-0.608,-1.804 -1.763,-3.575 -2.742,-5.191c-0.483,-0.796 -0.916,-1.538 -1.216,-2.138c-0.142,-0.279 -0.25,-0.529 -0.305,-0.7c-0.029,-0.067 -0.041,-0.137 -0.041,-0.175c-0,-0.479 -0.192,-0.971 -0.546,-1.346c-0.754,-0.725 -1.938,-0.725 -2.667,0l-0.012,0.029c-0.334,0.334 -0.538,0.838 -0.538,1.338c0.125,1.962 1.154,3.262 2.129,4.975c1,1.617 2.05,3.35 2.405,4.408c0.345,0.992 0.791,2.85 1.254,4.929c-1.959,0.821 -3.871,1.638 -5.709,2.188c-0.983,0.308 -1.554,1.354 -1.254,2.367" style="fill:#231f20;fill-rule:nonzero;"/><path d="M149.11,186.487l0.029,0c2.946,0 5.833,-1.762 8.104,-5.121c0.596,-0.858 0.367,-2.05 -0.492,-2.629c-0.854,-0.587 -2.02,-0.375 -2.595,0.483c-1.9,2.721 -3.592,3.455 -5.046,3.484c-2.629,0.116 -6.009,-3.167 -7.221,-7.325c-0.296,-1.013 -1.338,-1.588 -2.321,-1.279c-1.008,0.316 -1.558,1.375 -1.258,2.366c1.608,5.167 5.516,9.896 10.8,10.021" style="fill:#231f20;fill-rule:nonzero;"/><path d="M97.608,72.278c0.425,0 0.917,0.038 1.471,0.175c1.021,0.221 2.012,-0.433 2.237,-1.454c0.209,-1.021 -0.416,-2.033 -1.429,-2.254c-0.808,-0.183 -1.566,-0.258 -2.279,-0.258c-2.417,-0.059 -4.504,1.146 -5.562,2.925c-0.434,0.691 -0.734,1.433 -0.946,2.212c-0.346,-0.575 -0.692,-1.141 -1.067,-1.654c-0.05,-0.133 -0.096,-0.271 -0.175,-0.412c-0.558,-0.85 -0.858,-0.88 -1.125,-1.13c-0.067,-0.037 -0.104,-0.066 -0.125,-0.095c-0.154,-0.125 -0.287,-0.238 -0.442,-0.355c-0.733,-0.6 -1.775,-0.541 -2.445,0.117c-0.684,0.663 -0.78,1.7 -0.221,2.471c0.346,0.425 0.566,0.608 0.75,0.754c1.087,1.096 2.454,3.567 3.491,6.254c0.963,2.329 1.771,4.825 2.43,6.854c0.162,0.53 0.333,1.03 0.5,1.521c0.016,0.05 0.037,0.079 0.045,0.125c0,0.009 0,0.029 0.013,0.042c0.279,0.767 0.979,1.258 1.75,1.258c0.212,0 0.425,-0.037 0.625,-0.116c0.962,-0.325 1.492,-1.405 1.167,-2.388c-0.009,-0.008 -0.009,-0.025 -0.009,-0.037c-0.021,-0.038 -0.021,-0.075 -0.041,-0.125c-0.163,-0.455 -0.317,-0.971 -0.509,-1.53c-0.721,-2.445 -1.308,-5.391 -1.308,-7.825c-0,-1.716 0.317,-3.15 0.817,-3.908c0.529,-0.754 0.97,-1.121 2.387,-1.167" style="fill:#231f20;fill-rule:nonzero;"/><path d="M121.433,55.325c-0.741,-0.721 -1.925,-0.713 -2.637,0.05c-0.733,0.741 -0.721,1.945 0.021,2.675l-0,-0.009c2.021,1.942 4.408,3.242 6.121,5.475c2.012,2.371 2.254,6.675 5.862,10.15c0.354,0.325 0.8,0.5 1.263,0.5c0.266,0 0.529,-0.058 0.779,-0.175c0.683,-0.325 1.116,-1.021 1.104,-1.783c-0.008,-0.238 -0.008,-0.471 -0.008,-0.708c-0,-1.8 0.116,-3.842 0.116,-5.892c0,-0.579 -0.008,-1.146 -0.029,-1.717c1.917,1.734 3.821,4.017 6.317,5.809c0.729,0.516 1.721,0.433 2.366,-0.184c1.821,-1.975 2.013,-4.662 2.088,-7.579c-0.046,-4.467 -0.942,-9.287 -2.396,-11.908c-0.529,-0.892 -1.696,-1.213 -2.571,-0.671c-0.896,0.537 -1.191,1.704 -0.662,2.596c0.816,1.312 1.916,6.191 1.866,9.983c0.05,1.242 -0.095,2.388 -0.3,3.246c-2.375,-2.204 -4.745,-5.333 -8.529,-6.988c-0.683,-0.279 -1.462,-0.154 -1.991,0.355c-0.55,0.512 -0.742,1.291 -0.509,1.983c0.45,1.367 0.617,3.137 0.604,5.062c-0.604,-1.404 -1.308,-2.925 -2.425,-4.416c-2.291,-2.909 -5.062,-4.438 -6.45,-5.854" style="fill:#231f20;fill-rule:nonzero;"/><path d="M108.919,62.749c-1.271,1.146 -2.041,2.654 -2.504,4.35c-0.287,0.55 -0.508,1.175 -0.633,1.837c-0.088,0.425 -0.021,0.867 0.141,1.225c-0.016,0.413 -0.037,0.817 -0.037,1.221c-0,2.542 0.483,5.133 1.608,7.296c1.067,2.112 3.1,3.987 5.834,3.987l0.05,0c1.229,0 2.491,-0.354 3.762,-1.041c3.35,-2 4.533,-6.267 4.638,-9.884c-0,-1.07 -0.125,-2.091 -0.459,-3.062c-1.254,-3.35 -4.487,-5.113 -7.625,-5.333c-0.096,-0.067 -0.191,-0.117 -0.308,-0.163l-0,-0.012c-0.904,-0.405 -1.675,-0.355 -1.917,-0.375l-0.104,-0l0,-0.009c-0.696,-0.604 -1.742,-0.637 -2.446,-0.037m4.121,4.371c2.088,-0.021 4.246,1.22 4.733,2.837c0.138,0.396 0.263,1.042 0.263,1.783c0.087,2.596 -1.463,6.113 -2.638,6.538c-0.85,0.458 -1.533,0.583 -2.02,0.583c-1.021,0 -1.784,-0.537 -2.584,-1.962c-0.721,-1.388 -1.171,-3.484 -1.154,-5.517c-0.029,-1 0.108,-2 0.308,-2.875c0.609,-0.946 1.667,-1.342 3.092,-1.387" style="fill:#231f20;fill-rule:nonzero;"/><path d="M171.887,251.225c0.529,1.417 1.212,5.4 1.896,8.888c0.345,1.741 0.72,3.404 1.145,4.733c0.221,0.654 0.442,1.262 0.8,1.829c0.309,0.471 0.825,1.346 2.221,1.404c0.559,0 0.975,-0.2 1.242,-0.354c0.242,-0.162 0.337,-0.442 0.483,-0.654c0.2,-0.125 0.425,-0.242 0.579,-0.375c0.817,-0.654 0.942,-1.85 0.296,-2.667c-0.404,-0.512 -1,-0.741 -1.596,-0.712c-0.183,-0.684 -0.395,-1.809 -0.491,-3.042c-0.167,-1.85 -0.213,-4.054 -0.213,-5.958c0,-1.717 0.046,-3.217 0.067,-4.084c0.029,-0.954 0.037,-1.895 0.037,-2.829c0,-7.604 -1.075,-14.325 -1.72,-21.987c-1.088,-14.134 -7.163,-25.817 -20.892,-29.996c8.917,-5.163 13.554,-15.7 13.575,-25.904c0.021,-5.517 -1.404,-11.034 -4.321,-15.588c3.05,-2.05 7.208,-3.646 10.846,-6.237c0.85,-0.617 1.042,-1.792 0.446,-2.646c-0.609,-0.85 -1.784,-1.05 -2.629,-0.425c-3.05,2.242 -7.288,3.783 -10.938,6.333c-1.375,-1.529 -3.033,-2.837 -4.871,-3.946c1.217,-2.3 4.179,-4.533 6.325,-7.683c0.579,-0.883 0.35,-2.058 -0.508,-2.637c-0.858,-0.575 -2.021,-0.334 -2.592,0.541c-1.491,2.396 -4.725,4.629 -6.583,8.163c-0.579,-0.234 -1.117,-0.521 -1.725,-0.713c-1.471,-0.425 -2.896,-0.637 -4.263,-0.637c-0.733,-0 -1.345,0.241 -2.012,0.35c-0.538,-1.704 -1.021,-3.296 -1,-4.567c0.029,-1.133 0.258,-1.912 1.137,-2.837c0.73,-0.75 0.73,-1.946 0,-2.696c-0.741,-0.734 -1.929,-0.713 -2.658,0.021c-1.617,1.616 -2.242,3.675 -2.217,5.512c0.013,2.071 0.6,3.958 1.146,5.663c-3.387,1.645 -6.091,4.533 -8.058,7.912c-2.992,5.133 -4.725,11.313 -5.475,16.308c-0.146,1 -0.213,2.05 -0.213,3.13c0,5.312 1.675,11.35 4.746,16.258c1.379,2.204 3.121,4.142 5.134,5.679c-10.371,2.513 -18.917,10.154 -24.58,19.283c-5.562,9.059 -13.237,24.163 -15.245,35.117c-0.684,3.813 -3.517,16.713 -3.555,20.571c0.088,0.454 -0.075,0.75 0.309,1.492c0.037,0.066 0.075,0.116 0.104,0.166c0.087,0.142 0.146,0.238 0.242,0.375c0.116,0.113 0.262,0.096 0.404,0.171c0.133,0.096 0.191,0.263 0.346,0.321c0.212,0.067 0.404,0.083 0.587,0.083c0.454,0 0.858,-0.2 1.204,-0.491c0.021,-0.017 0.088,-0.009 0.117,-0.038c0.125,-0.133 0.154,-0.296 0.242,-0.462c0.066,-0.096 0.183,-0.171 0.229,-0.296c1.512,-4.679 5.304,-13.517 9.858,-21.4c3.263,-5.738 7.142,-10.917 10.492,-13.775c-0.942,9.058 -2.071,18.162 -2.529,27.462c-0.396,7.588 -2.071,16.692 -2.092,25.484c-0,4.408 0.425,8.758 1.725,12.829l0.25,0.529c0.046,0.05 0.075,0.1 0.125,0.137c-2.058,0.375 -3.946,1.413 -5.458,2.792c-1.838,1.713 -3.217,3.954 -3.255,6.517c-0.079,2.579 1.792,5.062 4.88,6.133c0.829,0.304 1.666,0.442 2.504,0.442c3.129,-0.029 6.091,-1.684 8.441,-3.813c2.321,-2.175 4.15,-4.841 4.209,-7.837c0.075,-2.05 -1.263,-4.025 -3.388,-5.063c3.954,-8.154 7.929,-17.471 11.55,-25.75c0.942,3.792 1.859,8.259 2.917,12.542c1.204,4.737 2.512,9.183 4.417,12.583c-0.48,0.038 -1.009,0.163 -1.521,0.492c-2,1.162 -3.109,3.196 -3.071,5.15c0.021,2.404 1.283,4.454 2.725,6.121c1.454,1.687 3.137,2.983 4.783,3.641c1.6,0.584 3.046,0.875 4.371,0.875l0.079,0c2.021,0 3.821,-0.779 4.959,-2.108c1.145,-1.321 1.625,-3.025 1.625,-4.7c-0.009,-1.354 -0.375,-2.771 -0.98,-4.092c0.096,-0.112 0.221,-0.237 0.267,-0.295c0.375,-0.742 0.233,-0.659 0.292,-0.85c0.208,-1.325 0.612,-8.134 1.008,-9.921c1.608,-7.542 3.792,-13.95 4.15,-22.2c0.079,-2.004 0.117,-4.092 0.117,-6.221c-0,-7.892 -0.446,-16.413 -0.446,-23.883c-0,-2.359 0.071,-4.555 0.183,-6.642c4.046,3.696 7.221,9.271 9.263,14.979m-34.809,-64.158c-2.658,-4.217 -4.187,-9.734 -4.179,-14.229c0,-0.896 0.05,-1.784 0.192,-2.571c0.675,-4.584 2.321,-10.417 4.987,-14.929c1.838,-3.142 4.071,-5.43 6.663,-6.596c0.2,0.05 0.354,0.183 0.558,0.183c0.163,0 0.338,-0.008 0.479,-0.067c0.425,-0.116 0.713,-0.408 0.946,-0.712c0.575,-0.138 1.134,-0.321 1.742,-0.321l0.037,0c0.984,0 2.042,0.154 3.188,0.5c3.462,1.021 6.208,2.892 8.362,5.279c-0.162,0.596 -0.112,1.242 0.338,1.734c0.387,0.391 0.879,0.583 1.379,0.583c0,-0 0.008,-0.008 0.017,-0.008c2.504,3.85 3.754,8.616 3.775,13.604c0.008,9.45 -4.525,19.116 -12.446,23.104l-0,0.008c-1.821,0.904 -3.467,1.309 -4.988,1.388c-0.654,-0.05 -1.337,-0.175 -1.995,-0.175l-0.092,-0c-3.546,-0.579 -6.625,-3.063 -8.963,-6.775m-15.212,124.516c-1.829,1.713 -4.263,2.871 -5.929,2.838c-0.45,-0 -0.846,-0.075 -1.192,-0.2c-2.167,-0.888 -2.379,-1.658 -2.437,-2.579c-0.038,-0.984 0.72,-2.534 2.041,-3.717c1.271,-1.204 2.975,-1.962 4.304,-1.962l0.055,-0c0.291,-0 0.512,0.125 0.77,0.17c0.042,0.117 0.042,0.242 0.109,0.317c0.354,0.542 0.95,0.85 1.575,0.85l0.146,0c1.358,0 2.658,-1 3.054,-1.867c0.354,0.317 0.421,0.663 0.479,1.134c0.058,1.146 -1.096,3.362 -2.975,5.016m29.504,1.792c-0.767,0 -1.787,-0.196 -3.058,-0.667c-0.742,-0.258 -2.204,-1.287 -3.292,-2.55c-1.117,-1.27 -1.812,-2.754 -1.792,-3.637c0.059,-0.696 0.171,-1.154 1.271,-1.908c0.279,-0.038 1.417,0.358 2.684,0.916c1.3,0.529 2.804,1.184 4.595,1.192c0.363,-0 0.75,-0.021 1.134,-0.104c0.875,1.096 1.35,2.462 1.358,3.733c-0.162,1.946 -0.637,2.9 -2.9,3.025m9.563,-83.096c-0.909,-0.512 -2.055,-0.166 -2.563,0.75c-0.471,0.875 -0.146,1.946 0.663,2.463l-0,0.021l-0.017,-0c-0.25,2.866 -0.338,6.045 -0.338,9.375c0,7.616 0.455,16.125 0.455,23.883c-0,2.1 -0.042,4.121 -0.117,6.058c-0.308,7.621 -2.396,13.754 -4.071,21.571c-0.292,1.388 -0.483,3.871 -0.683,6.15c-0.05,0.742 -0.117,1.417 -0.154,2.033c-1.467,-1.079 -3.284,-1.762 -5.43,-1.791c-0.07,-0 -0.137,0.029 -0.195,0.029c-0,-0.021 -0,-0.038 -0.017,-0.046c-2.013,-2.387 -3.767,-7.675 -5.163,-13.404c-1.412,-5.733 -2.579,-11.933 -4.012,-16.583c-0.3,-1.013 -1.346,-1.571 -2.35,-1.255c-0.038,0.013 -0.038,0.059 -0.088,0.071c-0.779,-0.108 -1.575,0.192 -1.925,0.963l-0.016,-0c-4.246,9.575 -9.088,21.129 -13.788,30.629c-0.016,-0.125 -0.029,-0.288 -0.046,-0.367c0.192,-0.516 0.134,-1.116 -0.183,-1.616c-0.242,-0.396 -0.608,-0.663 -1.012,-0.788c-0.7,-2.987 -0.963,-6.212 -0.963,-9.587c-0.017,-8.3 1.667,-17.309 2.071,-25.3c0.5,-9.888 1.808,-19.717 2.783,-29.659c0.009,-0.146 -0.108,-0.241 -0.116,-0.396c0.72,-0.433 1.162,-1.241 0.904,-2.087c-0.3,-1.013 -1.359,-1.571 -2.338,-1.254c-6.037,2.012 -11.362,9.462 -16.154,17.616c-1.617,2.775 -3.062,5.596 -4.4,8.359c0.521,-2.65 0.992,-5.009 1.242,-6.259c1.762,-9.954 9.329,-25.075 14.737,-33.791c6.434,-10.417 16.625,-18.442 28.417,-18.442c0.521,0.058 0.967,0.25 1.504,0.25c0.171,0 0.354,-0.067 0.538,-0.067c0.983,0.067 1.925,0.075 2.916,0.259c14.854,2.804 20.475,12.95 21.863,27.679c0.675,7.842 1.733,14.437 1.733,21.658c0,0.2 -0.008,0.404 -0.008,0.617c-2.85,-7.096 -7.2,-14.113 -13.679,-17.742" style="fill:#231f20;fill-rule:nonzero;"/><path d="M140.137,250.753c-0.471,-0.191 -0.875,-0.395 -1.675,-0.425c-0.287,0.013 -0.712,0.013 -1.271,0.388c-0.566,0.346 -0.933,1.204 -0.895,1.721c0.012,0.25 0.041,0.462 0.079,0.637c-0.175,0.384 -0.146,0.529 -0.242,0.809c-0.087,0.325 -0.183,0.637 -0.258,0.808c-0.3,0.721 -0.125,1.558 0.433,2.096c0.346,0.341 0.825,0.533 1.3,0.533c0.258,0 0.529,-0.058 0.767,-0.162c1.05,-0.571 1.366,-0.359 2.358,-1.409c0.658,-1.087 0.388,-0.991 0.917,-2c0.316,-0.658 0.271,-1.425 -0.175,-1.983c-0.625,-0.725 -0.867,-0.725 -1.338,-1.013" style="fill:#231f20;fill-rule:nonzero;"/><path d="M139.753,166.762c0.229,0.183 0.508,0.329 0.808,0.358c0.646,0.125 1.137,0.171 1.6,0.171c0.45,-0 0.875,-0.008 1.45,-0.338c0.646,-0.266 1.204,-1.258 1.129,-1.883c-0.029,-0.504 -0.125,-0.783 -0.204,-0.954l-0.008,-0.05c-0.234,-0.904 -1.067,-1.492 -1.984,-1.425c-0.396,-0.646 -1.166,-1.008 -1.933,-0.838c-0.358,0.067 -0.654,0.234 -0.908,0.455c-0.113,0.045 -0.25,0.125 -0.442,0.241c-0.346,0.171 -1.029,0.884 -1.021,1.859c0.175,1.508 0.867,1.808 1.513,2.404m-0.625,-2.725l-0.013,-0l0.013,-0Z" style="fill:#231f20;fill-rule:nonzero;"/><path d="M227.287,105.49l0.096,-0c0.425,-0 0.816,-0.03 1.25,-0.05c0.716,-0.046 1.329,-0.48 1.608,-1.117c0.221,-0.5 0.3,-1.008 0.3,-1.471c-0.008,-1.071 -0.446,-1.829 -0.771,-2.35c-0.162,-0.229 -0.337,-0.433 -0.433,-0.558c-0.038,-0.017 -0.05,-0.046 -0.075,-0.067c-0.175,-0.229 -0.475,-0.5 -0.867,-0.637c-0.637,-0.209 -1.196,-0.025 -1.446,0.1c-0.537,0.279 -0.912,0.779 -1.008,1.354c-0.088,0.058 -0.183,0.1 -0.271,0.166c-0.675,0.325 -1.483,1.434 -1.433,2.571c-0,0 -0.013,0.134 0.037,0.392c0.134,0.858 0.825,1.504 1.667,1.587c0.471,0.042 0.921,0.08 1.346,0.08" style="fill:#231f20;fill-rule:nonzero;"/><path d="M347.512,86.477c2.792,-0.008 5.45,-1.212 7.584,-3.137c0.77,-0.692 0.85,-1.888 0.145,-2.667c-0.691,-0.779 -1.866,-0.846 -2.658,-0.154c-1.546,1.416 -3.379,2.166 -5.071,2.166c-1.279,-0.012 -2.541,-0.404 -3.775,-1.366c-0.808,-0.654 -2,-0.521 -2.629,0.316c-0.642,0.83 -0.487,2.013 0.321,2.667c1.837,1.471 3.975,2.175 6.062,2.175l0.021,0Z" style="fill:#231f20;fill-rule:nonzero;"/><path d="M354.549,76.303l0.021,-0c0.391,-0 0.787,-0.08 1.212,-0.309c0.325,-0.191 0.846,-0.566 1,-1.366c0.484,-0.413 0.75,-1.067 0.654,-1.755c-0.125,-0.708 -0.625,-1.27 -1.258,-1.491c-0.042,-0.029 -0.1,-0.046 -0.158,-0.096c-0.238,-0.125 -0.663,-0.325 -1.259,-0.325c-0.712,-0.029 -1.462,0.392 -1.866,0.854c-0.417,0.492 -0.654,0.992 -0.888,1.629c-0.3,0.771 -0.029,1.684 0.625,2.175c0.588,0.434 1.263,0.684 1.917,0.684" style="fill:#231f20;fill-rule:nonzero;"/><path d="M342.015,76.87c0.221,0 0.433,-0.037 0.646,-0.117c1,-0.383 1.442,-0.52 2.058,-0.904c0.579,-0.404 0.734,-0.616 1.534,-1.262c0.47,-0.384 0.72,-0.971 0.683,-1.596c-0.029,-0.492 -0.117,-1.013 -0.5,-1.608c-0.379,-0.596 -1.246,-1.013 -1.858,-0.963c-1.146,0.058 -1.571,0.521 -1.996,0.838c-0.184,0.175 -0.346,0.345 -0.509,0.55c-0.116,0.258 -0.308,0.191 -0.462,1.037c-0.317,0.233 -0.654,0.483 -1.038,0.904c-0.55,0.654 -0.587,1.609 -0.087,2.321c0.354,0.5 0.921,0.8 1.529,0.8" style="fill:#231f20;fill-rule:nonzero;"/><path d="M234.776,105.5c0.066,-0 0.108,0.008 0.125,0.008c0.05,-0 0.066,-0.008 0.087,-0.008c0.675,0.029 1.454,-0.221 1.992,-0.725c0.666,-0.655 0.821,-1.288 0.904,-1.625c0.367,-0.45 0.542,-1.059 0.396,-1.655c0.104,-0.445 0.058,-0.925 -0.175,-1.366c-0.459,-0.809 -1.396,-1.167 -2.242,-0.879c-0.125,-0.017 -0.375,-0.046 -0.771,-0.075c-0.375,-0.009 -1.175,0.087 -1.771,0.75c-0.595,0.654 -0.645,1.35 -0.645,1.866c-0,0.675 0.125,1.359 0.387,2.313c0.213,0.787 0.896,1.358 1.713,1.396m0.791,-6.121l-0.021,-0l0.021,-0Z" style="fill:#231f20;fill-rule:nonzero;"/><path d="M376.391,195.516c2.696,-7.487 2.417,-18.271 3.542,-25.521c1.571,-10.375 2.525,-21.445 2.638,-32.008l-0,-1.05c-0,-7.45 -0.817,-19.162 -4.013,-29.233c-1.617,-5.046 -3.821,-9.696 -6.979,-13.209c-3.05,-3.437 -7.192,-5.708 -12.179,-5.766c2.091,-2.271 3.783,-5.042 5.15,-7.942c2.733,-5.842 4.129,-12.321 4.179,-17.117c-0,-0.345 -0.088,-0.67 -0.258,-0.991c2.82,-1.692 4.945,-4.117 5.283,-7.554c0.067,-0.838 -0.383,-1.617 -1.167,-1.946c-3.396,-1.367 -7.604,-1.338 -9.558,-1.954c-0.383,-0.105 -0.75,0.008 -1.075,0.116c-0.079,-0.625 -0.254,-0.821 -0.338,-0.975c-0.291,-0.383 -0.395,-0.429 -0.579,-0.566c-0.087,-0.075 -0.183,-0.155 -0.279,-0.192c0.779,-2.004 1.213,-4.217 1.213,-6.458c-0,-1.159 -0.117,-2.33 -0.355,-3.488c-0.145,-0.654 -0.587,-1.162 -1.195,-1.383c-2.713,-0.954 -8.53,-1.859 -13.725,-1.888c-3.217,0.075 -6.038,0.213 -8.138,1.8c-2.596,2.213 -3.337,5.921 -3.396,9.579c0.075,3.984 0.925,8.03 3.696,10.3c0.346,0.25 0.729,0.367 1.125,0.367c0.571,0 1.129,-0.25 1.504,-0.762c0.625,-0.83 0.463,-2.021 -0.375,-2.667c-1.062,-0.617 -2.254,-3.946 -2.187,-7.238c-0.059,-3.041 0.933,-5.92 1.983,-6.625c0.346,-0.441 2.908,-1.02 5.788,-0.962c4.012,-0.008 8.92,0.704 11.433,1.358c0.067,0.517 0.108,1.067 0.108,1.609c0,2.279 -0.616,4.591 -1.6,6.4c-0.383,0.683 -0.287,1.57 0.234,2.158c0.575,0.596 0.933,0.729 1.412,1.017c0.233,0.145 0.454,0.27 0.675,0.358c0.317,0.096 0.183,0.212 1.117,0.3c0.175,-0 0.425,-0.05 0.704,-0.167c0.087,0.763 0.442,1.425 1.212,1.646c2.309,0.646 5.35,0.783 7.692,1.35c-0.792,1.904 -2.792,3.417 -6.008,4.583c-3.909,1.405 -9.192,2 -14.275,1.984c-3.871,-0 -7.625,-0.338 -10.579,-0.842c-1.617,-0.237 -2.996,-0.617 -3.988,-0.95c0.029,-0.917 -0.529,-1.762 -1.454,-1.933c-0.067,-0 -0.133,-0.013 -0.192,-0.042c0.609,-0.242 1.292,-0.442 2.034,-0.617c1,-0.25 1.633,-1.258 1.395,-2.291c-0.233,-1.021 -1.262,-1.646 -2.262,-1.404c-2.621,0.625 -5.208,1.704 -7.038,4.012c-0.47,0.6 -0.529,1.454 -0.166,2.121c0.387,0.671 1.137,1.05 1.9,0.954l0.029,0c0.404,-0.033 0.796,0.096 1.287,0.267c0.067,0.441 0.25,0.896 0.617,1.196c0.029,0.016 0.038,0.016 0.038,0.016c-0.325,0.292 -0.655,0.6 -0.809,0.934c-0.183,0.308 -0.296,0.645 -0.229,0.887c0.038,0.858 0.383,1.146 0.508,1.3c0.53,0.492 0.484,0.346 0.58,0.442c0.058,0.029 0.075,0.037 0.125,0.05c0.395,4.65 1.154,10.587 3.02,15.787c1.205,3.396 3.071,6.613 5.709,8.796c-8.229,0.446 -15.9,6.258 -21.829,13.613c-6.134,7.67 -10.467,17.07 -11.18,24.837c-0.258,2.713 -0.354,5.517 -0.354,8.308c0,7.163 0.646,14.438 1.259,21.063c0.379,3.908 0.425,10.783 0.879,17.287c0.421,4.996 0.904,9.688 2.271,13.142c-3.467,0.733 -6.605,3.579 -7.5,7.413c-0.125,0.675 -0.213,1.337 -0.2,1.991c0.008,4.688 3.395,7.817 6.841,7.838l0.038,-0c1.262,-0 2.591,-0.484 3.504,-1.521c0.975,-1.05 1.417,-2.525 1.417,-4.171c-0,-0.442 -0.021,-0.912 -0.088,-1.383c-0.133,-1.05 -1.075,-1.784 -2.108,-1.638c-1.029,0.125 -1.742,1.079 -1.617,2.117c0.05,0.321 0.067,0.625 0.067,0.904c-0.171,1.925 -0.509,1.763 -1.213,1.917c-1.104,-0.009 -3.087,-1.309 -3.087,-4.063c-0,-0.375 0.029,-0.787 0.112,-1.25c0.292,-2.262 3.542,-4.816 5.134,-4.65c0.808,0.154 1.212,-0.021 1.579,2.379l-0,0.075c0.112,1.038 1.008,1.792 2.05,1.696c1.008,-0.096 1.771,-1.004 1.691,-2.033l0,-0.154c-0.008,-5.504 -0.479,-10.742 -0.479,-15.846c0,-3.704 0.25,-7.333 1.067,-10.933c0.962,-4.284 2.6,-8.567 4.283,-12.9c-0.546,14.283 -0.962,29.504 -0.962,44.504c-0,12.496 0.279,24.796 0.962,36.154c0.829,13.683 1.938,23.837 3.65,36.671c1.021,7.525 2.1,13.254 2.129,20.975c0,0.829 0.605,1.412 1.375,1.675c-3.062,0.154 -6.412,1.6 -9.3,3.754c-2.925,2.262 -5.487,5.304 -5.575,9.067c0,1.387 0.438,2.812 1.292,4.1c1.925,2.504 5.113,2.775 8.117,2.891c2.471,-0.05 4.687,-0.308 6.4,-1.562c2.329,-1.954 2.716,-4.725 3.025,-7.096c0.25,-2.404 0.45,-4.675 1.116,-5.804c0.509,-0.904 0.171,-2.059 -0.725,-2.567c-0.258,-0.146 -0.545,-0.233 -0.837,-0.242l-0,-0.087c-0,-0.308 -0.029,-0.567 -0.067,-0.817c-0.146,-0.762 -0.712,-1.366 -1.454,-1.533c-0.337,-0.058 -0.675,-0.083 -1.021,-0.096c0.771,-0.237 1.409,-0.854 1.409,-1.704c-0.03,-8.096 -1.175,-14.063 -2.138,-21.446c-1.733,-12.804 -2.821,-22.825 -3.65,-36.408c-0.683,-11.263 -0.954,-23.488 -0.954,-35.925c-0,-0.492 0.012,-0.971 0.012,-1.463c3.35,0.892 7.017,1.338 10.75,1.338c1.871,-0 3.755,-0.117 5.625,-0.329c0.038,0.916 0.084,1.808 0.084,2.733c-0,8.75 -1.434,18.337 -1.838,27.312c-0.154,3.25 -0.191,6.43 -0.191,9.588c-0,5.812 0.133,11.542 0.133,17.425l-0,2.858c-0.058,11.617 -4.813,23.304 -4.871,35.654c0,2.255 0.175,4.555 0.579,6.875c0.163,0.913 0.942,1.571 1.846,1.571c0.05,0 0.129,-0.012 0.204,-0.021c0.838,1.955 2.05,3.938 3.525,5.817c2.667,3.25 5.938,6.167 9.838,6.283l0.075,0c1.55,0 3.141,-0.654 4.371,-1.879c1.991,-1.991 3.083,-4.041 3.091,-6.187c-0.008,-2.409 -1.425,-4.304 -3.129,-5.65c-4.621,-3.592 -12.333,-5.188 -16.529,-5.575c-0.008,-0.404 -0.096,-0.817 -0.096,-1.234c-0.046,-11.345 4.696,-23.033 4.85,-35.633c0,-0.967 0.021,-1.937 0.021,-2.879c-0,-5.963 -0.163,-11.679 -0.163,-17.425c0,-3.121 0.046,-6.238 0.192,-9.417c0.367,-8.691 1.85,-18.337 1.858,-27.483c0,-1.108 -0.058,-2.204 -0.116,-3.329c4.071,-0.713 7.933,-1.879 11.3,-3.496c-1.075,10.783 -2.434,21.642 -2.954,32.779c-0.625,13.658 -2.8,27.404 -5.988,40.583c-1.779,7.5 -5.362,14.009 -5.4,22.625c0,0.809 0.038,1.646 0.117,2.513c0.096,0.992 0.904,1.733 1.875,1.733c0.05,0 0.108,-0.008 0.162,-0.021c1.034,-0.095 1.784,-1.02 1.696,-2.05c-0.075,-0.75 -0.096,-1.462 -0.096,-2.175c-0.029,-7.433 3.292,-13.612 5.296,-21.716c3.242,-13.392 5.458,-27.359 6.092,-41.309c0.779,-17.058 3.725,-33.8 4.312,-50.97c0.396,-11.7 2.454,-23.3 3.275,-35.263c0.059,-0.983 0.067,-2.012 0.067,-3.042c-0,-1.554 -0.038,-3.129 -0.038,-4.662c0,-1.425 0.038,-2.792 0.163,-4.025c1.675,6.404 2.262,17.446 2.233,28.825c0,13.996 -0.741,28.571 -0.741,36.792c-0,1.587 0.029,2.945 0.108,4.054c0.054,0.712 0.479,1.329 1.104,1.596c0.629,0.3 1.367,0.204 1.917,-0.221c0.125,-0.125 0.316,-0.242 0.579,-0.384c0.633,2.888 3.337,4.83 6.408,5.13c0.088,0.02 0.175,0.02 0.25,0.02c0.784,0 1.504,-0.512 1.775,-1.27c0.354,-1.021 0.45,-2.013 0.45,-2.9c0,-1.05 -0.154,-1.913 -0.258,-2.417c-0.25,-1.029 -1.271,-1.654 -2.263,-1.413c-1.02,0.242 -1.637,1.242 -1.408,2.28c0.071,0.3 0.175,0.837 0.183,1.445c-1.104,-0.508 -1.508,-1.27 -1.52,-2.195c-0,-0.517 0.137,-1.184 0.57,-2.013c0.171,-0.325 0.15,-0.7 0.096,-1.058c0.729,-0.059 1.404,-0.492 1.654,-1.213m-46.333,106.259c0.117,0.037 0.233,0.037 0.367,0.045c-0.338,1.496 -0.404,2.996 -0.596,4.371c-0.242,2.263 -0.721,3.9 -1.617,4.546c-0.137,0.238 -2.129,0.817 -4.062,0.75c-2.467,0.125 -4.996,-0.887 -4.996,-1.204c-0.471,-0.713 -0.629,-1.317 -0.646,-1.983c-0.05,-1.73 1.579,-4.188 4.063,-6.046c1.904,-1.45 4.262,-2.521 6.075,-2.896c-0,0.05 -0.013,0.104 -0.03,0.146c-0.212,1.029 0.421,2.037 1.442,2.271m17.867,0.479c2.021,0.733 3.891,1.658 5.112,2.637c1.242,1.021 1.713,1.9 1.704,2.688c0.009,0.733 -0.383,1.887 -1.983,3.483c-0.646,0.6 -1.133,0.763 -1.808,0.779c-1.659,0.117 -4.671,-1.941 -6.921,-4.858c-1.763,-2.167 -3.121,-4.813 -3.658,-6.633c2.183,0.354 5.012,0.991 7.554,1.904m-10.163,-220.879c-1.704,-4.688 -2.466,-10.417 -2.85,-14.95c0.038,-0.25 0.029,-0.521 -0.058,-0.788l-0,-0.029c-0.029,-0.25 -0.038,-0.475 -0.067,-0.704c1.038,0.258 2.088,0.529 3.388,0.771c3.216,0.558 7.133,0.895 11.225,0.895c5.35,-0.008 10.954,-0.587 15.508,-2.195c-0.137,4.033 -1.396,9.791 -3.754,14.795c-2.483,5.371 -6.154,9.696 -10.342,10.8c-1.221,0.33 -2.308,0.471 -3.279,0.471c-4.846,0 -7.721,-3.562 -9.771,-9.066m11.946,12.541c0.683,-0.096 1.338,-0.096 2.071,-0.287c1.479,-0.413 2.858,-1.067 4.117,-1.896c0.22,0.3 0.483,0.483 0.829,0.596c-0.146,0.233 -0.354,0.412 -0.396,0.704c-0.517,3.533 -1.954,7.296 -2.858,11.292c-0.338,-0.5 -0.655,-0.963 -0.971,-1.425c-1.367,-2.013 -2.292,-3.688 -2.254,-5.334c-0,-0.5 0.058,-1.021 0.241,-1.596c0.259,-0.82 -0.125,-1.579 -0.779,-2.054m-8.137,1.3l0.029,0c0.983,0.05 1.829,-0.7 1.937,-1.691c1.192,0.412 2.446,0.691 3.867,0.7c-0.15,0.166 -0.375,0.262 -0.458,0.483c-0,0.029 -0.013,0.058 -0.03,0.075l0,0.021c-1.425,3.929 -5.008,9.125 -8.637,11.9c-0.008,-0.163 -0.008,-0.346 -0.008,-0.521c-0,-3.908 1.125,-7.442 3.3,-10.967m31.308,98.992c-0.117,0.308 -0.021,0.604 0.029,0.912c-0.558,0.013 -1.087,0.184 -1.437,0.667c-0.267,0.375 -0.596,0.663 -0.959,0.933c-0.033,-0.212 -0.033,-0.433 -0.033,-0.645c-0,-8.038 0.754,-22.7 0.754,-36.792c0,-9.096 -0.3,-17.963 -1.329,-24.817c-0.529,-3.429 -1.225,-6.354 -2.242,-8.646c-1.004,-2.241 -2.454,-4.166 -4.846,-4.612c-1.016,-0.171 -1.991,0.521 -2.162,1.562c-0.175,1.03 0.508,2 1.537,2.184c0.192,0.008 0.463,0.162 0.763,0.454c-0.138,0.15 -0.367,0.221 -0.433,0.421c-1.059,2.591 -1.167,5.625 -1.184,8.654c0,1.592 0.038,3.187 0.038,4.662c-0,1 -0.021,1.934 -0.067,2.792c-0.779,11.675 -2.85,23.325 -3.267,35.383c-0.162,4.68 -0.516,9.38 -0.941,14.059c-0.229,0.025 -0.463,-0.05 -0.675,0.066c-5.379,2.909 -13.109,4.65 -20.409,4.638c-3.637,-0 -7.179,-0.421 -10.25,-1.288c-0.162,-0.058 -0.308,0.046 -0.47,0.046c0.104,-17.896 0.72,-35.866 1.462,-52c0.55,-2.108 1.008,-4.258 1.233,-6.441c0.096,-1.05 -0.654,-1.963 -1.695,-2.088c-0.221,-0.021 -0.396,0.154 -0.609,0.192c-0.154,-0.038 -0.25,-0.175 -0.391,-0.192c-1.05,-0.037 -1.938,0.75 -1.975,1.8l-0,-0.012c-0.105,2.004 -0.205,4.179 -0.288,6.25c-2.175,8.104 -6.442,16.354 -8.5,25.191c-0.925,3.988 -1.187,7.925 -1.187,11.792c-0,1.917 0.116,3.804 0.195,5.721c-0.52,-2.513 -0.904,-5.596 -1.087,-8.763c-0.463,-6.362 -0.492,-13.15 -0.867,-17.366c-0.637,-6.613 -1.271,-13.784 -1.271,-20.705c0,-2.716 0.088,-5.383 0.325,-7.962c0.58,-6.642 4.621,-15.671 10.371,-22.788c4.675,-5.841 10.425,-10.308 16.009,-11.75c-1.6,3.271 -2.513,6.746 -2.496,10.463c-0,1.308 0.108,2.617 0.308,3.983c0.108,0.571 0.463,1.079 0.963,1.359c0.52,0.287 1.129,0.3 1.675,0.066c3.966,-1.875 7.5,-5.704 10.041,-9.721c0.55,1.146 1.234,2.175 1.896,3.167c1.417,2.1 2.783,4.025 3.304,6.008c0.209,0.838 0.971,1.413 1.817,1.413c0.058,-0 0.146,-0.008 0.221,-0.017c0.946,-0.129 1.646,-0.933 1.646,-1.887c-0.046,-5.092 2.666,-10.829 3.641,-16.946c0.046,-0.392 -0.116,-0.721 -0.25,-1.058c3.659,0.204 6.546,1.762 9.021,4.487c7.967,8.692 10.096,29.158 10.021,39.9l-0,1.033c-0.117,10.33 -1.071,21.246 -2.6,31.459c-1.146,7.729 -1,18.446 -3.35,24.779" style="fill:#231f20;fill-rule:nonzero;"/><path d="M29.337,77.755c-0,-0.3 -0.009,-0.608 -0.021,-0.904c-0.096,-0.904 -0.758,-1.608 -1.633,-1.725c-0.638,-0.075 -1.438,-0.183 -2.305,-0.183c-0.404,-0 -0.854,0.012 -1.366,0.116c-0.192,0.042 -0.375,0.104 -0.559,0.213c-0.141,-0.096 -0.325,-0.146 -0.5,-0.204c-1,-0.238 -2.02,0.395 -2.25,1.429l0,-0.013c-0.154,0.692 -0.254,1.359 -0.254,1.992c0,1.371 0.396,2.621 1.188,3.525c0.771,0.925 1.896,1.425 3.021,1.425l0.02,-0c2.571,-0.008 4.659,-2.446 4.659,-5.671m-4.659,1.867c-0.087,-0.059 -0.308,0.146 -0.454,-0.817c0.192,0.029 0.375,0.021 0.559,-0.037c0.108,-0.013 0.329,-0.03 0.595,-0.03l0.08,0c-0.234,0.825 -0.675,0.875 -0.78,0.884" style="fill:#231f20;fill-rule:nonzero;"/><path d="M17.332,137.882c1.042,0.588 2.088,0.904 3.129,0.904l0.046,0c1.909,0 3.409,-1.229 4.134,-2.566c0.787,-1.38 1.075,-2.946 1.075,-4.467c-0,-1.35 -0.221,-2.658 -0.846,-3.854c-0.529,-1.125 -1.771,-2.292 -3.438,-2.309c-0.208,-0.037 -0.421,-0.058 -0.654,-0.058c-2.212,0.05 -3.408,1.875 -3.871,3.321c-0.529,1.542 -0.712,3.262 -0.721,4.879c0,1.013 0.088,1.967 0.213,2.804c0.104,0.567 0.454,1.067 0.933,1.346m3.1,-7.758c0.146,-0.434 0.329,-0.713 0.413,-0.788c0.175,0.046 0.346,0.067 0.512,0.054c0.171,0.138 0.663,1.159 0.625,2.363c0,0.971 -0.25,1.979 -0.587,2.558c-0.384,0.596 -0.559,0.675 -0.934,0.704c-0.116,0 -0.27,-0.029 -0.47,-0.079c-0.03,-0.375 -0.038,-0.779 -0.038,-1.204c0,-1.296 0.163,-2.733 0.479,-3.608" style="fill:#231f20;fill-rule:nonzero;"/><path d="M21.511,29.459c-0.925,-0.016 -2.021,0.367 -2.638,1.204c-0.617,0.83 -0.712,1.675 -0.725,2.417c0.071,2.925 1.842,6.554 2.004,7.988c0.096,0.6 0.484,1.145 1.042,1.408c0.837,0.412 1.683,0.662 2.542,0.662l0.095,0c1.375,0 2.646,-0.904 3.188,-1.962c0.583,-1.05 0.721,-2.175 0.721,-3.283c-0.038,-1.705 -0.338,-3.446 -1.021,-4.93c0.617,-0.441 0.954,-1.241 0.771,-2.02c-0.263,-1.03 -1.3,-1.638 -2.292,-1.388c0,0 0.008,0.013 -0.146,0.013l-0.2,-0c-0.308,-0.088 -1.033,0.095 -1.65,0.47c-0.279,-0.279 -0.641,-0.462 -1.046,-0.512l0,-0.008c-0.204,-0.03 -0.425,-0.059 -0.645,-0.059m0.875,3.767c0.079,0.096 0.154,0.162 0.25,0.258c0.387,0.154 1.445,2.704 1.358,4.409c0.008,0.704 -0.133,1.27 -0.25,1.425l-0.008,0.029c-0.042,-0 -0.088,-0 -0.138,-0.009c-0.575,-2.15 -1.633,-4.766 -1.692,-6.045c0.155,-0 0.338,-0.03 0.48,-0.067" style="fill:#231f20;fill-rule:nonzero;"/><path d="M8.908,41.252c0.175,0.654 0.663,1.154 1.3,1.346c0.742,0.221 1.484,0.337 2.167,0.337l0.088,0c1.537,0 2.954,-0.712 3.783,-1.787c0.837,-1.1 1.146,-2.388 1.154,-3.621c-0.008,-1.096 -0.25,-2.292 -0.817,-3.342c1.067,-1.05 2.08,-2.35 2.163,-4.358c-0,-0.433 -0.058,-0.879 -0.183,-1.329c-0.53,-2.092 -2.5,-3.313 -4.167,-3.225c-2.233,0.017 -4.696,1.587 -4.813,4.496c0,1.058 0.413,2.108 1.117,3.029c-0.029,0.108 -0.05,0.212 -0.058,0.337c-0.038,0.425 0.087,0.85 0.3,1.184c-1.175,1.262 -2.234,2.908 -2.246,5.162c-0,0.567 0.067,1.175 0.212,1.771m4.68,-11.879c0.204,-0.183 0.537,-0.317 0.8,-0.317l0.008,0c0.387,0.096 0.329,-0.05 0.558,0.471c0.029,0.117 0.029,0.229 0.059,0.3c0.058,0.238 -0.23,0.729 -0.817,1.367c-0.071,-0.154 -0.183,-0.329 -0.308,-0.471l-0.013,-0c-0.521,-0.571 -0.537,-0.867 -0.546,-0.954c0.009,-0.088 0.038,-0.204 0.259,-0.396m0.008,7.625c0.029,0.183 0.037,0.354 0.037,0.529c-0.133,1.192 -0.229,1.521 -1.17,1.617c0.083,-0.734 0.5,-1.417 1.133,-2.146" style="fill:#231f20;fill-rule:nonzero;"/><path d="M5.636,83.233c1.029,-0 1.875,-0.846 1.875,-1.888l-0,-11.387c-0,-1.05 -0.846,-1.888 -1.875,-1.888c-1.05,0 -1.867,0.838 -1.867,1.888c-0.029,3.792 -0.029,7.587 0,11.387c0,1.042 0.817,1.888 1.867,1.888" style="fill:#231f20;fill-rule:nonzero;"/></svg>