<?xml version="1.0" encoding="UTF-8" standalone="no"?><!DOCTYPE svg PUBLIC "-//W3C//DTD SVG 1.1//EN" "http://www.w3.org/Graphics/SVG/1.1/DTD/svg11.dtd"><svg width="100%" height="100%" viewBox="0 0 259 380" version="1.1" xmlns="http://www.w3.org/2000/svg" xmlns:xlink="http://www.w3.org/1999/xlink" xml:space="preserve" xmlns:serif="http://www.serif.com/" style="fill-rule:evenodd;clip-rule:evenodd;stroke-linejoin:round;stroke-miterlimit:2;"><path d="M86.76,174.625c0.216,0.9 0.695,1.646 1.329,2.192c3.179,14.154 9.3,26.433 22.025,27.129c7.408,-0.088 14.571,-4.854 22.337,-14.192c13.863,-17.55 13.104,-46.542 24.025,-64.7c12.15,-21.075 29.459,-48.521 29.613,-74.025c0.204,-16.079 -7.804,-31.25 -27.204,-41.158c-0.659,-0.975 -1.584,-1.709 -2.775,-1.863c-0.521,-0.075 -1.067,-0.087 -1.6,-0.15c-0.975,-0.429 -1.809,-0.912 -2.85,-1.304c-10.871,-4.375 -23.175,-6.554 -35.68,-6.554c-37.445,0.054 -78.195,20.287 -78.32,64.437c-0,1.43 0.075,2.821 0.15,4.242c3.208,48.454 39.954,67.792 48.95,105.946m65.358,-158.583c0.175,0.087 0.342,0.166 0.533,0.254c1.138,2.862 2.329,5.55 3.509,8.083c-0.1,0.092 -0.1,0.217 -0.167,0.308c-0.404,-0.37 -0.746,-0.841 -1.188,-1.154c-3.55,-2.625 -7.679,-3.7 -11.887,-4.066c-4.854,-1.334 -10.008,-1.788 -15.017,-1.788c-2.837,0 -5.687,0.138 -8.387,0.442c-1.534,0.166 -2.621,1.266 -3.204,2.587c-0.738,-0.687 -1.596,-1.304 -2.484,-1.916c9.196,-1.988 18.209,-3.305 27.609,-3.305c3.512,0 7.045,0.188 10.683,0.555m-78.817,92.945c0.496,0.38 1.054,0.696 1.584,1.025c-0.188,0.342 -0.342,0.671 -0.455,1.042c-0.354,-0.662 -0.758,-1.396 -1.129,-2.067m50.004,-18.462c-0.079,-11.871 5.546,-27.738 11.046,-37.292c0.738,-0.062 1.559,-0.075 2.309,-0.112c1.812,-0.129 3.633,-0.284 5.445,-0.284c0.371,0 0.713,0 1.067,0.03c-0.05,0.633 0.063,1.241 0.267,1.787c0.541,1.492 1.9,2.633 3.571,2.763c12.141,1.137 17.058,9.791 17.362,20.983c0,13.125 -8.325,27.137 -21.317,28.925c-1.875,0.267 -3.57,0.371 -5.129,0.371c-11.583,-0.396 -14.029,-6.059 -14.621,-17.171m-12.52,27.483c-1.03,-0.062 -2.03,-0.087 -3.055,-0.112c0.455,-0.85 0.871,-1.725 1.192,-2.625c0.583,-1.392 1.05,-2.863 1.442,-4.359c0.329,1.638 0.546,3.284 0.521,5.005c-0.025,0.658 -0.038,1.358 -0.1,2.091m-13.521,-0.304c-1.329,-0.037 -2.609,-0.1 -3.842,-0.15c-0.454,-0.025 -0.912,-0.05 -1.392,-0.092c-0.825,-0.062 -1.608,0.142 -2.295,0.546c-0.871,-0.746 -1.684,-1.533 -2.442,-2.329c-0.483,-0.483 -0.913,-0.929 -1.358,-1.408c-0.217,-0.242 -0.48,-0.509 -0.709,-0.75c0.759,0.104 1.559,0.283 2.279,0.283l0.167,0c0.938,-0.017 1.758,-0.242 2.65,-0.379c2.783,-0.421 5.229,-1.358 7.333,-2.767c2.067,-1.396 3.83,-3.129 5.246,-5.196c-0.112,0.559 -0.191,1.142 -0.304,1.663c-0.379,1.812 -0.837,3.521 -1.442,4.942c-1.141,2.52 -2.308,4.37 -3.891,5.637m-40.688,-50.179c0.013,-10.771 3.079,-18.638 7.946,-25.517c-0.383,1.559 -0.712,3.117 -0.925,4.725c-1.296,7.513 -1.8,15.6 -2.762,23.834c-0.305,-0.1 -0.596,-0.23 -0.925,-0.238c-0.342,-0.029 -0.559,-0.029 -0.688,0l-0.175,0c-0.454,-0.029 -1.117,-0.05 -2.371,-0.862c-0.012,-0.167 -0.05,-0.317 -0.087,-0.496c-0,-0.471 -0.013,-0.975 -0.013,-1.446m56.171,-37.746c-2.446,-1.179 -5.079,-1.8 -7.754,-1.8c-1.267,0 -2.508,0.204 -3.725,0.521c0.304,-1.204 0.075,-2.408 -0.608,-3.358c1.445,-0.621 2.825,-1.05 3.991,-0.988c1.217,0.025 2.354,0.279 3.625,0.988c2.163,1.216 3.609,2.787 4.471,4.637m19.983,11.429c1.342,1.025 3.08,1.104 4.484,0.392c3.412,0.825 6.654,1.887 9.746,3.104c-1.621,-0.175 -3.242,-0.237 -4.855,-0.237c-3.887,-0 -7.654,0.341 -10.566,0.566c-1.329,0.092 -2.546,0.825 -3.229,1.954c-1.13,1.796 -2.221,3.838 -3.296,5.992c0.025,-0.608 0.112,-1.254 0.112,-1.85c-0.025,-4.358 -1.087,-8.187 -2.762,-11.504c2.941,0.05 5.983,0.367 9.075,0.862c0.429,0.267 0.862,0.38 1.291,0.721m-24.237,5.196c-2.121,1.963 -4.767,3.142 -7.629,3.458c0.491,-0.495 0.925,-1.037 1.125,-1.745c0.683,-2.713 2.941,-4.867 6.387,-6.35c-0.091,0.595 -0.229,1.141 -0.241,1.762c-0,0.963 0.129,1.95 0.358,2.875m-12.017,11.771c-0.541,0.987 -0.758,2.079 -0.987,3.204c-2.75,-1.825 -5.942,-3.117 -9.696,-3.621l-0,0.013c-0.975,-0.142 -1.883,-0.204 -2.838,-0.204c-0.225,-0 -0.404,0.087 -0.629,0.087c2.304,-1.112 4.371,-2.479 5.979,-4.271c0.18,1.496 1.192,2.763 2.584,3.359c1.875,0.75 3.737,1.166 5.587,1.433m-12.312,-14.271l-0.117,0c-0.1,0 -0.179,0.079 -0.254,0.079c0.317,-0.671 0.546,-1.304 0.925,-2c-0.138,0.771 -0.379,1.292 -0.554,1.921m24.846,21.367c-0.23,-0.088 -0.484,-0.113 -0.734,-0.138c-0.091,-0.012 -0.166,-0.054 -0.254,-0.062c-4.967,-0.609 -4.425,-1.688 -4.537,-1.929c-0,-0.734 1.433,-3.321 5.183,-3.321c0.354,-0 0.721,0.041 1.125,0.079c-0.15,1.279 -0.367,2.608 -0.567,3.925c-0.079,0.483 -0.116,0.95 -0.216,1.446m-14.205,-34.084c0.405,0.009 0.584,0.05 0.684,0.125c0.037,0.025 0.079,0.013 0.129,0.038c-0.663,0.521 -1.308,1.05 -1.888,1.687c0,-0.433 -0.016,-0.837 -0.016,-1.216c-0,-0.142 -0.075,-0.254 -0.088,-0.384c0.392,-0.075 0.888,-0.291 1.179,-0.25m-11.85,34.78c0.534,0.029 1.13,0.054 1.763,0.154l0.583,-4.184l-0.521,4.184c9.367,0.975 14.638,10.975 14.725,21.629c-0.175,10.262 -4.725,17.637 -11.833,17.65c-1.912,-0.013 -4.183,-0.454 -6.883,-1.633c-6.117,-2.484 -10.196,-11.2 -10.163,-20.071c0.217,-10.25 4.6,-17.7 12.329,-17.729m31.53,23.025c-0.025,-9.809 2.912,-20.059 3.904,-30.805c0.05,0.038 0.058,0.063 0.125,0.092c1.191,0.746 2.658,0.821 3.929,0.213c-4.208,9.77 -7.517,21.454 -7.554,32.033c-0,2.887 0.316,5.692 0.912,8.375c-0.571,-2.104 -1.05,-4.192 -1.154,-6.438c-0.112,-1.216 -0.137,-2.341 -0.162,-3.47m40.533,-38.471c0.137,-0.759 -0.125,-1.471 -0.379,-2.154c0.025,0.025 0.087,0.041 0.129,0.075c0.417,0.42 0.962,0.725 1.542,0.925c1.408,0.929 2.675,1.891 3.687,2.841c0.038,0.288 0.067,0.567 0.117,0.834c-1.584,-0.988 -3.234,-1.875 -5.096,-2.521m-20.158,-17.967c-3.421,-1.887 -6.996,-2.8 -10.405,-2.775c-0.925,0 -1.887,0.063 -2.8,0.204c-0.075,-0.204 -0.15,-0.416 -0.216,-0.633c5.879,-0.7 12.037,-1.65 17.437,-1.65c1.063,0.075 2.054,0.167 2.963,0.254c5.45,1.675 9.391,4.763 10.937,10.038c-5.512,-2.434 -11.646,-4.271 -17.916,-5.438m-51.675,94.871c2.129,0.429 4.108,0.604 6.07,0.658c1.13,0.696 2.305,1.254 3.471,1.713c0.446,4.379 1.054,8.537 1.825,12.45c0.254,3.171 0.342,6.387 0.342,9.608c-0,1.242 -0.013,2.496 -0.05,3.738c-4.004,-9.846 -8.008,-19.134 -12.417,-28.484c0.254,0.1 0.479,0.254 0.759,0.317m17.904,1.379c3.004,0.254 6.008,0.429 9.033,0.608c-2.204,6.513 -3.912,13.205 -5.575,19.313c-0.554,-2.496 -1.125,-4.996 -1.633,-7.517c-0.342,-4.204 -0.963,-8.337 -1.825,-12.404m32.454,-3.637c-0.179,-1.392 -1.054,-2.646 -2.371,-3.267c-1.608,-0.725 -3.346,-1.346 -5.121,-1.838c0,-0.404 0.025,-0.8 0.025,-1.216c0,-0.584 0,-1.079 0.013,-1.384c0.054,-1.708 -0.913,-3.279 -2.446,-4.004c-1.492,-0.696 -3.217,-0.454 -4.458,0.571c-0.1,-1.521 -0.367,-2.862 -0.621,-4.233c-0.546,-3.013 -1.267,-5.775 -2.042,-8.338c0.788,2.434 1.838,4.742 3.396,6.821c0.837,1.1 1.85,2.104 2.954,3c3.7,3.071 8.742,4.842 14.775,4.842l0.279,-0c0.267,-0 0.609,-0.063 0.875,-0.063c-0.241,0.229 -0.596,0.279 -0.787,0.571c-1.8,2.85 -3.271,5.7 -4.471,8.538m38.417,-54.459c0.354,0.15 0.67,0.392 1.079,0.454c0.341,0.042 0.646,-0.1 1,-0.137c-0.471,1.404 -0.913,2.812 -1.446,4.242c-0.113,-1.542 -0.317,-3.067 -0.633,-4.559m-103.967,-45.312c-2.192,0.391 -4.208,1.012 -6.096,1.875c4.408,-4.121 9.529,-7.567 15.167,-10.317c-3.092,2.763 -6.134,5.579 -9.071,8.442m12.621,95.529c-0.267,0.379 -0.446,0.833 -0.584,1.304c-0.683,-1.421 -1.42,-2.837 -2.116,-4.296c0.775,0.913 1.687,1.9 2.7,2.992m45.325,63.496c-7.009,8.537 -12.596,11.212 -15.825,11.112c-2.184,0.3 -4.488,-1.054 -6.654,-3.704c0.037,-0.008 0.062,0.017 0.116,0.017c0.921,-0.104 1.771,-0.509 2.417,-1.104c0.712,0.962 1.8,1.608 3.042,1.725l0.391,-0c1.879,-0 3.525,-1.259 4.059,-3.08c0.025,-0.141 0.05,-0.291 0.087,-0.433c0.329,-0.1 0.671,-0.15 0.963,-0.317c0.533,0.255 1.012,0.609 1.62,0.609c0.142,-0 0.28,-0 0.405,-0.013c1.104,-0.075 2.145,-0.608 2.866,-1.466c0.696,-0.8 1.025,-1.8 1,-2.83c0,-0.087 0,-0.137 -0.012,-0.229c-0.013,-0.125 -0.025,-0.25 -0.038,-0.379l0,-0.454c12.179,-12.038 13.863,-26.292 16.359,-39.625c3.166,-8.021 6.183,-16.029 8.754,-23.971c0.596,-1.775 -0.213,-3.525 -1.659,-4.6c0.163,-0.012 0.28,0 0.43,-0.029c3.754,-0.604 7.07,-1.963 10.112,-3.658c-1.762,3.041 -3.496,5.979 -5.158,8.816c-12.075,21.267 -11.909,50.346 -23.275,63.613m51.521,-136.296c-1.95,-6.917 -5.146,-13.808 -9.555,-18.842c-0.808,-1.633 -1.608,-3.291 -2.408,-4.941c8.021,6.879 11.304,14.866 11.963,23.783m-55.059,-39.429c-10.654,1.621 -21.083,4.283 -32.071,7.475c-0.325,0.087 -0.566,0.212 -0.87,0.291c0.758,-1.358 0.833,-2.929 -0.067,-4.27c8.454,-2.446 17.487,-3.713 26.587,-3.775c2.167,-0 4.296,0.137 6.421,0.279m-75.404,46.121c-0.025,0.67 -0.117,1.32 -0.117,1.991c0,4.321 0.571,8.779 1.371,13.267c0.013,0.621 0.013,1.175 0.075,1.825c0.038,0.479 0.404,0.812 0.584,1.242c2.129,9.854 5.729,19.662 10.429,27.9c6.766,11.72 12.2,22.491 17.196,33.325c-13.65,-20.4 -28.942,-38.025 -30.313,-66.205c-0.112,-1.295 -0.162,-2.55 -0.162,-3.725c0.012,-3.395 0.391,-6.554 0.937,-9.62" style="fill:#231f20;fill-rule:nonzero;"/><path d="M258.113,236.993c0.062,-10.329 -3.596,-18.55 -9.846,-23.708c-6.209,-5.221 -14.446,-7.313 -23.238,-7.313c-3.5,0 -7.096,0.329 -10.746,0.963c2.813,-5.309 4.117,-10.921 4.092,-16.317c-0.179,-17.604 -12.938,-33.288 -28.433,-33.633c-10.38,-0.034 -20.096,7.895 -25.409,23.925c-1.646,4.662 -2.154,8.791 -2.137,12.341c0.025,5.5 1.075,9.592 1.037,13.379c-0.05,4.388 -0.975,9.05 -6.716,17.25c-6.588,9.946 -18.575,13.921 -27.296,25.113c-16.142,10.312 -31.779,20.562 -47.742,30.612c0.442,-1.683 -0.142,-3.55 -1.687,-4.612c-19.575,-12.9 -44.296,-15.421 -60.442,-25.75c-8.288,-5.167 -11.2,-10.542 -11.138,-14.292c-0.279,-5.333 6.5,-12.254 23.163,-13.516c1.483,-0.117 2.8,-0.992 3.458,-2.321c0.663,-1.329 0.584,-2.904 -0.229,-4.159c-4.142,-6.475 -5.533,-11.366 -5.533,-14.683c0.037,-6.387 4.812,-9.125 12.683,-9.429c9.779,0.025 19.388,6.021 19.413,14.154c0.012,4.283 -2.359,10.429 -9.963,18.108c-1.583,1.609 -1.596,4.192 -0.075,5.842c10.858,11.629 27.396,25.063 43.146,29.246c2.217,0.583 4.525,-0.788 5.121,-3.004c0.596,-2.242 -0.763,-4.55 -2.992,-5.134l-0.025,-0.012c-11.708,-2.95 -26.329,-13.863 -36.367,-24.013c6.526,-7.462 9.542,-14.508 9.567,-21.033c-0.379,-15.192 -15.421,-22.529 -27.825,-22.554c-9.896,-0 -21.058,5.45 -21.112,17.829c0.037,4.104 1.191,8.567 3.662,13.554c-10.3,1.804 -17.991,6.138 -21.808,12.346c-1.621,2.621 -2.609,5.538 -2.696,8.779c0.037,4.767 2.204,9.313 5.842,13.509c2.404,2.812 5.395,5.525 9.25,7.933c18.741,11.542 43.208,14.05 60.2,25.596c0.545,0.354 1.154,0.454 1.737,0.558c-6.704,4.167 -13.458,8.3 -20.387,12.379c-0.863,-2.6 -1.738,-5.058 -2.117,-7.387c-0.279,-1.534 -1.396,-2.788 -2.904,-3.271c-5.5,-1.671 -10.438,-2.458 -14.913,-2.458c-2.625,-0 -5.016,0.395 -7.275,0.937c-3.421,0.85 -6.383,2.221 -8.883,4.071c-5.687,4.179 -8.892,10.554 -8.892,17.358c-0.041,11.759 8.413,24.063 23.759,29.004c-6.059,5.171 -9.1,11.834 -9.038,18.563c0.042,11.796 8.796,22.604 22.063,26.621c1.975,0.612 4.066,1.079 6.271,1.358c1.383,0.138 2.662,0.2 3.941,0.2c9.075,-0.037 16.738,-3.875 22.163,-9.817c5.421,-5.958 8.579,-14.016 8.616,-22.391c0,-7.171 -2.308,-14.659 -7.337,-21.275c10.758,-8.071 22.012,-15.421 33.337,-22.771c13.609,3.283 25.713,14.521 38.775,22.746c-2.446,8.591 -4.42,19.108 -4.42,29.458c-0,1.65 0.125,3.321 0.237,4.983c0.079,0.913 0.05,1.8 0.167,2.709c0.15,1.283 0.9,2.446 2.029,3.096c4.879,2.9 10.425,4.066 15.812,4.066c2,-0.025 3.992,-0.241 5.979,-0.558c10.934,-1.738 20.984,-7.829 21.634,-18.513c-0,-0.454 -0.029,-0.9 -0.079,-1.358c0.52,0.063 1.025,0.092 1.533,0.092c12.763,-0.509 17.4,-13.613 17.4,-24.863c0,-12.366 -5.742,-27.421 -20.542,-27.841c-6.008,0.041 -12.429,2.687 -19.562,8.325c-7.2,-10.63 -17.246,-18.321 -28.196,-22.663c12.417,-8.633 24.454,-17.892 35.567,-28.692c11.366,7.655 25.316,12.242 39.141,12.255c10.405,-0 20.734,-2.813 29.68,-8.755c1.229,-0.837 2.52,-1.512 3.712,-2.462l1.442,-2.192c1.216,-4.712 1.812,-8.958 2.104,-12.971c0.062,-1.17 0.267,-2.408 0.267,-3.537m-117.059,53.258c11.342,3.888 21.975,12.342 28.692,24.213c0.617,1.091 1.721,1.875 2.975,2.079c1.291,0.192 2.571,-0.204 3.496,-1.038c7.833,-7.175 13.85,-9.441 17.741,-9.416c3.825,0.079 6.413,1.875 8.692,5.5c2.204,3.558 3.458,8.804 3.458,13.937c0,4.675 -1.062,9.225 -2.775,12.204c-1.837,2.988 -3.608,4.192 -6.233,4.255c-1.85,0.016 -4.65,-0.809 -8.171,-3.28c-1.004,-0.862 -2.079,-1.737 -3.283,-2.575c-0.217,-0.187 -0.434,-0.404 -0.659,-0.608c-0.141,-0.137 -0.391,-0.404 -0.62,-0.629c-0.092,-0.092 -0.205,-0.192 -0.38,-0.371c-0.57,-0.087 0.467,-0.304 -1.687,-0.833c-0.671,-0.217 -1.179,-0.242 -1.179,-0.242c-1.088,0 -2.167,0.429 -2.963,1.229c-0.775,0.771 -1.229,1.838 -1.229,2.963c0,0.608 0.113,1.179 0.367,1.712c0.162,0.559 0.279,0.621 0.367,0.646c0.024,0.05 0.062,0.117 0.112,0.167l0,0.05c0.317,0.416 0.571,0.708 1.017,1.229l0.925,0.808c0.266,0.167 0.504,0.354 0.758,0.496c1.004,0.863 2.004,1.658 2.967,2.371c3.012,2.758 3.812,5.017 3.812,6.537c0.038,2.092 -1.608,4.725 -5.283,7.009c-3.613,2.216 -8.817,3.712 -13.938,3.675c-3.421,-0 -6.766,-0.638 -9.691,-1.954c-0.117,-1.471 -0.18,-2.98 -0.18,-4.513c0,-10.442 2.367,-21.667 4.992,-30.092c0.608,-1.912 -0.204,-3.954 -1.925,-4.941c-10.987,-6.046 -22.404,-17.321 -36.725,-23.063c4.792,-3.091 9.567,-6.246 14.321,-9.441c0.496,0.85 1.242,1.558 2.229,1.916m106.883,-40.271c-7.829,5.892 -17.22,8.517 -27.029,8.517c-13.025,0.013 -26.671,-4.817 -37.075,-12.671c-1.683,-1.291 -4.029,-1.129 -5.5,0.379c-19.071,19.271 -41.787,33.792 -64.8,48.671c-1.962,-0.279 -3.904,-0.596 -5.979,-0.621c-0.683,0.025 -1.383,0.038 -1.992,0.088c-2.316,0.125 -4.091,2.092 -3.966,4.433c0.066,1.192 0.625,2.217 1.458,2.954c-10.008,6.55 -19.971,13.33 -29.625,20.742c-0.975,0.713 -1.546,1.838 -1.608,3.029c-0.117,1.179 0.329,2.346 1.125,3.217c5.716,5.929 8.046,12.583 8.083,18.996c-0.075,12.696 -9.4,23.771 -22.375,23.783c-1,0 -2.012,-0.05 -2.992,-0.137c-13.087,-1.646 -20.945,-11.138 -20.866,-19.617c0.075,-6.096 3.458,-12.354 13.875,-16.763c1.821,-0.75 2.9,-2.625 2.583,-4.562c-0.329,-1.938 -1.912,-3.371 -3.879,-3.508c-18.929,-1.384 -27.304,-13.346 -27.317,-22.734c0.304,-7.529 4.509,-13.675 16.65,-13.941c2.925,-0 6.271,0.42 10.113,1.42c1.037,4.184 2.621,7.717 3.191,10.517c0.28,1.333 1.205,2.408 2.409,2.954c1.229,0.529 2.658,0.442 3.8,-0.216c23.808,-13.825 45.716,-28.205 68.108,-42.663c0.442,0.617 1.05,1.138 1.788,1.442c2.154,0.904 4.625,-0.088 5.55,-2.204l-0.013,-0.038c0.9,-2.279 2.029,-4.283 3.308,-6.067c2.975,-1.9 5.992,-3.829 8.996,-5.741c1.534,-0.975 2.229,-2.838 1.85,-4.525c5.775,-4.396 12.225,-8.854 17.788,-16.367c6.425,-9.012 8.3,-16.071 8.25,-22.117c-0.05,-5.191 -1.075,-9.145 -1.063,-13.379c0.038,-2.8 0.367,-5.791 1.696,-9.604c5.033,-14.317 11.708,-18.208 17.463,-18.25c9.083,0.042 20.008,11.663 20.008,25.221c-0,6.8 -2.521,13.871 -9.225,20.387c-1.433,1.342 -1.725,3.534 -0.683,5.18c1.012,1.7 3.079,2.445 4.966,1.825c6.942,-2.371 13.875,-3.638 20.021,-3.638c15.079,0.496 24.317,6.021 24.683,22.621c0,3.75 -0.57,8.046 -1.775,12.987" style="fill:#231f20;fill-rule:nonzero;"/></svg>