<?xml version="1.0" encoding="UTF-8" standalone="no"?><!DOCTYPE svg PUBLIC "-//W3C//DTD SVG 1.1//EN" "http://www.w3.org/Graphics/SVG/1.1/DTD/svg11.dtd"><svg width="100%" height="100%" viewBox="0 0 296 286" version="1.1" xmlns="http://www.w3.org/2000/svg" xmlns:xlink="http://www.w3.org/1999/xlink" xml:space="preserve" xmlns:serif="http://www.serif.com/" style="fill-rule:evenodd;clip-rule:evenodd;stroke-linejoin:round;stroke-miterlimit:2;"><path d="M201.427,135.293c-0.646,-0.288 -1.45,-0.363 -1.825,-0.329l-0.109,-0c-1.775,-0.075 -7.554,-2.171 -12.166,-4.538c-2.521,-1.246 -4.884,-2.575 -6.567,-3.612c-0.846,-0.538 -1.517,-1.017 -1.942,-1.329c-0.087,-0.075 -0.146,-0.113 -0.221,-0.171c-1.125,-1.559 -3.212,-2.175 -5.029,-1.304c-2.066,0.958 -2.958,3.42 -2.008,5.512c0.983,1.733 1.537,1.883 2.287,2.558c2.48,1.905 7,4.463 11.909,6.788c1.85,0.862 3.675,1.671 5.433,2.329c-0.125,0.113 -0.25,0.171 -0.375,0.288c-10.775,-1.484 -22.533,-2.655 -33.546,-2.655c-0.433,0 -0.808,0.021 -1.196,0.021c-2.266,0.017 -4.083,1.884 -4.054,4.171c0.017,2.288 1.884,4.15 4.15,4.133c0.404,-0.02 0.779,-0.02 1.1,-0.02c7.467,-0 15.379,0.654 23.163,1.52c-3.275,2.155 -6.65,4.421 -10.034,7.13c-1.708,1.425 -2.02,3.941 -0.729,5.712c0.817,1.117 2.038,1.692 3.304,1.692c0.792,-0 1.609,-0.209 2.28,-0.713l0.05,0.021c0.208,-0.058 0.891,-0.058 1.937,-0.154c2.013,-0.308 3.454,-2.021 3.542,-3.979c7.171,-5.017 14.991,-9.267 21.946,-16.321c0.958,-0.983 1.362,-2.367 1.104,-3.733c-0.263,-1.346 -1.163,-2.463 -2.404,-3.017" style="fill:#231f20;fill-rule:nonzero;"/><path d="M215.375,58.332c-21.746,-20.246 -48.217,-30.721 -77.65,-31.088l-0.588,0c-16.65,0.059 -33.645,8.75 -46.487,16.784c-32.492,20.362 -54.208,49.045 -54.138,87.612c0,3.267 0.134,6.613 0.467,10.033c2.917,32.667 8.913,59.138 37.271,79.421c19.983,14.325 45.525,27.071 71.742,27.113c6.958,-0 13.945,-0.925 20.837,-2.963c47.508,-14.075 86.796,-50.296 86.904,-98.975c0,-9.783 -1.625,-20.033 -5.05,-30.566c-6.941,-21.363 -16.283,-41.509 -33.308,-57.371m-50.85,178.971c-6.088,1.766 -12.296,2.595 -18.533,2.595c-23.505,0.038 -47.846,-11.766 -66.984,-25.587c-25.675,-18.592 -30.758,-40.913 -33.846,-73.425c-0.308,-3.171 -0.441,-6.229 -0.441,-9.246c0.058,-35.167 19.212,-60.887 50.283,-80.575c12.2,-7.729 28.404,-15.592 42.133,-15.496l0.459,0c27.621,0.384 51.833,9.959 72.204,28.896c15.546,14.458 24.321,33.05 31.096,53.85c3.154,9.746 4.625,19.092 4.625,27.954c0.079,43.663 -35.692,77.5 -80.996,91.034" style="fill:#231f20;fill-rule:nonzero;"/><path d="M140.771,126.736c-5.296,-0.213 -11.191,4.133 -11.996,11.537c-0.204,1.634 0.555,3.171 1.805,4.017l-0,0.367c-0,1.958 0.395,3.958 1.558,5.804c1.096,1.808 3.442,3.383 5.942,3.383l0.183,0c3.096,-0.058 5.671,-1.633 8.325,-4.075c3.475,-3.287 5.429,-6.937 5.429,-10.65c-0.133,-6.691 -5.958,-10.383 -11.246,-10.383m0.221,14.958c-0.904,0.846 -1.654,1.346 -2.162,1.634c-0.03,-0.192 -0.038,-0.425 -0.038,-0.671c-0.021,-0.984 0.367,-2.25 0.892,-2.904c0.566,-0.713 0.883,-0.925 1.866,-0.963c0.096,0 0.23,0.021 0.375,0.021c0.492,0.058 0.971,0.037 1.421,-0.096c-0.412,0.788 -1.125,1.808 -2.354,2.979" style="fill:#231f20;fill-rule:nonzero;"/><path d="M139.587,77.019l-0.029,-0c4.221,-3.613 8.304,-8.575 12.288,-12.784c-3.75,14.671 -8.996,33.046 -11.442,50.117c-0.346,0.521 -0.596,1.154 -0.675,1.85c-0.083,0.671 -0.083,1.267 -0.083,1.729c-0,1.017 0.05,1.867 0.05,2.5c-0,2.209 1.716,4.017 3.9,4.154l0.212,0c2.096,0 3.867,-1.595 4.084,-3.75c1.537,-15.091 6.25,-32.783 10.22,-47.97c1.059,5.633 1.988,10.404 2.209,11.458c0.387,1.983 2.116,3.329 4.012,3.329c0.288,0 0.554,-0.021 0.804,-0.096c2.25,-0.446 3.684,-2.654 3.242,-4.883c-0.45,-2.133 -4.242,-21.896 -5.692,-30.167c-0.25,-1.308 -1.075,-2.421 -2.258,-3.016c-1.191,-0.559 -2.558,-0.538 -3.712,0.075c-9.517,5.229 -16.388,16.208 -22.38,21.033c-1.737,1.462 -2.008,4.096 -0.545,5.846c1.441,1.75 4.016,2.016 5.795,0.575" style="fill:#231f20;fill-rule:nonzero;"/><path d="M278.638,4.096c-5.846,-3.325 -13.005,-4.054 -20.351,-4.096c-11.104,0.021 -22.991,1.925 -30.433,1.883l-0.6,0c-3.658,-0.054 -7.362,-0.091 -11.042,-0.091c-21.112,-0 -42.17,0.691 -63.079,0.691c-9.941,0 -19.862,-0.154 -29.762,-0.579l-0,-0.021c-1.729,-0.091 -3.429,-0.112 -5.125,-0.112c-24.579,0.021 -48.784,7.283 -71.738,10.862c-16.129,2.309 -30.791,6.613 -37.796,25.646c-5.3,13.9 -8.683,29.896 -8.712,45.046c-0,0.25 0.029,0.383 0.05,0.442c0.067,25.262 3.275,50.929 3.258,75.75c0,5.154 -0.137,10.287 -0.462,15.379c-0.942,13.979 -2.5,27.146 -2.517,40.7c0,10.383 0.958,20.996 3.892,32.246c0.95,3.571 2.521,9.762 4.491,15.721c2.055,6.041 4.092,11.633 7.659,15.287c4.633,4.246 11.287,5.25 18.071,6.017c6.72,0.654 13.554,0.579 17.554,0.637c2.741,0.017 5.458,0.054 8.208,0.054c34.408,0 68.829,-2.745 102.55,-4.245c19.975,-0.867 39.625,-1.463 59.246,-2.405c15.771,-0.845 27.021,-7.42 40.208,-10.325c1.5,-0.308 2.713,-1.5 3.096,-3.02c4.779,-18.55 6.171,-37.317 9.883,-55.271c5.017,-24.55 12.4,-50.2 13.784,-76.421c1.241,-25.15 6.279,-51.354 6.304,-77.346c0,-5.825 -0.238,-11.65 -0.871,-17.437c-1.358,-11.613 -2.837,-27.263 -15.767,-34.992m2.105,129.35c-1.259,24.937 -8.467,50.162 -13.613,75.133c-3.642,17.842 -5.075,35.609 -9.171,52.525c-13.483,3.442 -23.662,8.942 -36.325,9.5c-19.533,0.942 -39.191,1.517 -59.196,2.421c-33.925,1.479 -68.27,4.229 -102.233,4.229c-2.7,0 -5.412,-0.021 -8.112,-0.037c-4.134,-0.079 -10.7,-0 -16.85,-0.596c-6.134,-0.5 -11.855,-2.192 -13.209,-3.788c-1.258,-1.037 -3.779,-6.366 -5.537,-11.904c-1.838,-5.591 -3.392,-11.608 -4.325,-15.183c-2.721,-10.442 -3.613,-20.267 -3.613,-30.15c-0.021,-12.879 1.546,-25.858 2.488,-40.179c0.337,-5.267 0.479,-10.634 0.479,-15.9c-0.025,-25.534 -3.217,-51.196 -3.288,-75.979l-0.295,-0.213l0.295,0l0,-0.017c0,-13.862 3.196,-29.033 8.155,-42.066c6.083,-15.384 15.141,-17.613 31.366,-20.4c23.713,-3.75 47.525,-10.784 70.488,-10.763c1.596,0 3.154,0.013 4.712,0.113l0.213,-4.134l-0.184,4.134c10.063,0.441 20.109,0.558 30.146,0.558c21.071,0 42.113,-0.637 63.079,-0.637c3.663,-0 7.325,0.02 10.975,0.079l0.667,-0c8.575,-0.021 20.188,-1.904 30.433,-1.863c6.738,-0.062 12.709,0.846 16.313,2.979c8.237,4.48 10.487,16.9 11.612,28.663c0.596,5.462 0.846,10.979 0.846,16.554c0.017,24.917 -4.991,50.946 -6.316,76.921" style="fill:#231f20;fill-rule:nonzero;"/></svg>