<?xml version="1.0" encoding="UTF-8" standalone="no"?><!DOCTYPE svg PUBLIC "-//W3C//DTD SVG 1.1//EN" "http://www.w3.org/Graphics/SVG/1.1/DTD/svg11.dtd"><svg width="100%" height="100%" viewBox="0 0 386 307" version="1.1" xmlns="http://www.w3.org/2000/svg" xmlns:xlink="http://www.w3.org/1999/xlink" xml:space="preserve" xmlns:serif="http://www.serif.com/" style="fill-rule:evenodd;clip-rule:evenodd;stroke-linejoin:round;stroke-miterlimit:2;"><path d="M155.578,224.447c-0.646,-0.313 -1.371,-0.463 -2.042,-0.463c-2.204,0.067 -3.9,1.279 -5.47,2.708c-1.655,1.559 -3.263,3.621 -4.73,5.73c0.475,-2.334 0.838,-4.538 0.859,-6.213l-0,-0.579c-0.079,-1.175 -1.075,-2.075 -2.217,-1.988c-1.158,0.042 -2.05,1.063 -1.979,2.225c-0,0.084 0.012,0.205 0.012,0.342c0.055,3.033 -2.291,11.05 -2.708,16.208c-0.075,0.946 0.492,1.817 1.375,2.138c0.875,0.333 1.863,0.021 2.413,-0.742c1.266,-1.804 3.454,-5.791 6.008,-9.425c1.262,-1.783 2.596,-3.462 3.817,-4.587c1.204,-1.163 2.283,-1.613 2.62,-1.559c0.125,0 0.196,0.009 0.284,0.042c0.437,0.108 1.35,1.417 1.779,3.729c0.483,2.259 0.625,5.159 0.625,7.825c-0,2.967 -0.154,5.588 -0.163,7.071c0,1.183 0.93,2.117 2.105,2.117c1.154,-0 2.087,-0.934 2.087,-2.117c0,-1.225 0.158,-3.987 0.158,-7.071c0,-2.816 -0.129,-5.921 -0.695,-8.696c-0.613,-2.7 -1.509,-5.375 -4.138,-6.695" style="fill:#231f20;fill-rule:nonzero;"/><path d="M121.292,216.471c-2.908,0 -5.954,1.15 -8.066,3.3c-0.038,-0.033 -0.08,-0.062 -0.125,-0.096c-1,-0.583 -2.284,-0.225 -2.85,0.775c-1.871,3.309 -2.921,7.338 -2.925,11.059c-0,2.416 0.429,4.75 1.62,6.675c1.159,1.9 3.338,3.3 5.88,3.3l0.12,-0c2.188,-0.021 4.555,-0.83 7.259,-2.409c4.058,-2.525 8.208,-7.708 8.321,-13.487c-0,-1.571 -0.359,-3.204 -1.205,-4.667c-1.791,-3.117 -5.016,-4.492 -8.029,-4.45m-1.2,18.95c-2.3,1.363 -4.041,1.825 -5.146,1.817c-1.308,-0.034 -1.829,-0.421 -2.45,-1.334c-0.604,-0.904 -1,-2.504 -0.995,-4.395c-0,-0.817 0.062,-1.667 0.204,-2.517c0.408,0.237 0.9,0.346 1.396,0.25c1.15,-0.183 1.92,-1.271 1.725,-2.442c-0.055,-0.266 -0.063,-0.483 -0.063,-0.708c0.004,-1.517 0.704,-2.775 1.946,-3.796c1.233,-1 2.967,-1.612 4.583,-1.612c1.896,0.045 3.438,0.733 4.409,2.366c0.437,0.784 0.65,1.588 0.654,2.538c0.129,3.425 -3.388,8.221 -6.263,9.833" style="fill:#231f20;fill-rule:nonzero;"/><path d="M195.889,211.463l0.054,0c11.021,0 21.663,-3.558 29.717,-11.846c0.816,-0.825 0.796,-2.158 -0.021,-2.987c-0.3,-0.3 -0.675,-0.342 -1.046,-0.421c-1.183,-1.975 -2.958,-6.112 -4,-8.8c-1.342,-3.462 -3.021,-7.212 -3.708,-10.533c-0.15,-0.654 -0.579,-1.192 -1.171,-1.484c-0.6,-0.291 -1.3,-0.258 -1.888,0.075c-0.1,0.055 -0.195,0.117 -0.266,0.184c-2.046,0.183 -3.667,1.279 -5.488,2.308c-1.787,1.096 -3.637,2.3 -4.279,2.538c-3.187,1.27 -6.083,1.687 -9.675,1.687c-7.129,0.013 -14.258,-0.925 -19.65,-4.846c-9.15,-6.621 -18.433,-17.058 -18.329,-27.721c-0,-2.041 0.35,-4.137 1.067,-6.266c8.47,-0.225 18.166,-1.546 26.77,-1.538c0.425,0 0.838,0 1.271,0.013c0.779,0.033 1.521,-0.421 1.884,-1.129c0.391,-0.709 0.316,-1.567 -0.13,-2.2c-0.275,-0.325 -0.587,-1.617 -0.558,-3.271c0,-2.171 0.371,-4.771 0.371,-6.9c-0,-0.204 -0,-0.429 -0.021,-0.654c-0.012,-0.584 -0.287,-1.15 -0.75,-1.53c-0.45,-0.395 -1.046,-0.545 -1.625,-0.47c-1.608,0.216 -3.387,0.3 -5.246,0.3c-1.662,-0 -3.383,-0.055 -5.116,-0.055c-0.621,0 -1.238,0.021 -1.871,0.034c-5.096,0.137 -9.809,1.087 -14.413,1.225c-0.058,-0.279 -0.108,-0.559 -0.108,-0.946c-0.033,-2.158 0.967,-5.233 1.746,-7.083c0.05,-0 0.062,0.033 0.104,0.033c3.487,-0.042 6.562,-0.754 9.462,-0.742c0.5,0 1,0.013 1.509,0.075c3.371,0.313 7.346,0.879 11.258,0.879c1.433,0 2.854,-0.062 4.258,-0.279c0.855,-0.137 1.538,-0.783 1.734,-1.612c0.771,-4.017 0.216,-6.834 1.812,-8.813c0.484,-0.675 0.538,-1.566 0.146,-2.287c-0.408,-0.729 -1.187,-1.163 -2,-1.088c-9.337,0.767 -19.167,1.375 -28.567,1.496c3.284,-8.6 6.092,-15.875 13.475,-21.671c9.68,-7.587 20.263,-8.933 32.696,-9.646c0.821,-0.045 1.529,-0.575 1.821,-1.345c0.725,-1.921 3.854,-9.475 3.921,-14.721c-0,-0.984 -0.104,-1.954 -0.504,-2.904c-0.379,-0.913 -1.25,-1.855 -2.384,-2.213c-0.054,-0.112 -0.004,-0.229 -0.079,-0.337c-3.171,-4.555 -8.491,-6.209 -14.116,-6.192c-7.755,0.021 -16.655,2.921 -24.367,6.683c-7.738,3.788 -14.154,8.234 -17.079,12.192c-17.588,24.279 -21.775,50.912 -21.771,79.233c-0,3.559 0.067,7.125 0.179,10.759c1.171,29.495 35.058,54.666 64.971,54.816m-60.963,-65.575c0.005,-27.946 4.1,-53.425 20.967,-76.737c1.979,-2.817 8.2,-7.367 15.504,-10.879c7.321,-3.575 15.859,-6.28 22.559,-6.263c4.937,0.008 8.604,1.392 10.687,4.408c0.225,0.321 0.592,0.438 0.929,0.596c0.2,0.542 0.567,1.025 1.146,1.259c0.042,0.17 0.146,0.587 0.146,1.154c0.037,3.062 -2.042,9.05 -3.138,11.912c-12.012,0.75 -23.329,2.334 -33.691,10.459c-9.163,7.175 -12.067,16.412 -15.7,25.775c-0.421,1.075 0.104,2.312 1.191,2.75c0.067,0.012 0.13,0.012 0.192,0.025c0.388,0.45 0.913,0.762 1.538,0.762c8.958,-0.033 18.304,-0.592 27.241,-1.292c-0.483,1.913 -0.45,3.721 -0.608,5.28c-0.692,0.041 -1.408,0.083 -2.146,0.083c-3.504,-0 -7.371,-0.567 -10.887,-0.892c-0.634,-0.041 -1.267,-0.062 -1.88,-0.062c-3.52,0.008 -6.6,0.708 -9.504,0.729c-0.462,0.012 -0.829,0.246 -1.179,0.504c-0.912,-0.171 -1.871,0.129 -2.283,1.025c-0.971,2.063 -2.504,5.996 -2.542,9.746c0.004,1.646 0.313,3.437 1.596,4.879c0.417,0.45 0.992,0.679 1.546,0.679c0.333,0 0.641,-0.196 0.946,-0.379c5.216,-0.117 10.066,-1.104 14.745,-1.233c0.584,-0.013 1.171,-0.013 1.755,-0.013c1.666,0 3.383,0.021 5.116,0.021c1.121,0 2.25,-0.008 3.379,-0.075c-0.112,1.496 -0.287,3.346 -0.295,5.117c0.008,0.804 0.037,1.591 0.141,2.354c-9.225,0.171 -19.112,1.571 -27.075,1.621c-1.166,0.012 -2.096,0.958 -2.087,2.121c-0,0.116 0.108,0.17 0.112,0.279c-0.962,2.708 -1.412,5.396 -1.412,8.016c0.104,13.146 10.512,24.13 20.1,31.159c6.571,4.775 14.65,5.633 22.083,5.646c3.913,0.008 7.483,-0.496 11.225,-1.992c1.471,-0.621 3.133,-1.792 4.883,-2.825c1.159,-0.763 2.421,-1.346 3.113,-1.633c0.933,3.2 2.317,6.275 3.367,8.975c1.07,2.729 2.679,6.62 4.17,9.187c-6.945,6.192 -15.583,9.071 -24.987,9.071c-27.783,0.15 -60.217,-24.525 -60.779,-50.688c-0.125,-3.6 -0.188,-7.145 -0.184,-10.629" style="fill:#231f20;fill-rule:nonzero;"/><path d="M199.539,245.567c-5.305,1.462 -11.771,4.158 -16.446,4.125c-2.029,-0.009 -3.579,-0.438 -4.763,-1.45c-1.016,-0.859 -1.941,-2.267 -2.533,-4.696c3.454,-0.259 6.846,-2.192 9.683,-4.484c2.963,-2.545 5.413,-5.2 5.6,-8.52c0.046,-1.205 -0.629,-2.667 -1.775,-3.388c-1.121,-0.742 -2.421,-0.967 -3.95,-0.967c-0.916,0 -1.958,0.096 -3.141,0.3c-6.296,1 -10.5,6.075 -11.013,12.18c-0.292,0.15 -0.546,0.366 -0.742,0.633c-0.704,0.933 -0.52,2.271 0.405,2.958c0.166,0.117 0.32,0.213 0.483,0.321c0.017,0.15 0.042,0.3 0.062,0.442c0.646,3.812 2.075,6.662 4.242,8.466c2.138,1.817 4.779,2.442 7.379,2.442l0.063,0c6.037,-0.033 12.625,-2.979 17.516,-4.258c1.113,-0.3 1.78,-1.45 1.488,-2.579c-0.296,-1.138 -1.446,-1.805 -2.558,-1.525m-24.163,-6.213c0.313,-4.621 3,-7.867 7.542,-8.696c0.987,-0.183 1.808,-0.237 2.437,-0.237l0.092,-0c0.808,-0 1.279,0.141 1.45,0.216c-0.004,0.646 -1.621,3.292 -4.054,5.138c-2.384,2 -5.467,3.492 -7.467,3.579" style="fill:#231f20;fill-rule:nonzero;"/><path d="M317.966,171.254c1.171,0 2.413,-0.216 3.671,-0.645c3.809,-1.259 6.05,-4.138 5.992,-7.146c-0.192,-4.904 -4.496,-8.921 -9.538,-9.213c-0.312,-0.258 -0.695,-0.441 -1.125,-0.491c-0.491,-0.055 -0.987,-0.08 -1.466,-0.08c-2.354,-0.02 -4.384,0.742 -5.75,2.163c-1.354,1.375 -1.913,3.258 -1.913,5.05c0.034,4.837 3.867,10.254 10.129,10.362m-4.995,-12.695c0.641,0.85 1.845,1.087 2.766,0.516c0.671,-0.416 1.359,-0.579 2.088,-0.587c1.312,-0.013 2.8,0.641 3.896,1.683c1.12,1.013 1.737,2.346 1.716,3.292c-0.066,1.008 -0.404,2.062 -3.175,3.137c-0.837,0.3 -1.604,0.409 -2.296,0.409c-1.787,-0 -3.195,-0.775 -4.27,-2c-1.075,-1.192 -1.68,-2.838 -1.671,-4.117c0.116,-1.075 0.266,-1.838 0.946,-2.333" style="fill:#231f20;fill-rule:nonzero;"/><path d="M85.603,303.563c3.375,0 6.866,-1.816 10.296,-5.558c2.666,-2.942 4.683,-6.467 4.729,-10.263c0.046,-3.204 -1.729,-6.404 -5.192,-8.404c-1.375,-0.754 -2.979,-1.041 -4.962,-1.366c-1.963,-0.246 -4.167,-0.375 -6.175,-0.375c-0.675,-0 -1.313,0.012 -1.942,0.041c-0.05,-0.171 -0.125,-0.321 -0.229,-0.496c-0.663,-0.933 -1.963,-1.191 -2.921,-0.533c-3.733,2.633 -5.192,7.092 -5.192,11.4c0.021,3.667 1.038,7.363 2.959,10.329c1.875,2.938 4.879,5.225 8.629,5.225m-6.509,-20.271c0.496,-0.02 0.984,-0.216 1.375,-0.579c0.196,-0.204 0.35,-0.429 0.459,-0.679c0.796,-0.137 2.033,-0.217 3.371,-0.217c1.82,0 3.879,0.134 5.612,0.367c1.696,0.217 3.217,0.658 3.4,0.808c2.442,1.538 3.067,2.975 3.117,4.75c0.033,2.13 -1.354,4.967 -3.596,7.363c-2.983,3.258 -5.438,4.246 -7.229,4.246c-1.963,-0 -3.709,-1.171 -5.134,-3.334c-1.412,-2.137 -2.266,-5.17 -2.258,-8.008c0,-1.737 0.304,-3.342 0.883,-4.717" style="fill:#231f20;fill-rule:nonzero;"/><path d="M245.916,218.943c-1.117,-0.237 -2.212,0.504 -2.462,1.634c-0.055,0.312 -0.117,0.625 -0.18,0.945c-0.804,3.471 -2.704,7.871 -5.32,11.363c-2.888,3.837 -6.455,6.396 -10.088,6.362c-0.912,0 -1.85,-0.129 -2.85,-0.483c-2.762,-0.687 -5.517,-6.104 -5.375,-9.029c-0.025,-0.808 0.204,-1.238 0.204,-1.238c0.738,-0.9 0.609,-2.22 -0.283,-2.987c-0.896,-0.721 -2.208,-0.6 -2.946,0.312c-0.95,1.184 -1.167,2.571 -1.175,3.913c0.129,4.642 2.783,10.954 8.242,13.05c1.408,0.471 2.812,0.708 4.183,0.696c5.029,-0.009 9.196,-2.975 12.358,-6.729c-1.25,5.57 -2.808,10.92 -5.162,15.383c-2.463,4.708 -4.004,7.812 -8.221,8.804c-0.617,0.138 -1.229,0.2 -1.783,0.2c-2.884,-0.054 -4.259,-1.558 -4.271,-2.867c-0,-0.237 0.037,-0.516 0.133,-0.808c0.359,-1.108 -0.241,-2.3 -1.337,-2.675c-1.1,-0.354 -2.284,0.267 -2.634,1.354c-0.241,0.7 -0.345,1.409 -0.345,2.129c0.045,4.396 4.129,7.084 8.454,7.113l0.066,-0c0.855,-0 1.755,-0.104 2.659,-0.321c6.316,-1.483 8.704,-6.537 10.991,-10.975c4.934,-9.512 6.505,-21.537 8.567,-31.6c0.088,-0.362 0.154,-0.742 0.225,-1.083c0.208,-1.142 -0.521,-2.246 -1.65,-2.463" style="fill:#231f20;fill-rule:nonzero;"/><path d="M83.576,293.858c1.217,-0.213 2.28,-0.688 3.2,-1.292c-0.104,0.721 -0.166,1.258 -0.175,1.646c0.009,0.121 -0.033,0.258 0.105,0.687c0.079,0.205 0.212,0.571 0.612,0.938c0.371,0.342 0.971,0.512 1.321,0.512l0.058,0c1.904,-0.329 1.667,-1.083 1.859,-1.145c0.237,-0.53 0.162,-0.442 0.212,-0.592c0.025,-0.075 0.038,-0.163 0.054,-0.279c0.054,-0.229 0.063,-0.463 0.034,-0.679c0.216,-1.688 0.75,-5.675 0.754,-7.642c-0,-0.183 -0,-0.321 -0.004,-0.492c-0.055,-0.991 -0.763,-1.796 -1.713,-1.971c-0.954,-0.17 -1.904,0.334 -2.292,1.217c-1.225,2.783 -2.666,4.546 -4.787,4.921c-1.133,0.217 -1.888,1.321 -1.675,2.475c0.204,1.137 1.287,1.912 2.437,1.696" style="fill:#231f20;fill-rule:nonzero;"/><path d="M373.115,126.176c-3.116,-2.675 -7.654,-3.429 -12.187,-3.846c-4.525,-0.388 -9.125,-0.246 -12.013,-0.388c-7.512,-0.325 -15.012,-0.441 -22.5,-0.441c-14.929,-0 -29.8,0.441 -44.612,0.483c-0.967,0 -1.75,0.633 -2.009,1.525c-3.175,0.767 -5.854,3.171 -8.166,6.225c-8.346,11.221 -13.767,33.546 -13.829,45.883c0.008,2.646 0.229,4.825 0.929,6.642c2.483,6.233 6.579,9.783 11.233,11.696c4.642,1.925 9.746,2.492 14.967,3.525c15.779,3.029 33.058,4.192 48.237,7.9c4.888,1.171 11.709,2.192 18.859,2.192c12.541,-0.042 26.662,-3.009 31.437,-15.142c1.204,-3.15 1.642,-6.504 1.642,-9.921c-0.029,-10.996 -4.5,-23.054 -5.496,-31.987c-0.896,-6.321 -0.133,-18.38 -6.492,-24.346m-96.387,6.912c1.004,-2.666 2.375,-4.233 4.296,-4.858c0.391,-0.129 0.637,-0.442 0.891,-0.729c0.275,-0 0.554,0.021 0.846,0.083c1.046,0.238 2.088,-0.375 2.425,-1.375c13.754,-0.083 27.504,-0.462 41.229,-0.462c7.45,-0 14.888,0.095 22.317,0.429c3.129,0.129 7.617,0.021 11.846,0.375c2.741,0.208 5.283,0.712 7.233,1.433c-0.096,0.6 0,1.213 0.4,1.683c0.842,0.992 1.475,3.475 1.458,6.667c0.055,8.779 -4.229,22.483 -6.737,26.783c-7.579,13.284 -20.813,17.575 -35.438,17.605c-9.566,0.012 -19.554,-1.9 -28.375,-4.342c-10.791,-3.021 -18.033,-8.158 -21.608,-18.388c-1.037,-2.979 -2.187,-9.212 -2.187,-15.154c-0,-3.604 0.429,-7.116 1.404,-9.75m102.837,57.825c-3.362,9.242 -15.412,12.434 -27.541,12.413c-6.759,-0 -13.334,-0.967 -17.88,-2.084c-15.662,-3.775 -33.012,-4.945 -48.42,-7.92c-5.405,-1.034 -10.292,-1.667 -14.15,-3.292c-3.871,-1.667 -6.767,-4.063 -8.955,-9.383c-0.366,-0.838 -0.633,-2.688 -0.633,-5.03c-0.017,-7.429 2.4,-19.904 6.292,-30.233c0.966,-2.6 2.033,-5.062 3.166,-7.3c-0.179,1.571 -0.304,3.163 -0.304,4.754c0.009,6.5 1.163,12.909 2.404,16.55c3.992,11.738 12.98,17.984 24.48,21.088c9.05,2.496 19.358,4.483 29.47,4.483l0.188,0c15.258,0 30.396,-4.796 38.883,-19.712c2.967,-5.309 7.067,-18.38 7.259,-28.367c0.975,4.625 1.241,10.179 1.612,14.137c1.167,9.713 5.521,21.6 5.483,31.492c0,3.05 -0.4,5.879 -1.354,8.404" style="fill:#231f20;fill-rule:nonzero;"/><path d="M96.061,212.645c-0.3,-0.946 -1.205,-1.591 -2.192,-1.516c-0.988,0.108 -1.8,0.883 -1.904,1.883c-0.396,3.546 -2.871,5.867 -6.259,8.437c-2.491,1.913 -5.412,3.805 -7.508,6.617c-1.058,-1.642 -2.167,-3.621 -3.196,-5.521c-0.991,-1.783 -1.904,-3.408 -2.816,-4.837c0.066,-0.838 -0.242,-1.654 -1.009,-2.075c-0.191,-0.084 -0.391,-0.034 -0.604,-0.075c-0.137,-0.163 -0.271,-0.409 -0.417,-0.559c-0.858,-0.783 -2.183,-0.708 -2.958,0.15c-0.612,0.667 -0.55,1.58 -0.158,2.355c-0.175,0.162 -0.313,0.225 -0.521,0.441c-0.788,0.85 -0.75,2.192 0.096,3.009c0.091,0.075 0.179,0.15 0.291,0.225c-1.766,6.308 -3.129,13.791 -3.141,20.345c-0,0.688 0.012,1.355 0.046,2.013c-0.034,0.171 -0.071,0.362 -0.08,0.621c-0.029,0.483 0.225,1.237 0.763,1.666c0.521,0.43 1.058,0.505 1.392,0.505c0.17,-0 0.312,-0.03 0.412,-0.03c0.683,-0.129 1.242,-0.57 1.538,-1.162c0.879,-0.6 1.17,-1.796 0.65,-2.763c-0.134,-0.245 -0.317,-0.462 -0.534,-0.633l0,-0.217c0,-5.629 1.175,-12.358 2.704,-18.162c0.221,0.396 0.446,0.796 0.68,1.212c1.658,3.034 3.458,6.375 5.508,8.717c0.487,0.538 1.208,0.796 1.917,0.667c0.729,-0.109 1.325,-0.613 1.587,-1.288c1.117,-2.933 4.35,-5.212 7.883,-7.846c1.371,-1.045 2.817,-2.183 4.084,-3.537c-0.538,4.342 -1.875,9.137 -1.913,13.596c0,1.708 0.221,3.416 0.838,5.029c0.316,0.85 1.112,1.354 1.958,1.354c0.246,0 0.492,-0.042 0.75,-0.129c1.088,-0.429 1.6,-1.663 1.204,-2.742c-0.383,-0.975 -0.554,-2.166 -0.554,-3.512c-0.054,-4.579 2.113,-10.854 2.138,-17.013c-0,-1.754 -0.175,-3.504 -0.675,-5.225" style="fill:#231f20;fill-rule:nonzero;"/><path d="M311.147,98.866l-0,-0.021c0.337,-0.3 0.65,-0.613 0.95,-0.946c0.017,0.213 0.033,0.408 0.054,0.6c0.113,1 0.233,1.904 0.425,2.675c0.096,0.4 0.196,0.754 0.408,1.175c0.209,0.321 0.559,1.267 2.13,1.408c1,-0.02 1.566,-0.583 1.791,-0.837c0.767,-0.883 0.679,-2.204 -0.196,-2.992c-0.05,-0.054 -0.091,-0.062 -0.145,-0.129c-0.296,-1.558 -0.555,-5.242 -0.525,-7.392c-0,-0.433 0.008,-0.837 0.02,-1.12c0.046,-1 -0.591,-1.892 -1.537,-2.146c-0.95,-0.271 -1.946,0.175 -2.408,1.046c-1.18,2.266 -2.246,4.154 -3.767,5.529c-0.858,0.762 -0.942,2.096 -0.154,2.987c0.762,0.863 2.083,0.946 2.954,0.163" style="fill:#231f20;fill-rule:nonzero;"/><path d="M310.716,114.257l0.055,-0c0.383,-0.013 0.762,-0.013 1.137,-0.034c5.229,-0.308 10.2,-3.396 14.046,-7.416c3.796,-4.071 6.542,-9.134 6.592,-14.138c0.091,-4.096 -2.242,-8.029 -6.813,-10.083c-0.167,-0.579 -0.579,-1.088 -1.179,-1.367c-2.508,-1.104 -4.996,-1.625 -7.367,-1.625c-11.871,0.2 -19.775,12.008 -19.858,21.817c-0.004,3.312 0.958,6.579 3.246,9.021c2.275,2.429 5.758,3.825 10.141,3.825m-4.654,-24.613c2.871,-3.496 6.75,-5.808 11.125,-5.808c1.221,-0 2.479,0.171 3.8,0.562c0.184,0.688 0.704,1.275 1.442,1.504c4.662,1.513 5.812,3.742 5.921,6.767c0.041,3.317 -2.129,7.742 -5.434,11.204c-3.266,3.492 -7.6,5.954 -11.183,6.117c-0.333,-0 -0.654,0.021 -0.962,0.021c-3.605,-0.021 -5.784,-1.05 -7.163,-2.513c-1.379,-1.454 -2.075,-3.55 -2.079,-6.087c-0.025,-3.759 1.675,-8.321 4.533,-11.767" style="fill:#231f20;fill-rule:nonzero;"/><path d="M342.586,70.232c-0.059,0.337 -0.017,0.687 0.091,1.017c0.075,0.183 0.129,0.358 0.304,0.645c0.18,0.209 0.546,0.95 1.85,1.042c1.092,-0.037 1.588,-0.679 1.75,-0.917c0.384,-0.62 0.417,-0.82 0.425,-0.941c0.55,-0.684 0.625,-1.646 0.155,-2.442c-0.013,0 -0.013,-0.017 -0.025,-0.033c0.687,-3.088 1.741,-6.4 1.762,-10.192c0,-0.142 0,-0.321 -0.008,-0.517c-0.029,-0.945 -0.671,-1.775 -1.596,-1.979c-0.908,-0.241 -1.867,0.179 -2.333,1.013c-1.575,2.937 -4.967,5.083 -8.309,5.066l-0.291,0c-1.159,-0.05 -2.125,0.871 -2.175,2.034c-0.038,1.175 0.875,2.146 2.025,2.191l0.441,0c2.625,-0.016 5.125,-0.825 7.263,-2.2c-0.454,1.959 -0.996,4.009 -1.329,6.213" style="fill:#231f20;fill-rule:nonzero;"/><path d="M304.096,62.795l0.13,-0c0.941,-0 1.929,-0.108 2.954,-0.304c9.366,-2.025 13.537,-12.509 13.591,-20.838c-0.004,-3.062 -0.566,-5.95 -1.916,-8.291c-1.329,-2.338 -3.796,-4.096 -6.784,-4.042c-0.57,-0 -1.137,0.054 -1.725,0.154c-1.137,-0.325 -2.258,-0.504 -3.341,-0.487c-4.675,-0 -8.338,2.95 -10.65,6.695c-2.346,3.767 -3.596,8.475 -3.596,12.975c-0,3.496 0.746,6.905 2.587,9.613c1.83,2.683 4.917,4.525 8.75,4.525m-4.204,-24.854c1.775,-2.804 4,-4.492 6.559,-4.704c0.495,1.041 1.72,1.504 2.758,1.033c0.337,-0.146 0.658,-0.279 0.954,-0.371c0.246,0.092 0.5,0.208 0.754,0.342c0.85,0.416 1.838,0.212 2.459,-0.454c0.733,0.279 1.291,0.837 1.87,1.75c0.825,1.379 1.338,3.6 1.338,6.116c0.046,7.109 -4.008,15.684 -10.188,16.684c-0.8,0.133 -1.52,0.216 -2.17,0.216c-2.675,-0.046 -4.209,-1.021 -5.425,-2.725c-1.192,-1.696 -1.867,-4.304 -1.859,-7.171c-0.008,-3.7 1.096,-7.766 2.95,-10.716" style="fill:#231f20;fill-rule:nonzero;"/><path d="M278.531,70.039c-4.229,0.037 -7.729,2.725 -10.158,6.204c-2.454,3.512 -3.971,7.979 -3.971,12.383c-0.204,6.733 4.221,13.646 13.738,14.292c0.408,0.033 0.812,0.041 1.204,0.041c9.017,-0.062 15.692,-8.22 15.717,-16.97l-0,-0.017c0.012,-4.058 -2.142,-7.242 -4.767,-9.421c-1.767,-1.475 -3.771,-2.621 -5.704,-3.479c-0.063,-0.663 -0.438,-1.283 -1.05,-1.625l-0,-0.017c-1.617,-0.933 -3.346,-1.391 -5.009,-1.391m9.071,9.766c2.042,1.734 3.267,3.692 3.267,6.167l-0,0.017c-0,6.654 -5.25,12.737 -11.525,12.745c-0.288,0 -0.571,-0.008 -0.867,-0.029c-7.608,-0.808 -9.704,-4.858 -9.887,-10.079c-0.013,-3.396 1.246,-7.162 3.204,-9.933c1.937,-2.779 4.421,-4.409 6.667,-4.409l0.07,0c0.167,0 0.334,0 0.5,0.013c0.125,0.767 0.634,1.437 1.413,1.696c2.383,0.796 5.137,2.096 7.158,3.812" style="fill:#231f20;fill-rule:nonzero;"/><path d="M277.575,80.556c-0.979,3.229 -2.063,6.808 -3.088,7.117c-1.008,0.558 -1.375,1.866 -0.796,2.883c0.567,1.013 1.846,1.375 2.863,0.796c0.337,-0.225 0.65,-0.467 0.933,-0.721c0.05,0.621 0.138,1.242 0.254,1.833c0.296,1.371 0.738,2.896 2.384,3.855c0.304,0.17 0.637,0.266 0.971,0.266c0.745,0 1.47,-0.416 1.854,-1.129c0.525,-1.008 0.183,-2.233 -0.771,-2.812c-0.075,-0.113 -0.296,-0.596 -0.396,-1.384c-0.142,-0.871 -0.183,-2.058 -0.183,-3.3c-0,-1.716 0.087,-3.566 0.087,-5.162c0,-0.604 -0.012,-1.167 -0.046,-1.688c-0.079,-0.996 -0.829,-1.821 -1.82,-1.954c-0.98,-0.129 -1.925,0.45 -2.246,1.4" style="fill:#231f20;fill-rule:nonzero;"/><path d="M121.318,302.327c0.854,-0.162 1.7,-0.408 2.504,-0.741c-0.025,0.321 -0.046,0.625 -0.054,0.925c0.008,0.762 0.083,1.625 0.621,2.512c0.492,0.896 1.662,1.55 2.679,1.571l0.133,0c1.105,0 2.03,-0.871 2.092,-1.979c0.058,-0.942 -0.508,-1.783 -1.333,-2.117c-0.046,-1.341 0.962,-4.362 1.679,-6.683c0.129,-0.4 0.262,-0.808 0.354,-1.225c0.258,-1.117 -0.417,-2.246 -1.517,-2.538c-1.116,-0.291 -2.25,0.375 -2.541,1.505c-0.004,0.012 -0.004,0.041 -0.017,0.054c-0.654,2.591 -2.408,3.9 -5.404,4.558c-1.129,0.213 -1.875,1.342 -1.658,2.471c0.22,1.15 1.325,1.904 2.462,1.687" style="fill:#231f20;fill-rule:nonzero;"/><path d="M183.126,275.221c0,-0.163 -0.012,-0.3 -0.012,-0.388c-0.129,-4.429 -2.792,-7.425 -5.817,-8.908c-2.566,-1.325 -5.441,-1.892 -8.004,-2.217c-2.004,-1.204 -4.037,-1.804 -5.975,-1.804c-3.821,0 -6.908,2.267 -8.875,5.233c-1.975,2.988 -3.058,6.75 -3.067,10.492c0,3.408 0.913,6.838 3.138,9.533c2.2,2.68 5.725,4.396 10.2,4.396l0.092,0c1.47,0 3.054,-0.171 4.745,-0.529c6.717,-1.579 13.359,-8.412 13.575,-15.808m-14.425,11.675c-1.445,0.279 -2.745,0.429 -3.895,0.429c-6.867,-0.129 -9.034,-4.342 -9.242,-9.696c-0.013,-2.904 0.896,-5.954 2.358,-8.125c1.488,-2.171 3.321,-3.367 5.396,-3.367c0.779,0 1.621,0.15 2.579,0.559c0.317,0.591 0.909,0.991 1.596,1.054c2.708,0.279 5.746,0.829 7.904,1.937c2.146,1.192 3.359,2.492 3.538,5.267l-0,0.267c0.221,4.504 -5.654,10.887 -10.234,11.675" style="fill:#231f20;fill-rule:nonzero;"/><path d="M340.817,79.708l0.175,-0c10.717,-0.092 17.221,-9.842 17.242,-18.584c0.092,-5.054 -2.379,-10.158 -7.417,-12.612c-0.191,-0.471 -0.529,-0.871 -1.008,-1.113l-0.008,0c-2.321,-1.195 -4.663,-1.758 -6.913,-1.758c-10.233,0.2 -17.146,10.592 -17.208,19.85c-0.196,6.821 4.454,13.579 13.933,14.163c0.421,0.041 0.817,0.054 1.204,0.054m-10.954,-14.217c-0.021,-3.579 1.458,-7.625 3.875,-10.646c2.425,-3.029 5.646,-4.962 9.125,-4.962l0.025,-0c0.396,-0 0.783,0.008 1.188,0.066c0.25,0.734 0.862,1.3 1.679,1.421c6.008,1.025 8.141,4.863 8.271,9.754c0.025,3.359 -1.3,7.05 -3.596,9.784c-2.309,2.741 -5.475,4.558 -9.438,4.562c-0.354,0 -0.708,-0.008 -1.058,-0.025c-7.658,-0.787 -9.896,-4.783 -10.071,-9.954" style="fill:#231f20;fill-rule:nonzero;"/><path d="M172.163,271.641c-0.746,-0.45 -0.983,-0.437 -1.108,-0.421c-0.054,0.013 -0.092,0.013 -0.15,0c-1.159,0.121 -0.992,0.325 -1.184,0.367c-0.408,0.304 -0.262,0.217 -0.379,0.325c-0.054,0.062 -0.112,0.117 -0.196,0.204l-0.141,0.225c-1.975,2.463 -5.334,4.533 -8.188,5.404c-1.121,0.346 -1.733,1.529 -1.391,2.659c0.333,1.104 1.52,1.729 2.616,1.383c1.475,-0.463 2.988,-1.108 4.446,-1.946c-0.129,0.796 -0.208,1.638 -0.208,2.496c-0,0.367 0.008,0.742 0.054,1.158c0.104,1.1 1.012,1.917 2.079,1.917c0.075,-0 0.142,-0 0.213,-0.013c1.145,-0.095 1.995,-1.137 1.883,-2.308c-0.029,-0.217 -0.033,-0.462 -0.033,-0.754c-0.013,-2.45 0.87,-5.042 2,-7.588c0.016,-0.012 0.02,-0.025 0.029,-0.041c0.037,-0.046 0.054,-0.079 0.104,-0.142c0.037,-0.033 0.058,-0.087 0.108,-0.162c0.038,-0.184 0.192,-0.055 0.3,-1.075c0.013,-0.75 -0.504,-1.463 -0.854,-1.688" style="fill:#231f20;fill-rule:nonzero;"/><path d="M64.354,58.544c-1.079,-0.45 -2.479,-0.867 -4.041,-1.296c0.004,-0.079 0.096,-0.134 0.096,-0.221c-0.009,-6.758 -0.009,-17.121 -0.009,-21.854c6.584,1.983 12.759,4.429 17.05,5.716c0.979,0.296 2.038,-0.187 2.488,-1.116c2.037,-4.517 3.896,-6.746 4.033,-10.05c0.025,-1.567 -0.658,-3.092 -1.737,-4.379c-1.08,-1.305 -2.575,-2.575 -4.625,-4.159c-3.967,-3.033 -8.342,-5.383 -13.163,-6.646c-0.012,-0.208 0.1,-0.4 0.025,-0.612c-1.212,-3.229 -1.021,-7.454 -1.079,-11.838c-0.017,-0.616 -0.292,-1.2 -0.758,-1.591c-0.459,-0.396 -1.084,-0.575 -1.68,-0.467c-5.625,0.963 -11.97,0.725 -18.312,1.033c-1.121,0.055 -1.996,1.009 -1.983,2.134c0.054,3.904 0.575,7.262 0.816,10.829c-7.612,1.083 -15.096,3.225 -21.587,6.383c-11.096,5.421 -19.825,16.196 -19.888,27.729c-0.029,6.209 2.725,12.505 8.792,17.65c7.992,6.788 17.525,8.013 26.758,8.696c1.654,0.121 3.275,0.234 4.904,0.346c-1.083,17.496 -1.958,34.771 -2.008,52.496c-1.521,0.129 -3.004,0.204 -4.446,0.204c-7.287,-0.021 -13.058,-1.829 -15.775,-5.954c0.025,-0.054 0.059,-0.108 0.079,-0.142c0.48,-1.083 0.005,-2.329 -1.041,-2.825c-0.45,-0.204 -0.938,-0.225 -1.388,-0.121c-0.425,-0.095 -0.875,-0.083 -1.308,0.109c-1.029,0.408 -1.558,1.55 -1.208,2.604c-2.25,2.125 -7.259,4.675 -11.134,6.017c-0.762,0.291 -1.308,1 -1.362,1.837c-0.017,0.258 -0.017,0.483 -0.017,0.688c-0.062,6.32 3.679,10.887 8.842,13.275c5.175,2.429 11.841,3.279 18.962,3.3c3.775,-0.021 7.671,-0.271 11.521,-0.688c-0.337,1.988 -0.533,3.967 -0.533,5.921c-0,4.967 0.787,9.704 1.021,14.492c0.033,0.654 0.358,1.254 0.891,1.62c0.354,0.267 0.775,0.396 1.213,0.396c0.204,0 0.408,-0.029 0.616,-0.104c3.617,-1.142 7.442,-1.842 11.188,-1.842c1.862,0 3.704,0.163 5.492,0.559c0.754,0.162 1.516,-0.104 2.012,-0.675c0.508,-0.579 0.667,-1.388 0.408,-2.117c-0.762,-2.137 -1.104,-4.737 -1.095,-7.45c-0.009,-4.621 0.97,-9.512 2.079,-13.017c0.246,-0.804 -0.129,-1.545 -0.725,-2.095c3.283,-0.913 6.05,-1.859 7.941,-2.696c14.95,-6.675 31.475,-17.896 31.563,-36.875c-0,-1.121 -0.05,-2.259 -0.175,-3.421c-2.154,-18.933 -22.092,-33.067 -37.713,-39.783m-5.129,-53.988c0.009,2.971 0.063,6.108 0.85,9.213c-2.641,-0.35 -5.321,-0.605 -8.058,-0.605c-2.108,0 -4.242,0.18 -6.375,0.371c-0.208,-2.958 -0.563,-5.637 -0.721,-8.325c4.679,-0.154 9.538,-0.108 14.304,-0.654m-1.558,157.442c-1.042,-0.096 -2.067,-0.138 -3.1,-0.138c-3.367,0 -6.704,0.517 -9.9,1.321c-0.321,-4.083 -0.842,-7.933 -0.825,-11.629c-0,-2.204 0.208,-4.35 0.683,-6.492c5.371,-0.741 10.488,-1.762 14.913,-2.858c-1.2,3.871 -2.242,9.05 -2.259,14.229c0,1.871 0.146,3.754 0.488,5.567m11.325,-27.246c-4.429,2 -15.304,4.892 -26.813,6.367c-0.15,-0.034 -0.22,-0.067 -0.433,-0.088c-0.217,0.021 -0.587,0.088 -0.996,0.288c-4.075,0.475 -8.187,0.766 -12.1,0.766c-6.771,0.009 -12.958,-0.871 -17.162,-2.912c-3.938,-1.971 -6.104,-4.421 -6.409,-8.546c3.496,-1.421 7.546,-3.183 10.413,-5.696c4.058,5.138 11.192,6.846 18.508,6.833c12.754,-0.062 27.234,-4.945 33.917,-9.766c7.642,-5.579 11.179,-13.575 11.158,-21.379c0,-10.175 -5.816,-20.125 -15.604,-25.109c-8.842,-4.45 -18.529,-4.554 -27.617,-5.246c-9.133,-0.67 -17.537,-1.891 -24.358,-7.712c-5.267,-4.513 -7.283,-9.45 -7.308,-14.413c-0.079,-9.229 7.537,-19.1 17.512,-23.912c8.863,-4.313 19.904,-6.829 30.317,-6.829c3.05,-0 6.029,0.2 8.883,0.662c5.154,0.779 9.792,3.159 14.159,6.492c1.97,1.512 3.266,2.658 3.945,3.504c0.688,0.858 0.759,1.225 0.78,1.667c0.125,0.833 -1.021,2.933 -2.846,6.583c-7.871,-2.575 -21.442,-8.412 -33.446,-8.437c-6.696,-0.038 -13.246,1.929 -17.529,7.708c-1.946,2.6 -2.971,5.125 -2.979,7.608c0.008,3.942 2.625,6.879 5.879,8.929c4.941,3.125 11.958,5.009 18.571,6.555c6.541,1.504 12.791,2.679 15.304,3.779c14.991,6.279 33.683,20.35 35.166,36.321c0.109,1.02 0.15,2 0.163,2.979c0.096,16 -14.446,26.504 -29.075,33.004m-12.65,-38.779c-0,9.546 -0.354,18.841 -2.096,27.871c-3.612,1.237 -7.575,2.279 -11.604,2.925c0.071,-17.338 0.925,-34.305 1.983,-51.567c4.146,0.371 8.159,0.983 11.934,2.162c-0.142,0.267 -0.346,0.5 -0.346,0.834c-0,5.987 0.129,11.929 0.129,17.775m4.067,-17.121c0.383,0.175 0.795,0.258 1.183,0.446c8.362,4.229 13.292,12.779 13.292,21.321c-0.017,6.575 -2.834,13.091 -9.434,17.958c-1.558,1.162 -3.929,2.396 -6.696,3.558c1.434,-8.641 1.775,-17.379 1.775,-26.162c0,-5.684 -0.108,-11.421 -0.12,-17.121m-13.305,-27.1c-0.133,-0.017 -0.262,-0.038 -0.404,-0.05c-0.1,-3.754 -0.271,-7.863 -0.271,-11.388c0,-2.529 0.092,-4.783 0.33,-6.258c0.12,-0.729 -0.238,-1.337 -0.73,-1.808c3.392,0.246 6.942,0.9 10.484,1.821c-0.096,0.25 -0.296,0.441 -0.296,0.72c-0.004,4.413 -0.004,14.592 -0.004,21.513c-2.396,-0.538 -4.921,-1.1 -7.617,-1.713c0.058,-0.162 0.233,-0.254 0.267,-0.437c0.162,-1.15 -0.625,-2.229 -1.759,-2.4m-4.554,1.304c-0.212,-0.071 -0.433,-0.096 -0.646,-0.162c-4.212,-1.192 -8.129,-2.642 -10.804,-4.367c-2.725,-1.758 -3.921,-3.471 -3.921,-5.342c0,-1.237 0.534,-2.912 2.13,-5.058c3.275,-4.383 8.12,-5.975 14.087,-6.029c-0.387,0.329 -0.687,0.75 -0.771,1.296c-0.304,1.912 -0.383,4.283 -0.383,6.92c-0,4.084 0.2,8.717 0.308,12.742" style="fill:#231f20;fill-rule:nonzero;"/></svg>