<?xml version="1.0" encoding="UTF-8" standalone="no"?><!DOCTYPE svg PUBLIC "-//W3C//DTD SVG 1.1//EN" "http://www.w3.org/Graphics/SVG/1.1/DTD/svg11.dtd"><svg width="100%" height="100%" viewBox="0 0 319 260" version="1.1" xmlns="http://www.w3.org/2000/svg" xmlns:xlink="http://www.w3.org/1999/xlink" xml:space="preserve" xmlns:serif="http://www.serif.com/" style="fill-rule:evenodd;clip-rule:evenodd;stroke-linejoin:round;stroke-miterlimit:2;"><path d="M94.993,253.313c0.037,0.021 0.112,0.037 0.15,0.075c-0.579,2.537 0.654,5.129 3.133,6.1c0.617,0.246 1.267,0.354 1.883,0.354c2.146,-0 4.121,-1.267 4.946,-3.375l-0.021,-0c4.292,-11.771 22.63,-27.329 34.121,-38.579c9.642,-9.759 22.909,-26.284 30.554,-30.909c2.463,-1.533 3.209,-4.816 1.663,-7.258c-0.204,-0.317 -0.467,-0.504 -0.729,-0.746c0.241,-0.246 0.562,-0.412 0.729,-0.708c1.567,-2.467 0.8,-5.729 -1.679,-7.242c-8.117,-4.587 -25.429,-27.308 -41.771,-36.3c4.479,-3.171 9.104,-6.196 12.65,-8.133c0.375,0.092 0.725,-0.038 1.117,-0.058c3.416,6.066 8.454,11.42 13.525,15.691c13.395,10.929 34.345,16.171 54.979,16.246c13.133,-0.037 26.171,-2.2 37.083,-7.012c4.217,5.541 11.046,13.337 17.929,20.687c4.05,4.308 7.984,8.321 11.229,11.304c1.642,1.513 3.042,2.779 4.346,3.788c1.604,0.916 1.754,1.904 5.467,2.312c0.992,0 1.475,-0.221 1.475,-0.166c2.796,-0.73 4.512,-3.58 3.825,-6.4c-0.504,-2.013 -2.129,-3.467 -4.033,-3.863c-4.288,-2.871 -23.184,-22.867 -30.984,-32.85c0.204,-0.15 0.45,-0.262 0.692,-0.392c2.817,-1.995 5.221,-4.216 7.425,-6.566c13.075,3.491 33.837,19.254 44.921,28.037c0.966,0.75 2.108,1.104 3.225,1.104c1.566,0 3.154,-0.691 4.196,-2.054c1.754,-2.312 1.345,-5.633 -0.967,-7.387c-10.633,-8.021 -28.467,-22.721 -44.883,-28.617c3.783,-6.787 5.595,-14.196 5.537,-21.583c-0.054,-7.704 -1.921,-15.317 -4.942,-22.534c6.755,-2.5 15.821,-7.366 24.438,-13.47c9.792,-7.425 19.175,-14.717 19.925,-25.35c-0.058,-7.742 -6.996,-12.613 -16.213,-14.271c-1.979,-0.413 -3.916,-0.579 -5.766,-0.579c-19.379,0.841 -29.509,18.579 -34.4,34.195c-5.446,-6.308 -11.879,-11.625 -18.875,-15.466c1.396,-5.467 8.541,-20.671 8.712,-32.759c0.017,-4.683 -1.158,-9.829 -5.15,-13.541c-3.583,-3.434 -8.208,-5.059 -12.575,-5.038c-9.362,0.467 -17.887,5.971 -23.021,13.375c-2.462,-1.941 -5.575,-2.8 -8.3,-2.725c-5.895,0.075 -11.137,2.763 -15.5,5.842c-8.879,6.004 -12.387,13.896 -12.108,21.45c0,1.437 0.133,2.892 0.263,4.35c-33.413,9.175 -58.634,38.612 -65.721,75.325c-8.825,-9.475 -19.384,-18.092 -24.254,-24.458c-1.771,-2.309 -5.092,-2.7 -7.405,-0.913c-0.225,0.188 -0.375,0.433 -0.562,0.675c-1.304,0.054 -2.608,0.633 -3.579,1.696l-0.017,-0c-21.454,23.6 -52.133,48.354 -69.242,78.275c-0.708,0.467 -1.35,1.025 -1.787,1.812c-1.392,2.555 -0.467,5.746 2.087,7.163l-0.016,-0c31.962,17.646 63.621,46.992 92.275,71.446m156.104,-115.996c-4.796,3.492 -11.083,6.158 -18.133,7.929c-7.034,1.775 -14.813,2.704 -22.721,2.683c-18.788,0.059 -38,-5.258 -48.279,-13.841c-1.755,-1.45 -3.509,-3.15 -5.15,-4.921c-3.059,-3.321 -5.617,-6.904 -7.034,-10.225c-0.204,-0.467 -0.521,-0.967 -0.671,-1.417c-0.45,-1.304 -1.379,-2.312 -2.5,-2.908c-0.412,-0.204 -0.875,-0.338 -1.325,-0.433c-0.912,-0.205 -1.9,-0.28 -2.87,0.075c-0.505,0.17 -0.896,0.487 -1.309,0.75c-6.379,2.404 -14.996,7.833 -22.496,13.429c-0.745,0.558 -1.512,1.1 -2.22,1.641c-0,-0.075 0.02,-0.145 0.037,-0.241c3.263,-37.775 27.217,-68.2 59.175,-77.25c1.1,1.116 2.629,1.791 4.329,1.604c2.013,-0.279 3.596,-1.663 4.234,-3.471c3.616,-0.558 7.291,-0.967 11.041,-0.967c10.654,0 21.921,2.421 33.542,7.496l0.021,0.021c2.162,0.933 4.325,1.808 6.471,2.929c8.225,4.217 15.82,11.471 21.433,19.959c-0.15,2.22 1.046,4.2 3.004,5.112c4.067,7.575 6.588,15.783 6.513,23.542c-0.059,7.016 -1.85,13.6 -6.121,19.604c-1.546,0.562 -2.629,1.867 -3.096,3.492c-0.058,0.166 -0.188,0.279 -0.204,0.445c-1.663,1.734 -3.488,3.396 -5.671,4.963m54.471,-89.858c0.129,0.3 -0,0.745 -0.204,1.304c-1.196,3.154 -7.313,10.187 -15.242,15.446c-7.367,5.3 -15.95,9.833 -21.208,11.937c-0.3,0.096 -0.713,0.3 -1.013,0.433c0.133,-0.633 0.358,-1.308 0.525,-1.92c3.563,-14.2 13.042,-31.584 24.771,-31.584c0.321,0 0.637,0.038 0.971,0.054c1.158,0 2.316,0.092 3.604,0.392c6.733,1.588 7.683,3.042 7.796,3.675c-0,0.113 0.037,0.225 -0,0.263m-66.729,-30.613c0.075,0.575 0.225,1.008 0.225,1.733c0.187,8.059 -5.225,19.405 -7.742,28.28c-12.296,-5.13 -24.475,-7.663 -36.117,-7.663c-3.937,0 -7.779,0.371 -11.566,0.913c-0.055,-0.73 -0.146,-1.55 -0.146,-2.167c0.241,-5.242 0.708,-7.533 7.721,-12.871c3.133,-2.35 7.237,-3.992 9.345,-3.9c1.959,0.563 2.463,-0.837 3.338,6.142c0.037,0.612 0.112,1.004 0.112,1.062c0.525,2.667 3.025,4.496 5.767,4.179c2.704,-0.3 4.738,-2.67 4.683,-5.391c0,-0.167 -0.041,-0.317 -0.041,-0.45c0.171,-2.571 2.296,-6.959 5.766,-10.296c3.563,-3.621 8.321,-5.95 11.696,-5.875c0.859,0.017 1.604,0.183 2.334,0.408c1.008,0.338 2.012,0.842 3.058,1.792c0.842,0.762 1.308,2.183 1.567,4.104m-150.396,96.763c6.362,6.1 12.987,12.35 17.296,18.354c-0.113,2.183 -0.3,4.383 -0.3,6.604c-0,0.412 0.166,0.767 0.225,1.137c-0.3,0.355 -0.73,0.784 -1.009,1.105c-1.679,2.366 -1.137,5.67 1.25,7.35c0.913,0.67 1.979,0.966 3.042,0.966c1.658,0 3.3,-0.783 4.325,-2.221c0.45,-0.837 2.446,-2.683 5.171,-4.904c8.616,1.438 24.475,18.975 36.691,30.334c2.8,2.612 5.467,5 7.742,6.658c-2.65,1.867 -5.408,4.271 -8.187,6.942c-8.08,7.795 -16.363,18 -22.946,24.475c-8.825,8.97 -23.075,20.595 -31.6,33.429c-16.979,-14.534 -35.204,-30.838 -54.234,-45.479c-10.704,-8.246 -21.629,-15.988 -32.783,-22.575c0.296,-0.505 0.692,-1.025 1.008,-1.55c15.584,-25.163 42.505,-48.034 63.509,-70.646c0.129,-0.109 0.262,-0.242 0.375,-0.371c3.058,3.358 6.696,6.867 10.425,10.392" style="fill:#231f20;fill-rule:nonzero;"/><path d="M141.126,89.563c-2.892,0.708 -3.209,1.583 -4.309,2.591c-0.858,1.084 -1.941,2.296 -2.054,5.038c-0.091,0.762 0.129,1.717 0.563,2.612c-0.021,0.355 -0.059,0.746 -0.075,1.155c-0.059,2.575 1.771,4.812 4.325,5.279c0.3,0.054 0.6,0.075 0.916,0.075c2.163,-0 4.234,-1.363 4.98,-3.509c0.841,-2.216 1.662,-4.325 1.754,-7.758c0.075,-1.567 -0.559,-3.133 -1.734,-4.196c-1.175,-1.046 -2.837,-1.55 -4.366,-1.287" style="fill:#231f20;fill-rule:nonzero;"/><path d="M162.429,70.535c-1.212,-0.709 -2.612,-0.896 -3.917,-0.563c-2.033,0.021 -5.82,3.25 -5.487,6.438c-0,0.391 0.042,0.729 0.058,0.991c-0.112,0.409 -0.166,0.838 -0.187,1.25c-0.038,0.388 -0.875,1.659 -1.471,4.08c-0.317,1.55 0.054,3.116 1.004,4.37c0.992,1.209 2.408,1.959 3.996,1.996c0.425,0.017 0.783,0.017 1.1,0.017c2.871,-0.017 5.317,-0.354 7.646,-1.417c2.241,-0.896 4.962,-3.583 4.925,-7.166c-0.429,-5.35 -3.767,-7.571 -7.667,-9.996" style="fill:#231f20;fill-rule:nonzero;"/><path d="M55.63,144.425c-2.612,1.304 -3.654,4.475 -2.35,7.088c0.934,1.829 2.779,2.891 4.721,2.891c0.8,0 1.604,-0.187 2.367,-0.579c10.933,-5.725 18.058,-17.104 25.725,-23.596c2.166,-1.883 2.408,-5.204 0.466,-7.445c-1.92,-2.163 -5.241,-2.405 -7.425,-0.463c-8.933,7.983 -16.283,18.654 -23.504,22.104" style="fill:#231f20;fill-rule:nonzero;"/><path d="M66.712,189.197c-2.146,1.979 -2.238,5.334 -0.28,7.463c1.042,1.116 2.48,1.679 3.88,1.679c1.287,-0 2.575,-0.488 3.6,-1.417l-0.017,0c10.333,-9.775 18.671,-23.771 27.421,-29.346c2.408,-1.587 3.096,-4.866 1.491,-7.295c-1.583,-2.442 -4.866,-3.096 -7.291,-1.492c-11.792,7.987 -19.942,22.35 -28.804,30.408" style="fill:#231f20;fill-rule:nonzero;"/><path d="M79.958,142.746c-2.8,4.345 -8.6,9.962 -12.575,12.537c-2.425,1.583 -3.079,4.888 -1.492,7.313c1.025,1.508 2.704,2.35 4.421,2.35c1.008,-0 2.012,-0.28 2.908,-0.875l-0.016,-0c5.391,-3.621 11.583,-9.517 15.579,-15.596c1.583,-2.467 0.875,-5.709 -1.571,-7.296c-2.425,-1.604 -5.688,-0.875 -7.254,1.567" style="fill:#231f20;fill-rule:nonzero;"/><path d="M78.538,202.013c-1.862,2.221 -1.529,5.579 0.709,7.408c0.97,0.838 2.162,1.229 3.358,1.229c1.512,0 3.004,-0.671 4.067,-1.921l-0,-0.02c8.991,-10.875 23.133,-23.896 34.308,-32.571c2.292,-1.771 2.721,-5.092 0.95,-7.388c-1.792,-2.312 -5.113,-2.721 -7.388,-0.95c-11.808,9.159 -26.229,22.404 -36.004,34.213" style="fill:#231f20;fill-rule:nonzero;"/><path d="M112.155,200.017c-5.296,5.65 -11.792,12.108 -16.546,20.275c-1.437,2.537 -0.6,5.75 1.942,7.221c0.816,0.487 1.712,0.712 2.608,0.712c1.829,0 3.6,-0.954 4.592,-2.633l-0,-0.038c3.804,-6.583 9.641,-12.516 15.108,-18.337c1.996,-2.146 1.867,-5.467 -0.279,-7.442c-2.108,-1.996 -5.429,-1.904 -7.425,0.242" style="fill:#231f20;fill-rule:nonzero;"/></svg>