<?xml version="1.0" encoding="UTF-8" standalone="no"?><!DOCTYPE svg PUBLIC "-//W3C//DTD SVG 1.1//EN" "http://www.w3.org/Graphics/SVG/1.1/DTD/svg11.dtd"><svg width="100%" height="100%" viewBox="0 0 219 285" version="1.1" xmlns="http://www.w3.org/2000/svg" xmlns:xlink="http://www.w3.org/1999/xlink" xml:space="preserve" xmlns:serif="http://www.serif.com/" style="fill-rule:evenodd;clip-rule:evenodd;stroke-linejoin:round;stroke-miterlimit:2;"><path d="M35.579,280.194c12.596,0.979 26.763,-0.521 40.459,-0.216c23.016,0.475 50.446,5.829 76.112,4.57c4.021,-0.195 7.971,-0.55 11.863,-1.12c2.883,-0.446 5.75,-0.917 8.558,-1.609l2.338,-0.537l0.858,-2.254c1.65,-4.275 3.067,-8.675 4.354,-13.184c8.588,-30.066 10.242,-64.258 16.029,-93.358c6.963,-35.183 14.621,-71.017 18.875,-106.479c1.479,-14.596 7.542,-28.134 0.788,-41.825c-1.334,-2.575 -3.159,-5.029 -5.513,-7.329c-15.591,-14.609 -42.775,-10.117 -58.321,-11.175c-25.275,-0.955 -75.97,-11.775 -106.825,-0.784c-2.07,0.75 -4.07,1.596 -5.97,2.546c-1.75,0.904 -3.438,1.963 -5.009,3.129l-6.562,-1.183c-1.296,7.254 -2.629,14.562 -3.971,21.937c-12.442,68.521 -25.763,142.175 -23.358,211.459c0.008,0.171 0.025,0.291 0.041,0.446c0.342,8.158 1.838,14.779 4.613,20.087c6.225,12.05 18.221,15.992 30.641,16.879m-0.612,-260.308c3.733,1.704 6.737,1.642 7.571,2.333l4.279,-8.033c-0.113,-0.05 -0.208,-0.092 -0.304,-0.154c25.479,-10.609 78.191,-0.738 105.046,0.766c16.9,0.446 42.591,-1.795 52.358,8.571c1.725,1.671 2.937,3.342 3.808,5.029c4.663,8.263 0.384,20.33 -1.746,36.521c-4.195,34.892 -11.783,70.525 -18.766,105.804c-6.592,33.671 -8.042,72.35 -19.104,102.8c-24.5,5.184 -55.05,-0.412 -82.534,-2.187c2.409,-0.388 4.717,-1.046 6.838,-2.133c0.087,-0.034 0.187,-0.096 0.291,-0.155c7.221,-3.758 11.125,-12.25 9.334,-21.804l-0.096,-0.429l-0.458,-2.667l-3.075,-0.583c-4.884,-0.996 -9.192,-0.442 -12.88,0.767c-1.633,0.521 -3.162,1.137 -4.483,1.825l-0.842,-1.013c-5.408,3.975 -11.016,11.134 -8.845,22.263l0.512,3.175l1.638,0.321c-2.821,-0.03 -5.642,-0.046 -8.392,0.033c-10.475,0.212 -20.425,0.842 -28.804,0.167c-11.504,-1.013 -19.009,-3.817 -23.279,-11.975c-0.95,-1.809 -1.734,-4 -2.346,-6.534c-0.684,-2.866 -1.15,-6.175 -1.288,-10.116c-2.554,-72.263 12.496,-150.392 25.567,-222.592m45.15,242.754c-0.075,-3.604 0.8,-5.446 2.537,-7.329l0.225,0.337c0.713,-0.475 1.5,-0.983 2.33,-1.395c2.429,-1.242 4.983,-2.1 8.087,-2.1c-0.046,4.708 -2,7.22 -5.092,8.983c-2.029,1.042 -4.804,1.658 -8.087,1.504" style="fill:#231f20;fill-rule:nonzero;"/><path d="M138.371,243.107c2.813,0.583 5.667,1.088 8.38,1.671l4.2,0.858l1.145,-4.108c8.292,-30.742 10.63,-62.921 17.446,-94c4.913,-23.442 25.863,-66.863 22.584,-92.421l-0.421,-2.804l-2.667,-0.875c-35.787,-11.654 -81.367,-11.425 -119.946,-6.688l0.854,-9.183l-7.958,10.121c-1.104,0.167 -2.225,0.304 -3.321,0.475l-13.558,2.054l10.233,5.488c-0.75,0.875 -1.479,1.779 -2.2,2.712l4.846,3.696c-4.925,25.237 -18.554,46.979 -20.571,77.858c-1.725,28.563 -9.866,58.75 -13.2,88.279c-0.175,1.534 -0.404,3.067 -0.55,4.6l-0.383,4.155l-0.146,1.516l5.596,-0.7l0.046,-0.016c34.412,-4.325 75.396,0.67 109.591,7.312m-70.22,-189.075c9.929,-1.254 20.383,-2.208 31.004,-2.729c27.596,-1.363 56.279,0.262 80.329,6.9c1.287,0.337 2.658,0.612 3.908,1.012c1.184,21.113 -17.346,62.63 -22.729,86.363c-6.662,30.45 -9.112,61.008 -16.296,89.433c-2.025,-0.412 -4.141,-0.783 -6.196,-1.179c-32.47,-6.242 -70.77,-10.962 -104.845,-7.7c3.312,-28.242 11.354,-58.154 13.187,-87.621c1.433,-25.483 12.463,-45.275 18.517,-68.979c1.291,-4.967 2.408,-10.071 3.121,-15.5" style="fill:#231f20;fill-rule:nonzero;"/><path d="M97.896,175.063l-5.342,-0.017c-11.592,-0.137 -20.975,-0.55 -32.583,-0.979l-0,0.367c-1.1,-0.354 -2.292,-0.384 -3.409,0.171c-0.516,0.241 -0.958,0.579 -1.337,0.995l-0.013,0c-0.033,0.046 -0.083,0.105 -0.108,0.138c-0.021,0.017 -0.021,0.017 -0.038,0.017c-0.037,0.058 -0.079,0.12 -0.129,0.166c-0.008,0 -0.008,0.029 -0.033,0.029l-0.008,0.05l-0.613,-0.908c-4.137,3.421 -5.329,8.313 -7.196,15.271c-1.487,6.808 -2.254,14.892 -0.729,22.342l0.788,3.691l3.804,-0.075c16.029,-0.583 24.8,0.554 32.471,-3.146c0.05,-0.012 0.091,-0.058 0.137,-0.091c4.296,-2.221 7.042,-6.329 8.788,-11.421c1.787,-5.229 3.05,-11.929 4.654,-21.296l0.896,-5.304Zm-14.167,23.583c-1.525,4.15 -2.692,5.438 -4.517,6.421c-2.958,1.825 -10.721,1.825 -24.45,2.071c-0.379,-4.767 0.175,-10.183 1.217,-14.796c0.658,-2.912 1.5,-5.521 2.292,-7.375c0.391,-0.95 0.783,-1.658 1.058,-2.1c0.129,-0.217 0.246,-0.337 0.292,-0.417l-0.471,-0.412l0.554,-0.246l-0.038,1.396c9.734,0.337 18.005,0.704 27.438,0.892c-1.192,6.529 -2.225,11.329 -3.375,14.566" style="fill:#231f20;fill-rule:nonzero;"/><path d="M59.665,183.189l-0.009,-0.017l0.009,0.017Z" style="fill:#231f20;fill-rule:nonzero;"/><path d="M60.31,157.078c5.296,-2.804 10.671,-1.733 18.046,-0.213c7.129,1.455 16.15,3.159 25.85,-1.779l2.229,-1.15l0.262,-2.483c0.879,-9.354 -0.037,-21.283 -2.3,-30.388l-0.9,-3.575l-3.691,0.155c-14.017,0.504 -22.317,1.35 -28.813,4.645c-9.696,5.305 -11.387,14.042 -17.4,27.738l0.408,0.196c-0.566,0.366 -1.137,0.771 -1.695,1.166l5.487,7.296c0.883,-0.671 1.713,-1.175 2.517,-1.608m14.896,-26.692c3.412,-1.887 9.787,-2.991 21.141,-3.496c1.234,6.517 1.8,14.563 1.463,21.034c-5.9,2.208 -11.284,1.287 -17.629,0.033c-4.563,-0.937 -9.73,-2.162 -15.205,-1.596c3.996,-9.629 5.98,-14 10.23,-15.975" style="fill:#231f20;fill-rule:nonzero;"/><path d="M83.086,64.26l-1.662,2.483c-5.925,8.846 -7.767,18.184 -6.113,25.68c-1.271,-0.013 -2.537,-0.03 -3.804,-0.042l0.142,9.133c11.787,-0.337 27.825,2.775 39.733,-3.112c0.146,-0.092 0.267,-0.15 0.396,-0.229c7.712,-4 11.958,-13.217 9.921,-25.834l-0.538,-3.666l-3.708,-0.259c-10.496,-0.646 -22.004,-1.837 -31.429,-3.604l-2.938,-0.55Zm24.079,26.046c-5.208,2.962 -15.058,2.687 -25.025,2.346l2.442,-0.859c-1.383,-3.816 -1.004,-10.545 2.867,-17.491c8.033,1.35 16.962,2.3 25.52,2.941c0.342,8.205 -2.087,10.905 -5.804,13.063" style="fill:#231f20;fill-rule:nonzero;"/><path d="M123.447,81.462c0.842,1.796 3.025,3.125 4.484,3.266c0.008,-0.033 0.008,-0.033 0.016,0c0.075,5.625 0.3,10.792 -0.283,15.638l-0.492,4.017l3.954,0.92c6.734,1.534 18.859,1.888 24.509,1.334l2.508,-0.229l1.113,-2.271c3.341,-6.913 6.537,-17.417 7.879,-24.638l0.783,-4.2l-4.125,-1.029c-11.821,-3.05 -25.546,-2.804 -36.117,-3.696l-4.308,-0.333l-0.558,4.275c-0.284,2.529 -0.529,4.446 0.637,6.946m13.592,-1.196c6.883,0.367 13.95,0.754 20.2,1.887c-1.267,5.059 -3.183,11.13 -5.092,15.609c-4.037,0.087 -10.487,-0.125 -15.087,-0.663c0.283,-5.762 -0.063,-11.296 -0.021,-16.833" style="fill:#231f20;fill-rule:nonzero;"/><path d="M130.545,126.982c-0.429,-1.134 -2.391,-2.575 -3.887,-2.5c-1.4,-0.029 -2.046,0.371 -2.467,0.554c-1.779,1.104 -1.742,1.442 -2.392,1.992c-0.462,0.429 -0.791,0.645 -0.775,0.675l0.859,1.641c-0.009,0.063 -0.021,0.104 -0.046,0.167c-5.696,9.262 -7.575,20.025 -7.788,29.162l-0.054,3.188l2.988,1.15c3.904,1.292 8.596,1.012 12.296,0.612c0.145,0.492 0.308,0.984 0.454,1.488l2.337,7.283l5.304,-5.516c7,-7.392 11.792,-18.463 13.242,-29.609l0.413,-3.233l-2.921,-1.425c-3.909,-1.825 -12.075,-4.588 -17.563,-5.629m5.321,26.604l-3.917,0.55c-1.75,0.354 -5.72,0.642 -8.558,0.675c0.438,-5.183 1.613,-10.717 3.704,-15.683l1.825,1.654c1.325,-1.367 1.738,-3.021 1.779,-4.463c2.996,0.75 7.313,2.1 10.334,3.188c-0.988,4.983 -2.829,9.887 -5.167,14.079" style="fill:#231f20;fill-rule:nonzero;"/><path d="M115.298,188.969c-1.271,-0.95 -2.921,-1.225 -3.513,-1.042c-1.058,0.138 -1.471,0.396 -1.929,0.567l1.125,2.421c-0.458,0.229 -0.942,0.508 -1.462,0.875l0.283,0.445l-1.733,-0.554c0.091,0.184 -3.596,6.379 -5.342,14.704l-0.804,3.742l3.533,1.425c7.058,2.838 18.342,4.754 25.213,4.767l3.087,-0.046l1.129,-2.85c2.496,-6.683 2.821,-16.192 1.729,-22.708l-0.633,-3.296l-3.283,-0.413c-5.854,-0.721 -11.859,-0.108 -17.4,1.963m11.983,18.075c-4.308,-0.35 -10.204,-1.409 -14.629,-2.65c0.621,-1.963 1.304,-3.65 1.917,-5.029c0.254,-0.155 0.62,-0.355 1.05,-0.571c3.795,-1.975 8.075,-2.971 12.433,-2.959c0.162,3.484 -0.104,7.946 -0.771,11.209" style="fill:#231f20;fill-rule:nonzero;"/></svg>