<?xml version="1.0" encoding="UTF-8" standalone="no"?><!DOCTYPE svg PUBLIC "-//W3C//DTD SVG 1.1//EN" "http://www.w3.org/Graphics/SVG/1.1/DTD/svg11.dtd"><svg width="100%" height="100%" viewBox="0 0 355 249" version="1.1" xmlns="http://www.w3.org/2000/svg" xmlns:xlink="http://www.w3.org/1999/xlink" xml:space="preserve" xmlns:serif="http://www.serif.com/" style="fill-rule:evenodd;clip-rule:evenodd;stroke-linejoin:round;stroke-miterlimit:2;"><path d="M348.458,48.792c0.062,-0.292 0.325,-0.475 0.325,-0.796c-0,-1.825 -1.488,-3.296 -3.3,-3.283c-0.367,-0 -0.842,0.033 -1.225,0.033c-0.767,-0.508 -1.534,-1.058 -2.438,-1.458c-1.683,-0.692 -3.6,0.137 -4.258,1.825c-18.425,0.979 -40.9,4.291 -60.796,4.475c0.783,-3.909 1.333,-7.646 1.333,-11.005c0,-2.516 -0.4,-4.8 -1.166,-6.929c0.433,-0.6 0.766,-1.275 0.721,-1.979c-0.105,-1.437 -0.538,-1.821 -0.734,-2.129c-0.662,-0.829 -1.012,-1.029 -1.762,-1.642c-0.6,-0.458 -1.288,-0.704 -2.025,-0.704c-0.446,0.029 -0.825,0.029 -1.196,0.029c-15.113,0.171 -27.654,-10.65 -45.204,-15.187c-21.75,-5.413 -41.359,-10.042 -64.625,-10.042c-1.825,0 -3.296,1.504 -3.296,3.342c-0,1.212 0.767,2.083 1.717,2.65c0.075,0.462 0.137,0.904 0.137,1.504c0.092,6.7 -4.783,19.775 -10.592,31.592c-4.183,8.679 -8.829,16.879 -12.154,22.183c-3.787,-5.246 -7.404,-10.596 -10.166,-16.388c-5.625,-11.65 -11.034,-19.837 -19.971,-25.783c0.275,-0.95 0.258,-1.962 -0.371,-2.804c-1.042,-1.488 -3.079,-1.825 -4.55,-0.754c-11.788,8.754 -38.6,15.575 -54.971,22.812c-15.633,6.988 -29.171,15.634 -43.304,23.342c-1.471,-0.688 -3.217,-0.333 -4.121,1.092c-0.492,0.825 -0.567,1.762 -0.354,2.62c-0.154,0.784 -0.154,1.592 0.229,2.33c0.567,1.133 1.717,1.795 2.9,1.795c0.275,0 0.521,-0.137 0.767,-0.216c18.529,13.675 34.871,46.646 46.704,68.029c5.15,9.137 15.467,21.75 24.525,34.442c9.108,12.57 16.633,25.6 16.45,32.958l-0,0.475c-0,0.2 0.154,0.337 0.212,0.537c-1.333,0.721 -2.175,2.18 -1.729,3.709c0.413,1.425 1.729,2.362 3.154,2.362c0.292,0 0.6,-0.046 0.921,-0.125c13.017,-3.908 25.767,-9.212 38.384,-14.85c0.091,0 0.154,0.075 0.262,0.075c1.546,-0.137 3.388,-0.171 5.442,-0.171c18.533,-0.137 52.391,5.292 62.833,12.834c0.583,0.383 1.225,0.566 1.867,0.566c1.029,0 2.041,-0.475 2.7,-1.395c0.504,-0.75 0.658,-1.613 0.521,-2.438c0.737,-0.429 1.35,-1.025 1.579,-1.9c6.008,-23.329 26.612,-45.433 35.591,-70.925c5.613,-16.279 14.917,-30.137 21.63,-47.921c2.362,-6.466 7.037,-17.996 10.104,-29.308c22.546,-0.013 48.225,-4.292 67.046,-4.858c3.57,3.891 5.687,12.691 5.55,24.187c0.029,25.154 -8.28,59.8 -10.73,71.463c-6.379,30.95 -24.558,57.1 -25.908,91.116c-0.046,0.692 0.321,1.225 0.675,1.792c-4.4,-2.542 -10.425,-2.942 -17.95,-3.063c-17.979,0.013 -43.333,3.846 -53.358,4.334c-9.659,0.508 -19.546,0.754 -29.479,0.754c-7.571,-0 -15.13,-0.154 -22.563,-0.475c-0.029,-1.304 -0.046,-2.7 -0.046,-4.125c0,-3.279 0.046,-6.821 0.046,-10.3c-0.046,-7.804 -0.092,-15.038 -2.067,-19.879c-0.72,-1.688 -2.637,-2.438 -4.295,-1.721c-1.671,0.721 -2.421,2.671 -1.7,4.337c1.116,2.38 1.595,9.738 1.5,17.263c-0,3.433 -0.013,6.958 -0.013,10.3c0,2.621 0.013,5.167 0.121,7.45c0.092,1.687 1.442,3.054 3.112,3.142c8.555,0.416 17.23,0.629 25.905,0.629c10.029,-0 20.066,-0.263 29.833,-0.75c10.683,-0.567 35.746,-4.354 53.004,-4.354c7.788,-0.109 14.104,1.133 15.225,2.345c1.392,1.134 3.446,0.921 4.583,-0.491c1.009,-1.259 0.809,-2.925 -0.17,-4.125c0.275,0.096 0.475,0.371 0.795,0.387l0.092,0c1.796,0 3.221,-1.396 3.313,-3.191c1.041,-31.621 18.808,-57.375 25.766,-90.025c2.363,-11.542 10.838,-46.384 10.884,-72.813c-0.109,-10.667 -1.288,-20.462 -5.871,-26.808m-250.379,154.65c-0.767,-10.667 -8.721,-23.009 -17.521,-35.517c-9.213,-12.858 -19.559,-25.629 -24.129,-33.829c-11.434,-20.25 -26.5,-51.813 -46.03,-68.075c13.38,-7.417 26.059,-15.3 40.146,-21.596c14.163,-6.396 37.509,-12.358 52.025,-20.942c8.646,5.121 13.321,11.988 19.3,24.313c3.538,7.267 8,13.687 12.584,19.896c-0.059,1.058 0.166,2.146 1.087,2.833c0.4,0.279 0.846,0.308 1.271,0.417c6.15,8.171 12.404,16.079 17.092,24.971c11.225,20.845 15.145,51.104 33.375,69.866c-30.217,11.025 -59.388,27.809 -89.2,37.663m160.845,-120.209c-6.3,16.909 -15.65,30.784 -21.691,48.071c-8.046,23.579 -28.667,45.592 -35.625,71.067c-12.892,-6.883 -36.713,-10.883 -54.921,-11.958c17.567,-8.121 34.887,-16.292 52.425,-21.734c1.717,-0.554 2.65,-2.391 2.129,-4.154c-0.521,-1.733 -2.375,-2.729 -4.092,-2.179c-1.32,0.417 -2.637,0.937 -4.004,1.379c-0.012,-0.812 -0.304,-1.625 -0.887,-2.237c-16.492,-16.188 -20.692,-46.03 -32.617,-68.717c-5.092,-9.538 -11.454,-17.721 -17.583,-25.783c3.583,-5.459 8.921,-14.688 13.904,-25.005c5.883,-12.308 11.158,-25.275 11.233,-34.487c0,-0.217 -0.029,-0.4 -0.062,-0.629c20.204,0.629 38.016,4.612 58.037,9.612c14.821,3.525 27.209,14.009 43.979,15.238c0.013,0.046 0.042,0.075 0.042,0.104c0.325,0.433 0.875,0.433 1.338,0.646c0.045,0.2 -0.063,0.396 0.045,0.55c0.567,1.075 0.996,3.021 0.996,5.566c0.075,12.125 -8.858,34.675 -12.646,44.65" style="fill:#231f20;fill-rule:nonzero;"/><path d="M182.141,30.428c-0.887,-0.52 -1.946,-0.6 -2.896,-0.216c-0.95,0.4 -1.654,1.183 -1.933,2.179c-3.633,13.229 -5.504,25.492 -8.583,37.983c-0.109,0.55 -0.109,1.104 -0,1.625c-0.338,1.35 0.17,2.821 1.412,3.604c0.533,0.367 1.146,0.534 1.763,0.534c1.07,-0 2.145,-0.534 2.775,-1.517c0.104,-0.933 6.283,-3.696 13.412,-4.75c7.158,-1.321 15.542,-1.95 21.258,-1.95c1.013,0 1.95,0.017 2.775,0.079c1.305,0.059 2.53,-0.691 3.113,-1.887c0.583,-1.196 0.383,-2.621 -0.508,-3.629c-9.825,-11.238 -18.821,-23.792 -32.588,-32.055m4.783,32.925c-3.833,0.8 -7.42,1.546 -10.454,2.667c2.071,-9.275 3.696,-18.271 6.025,-27.5c8.567,6.054 15.45,14.333 22.671,22.871c-5.579,0.233 -12.187,0.858 -18.242,1.962" style="fill:#231f20;fill-rule:nonzero;"/><path d="M201.748,104.373c-0.95,-5.687 -1.992,-11.204 -3.204,-15.729c-1.363,-4.521 -2.117,-7.846 -5.138,-10.271c-1.5,-1.041 -3.508,-0.654 -4.533,0.875c-1.029,1.488 -0.646,3.513 0.825,4.555l-0.046,0.016c0.492,0.338 1.917,3.584 2.883,7.742c3.217,12.812 5.459,34.658 7.342,41.708c0.383,1.488 1.717,2.454 3.158,2.454c0.292,0 0.596,-0.05 0.842,-0.125c1.762,-0.491 2.804,-2.3 2.3,-4.079c-1.025,-3.833 -2.546,-15.896 -4.429,-27.146" style="fill:#231f20;fill-rule:nonzero;"/><path d="M140.601,144.673c-1.796,-7.958 -6.421,-16.6 -18.504,-20.066c-0.625,-0.2 -1.333,-0.167 -1.975,-0.275c2.637,-1.304 5.012,-2.896 6.879,-4.888c4.663,-4.966 6.671,-11.466 6.671,-17.691c-0,-11.438 -7.004,-23.409 -19.375,-23.563c-0.767,0 -1.55,0.05 -2.329,0.142c-1.304,-1.842 -3.588,-2.992 -5.596,-2.854c-6.008,0.291 -11.804,5.195 -17.338,11.529c-5.35,6.408 -9.87,14.454 -9.95,22.471c-0.041,4.554 1.763,9.258 5.842,12.479c3.604,2.85 8.771,4.583 15.575,5.304c-2.942,1.025 -5.871,2.204 -8.692,3.583c-8.216,4.171 -15.295,9.017 -17.92,15.254c-0.688,1.7 0.17,3.617 1.841,4.292c1.7,0.675 3.6,-0.2 4.246,-1.883c0.917,-2.929 7.158,-8.125 14.683,-11.729c7.496,-3.725 16.313,-6.284 22.013,-6.255c1.458,0 2.654,0.155 3.525,0.417c9.796,3.108 12.125,8.246 14.058,15.358c1.842,7.021 1.884,15.725 7.25,22.871c0.613,0.859 1.579,1.3 2.592,1.3c0.687,0 1.396,-0.229 1.992,-0.704c1.408,-1.104 1.687,-3.187 0.6,-4.642c-3.742,-4.691 -4.2,-12.37 -6.088,-20.45m-34.979,-23.716c-0.754,-0 -1.517,-0.013 -2.288,-0.042c-7.308,-0.429 -11.862,-2.146 -14.329,-4.154c-2.471,-2.042 -3.312,-4.263 -3.375,-7.283c-0.058,-5.259 3.604,-12.584 8.4,-18.196c3.575,-4.475 8.2,-7.771 10.779,-8.846c-0.062,0.508 0,1.029 0.2,1.533c0.642,1.688 2.542,2.546 4.23,1.871c1.87,-0.721 3.541,-1.008 5.058,-1.025c3.787,0.029 6.792,1.825 9.15,4.933c2.3,3.113 3.696,7.53 3.679,12.005c-0.258,9.658 -5.487,18.991 -21.504,19.204" style="fill:#231f20;fill-rule:nonzero;"/><path d="M229.262,195.058c-0.137,1.809 1.225,3.404 3.005,3.525c3.325,0.263 6.7,0.354 10.116,0.354c20.342,0 42.125,-3.891 61.071,-7.004c1.792,-0.291 2.988,-2.008 2.729,-3.804c-0.321,-1.808 -1.979,-3.017 -3.787,-2.729c-18.975,3.146 -40.484,6.929 -60.013,6.912c-3.312,0.017 -6.512,-0.104 -9.625,-0.333c-1.825,-0.125 -3.404,1.254 -3.496,3.079" style="fill:#231f20;fill-rule:nonzero;"/><path d="M221.047,213.392c-0.075,1.825 1.395,3.341 3.17,3.404c4.171,0.137 9.263,0.241 14.825,0.241c17.063,-0.058 38.121,-0.9 50.292,-5.408c1.688,-0.629 2.575,-2.546 1.933,-4.262c-0.641,-1.7 -2.529,-2.575 -4.2,-1.946c-10.237,3.908 -31.35,5.029 -48.025,5.012c-5.47,0 -10.5,-0.125 -14.608,-0.275c-1.808,-0.033 -3.342,1.392 -3.387,3.234" style="fill:#231f20;fill-rule:nonzero;"/><path d="M267.002,121.68c0.4,1.458 1.733,2.454 3.187,2.454c0.275,-0 0.555,-0.034 0.83,-0.125c11.679,-3.159 29.583,-8.017 43.287,-7.971c4.046,-0 7.65,0.412 10.608,1.333c1.717,0.538 3.542,-0.458 4.075,-2.191c0.521,-1.746 -0.458,-3.6 -2.175,-4.138c-3.8,-1.179 -8.045,-1.625 -12.508,-1.625c-15.067,0.017 -33.246,5.042 -44.987,8.2c-1.75,0.475 -2.746,2.283 -2.317,4.063" style="fill:#231f20;fill-rule:nonzero;"/><path d="M235.792,170.471c0,1.825 1.442,3.296 3.263,3.296l-0,-0.017c6.837,0 14.35,0.108 21.954,0.108c16.492,0 33.463,-0.429 45.983,-3.495c1.75,-0.43 2.821,-2.205 2.392,-3.984c-0.429,-1.779 -2.204,-2.866 -3.967,-2.454c-11.345,2.821 -28.054,3.329 -44.408,3.313c-7.558,-0 -15.037,-0.08 -21.954,-0.08c-1.821,0 -3.263,1.488 -3.263,3.313" style="fill:#231f20;fill-rule:nonzero;"/><path d="M280,94.332c0.354,0 0.704,-0.046 1.025,-0.167c12.221,-4.045 29.188,-7.466 43.613,-8.137c0.691,1.254 2.146,1.946 3.587,1.608c2.513,-0.691 3.817,-1.441 4.738,-1.675c0.687,0.017 1.379,0.067 2.021,0.109c1.716,0.125 3.237,-1.1 3.466,-2.834c0.275,-1.716 -0.846,-3.341 -2.546,-3.696c-0.75,-0.166 -1.504,-0.275 -2.22,-0.275c-0.309,0.017 -0.584,0.03 -0.859,0.063c-1.029,-0.033 -2.087,-0.046 -3.141,-0.046c-16.359,0 -36.288,3.817 -50.696,8.613c-1.729,0.583 -2.65,2.437 -2.1,4.17c0.479,1.409 1.733,2.267 3.112,2.267" style="fill:#231f20;fill-rule:nonzero;"/><path d="M245.634,146.006c0.183,1.687 1.608,2.942 3.267,2.942c0.121,-0 0.229,-0 0.337,-0.03c17.088,-1.916 41.292,-2.404 58.092,-8.429c1.687,-0.616 2.592,-2.516 1.979,-4.233c-0.642,-1.717 -2.512,-2.604 -4.2,-1.992c-15.083,5.488 -39.133,6.192 -56.562,8.096c-1.825,0.183 -3.13,1.821 -2.913,3.646" style="fill:#231f20;fill-rule:nonzero;"/><path d="M82.213,60.625c0.658,-0.016 1.579,0.4 2.941,1.242c1.367,0.783 3.113,2.129 5.905,2.192c2.437,-0.013 4.583,-1.271 6.5,-3.434c1.025,0.35 2.175,0.613 3.445,0.63c0.309,-0 0.509,-0.017 0.63,-0.03c1.795,-0.033 3.22,-1.566 3.129,-3.42c-0.063,-1.825 -1.579,-3.234 -3.375,-3.159c-0.229,0 -0.367,0.017 -0.384,0.017c-0.704,-0 -1.62,-0.367 -2.587,-0.996c-1.504,-0.983 -3.479,-0.583 -4.492,0.904c-2.054,2.959 -2.866,2.879 -2.866,2.879c-0.138,0.05 -1.042,-0.304 -2.513,-1.241c-1.429,-0.871 -3.496,-2.146 -6.333,-2.159c-1.054,-0.033 -2.175,0.184 -3.25,0.596c-4.95,2.042 -10.529,8.354 -13.55,10.609c-7.863,6.27 -10.717,9.35 -16.4,9.32c-2.192,0 -5.046,-0.445 -8.8,-1.612c-1.75,-0.521 -3.571,0.462 -4.063,2.225c-0.537,1.762 0.446,3.6 2.175,4.108l-0.012,0c4.171,1.271 7.6,1.9 10.7,1.9c8.75,-0.046 13.241,-5.075 20.433,-10.716c3.371,-2.788 9.733,-9.042 11.817,-9.655c0.416,-0.154 0.704,-0.2 0.95,-0.2" style="fill:#231f20;fill-rule:nonzero;"/><path d="M121.792,103.56c-1.288,-1.287 -3.342,-1.254 -4.613,0.063c-2.283,2.421 -6.929,4.354 -10.808,4.308c-3.434,-0.062 -5.717,-1.137 -6.838,-3.479c-0.812,-1.642 -2.758,-2.3 -4.412,-1.504c-1.596,0.842 -2.271,2.804 -1.475,4.462c2.5,5.088 7.746,7.142 12.525,7.142l0.2,0c5.766,-0.062 11.575,-2.362 15.5,-6.317c1.225,-1.316 1.208,-3.4 -0.079,-4.675" style="fill:#231f20;fill-rule:nonzero;"/></svg>