<?xml version="1.0" encoding="UTF-8" standalone="no"?><!DOCTYPE svg PUBLIC "-//W3C//DTD SVG 1.1//EN" "http://www.w3.org/Graphics/SVG/1.1/DTD/svg11.dtd"><svg width="100%" height="100%" viewBox="0 0 378 266" version="1.1" xmlns="http://www.w3.org/2000/svg" xmlns:xlink="http://www.w3.org/1999/xlink" xml:space="preserve" xmlns:serif="http://www.serif.com/" style="fill-rule:evenodd;clip-rule:evenodd;stroke-linejoin:round;stroke-miterlimit:2;"><path d="M353.568,2.616c-0.542,-0.063 -1.067,0.15 -1.446,0.55c-0.366,0.391 -0.525,0.925 -0.408,1.466c0.387,2.129 1.162,4.104 2.012,5.959c-0.833,-0.234 -1.712,-0.346 -2.591,-0.346c-0.463,-0 -0.925,0.033 -1.396,0.096c-0.692,0.1 -1.25,0.604 -1.421,1.287c-0.204,0.825 -0.292,1.617 -0.292,2.346c0.525,8.392 10.65,8.587 12.246,11.9c1.421,2.017 2.15,5.229 2.15,9.033c0.046,9.804 -4.796,23.092 -8.783,28.15c-7.058,8.971 -14.608,11.246 -23.163,11.288c-7.458,0.012 -15.512,-1.846 -23.816,-2.85c3.704,-3.8 6.046,-9.504 6.821,-15.196c3.675,-0.254 7.45,-0.942 10.229,-0.942c0.721,0 1.333,0.054 1.85,0.154c0.921,0.205 1.829,-0.408 2.012,-1.341c0.188,-0.917 -0.416,-1.829 -1.329,-2.009c-0.846,-0.158 -1.679,-0.212 -2.533,-0.212c-3.125,0.008 -6.742,0.667 -9.971,0.917c-0,-0.217 0.05,-0.446 0.05,-0.659c-0,-1.45 -0.129,-2.871 -0.354,-4.262c3.854,-0.038 7.125,-1.042 10.354,-1.004c0.367,-0 0.729,0.016 1.092,0.033c0.933,0.1 1.762,-0.583 1.858,-1.525c0.079,-0.942 -0.575,-1.771 -1.529,-1.875c-0.504,-0.038 -0.967,-0.046 -1.421,-0.046c-3.925,0.008 -7.246,1.029 -10.488,0.996c-0.245,-0 -0.495,-0.017 -0.745,-0.025c-0.463,-1.308 -1.046,-2.533 -1.775,-3.65c3.141,-0.908 6.341,-1.592 9.583,-1.592c0.396,0 0.779,0 1.146,0.038c0.95,0.041 1.758,-0.667 1.829,-1.617c0.042,-0.925 -0.675,-1.733 -1.608,-1.796c-0.496,-0.033 -0.959,-0.033 -1.367,-0.033c-4.246,-0 -8.304,0.862 -12.188,2.146c-0.008,-0.017 -0.016,-0.025 -0.025,-0.042c-0.391,-0.292 -0.854,-0.408 -1.304,-0.362c-1.191,-0.546 -2.383,-0.846 -3.562,-1.059c3.837,-1.804 7.816,-3.075 11.571,-3.233c0.941,-0.038 1.67,-0.842 1.633,-1.779c-0.042,-0.954 -0.842,-1.675 -1.792,-1.621c-10.304,0.496 -20.683,7.317 -27.575,13.233c-0.712,0.613 -0.8,1.692 -0.171,2.413c0.071,0.108 0.234,0.079 0.33,0.162c-2.746,4.475 -4.388,9.892 -4.43,14.925c-0.054,2.863 0.559,5.688 1.846,8.138c-2.425,-1.059 -4.983,-2.204 -8.133,-2.888c-2.746,-0.558 -5.688,-0.933 -8.654,-0.933c-2.484,-0 -5.009,0.267 -7.484,0.908c-8.375,2.204 -15.579,8.854 -21.733,15.009c-0.525,0.175 -0.896,0.525 -1.067,1.066c-1.625,1.634 -3.195,3.234 -4.67,4.663c-9.03,8.825 -16.538,19.05 -24.75,28.596c-0.567,0.675 -1.388,1.35 -2.33,1.987c-2.458,-2.421 -4.545,-6.587 -7.787,-9.75c-0.392,-0.354 -0.913,-0.508 -1.438,-0.437c-0.495,0.075 -0.966,0.383 -1.233,0.829c-3.304,5.691 -8.617,10.221 -13.121,15.966c-3.096,4.013 -5.521,6.475 -5.6,10.313c0,2.175 0.859,4.35 2.504,7.033c6.471,10.675 17.725,16.138 26.525,22.663c0.296,0.212 0.659,0.329 1.013,0.329c0.108,-0 0.242,-0.008 0.337,-0.046c0.471,-0.071 0.888,-0.387 1.146,-0.796c1.029,-1.762 2.425,-3.137 3.946,-4.496c0.817,5.205 4.242,10.73 5.133,14.38c1.305,4.987 1.909,8.629 1.909,11.595c-0,0.705 -0.046,1.363 -0.117,2.009c-0.062,-0 -0.142,-0 -0.212,-0.009c-0.942,-0.133 -1.796,0.542 -1.938,1.467c-0.117,0.938 0.525,1.783 1.458,1.908c-1.112,3.688 -3.412,7.363 -7.095,13.259c-1.83,3.062 -5.65,8.525 -5.8,12.621c-0,0.833 0.22,1.8 0.941,2.575c0.709,0.754 1.713,1.029 2.7,1.029l0.063,-0c1.454,-0 3.108,-0.479 5.308,-1.429c11.858,-5.105 18.979,-13.684 18.908,-26.384c0,-0.891 -0.025,-1.833 -0.104,-2.762c-0.516,-6.659 -2.666,-13.246 -2.629,-18.704c0.096,-5.117 1.471,-8.996 7.867,-12.317c7.808,-3.933 17.087,-7.392 25.525,-10.854c2.066,-0.871 3.675,-1.2 4.908,-1.2c4.346,-0.246 6.05,4.808 10.092,12.054c4.121,7.05 10.575,11.925 13.846,18.158c-4.071,4.967 -8.934,9.504 -12.921,15.029c-1.404,2.105 -6.271,7.38 -9.229,12.425c-0.017,0.017 -0.025,0.042 -0.046,0.08c-1.271,2.158 -2.2,4.279 -2.292,6.091c0,0.346 0.029,0.65 0.1,0.963c0.871,4.225 4.813,5.425 7.954,5.291c3.209,-0.016 6.621,-0.783 8.6,-0.745c0.229,-0 0.409,0.008 0.604,0.025c3.48,0.32 6.305,1.312 9.475,1.341c2.559,0.034 5.275,-0.846 7.992,-3.225c0.613,-0.55 0.775,-1.446 0.354,-2.15c-3.833,-6.279 -9.962,-4.804 -14.446,-5.55c4.521,-7.479 16.288,-9.625 21.359,-19.962c1.404,-3.092 2.004,-6.192 2.004,-9.246c-0.025,-6.742 -2.829,-13.154 -6.046,-18.829c-3.337,-5.754 -10.4,-13.675 -10.987,-19.067c-0.071,-0.446 -0.105,-0.896 -0.105,-1.367c-0.054,-6.012 5.025,-13.962 7.192,-20.479c1.608,-5.046 3.258,-13.091 5.95,-16.6c3.954,-5.354 8.421,-4.641 16.129,-6.404c1.029,-0.229 2.079,-0.529 3.117,-0.787c0.179,0.058 0.3,0.175 0.479,0.175c0.063,-0 0.125,-0 0.188,-0.009c0.47,-0.041 0.879,-0.283 1.154,-0.629c16.375,-4.379 33.471,-12.292 39.946,-30.429c3.179,-9.013 3.979,-18.55 3.979,-27.796c-0,-3.65 -0.125,-7.262 -0.275,-10.779c3.054,-1.246 4.637,-3.792 4.591,-6.238c0,-3.054 -2.245,-6.037 -5.691,-6.1c-1.146,0.009 -2.321,0.371 -3.438,1.092c-0.241,-3.825 -0.704,-8.054 -2.746,-11.483c-0.237,-0.396 -0.62,-0.675 -1.083,-0.779c-0.442,-0.1 -0.933,-0.013 -1.296,0.229c-2.3,1.521 -3.533,3.804 -4.033,6.171c-1.108,-1.784 -2.771,-3.355 -5.896,-3.825m-62.733,43.82c2.825,-4.079 6.541,-6.7 10.371,-6.7l0.054,0c1.375,0 2.841,0.446 4.333,1.171c0.313,0.579 0.854,0.963 1.5,0.963c0.029,-0 0.063,-0.017 0.108,-0.025c2.088,2.433 3.18,6.179 3.163,10.362c-0,0.4 -0.063,0.817 -0.092,1.234c-0.371,0.304 -0.629,0.729 -0.629,1.258c0,0.446 0.188,0.821 0.463,1.129c-0.509,3.725 -1.775,7.446 -3.617,10.392c-1.329,2.108 -2.904,3.741 -4.65,4.841c-0.546,-0.029 -1.075,-0.125 -1.625,-0.15l-0.588,0.088c-0.416,0.229 -1.208,0.237 -1.654,1.437c-0.362,0.038 -0.716,0.171 -1.1,0.171c-0.516,0 -1.004,-0.054 -1.508,-0.116c-1.646,-0.284 -3.013,-0.775 -4.158,-1.459c-0.034,-0.008 -0.046,-0.025 -0.063,-0.033c-3.429,-2.071 -4.787,-5.783 -4.867,-10.367c-0.008,-4.758 1.75,-10.137 4.559,-14.196m9.554,31.071c-0.046,4.346 -3.038,6.404 -6.296,6.484c-3.304,-0.117 -6.571,-2.15 -6.696,-8.046c0,-0.613 0.063,-1.263 0.15,-1.963c0.063,-0.133 0.096,-0.283 0.163,-0.425c0.679,0.213 1.383,0.425 2.129,0.604c1.437,0.809 3.071,1.421 4.983,1.705c0.7,0.104 1.392,0.15 2.05,0.15c0.784,-0.009 1.484,-0.23 2.196,-0.384c0.317,0.296 0.708,0.463 1.163,0.463c0.016,-0 0.025,-0.025 0.054,-0.025c0.058,0.496 0.104,0.983 0.104,1.437m-92.896,43.217c0.133,-0.188 0.092,-0.408 0.133,-0.604c1.2,-0.846 2.321,-1.742 3.192,-2.7c8.3,-9.675 15.754,-19.804 24.525,-28.367c1.504,-1.483 3.092,-3.1 4.725,-4.742c2.533,0.596 3.883,2.042 4.254,5.063c0.084,0.879 0.817,1.533 1.688,1.533c0.071,0 0.125,0 0.179,-0.008c0.4,-0.025 0.708,-0.258 0.967,-0.496c-5.088,5.104 -9.509,10.383 -12.53,13.367c-5.754,5.833 -11.037,11.554 -15.612,18.446c-2.425,3.612 -5.425,7.895 -6.846,12.395c-1.2,4.034 -0.658,7.009 -1.504,9.93c-0.054,0.008 -0.104,0.008 -0.158,0.008c-1.663,-0.071 -1.971,-0.817 -2.175,-3.354c-0,-0.879 0.125,-1.867 0.337,-2.825c0.158,-0.792 -0.242,-1.609 -0.987,-1.929c-0.73,-0.338 -1.596,-0.088 -2.08,0.57c-1.337,1.863 -3.025,3.017 -5.266,3.588c-0.267,-0.675 -0.388,-1.317 -0.388,-1.875c0.113,-1.467 0.534,-2.354 2.2,-2.663c0.429,0 0.879,-0.025 1.35,-0.1c0.863,-0.104 1.492,-0.833 1.484,-1.704c-0,-0.871 -0.667,-1.6 -1.525,-1.679c-0.155,-0.025 -0.305,-0.033 -0.43,-0.033c-0.416,-0 -0.8,0.033 -1.179,0.087c-3.012,-0.125 -4.008,-1.571 -4.096,-3.571c0,-0.987 0.338,-2.112 1.138,-3.212c0.558,-1.033 3.783,-2.575 6.962,-4.567c0.621,0.096 1.263,-0.025 1.642,-0.558m63.242,8.8c-5.575,-1.783 -10.792,-5.008 -15.175,-9.288c0.533,-0.625 0.983,-1.316 1.5,-1.954c0.158,0.496 0.496,0.929 1.037,1.092l0,-0.008c4.413,1.304 8.634,2.85 12.904,4.154c-0.237,0.291 -0.416,0.637 -0.416,1.058c-0.017,1.517 -0.017,3.038 -0,4.563c-0,0.141 0.108,0.241 0.15,0.383m-14.929,-15.221c-6.713,10.308 -20.196,16.954 -30.275,25.975c-2.567,-1.933 -6.038,-4.521 -9.521,-6.067c1.35,-3.354 3.704,-6.916 5.846,-10.104c4.395,-6.608 9.504,-12.141 15.195,-17.941c7.034,-7.396 22.85,-26.471 32.725,-26.146c0.571,-0 1.1,0.071 1.634,0.179l0.141,0.292c0.155,0.195 0.338,0.695 0.338,1.554c0.212,7.241 -13.204,28.046 -16.083,32.258m-44.813,40.913c-1.633,1.379 -3.283,2.87 -4.696,4.77c-8.846,-6.27 -18.741,-11.562 -24.175,-20.633c-1.5,-2.45 -2.025,-4.058 -2.008,-5.254c-0.079,-1.938 1.575,-4.058 4.867,-8.208c3.766,-4.83 8.545,-9.021 12.175,-14.43c1.841,2.255 3.458,5.196 5.695,7.6c-2.612,1.513 -5.345,3.03 -6.741,4.771c-1.171,1.625 -1.788,3.446 -1.788,5.229c0,2.425 1.279,4.671 3.467,5.942c-0.817,1.058 -1.263,2.363 -1.263,3.721c0,1.592 0.517,3.217 1.484,4.708c0.354,0.559 0.987,0.85 1.65,0.771c1.962,-0.267 3.758,-0.912 5.321,-1.925c0.32,2.763 1.891,5.683 5.525,5.683c0.55,0 1.145,-0.054 1.783,-0.187c0.579,-0.125 1.042,-0.525 1.254,-1.058c1.321,-3.596 1.029,-6.446 1.492,-9.2c2.583,1.216 5.471,3.25 7.796,5.02c-3.934,3.055 -9.263,6.775 -10.575,12.288c-0.446,-0.033 -0.9,0.092 -1.263,0.392m2.142,59.85c-1.946,0.862 -3.313,1.154 -3.925,1.145c-0.296,0 -0.25,-0.045 -0.304,0.009c-0,-0 -0.042,-0 0.029,-0.204c-0.163,-1.9 3.4,-7.996 5.275,-10.792c3.825,-6.138 6.471,-10.283 7.671,-14.875c2.675,-0.017 5.304,-0.496 7.666,-1.438c0.134,-0.054 0.175,-0.195 0.284,-0.275c0.016,0.213 0.07,0.434 0.079,0.646c0.062,0.871 0.091,1.713 0.091,2.525c-0.075,11.338 -5.741,18.275 -16.866,23.259m86.604,-3.288c-1.675,1.171 -3.017,1.467 -4.563,1.483c-2.337,0.03 -5.204,-0.933 -9.129,-1.32c-0.304,-0.046 -0.621,-0.055 -0.95,-0.055c-2.637,0.009 -5.908,0.755 -8.6,0.746c-2.85,-0.125 -4.1,-0.479 -4.616,-2.596c-0.009,-0.058 -0.017,-0.15 -0.017,-0.229c-0.088,-0.791 0.542,-2.175 1.492,-3.808c0.658,-0.163 1.341,-0.296 2.166,-0.296c2.442,-0.017 5.559,0.604 8.934,0.604c0.195,0 0.391,-0.033 0.595,-0.033c-0.15,0.4 -0.179,0.858 0,1.271c0.18,0.425 0.542,0.754 1.005,0.929c6.037,1.858 10.966,0.133 13.683,3.304m3.679,-52.371c3.117,5.446 5.604,11.388 5.588,17.142c-0,2.629 -0.5,5.212 -1.68,7.796c-3.466,8.162 -14.2,10.366 -20.212,18.462c-0.092,0 -0.133,-0.079 -0.217,-0.05c-0.808,0.088 -1.625,0.121 -2.441,0.121c-2.867,0 -5.809,-0.537 -8.659,-0.575c2.604,-3.667 5.746,-7.504 7,-9.083c3.925,-5.471 9.05,-10.188 13.517,-15.738c0.408,-0.5 0.479,-1.2 0.204,-1.804c-3.712,-7.733 -10.746,-12.762 -14.475,-19.358c-3.783,-6.363 -5.508,-13.517 -13.05,-13.767c-1.837,0 -3.862,0.479 -6.217,1.458c-8.362,3.442 -17.687,6.88 -25.754,10.963c-7.441,3.625 -9.846,9.487 -9.75,15.367c0.017,5.062 1.404,10.345 2.196,15.408c-0.375,-0.125 -0.792,-0.175 -1.192,-0.017c-1.766,0.717 -3.8,1.075 -5.887,1.154c0.071,-0.712 0.237,-1.35 0.237,-2.125c0,-3.433 -0.675,-7.333 -2.016,-12.458c-1.346,-4.929 -5.309,-11.421 -5.221,-15.508c-0,-0.338 0.008,-0.621 0.054,-0.813c0.504,-4.637 7.788,-9.158 12.175,-12.979c7.55,-6.9 17.833,-12.562 25.571,-20.308c7.404,7.221 17.092,11.791 27.246,11.791l0.096,0c4.041,0 8.137,-0.804 12.158,-2.387c-0.454,1.733 -0.771,3.471 -0.779,5.187c-0,0.584 0.016,1.209 0.112,1.83c1.05,7.262 8.475,15.008 11.396,20.291m-29.546,-35.125c1.9,0.517 3.8,0.979 5.746,1.3c-0.633,1.471 -1.05,3.038 -1.067,4.663c-0.008,0.3 0.167,0.504 0.292,0.754c-1.792,-0.088 -3.579,-0.304 -5.337,-0.7c0.295,-0.304 0.5,-0.713 0.5,-1.158l-0,-4.563c-0,-0.125 -0.109,-0.179 -0.134,-0.296m9.1,1.609c1.138,0.108 2.25,0.32 3.421,0.32c2.804,0 5.746,-0.345 8.838,-1.066c-0.55,1.237 -1.075,2.504 -1.555,3.775c-0.454,-0.292 -0.987,-0.45 -1.537,-0.204c-3.471,1.437 -6.971,2.095 -10.463,2.245c0.117,-0.212 0.275,-0.4 0.292,-0.65c0.029,-1.329 0.35,-2.608 0.963,-3.825c0.095,-0.187 0.025,-0.391 0.041,-0.595m43.492,-36.092c-0.888,0.217 -1.783,0.471 -2.663,0.675c-6.762,1.617 -13.037,0.879 -18.108,7.692c-3.412,4.7 -4.871,12.833 -6.458,17.583c-0.629,2.033 -1.704,4.35 -2.834,6.783c-0.408,-0.55 -1.012,-0.921 -1.712,-0.762c-2.925,0.712 -5.667,1.012 -8.296,1.012c-9.229,0.017 -17.487,-3.775 -27.329,-6.687c-0.142,-0.034 -0.246,0.046 -0.371,0.029c2.904,-4.6 16.438,-24.379 16.625,-34.079c0,-1.171 -0.196,-2.334 -0.842,-3.321c-0.037,-0.142 -0.091,-0.275 -0.1,-0.392c-0.175,-0.533 -0.575,-0.966 -1.1,-1.146c-1.129,-0.379 -2.316,-0.583 -3.5,-0.566c-7.479,0.187 -15.533,6.687 -22.387,13.546c0.229,-0.321 0.387,-0.705 0.346,-1.113c-0.25,-3.446 -2.15,-6.1 -4.913,-7.45c5.684,-5.496 11.938,-10.808 18.475,-12.433c2.146,-0.563 4.367,-0.809 6.613,-0.809c2.683,0 5.383,0.338 7.958,0.888c2.975,0.587 5.55,1.854 8.333,3.037c-0.454,0.15 -0.987,0.321 -1.558,0.73c-0.754,0.566 -0.887,1.65 -0.346,2.395c0.429,0.534 1.084,0.767 1.7,0.65c0.059,7.38 5.113,11.334 10.096,11.342c4.833,-0.008 9.708,-3.642 9.717,-9.896c-0,-0.729 -0.054,-1.483 -0.188,-2.271c-0.054,-0.275 -0.258,-0.454 -0.416,-0.675c7.345,0.63 14.829,2.263 22.245,2.892c-0.079,0.346 -0.141,0.683 0.009,1.033l-0,-0.008c0.833,1.892 1.058,4.963 1.041,8.242c0,1 -0.029,2.041 -0.037,3.079m34.058,-75.017c0.559,0.525 1.438,0.588 2.104,0.159c0.65,-0.417 0.925,-1.259 0.659,-1.988c-0.409,-1.175 -0.659,-2.512 -0.659,-3.837c0.009,-1.742 0.409,-3.321 1.271,-4.546c1.179,3.275 1.304,7.733 1.538,11.641c0.033,0.721 0.529,1.317 1.216,1.53c0.692,0.204 1.43,-0.046 1.863,-0.625c1.521,-2.021 2.787,-2.475 3.546,-2.475c1.162,-0 2.262,1.2 2.262,2.67c-0.062,1.23 -0.596,2.542 -3.362,3.367c-0.775,0.204 -1.309,0.925 -1.284,1.717c0.18,3.916 0.321,7.904 0.321,11.933c0,9.05 -0.779,18.2 -3.775,26.663c-5.612,15.995 -20.779,23.587 -36.329,27.929c0.008,-0.746 0.017,-1.454 0.017,-2.2c-0.009,-3.184 -0.142,-6.35 -1.129,-9.05c0.55,0.016 1.12,0.104 1.695,0.104c9.167,0.037 18.271,-2.796 25.863,-12.621c4.654,-6.071 9.433,-19.4 9.475,-30.246c-0,-4.183 -0.717,-8.046 -2.742,-11.004c-4.262,-5.054 -12.141,-5.408 -11.616,-9.929l-0,-0.304c1.837,0.1 3.479,0.9 4.9,2.479c0.562,0.621 1.475,0.754 2.187,0.312c0.692,-0.425 0.992,-1.333 0.675,-2.095c-0.958,-2.292 -2.087,-4.459 -2.95,-6.546c1.075,1.696 1.775,4.341 4.254,6.962" style="fill:#231f20;fill-rule:nonzero;"/><path d="M293.622,62.916c1.279,0.65 2.487,0.967 3.758,1.175c0.088,0.008 0.183,0.025 0.275,0.025c0.833,0 1.554,-0.604 1.688,-1.442c0.15,-0.937 -0.471,-1.808 -1.405,-1.97c-0.754,-0.125 -1.35,-0.267 -1.945,-0.48c-0.017,-0.141 -0.017,-0.275 -0.017,-0.408c-0,-1.421 0.329,-2.85 0.787,-3.837c0.484,-1.021 1.042,-1.321 1.105,-1.296c0.933,-0.104 1.595,-0.975 1.5,-1.9c-0.125,-0.934 -0.996,-1.617 -1.909,-1.5l-0.008,-0c-3.729,0.854 -4.754,4.841 -4.888,8.533c0,0.588 0.03,1.208 0.134,1.85c0.083,0.533 0.429,1.008 0.925,1.25" style="fill:#231f20;fill-rule:nonzero;"/><path d="M296.553,70.057c2.433,0 4.975,-0.587 7.158,-1.925c0.792,-0.508 1.03,-1.566 0.534,-2.366c-0.517,-0.8 -1.571,-1.046 -2.371,-0.542c-1.467,0.942 -3.438,1.421 -5.321,1.412c-2.95,0.055 -5.496,-1.241 -5.896,-2.395c-0.4,-0.855 -1.421,-1.234 -2.266,-0.83c-0.863,0.4 -1.234,1.434 -0.842,2.284l-0,-0.017c1.596,3.163 5.292,4.333 9.004,4.379" style="fill:#231f20;fill-rule:nonzero;"/><path d="M36.67,96.016c0.117,-0.934 -0.517,-1.813 -1.458,-1.946c-0.921,-0.125 -1.8,0.525 -1.942,1.45c-0.083,0.583 -0.1,1.179 -0.1,1.75c0,1.525 0.179,2.883 0.179,3.996c-0.1,2.025 -0.196,3.162 -3.412,5.166c-0.717,0.438 -1.021,1.342 -0.7,2.134c0.471,1.116 0.621,2.041 0.621,2.858c0.07,2.787 -2.3,5.054 -4.788,8.092c-0.583,0.754 -0.479,1.829 0.275,2.404c0.321,0.241 0.704,0.375 1.067,0.375c0.508,-0 0.996,-0.225 1.341,-0.65c2.063,-2.679 5.471,-5.459 5.534,-10.221c-0,-0.888 -0.125,-1.821 -0.4,-2.779c3.062,-2.15 3.987,-5.009 3.891,-7.379c0,-1.459 -0.208,-2.78 -0.208,-3.996c0,-0.438 0.029,-0.854 0.1,-1.254" style="fill:#231f20;fill-rule:nonzero;"/><path d="M149.005,101.13c-0.779,-0.533 -1.846,-0.346 -2.387,0.429c-1.734,2.763 -5.942,6.838 -7.355,6.542c-0.312,-0.017 -0.429,-0.042 -0.683,-0.275c-0.675,-0.667 -1.758,-0.621 -2.408,0.067c-0.659,0.671 -0.621,1.754 0.054,2.404c0.833,0.808 1.962,1.225 2.983,1.225l0.054,-0c4.5,-0.292 7.938,-5.079 10.167,-8.013c0.525,-0.77 0.321,-1.837 -0.425,-2.379" style="fill:#231f20;fill-rule:nonzero;"/><path d="M139.644,99.293c-0.896,0.304 -1.358,1.279 -1.046,2.192c0.246,0.704 0.913,1.137 1.625,1.137c0.184,0 0.371,-0.041 0.559,-0.096c1.546,-0.587 1.791,-0.908 2.6,-0.908c0.837,0.063 1.616,-0.496 1.796,-1.329c0.15,-0.633 0.229,-1.308 0.22,-1.954c0.009,-0.667 -0.07,-1.325 -0.22,-1.984c-0.134,-0.545 -0.525,-1 -1.067,-1.225c-0.15,-0.041 -0.371,-0.087 -0.533,-0.095l-0.125,-0c-0.88,0.008 -1.109,-0.305 -2.7,-0.888c-0.896,-0.304 -1.855,0.175 -2.155,1.071c-0.304,0.917 0.175,1.875 1.084,2.179l-0.029,0c0.604,0.167 1.287,0.621 2.325,0.879c0.012,0.017 0.012,0.046 0.012,0.063l0,0.033c-1.067,0.258 -1.758,0.738 -2.346,0.925" style="fill:#231f20;fill-rule:nonzero;"/><path d="M23.011,109.124c0.604,-1.938 4.067,-4.529 4.325,-8.217c0.037,-1.483 -0.863,-2.812 -2.263,-3.7c0.284,-0.641 0.825,-1.296 1.484,-1.75c0.779,-0.562 0.929,-1.625 0.387,-2.4c-0.541,-0.762 -1.604,-0.941 -2.387,-0.391c-1.663,1.208 -3.046,3.1 -3.146,5.429c-0.025,0.729 0.408,1.375 1.067,1.654c1.545,0.708 1.387,0.954 1.437,1.158c0.258,0.942 -2.687,3.971 -4.029,6.867c-0.313,0.7 -0.346,1.375 -0.346,2.025c0,1.279 0.213,2.575 0.213,3.579c-0.346,1.846 0.275,1.946 -2.363,2.238c-0.496,-0 -1.121,-0.034 -1.829,-0.142c-0.942,-0.158 -1.821,0.496 -1.971,1.421c-0.133,0.941 0.513,1.812 1.446,1.954c0.854,0.142 1.633,0.196 2.354,0.196l0.133,-0c1.938,-0 3.55,-0.604 4.5,-1.829c0.988,-1.234 1.13,-2.63 1.13,-3.838c-0,-1.392 -0.221,-2.733 -0.196,-3.579c-0.025,-0.408 0.046,-0.675 0.054,-0.675" style="fill:#231f20;fill-rule:nonzero;"/><path d="M47.638,137.597c0.312,-0 0.612,-0.079 0.879,-0.242c0.408,-0.258 0.712,-0.662 0.791,-1.162c0.346,-1.796 0.871,-3.5 1.5,-5.204c0.48,0.133 0.905,0.358 1.475,0.362c1.955,-0.004 3.98,-1.012 6.109,-2.937c8.329,6.508 24.371,10.587 32.858,12.737c6.621,1.625 12.329,2.308 17.917,2.308c5.808,0 11.508,-0.766 17.921,-1.92c-2.809,9.35 -3.305,19.804 -5.996,28.837c-2.263,7.692 -5.642,15.771 -7.975,23.242c-3.809,12.387 -8.046,22.291 -13.775,33.854c-3.809,8.329 -9.421,20.267 -13.65,19.608c-1.609,0.071 -4.146,-1.383 -7.271,-6.533c-4.967,-7.292 -5.217,-25.783 -16.954,-26.608c-1.138,-0 -2.363,0.204 -3.617,0.645c-6.225,2.33 -15.833,10.438 -16.108,19.009c-0,0.45 0.025,0.95 0.104,1.454c0.542,4.017 2.196,6.729 5.117,6.787c4.725,-0.412 8.562,-6.191 11.091,-9.07c3.163,1.483 4.913,6.316 6.5,12.258c1.804,6.358 3.421,13.629 9.009,17.504c3.408,2.271 7.333,3.221 11.287,3.221c9.121,-0.025 18.55,-4.883 24.242,-11.021c0.075,-0.071 0.046,-0.183 0.108,-0.275c1.163,0.125 2.338,0.296 3.508,0.296l0.055,-0c13.32,-0.038 25.8,-7.925 38.454,-17.258c10.354,-7.663 21.616,-14.5 31.954,-22.521c0.746,-0.579 1.429,-1.238 2.129,-1.892c-0.258,2.975 -0.45,5.933 -0.45,8.879c0,4.434 0.379,8.838 1.483,13.234c1.667,7.841 5.284,11.591 11.409,11.591c0.187,0 0.375,0 0.571,-0.008c1.837,-0 3.87,-0.225 6.241,-0.525c3.917,-0.917 14.904,-2.117 15.838,-9.238c-0.038,-2.166 -1.379,-4.083 -3.734,-5.929c-0.495,-0.375 -1.125,-0.462 -1.687,-0.254c-1.588,0.658 -3.908,1.433 -5.275,1.396c-0.133,-0 -0.238,-0 -0.354,-0.008c-7.921,-1.217 -6.938,-0.975 -7.425,-6.146c-0,-1.359 0.054,-3.009 0.079,-4.992c0.079,-7.208 0.958,-14.112 1.6,-21.267c0.171,-1.795 0.425,-4.495 0.65,-7.604c0.521,-0.4 1.037,-0.825 1.587,-1.129c0.809,-0.479 1.084,-1.533 0.596,-2.346c-0.408,-0.691 -1.216,-0.875 -1.937,-0.654c0.062,-1.662 0.108,-3.375 0.108,-5.108c-0.15,-8.888 -0.762,-18.238 -6.883,-21.571c-1.288,-0.638 -2.621,-0.958 -3.917,-0.958c-5.667,0.166 -9.262,5.258 -12.621,9.67c-3.241,4.638 -6.587,8.588 -8.391,8.288c-0.905,0.033 -2.488,-0.729 -4.563,-4.121c-6.237,-10.033 -6.271,-28.929 -6.254,-41.829c0.108,-0.054 0.233,-0.046 0.321,-0.125c13.816,-13.838 22.45,-29.008 28.171,-47.229c2.087,-6.671 4.129,-13.392 5.566,-19.913c0.879,-4.279 4.992,-12.529 5.304,-17.529c0.175,0.054 0.292,0.192 0.488,0.192l16.471,-0c0.196,0.412 0.546,0.721 0.962,0.858c0.184,0.05 0.363,0.088 0.55,0.088c0.267,-0 0.534,-0.063 0.763,-0.188c2.354,-1.217 4.779,-2.887 6.837,-4.546c0.471,-0.375 0.704,-0.962 0.634,-1.554c-0.071,-0.596 -0.463,-1.1 -1.005,-1.342c-2.745,-1.241 -5.558,-2.354 -8.304,-3.454c-0.816,-0.329 -1.725,0.009 -2.133,0.746c-0.325,-0.037 -0.675,0.008 -1,0.167l-0,0.021c-0.446,-0.03 -0.863,-0.092 -1.279,-0.092c-2.996,0.017 -5.809,0.571 -8.242,0.571c-1.033,-0 -1.962,-0.134 -2.842,-0.359c-0.204,-0.345 -0.525,-0.612 -0.925,-0.754c-0.77,-0.246 -1.554,-0.354 -2.316,-0.346c-1.421,0.009 -2.834,0.371 -4.104,1.03c-0.213,-1.367 -0.692,-2.7 -1.467,-3.917c-0.454,-0.721 -1.375,-1.013 -2.158,-0.663c-2.317,1.071 -3.871,2.909 -4.938,4.955c-0.683,-1.43 -1.687,-2.284 -3.321,-2.521c-1.491,0.229 -2.396,1.008 -2.983,2.066c-0.329,-0.683 -1.013,-1.154 -1.788,-0.987c-0.458,0.092 -0.975,0.146 -1.562,0.146c-3.771,0.025 -10.133,-2.15 -14.608,-3.421c-0.771,-0.204 -1.588,0.142 -1.963,0.854c-0.858,1.65 -1.279,3.567 -1.279,5.45c-0,0.783 0.079,1.554 0.242,2.283c0.195,0.863 0.975,1.459 1.854,1.342c0.071,-0.008 0.204,-0.008 0.4,-0.008c4.362,-0.038 9.121,1.871 14.146,1.908l0.145,0c1.225,0 2.475,-0.204 3.73,-0.55c0.362,1.625 1.037,3.304 2.22,4.904c0.292,0.371 0.709,0.584 1.155,0.646c0.175,0.633 0.283,1.538 0.283,2.717c0.054,9.137 -6.163,29.458 -8.196,33.846c-4.804,10.604 -10.933,21.091 -21.092,26.245c-3.02,0.396 -5.775,1.242 -8.383,2.342c1.846,-1.108 3.55,-2.662 4.954,-4.654c2.425,-3.525 4.688,-9.867 4.742,-15.496c-0.025,-2.521 -0.479,-4.954 -1.892,-6.892c-1.012,-1.333 -2.371,-2.291 -3.854,-3.062c0.15,-0.117 0.321,-0.171 0.454,-0.296c0.417,0.108 0.825,0.196 1.25,0.25c0.029,0.158 0.046,0.338 0.088,0.496c0.1,0.704 0.616,1.254 1.308,1.404c1.029,0.229 1.979,0.338 2.888,0.338c0.275,-0 0.537,-0.017 0.779,-0.03c0.596,1.434 1.9,2.613 3.729,2.613c1.546,-0.017 3.171,-0.621 5.108,-1.821c0.8,-0.504 1.059,-1.554 0.559,-2.354c-0.496,-0.796 -1.58,-1.054 -2.363,-0.538c-1.625,1 -2.762,1.313 -3.304,1.296c-0.417,-0.1 -0.488,-0.029 -0.525,-0.216c0.35,-0.238 0.658,-0.496 0.971,-0.8c1.271,-1.313 1.829,-3.15 1.821,-5.246l-0,-0.304c0.016,-0.692 -0.384,-1.338 -1.013,-1.613c-0.633,-0.287 -1.358,-0.15 -1.883,0.308c-0.559,0.534 -1.046,1.096 -1.484,1.68c-0.025,-1.305 -0.425,-2.717 -1.216,-4.35c-0.238,-0.5 -0.721,-0.846 -1.271,-0.925c-0.55,-0.08 -1.108,0.1 -1.5,0.487c-0.604,0.604 -1.108,1.246 -1.517,1.892c-0.012,-0.329 -0.029,-0.667 -0.046,-1.013c-0.045,-0.541 -0.345,-1.029 -0.808,-1.333c-0.462,-0.279 -1.058,-0.346 -1.554,-0.129c-1.554,0.637 -2.788,1.358 -3.642,2.246c0.046,-0.417 0.071,-0.842 0.071,-1.296c0,-0.579 -0.037,-1.192 -0.096,-1.821c-0.054,-0.517 -0.329,-0.979 -0.766,-1.271c-0.417,-0.275 -0.959,-0.354 -1.438,-0.204c-3.792,1.117 -5.975,3.508 -5.958,6.225c0.079,1.333 0.533,2.55 1.225,3.608c-0.779,0.354 -1.609,0.529 -2.45,0.6c0.229,-0.833 0.337,-1.675 0.337,-2.558c0.009,-2.296 -0.816,-4.688 -2.621,-6.579c-0.32,-0.338 -0.783,-0.542 -1.241,-0.534c-0.463,0 -0.934,0.196 -1.246,0.542c-2.033,2.213 -3.063,4.346 -3.063,6.433l0,0.113c-0.391,-0.042 -0.791,0.046 -1.12,0.275c-2.7,1.475 -4.371,3.375 -4.146,6.35c-0,0.517 0.008,1.1 0.062,1.787c0.042,0.788 0.621,1.438 1.413,1.58c0.675,0.125 1.341,0.175 1.971,0.175c0.566,-0.009 1.091,-0.088 1.608,-0.167c-0.233,0.762 -0.446,1.554 -0.633,2.371c-1.43,-0.975 -3,-1.713 -4.625,-2.034c-0.509,-0.095 -1.013,0.046 -1.405,0.375c-0.4,0.317 -0.612,0.809 -0.612,1.313c-0.017,0.171 -0.017,0.329 -0,0.508c-0,0.796 -0.033,1.659 -0.033,2.567c-0,0.417 -0,0.85 0.033,1.321c0.062,0.746 0.587,1.371 1.325,1.537c0.05,0.009 0.096,0.017 0.142,0.025c-0.971,1.475 -1.413,3.092 -1.405,4.609c0,3.187 1.909,6.37 5.313,6.504l0.033,-0c0.525,-0 1.029,-0.234 1.529,-0.4c0.063,0.187 0.096,0.408 0.175,0.596c2.159,4.783 6.209,7.358 10.409,7.358l0.1,-0c1.366,-0 2.708,-0.338 4.012,-0.8c-4.829,2.354 -9.183,5.467 -13.666,8.042c-5.455,3.116 -9.805,4.045 -15.23,4.066c-2.045,0 -4.237,-0.125 -6.662,-0.366c-16.396,-1.555 -33.971,-9.217 -46.663,-19.73c-0.3,-0.25 -0.654,-0.295 -1.008,-0.32c4.046,-3.98 6.054,-10.117 8.863,-13.83c0.379,-0.52 0.433,-1.208 0.141,-1.783c-0.304,-0.571 -0.871,-0.925 -1.529,-0.925c-0.054,0 -0.158,-0.025 -0.3,-0.025c-17.321,0.125 -35.462,-12.558 -54.212,-12.862c-0.755,-0.009 -1.446,0.495 -1.65,1.225c-4.805,16.145 -9.475,32.525 -12.059,48.72c-0.091,0.48 0.034,0.971 0.354,1.35c0.292,0.375 0.738,0.605 1.25,0.634c15.988,0.8 31.28,1.554 45.488,5.958c0.171,0.054 0.337,0.071 0.517,0.071m172.591,-95.583c0.909,0.362 1.829,0.725 2.738,1.1c-0.809,0.566 -1.609,1.108 -2.425,1.587c-0.346,-0.708 -0.713,-1.429 -1.067,-2.15c0.313,-0.096 0.542,-0.292 0.754,-0.537m-17.425,0.141c1.104,0.238 2.188,0.388 3.271,0.388c2.904,-0.025 5.692,-0.575 8.242,-0.567c0.371,0 0.737,0.05 1.091,0.071c0.392,0.779 0.78,1.554 1.171,2.379l-14.616,0c0.308,-0.746 0.583,-1.5 0.841,-2.271m-22.716,0c-1.146,0.404 -2.346,0.613 -3.625,0.613c-3.834,0.041 -8.33,-1.663 -13.221,-1.884l-0,-0.233c-0,-0.871 0.133,-1.775 0.371,-2.575c4.229,1.225 9.741,3.083 14.058,3.108c0.792,0 1.546,-0.079 2.258,-0.22c0.125,-0.038 0.204,-0.159 0.329,-0.225c-0.091,0.454 -0.125,0.941 -0.17,1.416m-54.325,53.717c0.304,0.137 0.595,0.304 0.87,0.483c-0.116,0.009 -0.237,0.025 -0.362,0.025c-0.171,0 -0.329,-0.016 -0.517,-0.025c0,-0.154 0.009,-0.321 0.009,-0.483m1.983,11.325c-0.658,-0 -1.892,-1.1 -1.892,-3.083c0.009,-1.296 0.488,-2.692 1.9,-3.917c0.113,0.054 0.204,0.054 0.325,0.083c-0.05,0.771 -0.15,1.525 -0.15,2.3c0,1.509 0.134,3 0.4,4.459c-0.221,0.087 -0.441,0.158 -0.583,0.158m0.292,-18.925l-0.017,-0l-0,-0.125c0.167,-1.767 -0.083,-1.642 1.046,-2.413c0.304,0.725 0.55,1.509 0.746,2.28c-0.559,0.17 -1.146,0.258 -1.775,0.258m-43.188,174.05c-3.412,-0 -6.633,-0.808 -9.362,-2.638c-4.059,-2.629 -5.888,-9.112 -7.638,-15.562c-1.808,-6.321 -3.525,-13.042 -9.804,-14.971c-0.621,-0.171 -1.271,0.008 -1.713,0.488c-2.337,2.795 -7.8,9.216 -9.37,8.775c-0.196,0.025 -1.075,-0.08 -1.742,-3.925c-0.042,-0.284 -0.079,-0.58 -0.079,-0.896c-0.275,-5.704 8.891,-14.246 13.846,-15.767c0.941,-0.337 1.758,-0.467 2.479,-0.467c6.862,-0.845 9.004,15.896 14.029,24.971c3.317,5.442 6.571,8.134 10.196,8.196c2.391,-0.175 4.387,-1.367 6.154,-3.092c4.475,3.234 8.946,5.242 13.367,6.309c-5.117,4.821 -13.142,8.604 -20.363,8.579m124.225,-26.679c0.204,0.008 0.408,0.016 0.621,0.016c1.954,-0.016 3.979,-0.675 5.571,-1.275c1.391,1.259 1.721,2.163 1.712,2.625c0.188,0.817 -1.662,2.575 -4.687,3.713c-2.904,1.154 -6.429,1.9 -8.188,2.133c-2.312,0.309 -4.237,0.496 -5.791,0.496c-5.242,-0.25 -6.438,-1.208 -8.659,-8.987c-1.021,-4.05 -1.396,-8.163 -1.396,-12.409c0,-3.508 0.267,-7.066 0.638,-10.708c0.054,-0.508 -0.158,-0.95 -0.479,-1.296c4.379,-4.858 8.108,-10.408 12.141,-14.567c-0.133,1.588 -0.258,3.038 -0.362,4.121c-0.642,7.05 -1.538,14.075 -1.608,21.538c-0.03,1.916 -0.08,3.558 -0.08,5.025c-0.491,5.666 2.405,9.387 10.567,9.575m-59.442,-155.063c-0.05,0.313 -0.087,0.613 -0.141,0.879c-0.175,-0.212 -0.221,-0.354 -0.221,-0.362c-0,-0.017 0.037,-0.213 0.362,-0.517m-3.575,1.513c0.23,0.725 0.592,1.337 1.055,1.854l-0.017,-0c-0.533,0.017 -1.208,-0.158 -1.858,-0.471c0.304,-0.425 0.587,-0.887 0.82,-1.383m-2.375,-4.159c-0.104,1.334 -0.45,2.409 -0.958,3.259c-0.267,-0.467 -0.392,-0.934 -0.379,-1.296c0.017,-0.55 0.212,-1.242 1.337,-1.963m-9.6,1.1c0.359,0.8 0.525,1.655 0.534,2.513c-0,0.604 -0.088,1.192 -0.238,1.758c-0.721,-0.496 -1.091,-1.154 -1.091,-1.896c-0.013,-0.562 0.183,-1.379 0.795,-2.375m5.909,35.721c-2.871,-0.033 -5.588,-1.546 -7.392,-5.391c-0.167,-0.355 -0.246,-0.817 -0.362,-1.205c1.358,-1.683 2.041,-3.57 2.033,-5.42c-0.046,-2.246 -0.888,-4.317 -2.192,-6.038c1.046,-1.625 1.517,-3.679 1.534,-5.604c-0,-0.233 -0.025,-0.463 -0.034,-0.696c0.071,-0.183 0.125,-0.387 0.175,-0.558c0.1,-0.096 0.217,-0.175 0.313,-0.267c0.087,0 0.171,0.013 0.266,0.013c0.23,-0 0.534,-0 0.888,-0.055c0.683,-0.108 1.208,-0.616 1.375,-1.237c1.458,-0.488 3.2,-0.771 4.983,-0.771c4.042,-0.017 8.125,1.429 9.788,3.783c0.783,1.038 1.225,2.755 1.225,4.867c0.029,4.663 -2.167,10.817 -4.113,13.533c-2.404,3.384 -5.612,5.055 -8.487,5.046m11.666,3.304c-0.529,3.221 -2.191,6.821 -4.358,9.68c-2.462,3.383 -5.683,5.508 -7.258,5.416c-1.125,-0.025 -2.359,-0.637 -2.971,-5.329c-0.1,-0.867 -0.838,-1.446 -1.671,-1.462c5.425,-3.367 10.496,-6.734 16.258,-8.305m-43.516,14.467c2.471,0.229 4.754,0.375 6.966,0.375l0.096,0c5.8,0 10.996,-1.158 16.838,-4.521c0.65,-0.375 1.279,-0.766 1.9,-1.146c-0.15,0.284 -0.3,0.575 -0.275,0.95c0.4,5.113 2.8,8.384 6.333,8.384l0.042,-0c6.883,-0.454 14,-10.188 15.133,-18.988c12.046,-5.596 18.704,-17.354 23.733,-28.421c2.271,-5.116 8.463,-24.929 8.505,-35.266c-0.08,-2.875 -0.255,-5.488 -2.805,-6.767c-0.745,-1.412 -1.191,-2.875 -1.191,-4.129c-0.017,-1.121 0.241,-2.079 0.525,-2.629c0.029,-0.054 0.054,-0.096 0.071,-0.15c0.391,0.658 1.02,2.325 1.295,5.112c0.092,0.846 0.784,1.484 1.617,1.538c0.838,0.037 1.592,-0.534 1.758,-1.342c0.596,-2.804 1.767,-5.779 3.563,-7.379c0.221,0.675 0.337,1.375 0.337,2.087c0,0.542 -0.07,1.084 -0.187,1.625c-0.575,0.88 -1.004,1.875 -1.225,2.984c-0.158,0.808 0.283,1.625 1.075,1.937c0.771,0.292 1.65,-0.008 2.079,-0.729c0.525,-0.871 0.925,-1.792 1.196,-2.717c1.017,-1.279 2.579,-2.129 4.087,-2.245c-0.629,1.9 -1.579,3.904 -2.55,5.662c-0.32,0.563 -0.283,1.254 0.084,1.779c0.15,0.221 0.354,0.4 0.591,0.529c-0.895,4.046 -4.083,11.138 -5.054,15.384c-1.391,6.325 -3.4,12.996 -5.487,19.621c-5.613,17.812 -13.871,32.37 -27.317,45.825c-0.179,0.158 -0.167,0.383 -0.25,0.591c-0.604,0.267 -1.083,0.75 -1.062,1.45c0.025,4.138 0.016,8.988 0.204,14.004c-0.188,-0.087 -0.338,-0.25 -0.554,-0.25c-0.938,-0.016 -1.721,0.721 -1.73,1.684c-0.1,3.754 -2.416,5.825 -4.333,5.804c-1.2,-0.017 -2.612,-0.638 -3.954,-2.838c-0.425,-0.683 -1.25,-0.987 -1.996,-0.758c-0.775,0.25 -1.246,1.013 -1.183,1.796c0.046,0.379 0.054,0.779 0.054,1.117c-0,4.554 -3.696,7.416 -6.492,7.425c-2.008,-0.142 -3.625,-0.984 -3.791,-5.392c-0,-0.017 -0,-0.088 0.008,-0.221c0.025,-0.95 -0.7,-1.742 -1.654,-1.783c-0.929,-0.029 -1.738,0.716 -1.775,1.658c-0,0.054 -0.009,0.171 -0.009,0.346c0.009,5.554 3.367,8.804 7.221,8.804c4.113,-0.037 8.346,-3.146 9.563,-8.029c1.246,0.854 2.621,1.287 4.008,1.287c3.096,-0.029 5.683,-2.175 6.917,-5.258c0.658,9.013 2.237,18.117 6.233,24.742c2.283,3.712 4.663,5.721 7.488,5.746c4.975,-0.3 7.754,-5.309 11.137,-9.671c3.267,-4.546 6.792,-8.454 9.875,-8.284c0.738,0.009 1.529,0.175 2.442,0.621c3.35,1.234 5.071,9.813 4.929,18.488c-0,2.575 -0.104,5.071 -0.258,7.441c-7.513,6.2 -12.617,16.363 -19.838,21.859c-10.133,7.85 -21.358,14.687 -31.883,22.487c-12.542,9.279 -24.554,16.617 -36.429,16.579c-6.075,-0.016 -12.213,-1.933 -18.65,-6.508c3.354,-4.646 5.779,-11.137 8.295,-15.846c5.771,-11.666 10.105,-21.791 13.996,-34.35c2.229,-7.237 5.629,-15.354 7.963,-23.275c3.021,-10.296 3.296,-21.625 6.496,-30.704l-0,-0.033c0.591,-0.359 1.02,-0.95 0.879,-1.671c-0.179,-0.921 -1.075,-1.538 -1.992,-1.358c-7.787,1.466 -14.129,2.441 -20.583,2.441c-5.313,0 -10.721,-0.637 -17.088,-2.191c-9.112,-2.188 -27.575,-7.284 -33.412,-13.617c-0.638,-0.7 -1.721,-0.729 -2.425,-0.071c-0.513,0.496 -0.542,1.225 -0.275,1.854c-1.696,1.496 -2.975,1.938 -3.684,1.929c-0.133,0 -0.233,-0.07 -0.345,-0.1c0.187,-0.77 -0.092,-1.612 -0.846,-1.97c-0.259,-0.105 -0.534,-0.034 -0.809,-0.025c-0.062,-0.284 -0.133,-0.58 -0.141,-0.934c0.037,-0.7 0.171,-1.341 0.437,-1.883c1.321,-0.15 2.459,-1.046 3.259,-2.271c0.391,-0.562 0.391,-1.317 0.008,-1.904c-0.375,-0.558 -1.067,-0.842 -1.742,-0.733c-1.012,0.195 -1.866,0.558 -2.591,1.075c-0.134,-0.163 -0.313,-0.375 -0.471,-0.65c-0.525,-0.863 -0.888,-2.113 -0.888,-3.209c0.204,-1.862 0.434,-2.779 3.029,-2.929c0.317,0 0.675,0.017 1.1,0.079c0.096,0.1 0.321,0.196 1.155,0.384c0.604,0.15 1.658,-0.792 1.658,-1.325c0.054,-0.442 0.037,-0.621 0.021,-0.709l-0.021,-0.079l-0.05,0.008c-0.296,-1.2 -0.392,-0.62 -0.596,-1.05l-0.258,-0.133c-0.159,-0.396 -0.588,-1.854 -0.579,-3.179c0.133,-2.146 0.57,-3.038 1.937,-3.038l0.117,0.021c0.637,0 1.075,0.654 1.146,3.304c-0,1.863 -0.275,3.967 -0.284,5.567c0,0.158 0.009,0.267 0.009,0.3c0.112,0.925 0.958,1.6 1.916,1.492c0.888,-0.125 1.492,-0.913 1.446,-1.792c13.263,10.817 31.15,18.633 48.242,20.275m-104.421,-4.292c2.512,-14.883 6.796,-30.079 11.262,-45.158c16.021,0.642 32.813,11.563 50.221,12.746c-1.783,3.054 -3.296,6.383 -5.071,8.879c-0.291,-2.2 -1.333,-4.512 -4.316,-4.742c0.016,0 -0.079,-0.016 -0.267,-0.016c-3.971,-0 -5.354,3.737 -5.354,6.454c0.008,0.9 0.117,1.775 0.292,2.604c-3.88,0.329 -5.746,3.525 -5.755,6.329c0.117,2.417 0.871,5.038 2.63,6.529c-0.455,0.98 -0.659,2.042 -0.642,3.046c-0,1.359 0.429,2.779 1.208,3.971c-0.637,1.604 -1.196,3.196 -1.596,4.85c-13.633,-3.929 -27.95,-4.725 -42.612,-5.492" style="fill:#231f20;fill-rule:nonzero;"/></svg>