<?xml version="1.0" encoding="UTF-8" standalone="no"?><!DOCTYPE svg PUBLIC "-//W3C//DTD SVG 1.1//EN" "http://www.w3.org/Graphics/SVG/1.1/DTD/svg11.dtd"><svg width="100%" height="100%" viewBox="0 0 278 391" version="1.1" xmlns="http://www.w3.org/2000/svg" xmlns:xlink="http://www.w3.org/1999/xlink" xml:space="preserve" xmlns:serif="http://www.serif.com/" style="fill-rule:evenodd;clip-rule:evenodd;stroke-linejoin:round;stroke-miterlimit:2;"><path d="M63.114,80.594c0.612,0.308 1.258,0.425 1.95,0.425c1.008,0 2.004,-0.308 2.854,-0.896c9.554,-6.941 20.996,-10.296 31.017,-16.275c1.42,-0.833 2.812,-1.741 4.175,-2.754c0.85,1.8 1.67,1.229 2.008,1.95c0.967,0.571 1.887,1.083 2.737,1.508c0.38,0.221 0.775,0.409 0.984,0.559l-0,-0.063c1.875,1.7 4.729,1.629 6.562,-0.029c3.488,0.454 6.842,0.425 9.946,0.425c2.683,-0.029 5.188,0 7.446,0.308c0.233,0.996 0.729,1.921 1.579,2.638c2.125,1.7 5.142,1.362 6.871,-0.733c0.104,-0.071 -0.117,-0.146 0.954,-0.221c4.246,-0.467 16.288,7.562 25.888,13.991c1.45,0.996 2.837,1.934 4.145,2.8c0.788,0.496 1.713,0.746 2.621,0.746c0.746,0 1.496,-0.162 2.196,-0.512c1.379,-0.717 2.246,-2.067 2.479,-3.559c0.025,-0.175 0.129,-0.308 0.146,-0.454c0.792,-12.587 1.188,-25.521 1.188,-38.441c-0,-12.588 -0.355,-25.188 -1.03,-37.405c0,-0.291 -0.145,-0.57 -0.22,-0.85c-0.538,-2.195 -2.459,-3.825 -4.775,-3.75c-13.859,0.646 -26.105,8.909 -35.48,18.855c-2.654,2.812 -5.058,5.758 -7.225,8.733c-4.908,-1.625 -10.766,-2.433 -15.866,-2.492c-1.567,0 -3.092,0.104 -4.513,0.338c-1.946,0.337 -3.237,1.904 -3.675,3.766c-1.421,-1.729 -3.033,-3.295 -4.675,-4.704c-8.204,-6.771 -18.9,-9.816 -29.916,-9.771c-3.192,0 -6.4,0.263 -9.609,0.688c-1.862,0.25 -3.296,1.567 -3.883,3.237c-0.017,0.03 -0.042,0.046 -0.042,0.105c-0.221,0.658 -0.325,1.375 -0.221,2.12c0.046,0.28 0.192,0.517 0.263,0.792c0.017,0.063 0.058,0.133 0.087,0.192c0.325,0.896 0.809,1.7 1.538,2.254c0.983,0.75 2.242,1.117 3.575,0.937c1.292,-0.187 2.55,-0.175 3.808,-0.275c-6.708,8.175 -9.096,18.53 -9.625,28.684c-0.116,1.816 -0.146,3.587 -0.146,5.362c0,6.154 0.488,12.234 0.996,17.8c0.029,0.413 0.296,0.734 0.413,1.1c0.454,1.229 1.229,2.313 2.475,2.871m107.271,-70.262c0.525,10.387 0.758,21.066 0.745,31.675c0.013,9.87 -0.22,19.716 -0.675,29.387c-8.775,-6.021 -18.941,-13.246 -28.258,-13.671c-0.983,-0.029 -2.067,0.309 -3.079,0.542c0.529,-3.425 0.879,-7.175 0.879,-11.075c0,-4.454 -0.379,-8.658 -1.096,-12.438c7.588,-11.058 19.746,-21.87 31.484,-24.42m-53.167,24.495c3.883,0.088 9.067,1.009 12.304,2.063c0.471,2.858 0.763,6.596 0.763,10.3c-0,2.987 -0.188,6.037 -0.513,8.6c-7.587,-0.279 -14.179,0.442 -19.267,-2.079l-0.041,-0.017c3.546,-4.879 6.037,-11.046 6.754,-18.867m-36.992,-7.62c0.642,-0.496 1.084,-1.171 1.375,-1.905c10.271,1.717 18.342,6.621 22.959,16.059c0.22,0.483 0.658,0.762 1.012,1.1c-2.271,6.108 -6.287,9.608 -11.679,13.05c-6.65,4.087 -15.588,7.15 -24.625,12.262c-0.192,-2.987 -0.308,-5.975 -0.308,-8.95c-0,-13.171 2.504,-24.846 11.266,-31.616" style="fill:#231f20;fill-rule:nonzero;"/><path d="M126.607,155.954c-0.192,-0.525 -0.396,-1.071 -0.613,-1.567c-0.575,-1.171 -1.571,-2.037 -2.712,-2.446c5.671,-1.141 11.454,-3.766 17.112,-8.146c6.959,-5.333 10.942,-12.07 12.409,-19.016c0.425,-2.079 0.704,-4.163 0.675,-6.242c-0.25,-12.554 -7.192,-24.433 -16.867,-32.7c-7.704,-6.575 -17.125,-10.929 -26.617,-11.15c-1.933,0 -3.825,0.338 -5.741,0.75c-0.471,0.104 -0.955,0.029 -1.409,0.163c-1.037,-0.046 -2.121,0.233 -3.058,0.879c-0.163,0.129 -0.371,0.246 -0.546,0.379c-3.429,1.479 -6.637,3.721 -9.392,6.842l-1.229,3.016c0,0.059 -0.016,0.325 -0.016,0.909c-5.038,7.295 -7.367,15.616 -7.309,23.645c0,2.2 0.263,4.409 0.571,6.58c2.696,18.254 16.304,34.5 35.192,34.733c0.687,-0 1.391,-0.146 2.066,-0.188c-0.866,0.513 -1.495,1.259 -1.904,2.109c-0.104,-0.029 -0.191,-0.059 -0.279,-0.059c-1.804,0 -3.65,0.13 -5.525,0.38c-1.187,0.175 -2.183,0.791 -2.9,1.629c-1.775,0.175 -3.475,0.6 -5.054,1.216c-0.175,-0.383 -0.088,-0.866 -0.413,-1.216c-1.787,-2.009 -4.845,-2.2 -6.854,-0.442l-0.016,0c-0.584,0.542 -1.025,1.171 -1.58,1.717c-0.616,-0.034 -1.258,-0.121 -1.875,-0.121c-51.262,0.633 -77.133,58.646 -77.254,102.537c0,3.65 0.15,7.238 0.588,10.738c0.162,1.308 0.85,2.508 1.891,3.329c0.834,0.613 1.859,0.967 2.913,0.967c0.267,-0 0.542,-0.046 0.808,-0.059c2.225,0 6.842,-3.033 6.429,-6.491c-0.1,-1.392 -0.25,-2.05 -0.32,-2.359c0.966,-2.137 0.291,-4.733 -1.73,-6.066c-0.279,-0.192 -0.558,-0.334 -0.85,-0.467c0.046,-20.204 6.259,-43.704 17.859,-61.721c10.475,-16.191 24.7,-27.762 42.691,-30.166c-10.416,14.3 -16.029,31.983 -18.825,50.808c-3.312,9.608 -5.554,17.858 -6.241,22.533c-0.954,6.825 -1.863,16.479 -1.863,26.763c0.163,13.508 1.304,28.087 6.963,38.954c0.216,3.737 0.396,7.458 0.525,10.904c0.116,2.504 2.108,4.538 4.646,4.671c3.779,0.175 8.012,0.512 12.395,0.879c0.788,0.529 1.684,0.908 2.692,0.908l0.058,0c0.763,-0.029 1.45,-0.233 2.096,-0.57c4.746,0.35 9.596,0.641 14.417,0.641c2.637,0 5.287,-0.141 7.883,-0.35c-0.016,0.15 -0.087,0.292 -0.087,0.442l-0.034,-0c0,6.504 -0.337,13.871 -0.337,21.242c0.017,7.72 0.337,15.383 2.037,22.266c-0.937,1.438 -1.887,2.829 -2.562,4.559c-0.996,2.458 0.233,5.316 2.712,6.329c2.255,0.862 4.688,-0.088 5.917,-2.084c0.088,0 0.175,0.088 0.292,0.088c0.646,-0 1.262,-0.1 1.891,-0.35c2.475,-1.071 3.617,-3.883 2.609,-6.371c-0.029,-0.046 -0.046,-0.092 -0.059,-0.104c2.167,-1.817 4.525,-2.621 6.796,-2.679c4.996,0.204 9.404,3.237 9.596,10.812c0,0.409 -0.012,0.804 -0.029,1.2c-3.529,0.659 -7.529,1.054 -11.075,1.054c-3.883,0.046 -7.383,-0.629 -8.263,-1.112c-2.416,-1.188 -5.333,-0.192 -6.504,2.225c-1.171,2.417 -0.175,5.333 2.242,6.504c3.617,1.688 7.808,2.038 12.525,2.096c5.521,-0 11.546,-0.704 16.671,-2.067c1.816,-0.454 3.225,-1.933 3.562,-3.779c0.396,-2.121 0.629,-4.146 0.584,-6.121c-0,-12.454 -9.363,-20.525 -19.309,-20.525c-3.121,-0.033 -6.212,0.967 -9.129,2.504c-0.567,-4.412 -0.787,-9.35 -0.775,-14.445c0,-7.075 0.325,-14.43 0.325,-21.242c0,-0.646 -0.15,-1.233 -0.367,-1.804c7.28,-1.684 13.875,-4.892 18.53,-11.104c4.645,-6.855 5.029,-16.45 5.17,-26.709c0,-11.546 -1.125,-23.746 -1.125,-30.075c-0.045,-29.637 -3.033,-61.241 -10.87,-85.925c8.512,5.996 14.608,17.304 18.854,31.542c6.154,20.892 7.558,46.062 7.646,60.725c-0,2.696 2.183,4.85 4.866,4.85l0.029,-0c2.696,-0.029 4.85,-2.183 4.821,-4.892c-0.116,-15.221 -1.45,-40.95 -8.016,-63.45c-5.521,-18.871 -15.484,-36.671 -33.021,-41.637m-51.042,92.325c-0.658,3.166 -1.112,6.358 -1.637,9.554c0.029,-8.85 0.35,-17.729 1.141,-26.329c0.204,4.837 0.496,9.583 0.496,13.596l0,3.179Zm5.554,65.137l-0.016,0c-0,-0.046 0.016,-0.087 0.016,-0.15l0,0.15Zm35.938,-170.546c-7.796,-0.012 -14.888,-4.758 -19.721,-11.75c-3.867,-5.55 -6.313,-12.495 -6.313,-19.85c0.042,-5.666 1.375,-11.337 4.496,-16.512c0.809,-0.146 1.321,-0.321 1.7,-0.454c1.771,0.879 4.013,0.646 5.538,-0.846c1.95,-1.817 2.025,-4.938 0.175,-6.858c-0.059,-0.071 -0.117,-0.117 -0.146,-0.175c0.396,-0.35 0.808,-0.688 1.258,-1.013c1.863,-0.675 3.854,-0.996 5.95,-1.008c7.238,-0.059 16.029,4.246 22.679,10.912c6.68,6.609 11.117,15.384 11.092,23.221c-0.062,5.788 -2.258,11.221 -8.017,16.292c-0.466,0.425 -0.775,0.862 -1.316,1.275c-6.375,4.937 -12.192,6.754 -17.375,6.766m-8.425,23.267c0.146,0 0.337,0.013 0.558,0.058c0.1,0.013 0.204,0.071 0.304,0.088c-0.454,5.975 -0.95,12.337 -1.521,18.871c-0.937,-4.046 -2.316,-7.796 -4.337,-11.196c-0.629,-1.067 -1.642,-1.8 -2.767,-2.121c3.425,-4.075 6.313,-6.271 7.763,-5.7m-12.892,116.204c0.629,-3.033 1.258,-6.066 1.8,-9.129c-0.175,3.563 -0.379,7.179 -0.583,10.8c-0.5,0.292 -1.013,0.617 -1.509,0.925c0.071,-0.867 0.188,-1.733 0.292,-2.596m0.613,14.05c-0.025,0.646 -0.042,1.317 -0.059,1.946c-0.421,-0.158 -0.833,-0.333 -1.241,-0.525c0.275,-0.437 0.716,-0.925 1.3,-1.421m-1.888,-115.708l0,0.075c0,-0 -0.012,-0.017 -0.012,-0.046c-0,0 0.012,-0.012 0.012,-0.029m-7.15,80.65c-0.704,0.629 -1.375,1.304 -2.021,1.95c0,-1.229 0.017,-2.475 0.017,-3.708l-0,-10.255c2.737,-12.937 6.342,-26.091 8.717,-39.687c-0.28,12.85 -0.938,26.679 -2.8,39.129c-0.396,0.483 -0.705,0.688 -0.938,1.7c-1.275,3.604 -2.242,7.238 -2.975,10.871m15.296,53.3c-3.738,-0 -7.617,-0.238 -11.5,-0.5c0.012,-0.367 0.012,-0.704 0.046,-1.071c1.741,0.704 3.6,0.967 5.416,0.967c2.771,-0.088 5.775,-0.7 8.775,-1.8c0.88,0.716 2.025,1.141 3.255,1.1c2.329,-0.092 4.22,-1.804 4.616,-4.004c1.521,-0.334 3.004,-0.805 4.421,-1.434c0.133,0.163 0.25,0.309 0.383,0.425c0.017,0.029 0.017,0.029 0.03,0.029c0.175,0.192 0.337,0.355 0.554,0.484c0.016,0.029 0.046,0.029 0.058,0.046c0.017,0.012 0.075,0.058 0.121,0.087c0.042,0.042 0.117,0.071 0.158,0.088c0.017,0.012 0.034,0.012 0.034,0.029c0.262,0.175 0.537,0.279 0.833,0.396l0.012,0.012c0.046,0 0.105,0.029 0.163,0.058c0.046,0.017 0.058,0.017 0.087,0.034c0.03,0.012 0.075,0.025 0.117,0.025c0.029,-0 0.075,-0 0.133,0.016c0.013,0.017 0.03,0.017 0.042,0.017c0.058,0.013 0.133,0.058 0.192,0.058c0.296,0.042 0.629,0.084 0.937,0.084l0.029,-0c0.425,-0 0.85,-0.059 1.275,-0.175c0.205,0.458 0.455,0.912 0.705,1.396c-5.346,2.504 -12.53,3.675 -20.892,3.633m21.083,-80.696c-0.412,0.058 -0.808,0.263 -1.146,0.5c-0.233,-0.733 -0.583,-1.437 -1.095,-1.962c0.729,-5.746 1.858,-12.542 2.9,-19.634c1.158,6.784 1.858,13.846 2.254,21.025c-0.95,-0.296 -1.963,-0.296 -2.913,0.071" style="fill:#231f20;fill-rule:nonzero;"/><path d="M74.058,322.776c-2.667,-0 -4.85,2.141 -4.85,4.833c-0.03,12.367 -0.013,24.763 -0,37.113c-5.042,-2.33 -10.092,-4.205 -15.163,-4.25c-3.196,-0.046 -6.812,0.954 -9.362,3.795c-2.505,2.842 -3.425,6.575 -3.425,10.884c-0,2.708 0.35,5.729 1.112,9.2c0.396,1.921 1.917,3.4 3.821,3.779c1.554,0.292 3.167,0.396 4.762,0.396c5.305,-0.013 10.917,-1.275 15.634,-3.313c2.883,-1.433 5.933,-2.883 7.866,-5.537c0.821,-0.759 1.321,-1.784 1.48,-2.871c0.25,-0.804 0.425,-1.667 0.512,-2.621c0,-0.379 -0.175,-0.687 -0.233,-1.054c1.612,-0.792 2.725,-2.404 2.725,-4.308c-0.029,-13.755 -0.029,-27.484 -0.029,-41.213c-0,-2.692 -2.171,-4.833 -4.85,-4.833m-8.017,51.612c-2.4,1.688 -9.592,4.675 -14.792,4.454c-0.208,-1.404 -0.296,-2.637 -0.296,-3.691c0.78,-5.917 0.484,-4.279 3.092,-4.979c2.504,-0.063 7.179,1.508 11.996,3.808l-0,0.408Z" style="fill:#231f20;fill-rule:nonzero;"/><path d="M185.897,175.38l0.646,0c3.546,0 7.471,-0.687 12,-2.037c1.933,-0.571 3.262,-2.242 3.454,-4.279c0.075,-0.904 0.075,-1.771 0.075,-2.604c-0.075,-5.538 -1.771,-10.021 -4.267,-13.8c-4.962,-7.534 -13.387,-12.117 -20.741,-15.296c0.058,-1.804 0.087,-3.65 0.087,-5.467l0,-0.775c0,-2.65 -2.166,-4.833 -4.85,-4.833c-2.696,-0 -4.85,2.183 -4.85,4.833l-0.029,0l0,0.775c0,4.675 -0.292,9.892 -0.292,15.004c0.013,6.534 0.321,12.979 2.959,18.621c-0,0.029 -0,0.042 0.029,0.071c2.433,5.537 8.35,9.787 15.779,9.787m6.433,-10.458c-2.3,0.496 -4.237,0.717 -5.787,0.717c-4.996,-0.234 -6.054,-1.392 -7.679,-4.279c-1.388,-2.842 -1.963,-7.75 -2.034,-13.421c8.263,4.075 14.9,9.35 15.5,16.983" style="fill:#231f20;fill-rule:nonzero;"/><path d="M0,151.926c-0.041,5.071 2.534,10.196 7.338,14.125c4.221,3.646 8.733,5.65 13.304,5.65l0.088,-0c10.229,-0.275 16.337,-8.7 20.362,-16.992c4,-8.587 6.113,-18.137 6.142,-24.933c-0,-0.704 -0,-1.396 -0.029,-2.038c-0.117,-2.683 -2.405,-4.746 -5.055,-4.616c-2.725,0.12 -4.779,2.404 -4.658,5.07c0.029,0.438 0.029,0.996 0.029,1.584c0.042,4.729 -1.846,13.725 -5.233,20.758c-3.383,7.354 -8.129,11.721 -11.558,11.442c-1.73,-0.017 -3.984,-0.688 -7.105,-3.325c-3.208,-2.8 -3.825,-4.763 -3.912,-6.725c-1.333,-8.763 23.15,-25.021 31.85,-29.213c0.862,-0.483 1.45,-1.275 1.875,-2.108c0.687,-1.392 0.804,-3.033 -0.013,-4.471c-1.304,-2.375 -4.295,-3.208 -6.608,-1.933l-0.017,-0c-1.52,0.996 -3.791,2.3 -6.254,3.75c-11.25,6.608 -29.462,17.933 -30.546,33.975" style="fill:#231f20;fill-rule:nonzero;"/><path d="M234.258,208.564c0.937,-0.383 1.875,-0.675 2.783,-0.937c5.654,7.325 9.229,16.054 9.142,24.508c-0,5.496 -1.392,10.871 -4.659,16.204c-1.408,2.254 -0.746,5.158 1.45,6.604c6.067,4.004 11.546,6.067 16.704,6.067c12.45,-0.1 17.359,-12.1 17.388,-22.808c-0.029,-8.675 -2.754,-18.784 -8.292,-26.825c-5.583,-8.117 -14.033,-14.109 -25.491,-14.388c-0.809,0 -1.625,0.046 -2.463,0.117c-3.633,-3.838 -7.721,-7.192 -12.1,-9.934c-2.3,-1.391 -5.292,-0.641 -6.679,1.63c-1.438,2.27 -0.704,5.27 1.579,6.679c1.625,0.996 3.15,2.225 4.675,3.412c0.046,0.029 0.071,0.046 0.117,0.075c0.441,0.367 0.937,0.629 1.362,0.996c-0.454,0.292 -0.587,0.833 -0.891,1.217c-0.121,0.158 -0.25,0.291 -0.355,0.454c-0.762,1.275 -1.158,2.696 -0.57,4.175c0.337,0.817 0.908,1.462 1.566,1.975c1.321,1.058 3.063,1.421 4.734,0.779m33.095,29.638c-0.337,9.083 -3.108,13.066 -7.675,13.066c-1.775,0.059 -4.295,-0.541 -7.533,-2.2c2.563,-5.521 3.796,-11.25 3.796,-16.933c-0.075,-8.717 -2.742,-17.113 -7.167,-24.525c11.342,3.662 18.55,18.254 18.579,30.592" style="fill:#231f20;fill-rule:nonzero;"/><path d="M188.344,325.208c1.758,7.662 5.491,16.029 14.854,16.392c5.362,-0.084 10.287,-2.971 15.912,-8.042c4.45,-4.042 6.271,-9.55 6.242,-14.854c-0.192,-4.629 -1.362,-9.304 -3.237,-13.846c-5.38,-13.067 -16.53,-24.729 -25.671,-29.213c-1.2,-0.541 -2.475,-0.554 -3.604,-0.175c-0.48,-0.158 -1.009,-0.233 -1.55,-0.233c-2.655,0 -4.821,2.154 -4.821,4.85l-0.017,0c0,1.288 -0.058,3.338 -0.158,5.654l-0,0.134c-0.017,1.45 -0.088,3.058 -0.134,4.787c-0.029,2.521 -0.104,5.2 -0.104,8.058c0,8.671 0.396,18.4 2.288,26.488m15.471,-31.1c6.37,7.483 12.204,17.562 11.808,24.596c-0.046,3.341 -0.908,5.671 -3.075,7.721c-4.779,4.379 -8.133,5.525 -9.35,5.466c-1.288,0.275 -3.675,-1.775 -5.404,-8.908c-1.584,-6.667 -2.009,-15.954 -2.009,-24.263c0,-3.062 0.075,-5.904 0.134,-8.541c0.041,-1.246 0.058,-2.521 0.087,-3.646c2.446,1.771 5.171,4.479 7.809,7.575" style="fill:#231f20;fill-rule:nonzero;"/></svg>