<?xml version="1.0" encoding="UTF-8" standalone="no"?><!DOCTYPE svg PUBLIC "-//W3C//DTD SVG 1.1//EN" "http://www.w3.org/Graphics/SVG/1.1/DTD/svg11.dtd"><svg width="100%" height="100%" viewBox="0 0 298 321" version="1.1" xmlns="http://www.w3.org/2000/svg" xmlns:xlink="http://www.w3.org/1999/xlink" xml:space="preserve" xmlns:serif="http://www.serif.com/" style="fill-rule:evenodd;clip-rule:evenodd;stroke-linejoin:round;stroke-miterlimit:2;"><path d="M174.234,289.635c1.542,-1.025 3.858,-1.662 5.954,-1.637c2.054,-0.025 3.784,0.612 4.554,1.425c1.096,1.091 2.855,1.079 3.913,-0.03c1.067,-1.108 1.058,-2.9 -0.021,-3.966c-2.325,-2.246 -5.417,-3.013 -8.446,-3.029c-3.133,0.016 -6.283,0.825 -8.912,2.487c-2.571,1.596 -4.813,4.379 -4.813,7.975c0,1.379 0.338,2.846 0.984,4.238c1.391,3.129 4.07,4.92 6.645,5.77c3.88,1.309 7.921,1.292 10.755,2.088c2.341,0.8 3.454,1.237 4.112,3.287c-3.317,2.259 -6.779,4.45 -10.2,6.096c-0.096,-0.1 -0.217,-0.183 -0.325,-0.271c-0.404,-0.3 -0.625,-0.441 -0.737,-0.483l-0.038,-0.029c-1.037,-1.138 -2.792,-1.233 -3.929,-0.196c-1.125,1.05 -1.217,2.813 -0.179,3.967c0.333,0.366 0.675,0.621 0.946,0.808c0.012,0.854 0.433,1.663 1.137,2.188c0.463,0.37 1.042,0.541 1.621,0.541c0.354,0 0.704,-0.071 1.021,-0.216c5.475,-2.171 10.679,-5.613 15.375,-8.85c0.858,-0.584 1.316,-1.609 1.187,-2.663c-0.4,-3.704 -2.304,-6.55 -4.783,-8.042c-3.708,-2.175 -7.825,-2.175 -11.175,-2.787c-3.454,-0.625 -5.421,-1.408 -6.408,-3.583c-0.35,-0.767 -0.455,-1.35 -0.471,-1.863c0.016,-1.162 0.641,-2.187 2.233,-3.225" style="fill:#231f20;fill-rule:nonzero;"/><path d="M136.871,3.083c-1.391,0.667 -1.991,2.329 -1.321,3.738c0.617,1.408 2.288,2.004 3.671,1.35c3.292,-1.621 9.513,-2.6 16.263,-2.571c11.912,-0.1 25.916,3.083 30.554,7.675c0.55,0.496 1.217,0.75 1.892,0.75c0.741,-0 1.479,-0.296 2.033,-0.879c1.029,-1.138 0.967,-2.913 -0.158,-3.967c-7.171,-6.512 -21.492,-9.067 -34.321,-9.179c-7.275,0.025 -13.929,0.896 -18.613,3.083" style="fill:#231f20;fill-rule:nonzero;"/><path d="M62.25,36.343c-0.825,1.309 -0.42,3.059 0.867,3.855c0.454,0.312 0.967,0.425 1.471,0.425c0.925,-0 1.833,-0.455 2.367,-1.309c6.987,-11.554 24.462,-16.316 37.433,-21.266c1.429,-0.55 2.15,-2.2 1.596,-3.621c-0.55,-1.45 -2.163,-2.163 -3.584,-1.596l0,-0.013c-12.375,4.95 -31.158,9.313 -40.15,23.525" style="fill:#231f20;fill-rule:nonzero;"/><path d="M196.728,267.447c9.792,-1.834 18.4,-8.288 26.8,-11.346c1.438,-0.525 2.171,-2.146 1.65,-3.608c-0.537,-1.438 -2.125,-2.192 -3.554,-1.65c-9.379,3.537 -17.875,9.708 -25.871,11.087c-1.504,0.254 -2.508,1.721 -2.237,3.242c0.241,1.362 1.408,2.3 2.729,2.3c0.154,-0 0.325,-0.013 0.483,-0.025" style="fill:#231f20;fill-rule:nonzero;"/><path d="M123.181,261.931c-10.775,-1.479 -21.142,-1.025 -29.629,-5.375c-1.371,-0.666 -3.042,-0.112 -3.717,1.267c-0.692,1.392 -0.117,3.058 1.242,3.767c10.266,5.087 21.32,4.433 31.337,5.87c0.133,0.013 0.25,0.013 0.383,0.013c1.363,-0 2.559,-1.008 2.746,-2.4c0.196,-1.538 -0.846,-2.946 -2.362,-3.142" style="fill:#231f20;fill-rule:nonzero;"/><path d="M111.896,283.225c-0.504,-0 -0.967,0.125 -1.379,0.354c-4.33,0.083 -7.713,2.916 -9.871,6.383c-2.242,3.554 -3.471,7.988 -3.471,12.396c-0,3.867 0.958,7.8 3.471,10.9c2.471,3.1 6.508,5.062 11.525,5.062l1.075,0c11.058,-0.425 17.158,-9.041 17.037,-17.358c0.084,-8.654 -6.504,-17.696 -18.387,-17.737m1.179,29.495c-0.229,0 -0.504,0.013 -0.767,0.013c-3.808,-0.042 -5.908,-1.263 -7.379,-3.029c-1.458,-1.759 -2.229,-4.421 -2.217,-7.346c-0.012,-3.3 1.017,-6.879 2.6,-9.396c1.63,-2.533 3.542,-3.796 5.338,-3.796l0.067,0c0.758,0 1.591,0.213 2.608,0.738c1.037,0.541 2.279,0.371 3.121,-0.367c5.712,1.775 8.187,6.525 8.3,11.425c-0.142,5.858 -3.592,11.275 -11.671,11.758" style="fill:#231f20;fill-rule:nonzero;"/><path d="M281.889,99.443c0.091,0 0.183,0.013 0.291,0.013c1.409,-0 2.609,-1.092 2.755,-2.529l-0.013,-0c0.117,-1.267 0.179,-2.5 0.171,-3.725c-0.008,-10.021 -3.8,-18.946 -7.313,-27.079c-0.616,-1.434 -2.258,-2.075 -3.654,-1.463c-1.408,0.625 -2.037,2.288 -1.429,3.708c3.521,8.088 6.875,16.305 6.854,24.834c0,1.05 -0.037,2.104 -0.15,3.158c-0.15,1.546 0.959,2.925 2.488,3.083" style="fill:#231f20;fill-rule:nonzero;"/><path d="M297.34,132.25c0.32,-1.504 -0.625,-2.983 -2.105,-3.342c-1.5,-0.325 -2.97,0.629 -3.304,2.15c-1.829,8.642 -6.929,17.725 -7.008,28c-0,0.259 0.012,0.484 0.012,0.684c0.038,1.504 1.275,2.716 2.767,2.716c0,0 0.05,0 0.079,-0.016c1.525,-0.03 2.734,-1.305 2.7,-2.842l-0.021,-0.042l0,-0.5c-0.07,-8.258 4.667,-17.1 6.88,-26.808" style="fill:#231f20;fill-rule:nonzero;"/><path d="M275.129,208.027c0.412,-1.517 -0.446,-3.054 -1.934,-3.437c-1.47,-0.43 -3,0.437 -3.395,1.92c-2.605,9.792 -11.38,24.092 -19.596,29.209c-1.309,0.812 -1.692,2.546 -0.867,3.837c0.525,0.842 1.429,1.321 2.354,1.321c0.504,0 1.009,-0.142 1.475,-0.437l-0.012,-0c10.1,-6.571 18.812,-21.213 21.975,-32.413" style="fill:#231f20;fill-rule:nonzero;"/><path d="M223.95,26.252c8.437,4.946 21.925,15.167 26.787,22.9c0.525,0.838 1.408,1.279 2.325,1.279c0.513,0 1.038,-0.141 1.492,-0.441c1.291,-0.838 1.662,-2.559 0.846,-3.88l-0.013,0c-6.029,-9.312 -19.654,-19.316 -28.629,-24.691c-1.338,-0.796 -3.042,-0.342 -3.804,0.996c-0.775,1.333 -0.342,3.058 0.996,3.837" style="fill:#231f20;fill-rule:nonzero;"/><path d="M228.86,278.575c-1.9,2.346 -3.02,4.55 -3.033,6.95c0.054,3.696 2.65,5.888 4.917,7.338c2.383,1.492 5.062,2.7 7.129,4.008c1.721,1.079 3.525,1.292 4.987,1.292c1.863,-0.013 3.413,-0.313 4.267,-0.283c0.221,-0 0.383,0.012 0.483,0.041c0.08,0.184 0.205,0.738 0.2,1.692c0,0.454 -0.029,1.012 -0.07,1.621c0.212,0.512 -2,3.071 -5.255,5.016c-3.22,2.046 -6.8,3.813 -9.033,5.617c-1.208,0.967 -1.387,2.729 -0.421,3.938c0.542,0.683 1.338,1.037 2.163,1.037c0.616,0 1.229,-0.212 1.741,-0.625c1.242,-1.083 5.059,-3.042 8.521,-5.262c3.388,-2.317 7.092,-4.634 7.788,-9.18c0.075,-0.825 0.116,-1.52 0.116,-2.162c-0.016,-2.2 -0.391,-4.121 -1.72,-5.613c-1.413,-1.495 -3.234,-1.733 -4.513,-1.733c-1.679,0.025 -3.108,0.325 -4.267,0.283c-0.937,0 -1.57,-0.145 -2.045,-0.441c-2.55,-1.579 -5.267,-2.788 -7.092,-3.984c-1.954,-1.262 -2.408,-2.087 -2.354,-2.6c-0.029,-0.441 0.271,-1.562 1.762,-3.354c0.913,-1.221 3.171,-2.021 5.771,-2.004c2.467,-0.017 5.117,0.725 5.992,1.279c1.337,0.767 3.021,0.329 3.787,-1.021c0.771,-1.366 0.3,-3.07 -1.037,-3.841c-2.209,-1.234 -5.338,-1.946 -8.742,-1.988c-3.437,0.013 -7.375,0.796 -10.042,3.979" style="fill:#231f20;fill-rule:nonzero;"/><path d="M5.704,128.398c-2.267,2.671 -3.437,6.567 -4.362,11.259c-0.884,4.662 -1.338,10.05 -1.342,15.237c0.042,6.609 0.667,12.792 2.458,17.071c0.442,1.05 1.479,1.708 2.559,1.708c0.362,0 0.725,-0.087 1.095,-0.241c1.4,-0.596 2.046,-2.263 1.442,-3.684c-1.25,-2.841 -2.029,-8.7 -2,-14.854c-0.012,-4.85 0.429,-9.979 1.238,-14.187c0.762,-4.209 2.091,-7.604 3.062,-8.6c1.008,-1.15 0.896,-2.925 -0.242,-3.938c-1.133,-1.021 -2.883,-0.95 -3.908,0.229" style="fill:#231f20;fill-rule:nonzero;"/><path d="M121.847,105.71c0.808,0.487 1.716,0.67 2.691,0.695c0.313,0 0.5,-0.025 0.621,-0.037c0.667,-0.033 1.3,-0.3 1.788,-0.8c0.57,-0.554 1.095,-1.092 1.625,-1.704c0.566,-0.654 0.812,-1.538 0.65,-2.417c-0.167,-0.837 -0.725,-1.562 -1.505,-1.946c-0.654,-0.3 -1.195,-0.6 -2.312,-0.629c-0.383,0 -0.971,0 -1.754,0.5c-0.088,0.071 -0.171,0.096 -0.234,0.154c-0.583,0.046 -1.258,0.117 -1.995,0.613c-0.763,0.483 -1.396,1.591 -1.359,2.575c0.079,1.691 1.013,2.5 1.784,2.996" style="fill:#231f20;fill-rule:nonzero;"/><path d="M39.194,238.76c0.525,0.471 1.188,0.725 1.833,0.725c0.775,0 1.517,-0.325 2.071,-0.954c1.021,-1.15 0.921,-2.925 -0.216,-3.937c-0.859,-0.821 -1.263,-1.717 -1.284,-3.396c-0.087,-3.738 3.034,-10.463 8.504,-17.738c8.155,-10.987 21.138,-23.595 34.138,-33.333c11.708,-8.842 23.675,-15.183 31.367,-16.233c-0.334,0.254 -0.563,0.537 -0.692,0.696c-0.296,0.412 -0.412,0.725 -0.554,1.066c-0.192,0.479 -0.242,1.05 -0.121,1.592c2.362,11.129 7.237,22.058 7.179,32.054l0,0.95c-0.012,0.896 0.433,1.792 1.179,2.317c0.471,0.329 1.038,0.5 1.588,0.5c0.337,-0 0.65,-0.071 0.971,-0.171c4.633,-1.821 10.912,-6.229 16.4,-11.713c4.425,-4.566 8.412,-9.737 9.758,-15.254c7.033,6.384 14.112,14.971 17.558,22.642c0.4,0.858 1.175,1.467 2.084,1.608c0.925,0.142 1.833,-0.171 2.466,-0.85c5.371,-5.846 6.85,-13.291 6.85,-20.471c-0.004,-7.375 -1.504,-14.729 -2.316,-20.783c0.07,0 0.12,-0.025 0.191,-0.025c3.642,-0.246 11.6,5.283 18.354,12.138c6.884,6.754 13.155,14.57 15.584,18.05c3.162,4.52 7.45,14.8 11.421,24.22c1.987,4.725 3.946,9.271 5.766,12.925c1.934,3.68 3.292,6.355 5.659,8.059c0.466,0.283 0.979,0.425 1.491,0.425c0.917,-0 1.813,-0.438 2.338,-1.275c0.833,-1.296 0.446,-3.059 -0.838,-3.871c-0.262,-0.025 -2.091,-2.471 -3.695,-5.867c-5.226,-10.396 -11.946,-29.583 -17.605,-37.829c-2.725,-3.879 -9.05,-11.767 -16.241,-18.858c-7.088,-6.784 -14.38,-12.913 -21.5,-13.534c7.883,-10.308 11.975,-23.483 12.162,-36.491c0.579,-0.125 1.209,-0.271 1.604,-0.796c0.625,-0.838 2.409,-3.554 4.25,-6.975c1.792,-3.429 3.592,-7.183 3.684,-10.792c-0,-1.308 -0.288,-2.8 -1.405,-4.05c-1.104,-1.254 -2.774,-1.762 -4.312,-1.733c-2.158,0.025 -4.604,0.821 -7.704,2.229c-3.717,-9.396 -10.054,-17.571 -19.346,-22.571c-0.108,-0.158 -0.204,-0.287 -0.354,-0.429c-2.967,-2.812 -7.813,-4.533 -13.475,-5.996c-5.629,-1.396 -11.921,-2.246 -17.159,-2.246c-2.666,0 -5.037,0.196 -7.087,0.78c-14.696,4.25 -25.529,20.595 -27.971,34.187c-0.633,3.725 -1.004,7.704 -1.254,11.742c-0.304,-0.075 -0.604,-0.171 -0.938,-0.171c-2.174,0.129 -3.354,1.262 -4.454,2.4c-3.116,3.554 -5.808,9.737 -5.921,15.325c0.001,1.862 0.342,3.796 1.58,5.487c1.2,1.68 3.325,2.646 5.529,2.646l0.171,0c1.633,-0.016 3.446,-0.529 5.408,-1.254c1.242,6.471 3.233,12.667 6.267,18.125c1.316,2.388 2.879,4.633 4.629,6.696c-13.008,2.742 -29.925,14.312 -45.034,27.704c-8.55,7.646 -16.341,15.904 -22.083,23.654c-5.692,7.775 -9.525,14.809 -9.625,21.092c-0.012,2.8 0.967,5.629 3.15,7.562m155.671,-141.362c0.063,-0 0.121,-0 0.167,0.012l-0,0.171c0.075,1.392 -1.338,5.117 -3,8.129c-0.442,0.884 -0.921,1.663 -1.35,2.43c-0.342,-3.013 -0.975,-5.938 -1.771,-8.784c3.054,-1.479 5.125,-1.987 5.954,-1.958m-98.383,32.179c-1.055,-0.042 -1.088,-0.212 -1.275,-0.412c-0.2,-0.225 -0.475,-0.967 -0.471,-2.117c-0.025,-2.304 1.041,-5.771 2.396,-8.417c0.57,-1.079 1.187,-2.046 1.741,-2.712c0.067,0.525 0.117,1.179 0.117,1.946c0.025,1.008 0.646,1.72 1.421,2.22c0.104,2.725 0.312,5.459 0.654,8.171c-2.092,0.896 -3.721,1.338 -4.583,1.321m41.162,57.625c-3.483,3.554 -7.546,6.671 -10.846,8.617c-0.758,-9 -4.1,-17.671 -6.233,-25.829c-0,-0.03 0.037,-0.042 0.037,-0.059c0.817,-1.091 0.725,-2.571 -0.141,-3.554c-0.038,-0.125 -0.109,-0.325 -0.188,-0.579c-0.041,-0.129 -0.133,-0.354 -0.212,-0.529c4.841,3.229 10.662,5.333 17.55,5.762c1.283,0.096 2.55,0.138 3.796,0.138l0.091,-0c1.584,-0 3.096,-0.125 4.605,-0.284c0.083,0.455 0.141,0.896 0.141,1.392c0.121,3.954 -3.583,9.967 -8.6,14.925m34.159,4.946c-4.705,-8.283 -11.996,-16.288 -19.063,-22.271c7.729,-1.821 14.358,-5.504 19.825,-10.392c0.85,6.155 2.154,12.98 2.154,19.375c0,4.946 -0.771,9.455 -2.916,13.288m-66.034,-76.046c0,-6.042 0.525,-11.954 1.471,-17.412c1.833,-11.53 12.379,-26.725 23.975,-29.738c1.242,-0.354 3.208,-0.554 5.504,-0.554l0.108,-0c4.655,-0.013 10.634,0.796 15.842,2.075c2.183,0.512 4.258,1.167 6.004,1.85c0.23,0.867 0.846,1.604 1.75,1.946c16.93,6.141 25.084,22.971 25.138,41.008c0.008,12.371 -3.963,25.075 -11.442,34.529c-7.496,9.438 -18.321,15.734 -32.712,15.75c-1.117,0 -2.255,-0.029 -3.421,-0.112c-6.333,-0.459 -11.4,-2.375 -15.558,-5.363c-0.363,-0.879 -0.971,-1.646 -1.975,-1.804l-0.059,0c-2.871,-2.517 -5.408,-5.429 -7.417,-8.983c-5.083,-9.113 -7.22,-21.279 -7.208,-33.192" style="fill:#231f20;fill-rule:nonzero;"/><path d="M128.647,144.715c3.767,4.892 10.542,6.755 17.208,6.809c7.909,-0.054 16.517,-2.742 19.488,-10.334c0.533,-1.45 -0.2,-3.054 -1.642,-3.583c-1.437,-0.55 -3.029,0.2 -3.562,1.65c-1.2,3.896 -7.488,6.725 -14.284,6.667c-5.587,0.058 -10.975,-1.946 -12.779,-4.575c-0.925,-1.238 -2.646,-1.492 -3.875,-0.554c-1.221,0.95 -1.479,2.7 -0.554,3.92" style="fill:#231f20;fill-rule:nonzero;"/><path d="M18.378,215.72c-1.508,0.266 -2.508,1.72 -2.242,3.237c2.575,13.775 15.654,26.113 21.8,31.117c0.504,0.4 1.109,0.612 1.709,0.612c0.808,0 1.633,-0.383 2.187,-1.079c0.946,-1.225 0.738,-2.958 -0.462,-3.925c-5.638,-4.392 -18.03,-16.854 -19.78,-27.704c-0.279,-1.533 -1.72,-2.542 -3.212,-2.258" style="fill:#231f20;fill-rule:nonzero;"/><path d="M157.915,95.419c0.15,0 -0.45,0.284 0.805,1.992c0.945,0.696 1.441,0.825 1.704,0.825c0.062,-0 0.121,-0 0.171,-0.017c0.066,-0.012 0.079,-0.012 0.079,0c1.591,-0.171 1.221,-0.354 1.562,-0.441c0.496,-0.28 1.034,-0.68 2.146,-1.492c1.158,-0.867 1.479,-2.471 0.733,-3.708c-0.22,-0.467 -0.562,-0.896 -0.995,-1.196c0.087,-1.363 -0.846,-2.613 -2.225,-2.9c-1.35,-0.284 -2.671,0.5 -3.125,1.762c-0.05,0.059 -0.138,0.142 -0.25,0.271c-0.171,0.329 -0.775,0.754 -0.867,2.292c-0,0.621 0.171,1.15 0.433,1.587c-0.058,0.217 -0.137,0.559 -0.171,1.025" style="fill:#231f20;fill-rule:nonzero;"/><path d="M146.892,120.311c-0.3,0.154 -0.583,0.325 -0.866,0.496c-0.159,0.088 -0.309,0.2 -0.534,0.396c-0.141,0.287 -0.795,0.329 -0.995,2.175c-0.113,1.308 1.25,2.617 1.812,2.662c0.613,0.196 0.867,0.171 1.071,0.184l0.108,-0c0.867,-0 1.65,-0.384 2.175,-1.038c1.438,-0.671 4.642,-1.991 5.188,-2.104c1.166,-0.283 2.012,-1.267 2.091,-2.475c0.034,-0.408 0.071,-0.85 0.071,-1.321c-0.037,-4.079 -1.729,-7.804 -3.362,-10.946c-1.629,-3.054 -3.325,-5.854 -3.488,-6.666c-0.429,-1.492 -1.933,-2.359 -3.421,-1.934c-1.479,0.413 -2.333,1.95 -1.925,3.442c0.767,2.488 2.438,4.863 3.95,7.788c1.321,2.516 2.425,5.175 2.675,7.42c-0.75,0.259 -1.55,0.6 -2.354,0.925c-0.804,0.325 -1.562,0.696 -2.196,0.996" style="fill:#231f20;fill-rule:nonzero;"/><path d="M58.32,309.777c2.038,-0.371 5.096,-0.584 8.067,-1.663c2.908,-0.954 6.133,-3.425 6.767,-7.662c0.071,-0.554 0.121,-1.092 0.121,-1.609c-0.071,-5.329 -3.967,-8.837 -8.013,-11.012c-0.758,-0.417 -1.546,-0.771 -2.337,-1.108c4.679,-1.909 9.058,-4.946 11.229,-10.709c0.4,-1.104 0.066,-2.341 -0.838,-3.108c-6.504,-5.492 -13.079,-6.596 -20.271,-6.554c-1.187,-0 -2.395,0.025 -3.645,0.083c-1.521,0.029 -2.713,1.325 -2.68,2.875c0.05,1.533 1.321,2.771 2.867,2.713c0.325,-0 0.633,-0 0.942,-0.03c-0.617,2.375 -1.946,6.142 -3.254,9.996c-1.675,5.129 -3.396,10.559 -3.438,15.067c0,0.667 0.042,1.35 0.142,2.046c0.233,1.366 1.421,2.346 2.741,2.346c0.15,-0 0.3,-0.013 0.45,-0.059c1.521,-0.254 2.53,-1.704 2.28,-3.225c-0.05,-0.283 -0.071,-0.637 -0.071,-1.108c-0.009,-1.692 0.471,-4.15 1.196,-6.808c0.437,-0.113 1.05,-0.171 1.795,-0.171c2.817,-0.017 7.096,0.979 10.292,2.7c3.321,1.775 5.154,4.037 5.075,6.066c0,0.217 -0.037,0.459 -0.062,0.742c-0.355,1.804 -1.167,2.458 -3.171,3.283c-1.975,0.725 -4.721,0.984 -7.134,1.409c-0.12,0.029 -0.995,0.083 -1.987,0.071c-1.738,-0 -4.104,-0.1 -5.954,-0.3c-0.154,-0.025 -0.313,-0.042 -0.463,-0.059c-0.612,-0.85 -1.691,-1.321 -2.779,-1.091c-0.467,0.054 -0.846,0.158 -1.304,0.37c-0.308,0.255 -1.6,0.296 -1.942,2.771c0.021,1.279 0.717,2 1.071,2.288c1.329,0.925 1.708,0.754 2.575,0.983c2.308,0.396 6.004,0.638 8.796,0.638c1.175,-0 2.054,-0.013 2.937,-0.171m-5.85,-25.8c0.021,-0.059 0.038,-0.1 0.063,-0.184c1.504,-4.55 2.971,-8.587 3.575,-11.7c4.537,0.259 8.121,1.109 12.012,3.867c-2.7,4.633 -9.275,6.471 -15.65,8.017" style="fill:#231f20;fill-rule:nonzero;"/><path d="M17.02,99.614c6.708,-10.279 18.037,-23.554 23.733,-35.366c0.679,-1.363 0.092,-3.042 -1.275,-3.725c-1.379,-0.68 -3.041,-0.1 -3.7,1.308l0,-0.029c-5.141,10.775 -16.371,24.021 -23.371,34.696c-0.845,1.295 -0.512,3.016 0.767,3.895c0.471,0.3 1.004,0.442 1.521,0.442c0.904,0 1.783,-0.412 2.325,-1.221" style="fill:#231f20;fill-rule:nonzero;"/></svg>