<?xml version="1.0" encoding="UTF-8" standalone="no"?><!DOCTYPE svg PUBLIC "-//W3C//DTD SVG 1.1//EN" "http://www.w3.org/Graphics/SVG/1.1/DTD/svg11.dtd"><svg width="100%" height="100%" viewBox="0 0 296 442" version="1.1" xmlns="http://www.w3.org/2000/svg" xmlns:xlink="http://www.w3.org/1999/xlink" xml:space="preserve" xmlns:serif="http://www.serif.com/" style="fill-rule:evenodd;clip-rule:evenodd;stroke-linejoin:round;stroke-miterlimit:2;"><path d="M146.791,231.418c-0.891,-0.196 -1.875,0.042 -2.583,0.696c-1.429,1.217 -2.504,2.879 -2.504,4.733c-0,0.1 -0,0.196 0.021,0.267c-0.029,0.183 -0.034,0.321 -0.034,0.488c-0.295,1.354 -1.195,5.012 -1.229,7.316c-0.05,0.825 0.546,1.813 0.6,1.829c0.579,0.78 1.467,1.213 2.388,1.213c0.508,-0 1.037,-0.15 1.5,-0.433c3.191,-1.759 5.596,-4.675 5.512,-8.209c-0.004,-2.091 -0.662,-4.046 -1.575,-6.166c-0.379,-0.884 -1.158,-1.509 -2.096,-1.734" style="fill:#231f20;fill-rule:nonzero;"/><path d="M160.263,218.967l0.1,0c4.116,-0.029 7.291,-1.996 10.225,-3.617c2.966,-1.704 5.7,-3.166 8.666,-3.462c0.25,-0.029 0.463,-0.042 0.6,-0.042c1.392,0 2.459,0.521 4.071,1.384c1.579,0.837 3.663,2.079 6.567,2.133l0.183,-0c4.808,-0.113 8.771,-2.038 11.292,-1.913c0.196,0 0.362,0.017 0.512,0.017c1.629,0.208 3.117,-0.979 3.329,-2.625c0.188,-1.646 -0.979,-3.154 -2.612,-3.35c-0.413,-0.058 -0.838,-0.083 -1.229,-0.083c-4.559,0.125 -8.334,2.021 -11.292,1.925l-0.133,-0c-1.092,-0 -2.129,-0.517 -3.804,-1.425c-1.625,-0.879 -3.867,-2.063 -6.884,-2.063c-0.425,0 -0.821,0.025 -1.191,0.038c-4.517,0.491 -8.034,2.558 -10.98,4.221c-2.975,1.7 -5.341,2.887 -7.32,2.845c-1.6,-0.016 -3.421,-0.575 -6.192,-3.17c-1.217,-1.13 -3.1,-1.059 -4.213,0.141c-1.141,1.213 -1.079,3.125 0.134,4.259c3.354,3.237 6.833,4.787 10.171,4.787" style="fill:#231f20;fill-rule:nonzero;"/><path d="M198.485,231.697c-1.008,0.088 -1.871,0.642 -2.358,1.479c-0.854,0.213 -1.571,0.796 -1.963,1.646c-0.383,0.825 -0.725,1.146 -1.479,2.054c-0.733,0.854 -1.675,2.654 -1.6,4.592c0,0.112 0,0.392 0.021,0.712c0.083,0.809 0.504,1.592 1.154,2.067c0.663,0.517 1.479,0.725 2.279,0.588c0.113,-0.017 0.3,-0.03 0.525,-0.03c0.804,0 2.038,0.155 3.442,0.167c0.454,0 0.942,-0.025 1.45,-0.079c1.517,-0.183 2.667,-1.483 2.654,-3.021c-0.042,-3.112 -0.167,-5.667 -1.137,-8.25c-0.475,-1.229 -1.692,-1.996 -2.988,-1.925" style="fill:#231f20;fill-rule:nonzero;"/><path d="M263.71,338.838c-4.125,-9.212 -12.087,-21.666 -21.4,-32.096c-8.625,-9.504 -18.162,-17.475 -27.858,-19.037c8.133,-7.721 14.771,-17.029 19.091,-27.221c0.809,0.079 1.675,0.333 2.467,0.333l0.117,0c4.591,0 8.537,-2.066 10.971,-5.333c2.487,-3.254 3.608,-7.467 3.608,-11.975c-0,-1.062 -0.042,-2.15 -0.167,-3.254c-0.425,-3.575 -1.812,-6.896 -3.691,-9.492c-1.892,-2.512 -4.155,-4.733 -7.555,-4.858c-0.408,-0 -0.766,0.154 -1.141,0.25c-2.338,-10.858 -8.796,-19.346 -17.5,-25.125c-2.079,-1.383 -4.392,-2.5 -6.7,-3.617c0.641,-0.741 0.941,-1.675 0.754,-2.571c0.433,-1.254 2.346,-4.829 4.496,-8.275c2.379,-3.854 5.108,-7.916 6.95,-10.512c0.941,-1.354 0.629,-3.238 -0.713,-4.188c-1.354,-0.962 -3.208,-0.654 -4.158,0.696l-0.013,0c-1.995,2.879 -5.029,7.388 -7.604,11.588c-1.275,2.121 -2.454,4.146 -3.321,5.891c-0.887,1.842 -1.558,2.971 -1.675,4.942c0,0.054 0.03,0.138 0.03,0.167c-5.209,-1.942 -10.709,-3.379 -16.48,-4.117c0.034,-1.05 -0.266,-2.067 -1.166,-2.667c-0.042,-0.195 -0.079,-0.57 -0.079,-1.033c-0.063,-3.446 2.295,-10.862 4.133,-14.783c0.683,-1.509 0.037,-3.296 -1.458,-3.979c-1.5,-0.696 -3.275,-0.042 -3.967,1.479c-2.063,4.621 -4.604,11.883 -4.667,17.283c0,0.979 0.088,2.096 0.454,3.183c-1.691,-0.112 -3.387,-0.337 -5.112,-0.337c-5.408,0.029 -10.858,0.587 -16.233,1.512c0.062,-2.475 0.133,-5.1 0.133,-7.795c-0,-2.621 -0.083,-5.146 -0.363,-7.355c-0.379,-2.204 -0.508,-4.062 -2.275,-5.958c-1.225,-1.133 -3.1,-1.05 -4.212,0.179c-1.113,1.171 -1.075,3.029 0.058,4.163c0.413,0.683 0.892,4.829 0.796,8.971c0,3.075 -0.079,6.229 -0.125,9.05c-5.767,1.408 -11.279,3.35 -16.446,5.85l0,-22.95c0,-1.68 -1.337,-3.03 -2.975,-3.03c-1.666,0 -2.987,1.35 -2.987,3.03l-0.004,-0l-0,24.091c-0,0.629 0.329,1.117 0.65,1.604c-4.771,2.85 -9.042,6.271 -12.655,10.221c0.005,-0.321 0.021,-0.641 0.042,-0.891c0.129,-1.105 -0.317,-2.138 -1.137,-2.78c-0.205,-2.975 -0.4,-6.212 -0.842,-9.395c-0.871,-6.1 -2.65,-12.563 -8.283,-16.346c-1.388,-0.921 -3.23,-0.534 -4.138,0.862c-0.9,1.4 -0.517,3.271 0.888,4.175l-0.025,-0.012c3.245,2.091 4.883,6.521 5.662,12.158c0.788,5.6 0.7,11.879 1.65,17.117c0.138,0.725 0.55,1.337 1.092,1.758c-0.117,0.179 -0.25,0.321 -0.363,0.488c-2.108,3.52 -3.733,7.091 -5.133,10.691c-3.958,0.379 -6.613,3.213 -9.046,6.509c-2.387,3.504 -4.237,7.816 -4.258,12.141c-0.029,2.625 0.787,5.434 2.946,7.471c1.629,1.533 3.962,2.304 6.587,2.638c1.046,8.779 4.013,17.041 8.854,24.233c-27.237,8.921 -56.512,31.117 -75.671,50.967c-26.145,27.237 -28.683,57.795 -42.283,88.17c-0.671,1.55 0,3.334 1.504,3.992c0.413,0.196 0.817,0.267 1.238,0.267c1.116,-0 2.212,-0.629 2.712,-1.775c13.996,-31.717 16.475,-60.975 41.104,-86.454c18.121,-18.884 46.259,-40.105 71.509,-48.871c-0.429,0.783 -0.642,1.675 -0.279,2.566l-0.021,0c0.796,2.055 1.104,4.667 1.091,7.65c0.013,4.442 -0.641,9.646 -0.658,15.05c0,4.942 0.558,10.092 2.917,14.98c0.441,0.92 1.321,1.55 2.341,1.658c0.688,0.071 1.338,0.129 2.009,0.129c8.625,-0.129 16.033,-5.892 22.958,-11.083c6.867,-5.334 13.408,-10.025 17.721,-9.859c0.521,0 0.983,0.059 1.458,0.155c2.813,0.35 7.734,6.158 12.192,12.97c4.65,6.771 9.112,14.209 14.842,17.896c0.475,0.292 1.02,0.446 1.554,0.446c0.896,0 1.754,-0.404 2.337,-1.146c4.884,-6.487 5.392,-16.316 6.242,-25.296c0.362,-4.454 0.754,-8.695 1.417,-11.916c0.658,-3.284 1.795,-5.304 2.55,-5.713c1.35,-0.95 1.704,-2.833 0.766,-4.2c-0.237,-0.35 -0.662,-0.446 -1,-0.641c0.234,-0.2 0.463,-0.35 0.692,-0.534c0.517,0.767 1.262,1.367 2.25,1.396l-0,-0.012c7.179,0.012 17.358,7.441 26.167,17.408c8.862,9.912 16.633,22.096 20.4,30.529c9.8,21.817 19.733,39.463 25.175,62.513c1.62,6.641 5.908,21.162 5.85,28.641c0.029,1.104 -0.092,2.038 -0.221,2.625c-0.163,0.629 -0.329,0.742 -0.3,0.767c-1.225,1.133 -1.259,3.058 -0.121,4.262c0.596,0.613 1.375,0.934 2.15,0.934c0.754,-0 1.508,-0.279 2.079,-0.838c2.129,-2.221 2.313,-4.887 2.388,-7.75c-0.05,-9.196 -4.53,-23.616 -6.021,-30.054c-5.704,-24.025 -15.9,-42.087 -25.542,-63.571m-26.279,-89.958c1.175,-4.771 1.746,-9.296 1.717,-13.525c0.016,-0.992 -0.105,-1.9 -0.155,-2.85c0.142,-0.275 0.259,-0.488 0.35,-0.542l0.021,-0.012c0.125,0.012 0.421,0.125 0.825,0.416c1.717,1.117 4.075,4.996 4.425,8.613c0.113,0.867 0.146,1.717 0.146,2.529c-0.208,6.558 -2.637,10.538 -7.462,11.179c-0.467,-0.321 -1.038,-0.475 -1.625,-0.487c0.575,-1.788 1.32,-3.517 1.758,-5.304l-2.888,-0.755l2.888,0.738Zm-128.679,2.821c-0,0.183 0.062,0.379 0.062,0.575c-0.933,-0.267 -1.591,-0.6 -1.954,-0.979c-0.683,-0.655 -1.067,-1.534 -1.083,-3.059c-0.034,-2.441 1.312,-6.012 3.2,-8.683c0.516,-0.725 1.037,-1.158 1.571,-1.717c-1.125,4.638 -1.796,9.3 -1.796,13.863m14.596,-29.663c7.091,-11.879 21.554,-19.991 37.725,-23.621l-0,0.017c0.012,0 0.029,-0.029 0.029,-0.029c6.216,-1.383 12.654,-2.179 19.041,-2.179l0.213,-0c13.858,-0.013 27.279,3.291 37.004,9.812c8.875,6.017 14.475,14.575 15.45,26.15c-0.021,0.042 -0.054,0.079 -0.062,0.138c-0.209,0.825 -0.042,1.65 0.362,2.316c0,0.238 0.092,0.45 0.092,0.713c-0,0.392 -0.092,0.85 -0.092,1.3c-3.592,-1.775 -7.662,-2.429 -11.612,-2.429c-0.613,-0 -1.196,0.096 -1.796,0.125c-0.209,-3.254 -1.1,-6.409 -3.146,-8.909c-2.304,-2.833 -5.963,-4.575 -10.254,-4.537c-0.775,-0 -1.579,0.029 -2.4,0.154c-0.917,0.125 -1.675,0.683 -2.138,1.413c-2.708,-1.117 -5.466,-1.634 -8.116,-1.634c-8.9,0.096 -16.492,5.584 -19.675,12.688c-1.105,-0.459 -2.221,-0.725 -3.284,-0.725c-1.504,-0 -3.033,0.279 -4.571,0.629c-0.641,-2.292 -1.595,-4.454 -3.145,-6.283c-2.675,-3.196 -6.855,-5.275 -11.846,-5.263c-2.013,0 -4.138,0.321 -6.409,0.992c-1.975,-0.659 -3.879,-0.975 -5.729,-0.975c-7.433,0.066 -12.583,4.966 -14.854,11.054c-1.512,-0.767 -3.112,-1.242 -4.687,-1.242c-0.267,0 -0.538,0.125 -0.813,0.154c1.279,-3.308 2.767,-6.575 4.713,-9.829m90.254,16.459c-1.346,6.616 -6.875,13.429 -17.1,13.441c-1.684,0 -3.517,-0.196 -5.492,-0.612c-10.112,-2.292 -12.604,-6.663 -12.696,-10.821c-0.008,-3.029 1.617,-6.517 4.446,-9.183c2.825,-2.667 6.7,-4.455 10.875,-4.455l0.013,0c2.337,0 4.795,0.546 7.316,1.871c1.463,0.754 3.263,0.184 4.025,-1.312c0.075,-0.138 0.134,-0.292 0.196,-0.446c0.392,-0.042 0.754,-0.071 1.117,-0.071c5.316,0.138 7.362,3.392 7.608,8.654c0,0.071 -0.021,0.129 -0.021,0.213c-0.475,0.612 -0.704,1.408 -0.591,2.233c0.033,0.196 0.229,0.308 0.304,0.488m-53.875,0.054c0.208,0.6 0.683,0.979 1.137,1.312c-0.612,6.617 -5.229,13.263 -16.154,13.363c-0.604,-0 -1.204,-0.017 -1.833,-0.029c-10.567,-0.921 -13.925,-6.913 -14.113,-13.15c0.071,-6.45 4.15,-12.088 10.225,-12.105c1.363,0 2.904,0.28 4.634,0.934l0.02,-0c0.03,0.016 0.03,0.016 0.055,0.029c-0,-0 0.029,0.017 0.058,0.017c0.021,0.012 0.058,0.012 0.062,0.012c0.034,0.013 0.075,0.013 0.092,0.025c0.033,0.017 0.05,0.017 0.092,0.046l0.041,-0c0.034,0.012 0.055,0.025 0.067,0.025l0.058,-0c0.021,0.017 0.067,0.017 0.084,0.017l0.029,-0c0.429,0.07 0.879,0.025 1.337,-0.125c2.088,-0.7 3.93,-0.996 5.509,-0.996c5.441,0.058 8.391,3.325 9.379,7.779c-0.688,0.792 -1.121,1.787 -0.779,2.846m-37.713,49.054c0.013,-0 0.05,-0.013 0.063,-0.013c0.116,0.138 0.208,0.28 0.341,0.421c-0.145,-0.116 -0.225,-0.321 -0.404,-0.408m23.075,27.417c-6.666,5.166 -13.441,9.77 -19.05,9.841c-1.225,-3.254 -1.625,-6.866 -1.625,-10.721c0,-4.887 0.671,-10.062 0.671,-15.05c0,-3.25 -0.321,-6.504 -1.437,-9.558c8.37,8.85 20.025,14.908 33.933,17.058c-4.238,2.163 -8.325,5.346 -12.492,8.43m55.534,-13.205c-1.175,5.709 -1.434,12.759 -2.159,19.334c-0.525,4.971 -1.408,9.604 -2.821,12.8c-3.266,-3.184 -7.012,-8.809 -10.67,-14.267c-3.463,-4.9 -6.688,-9.754 -10.709,-12.8c9.954,-1.117 19.371,-4.329 27.675,-9.421c-0.537,1.354 -0.975,2.804 -1.316,4.354m-33.205,-0.25c-1.375,0 -2.762,-0.045 -4.145,-0.166c-30.063,-2.292 -48.484,-24.334 -48.559,-49.7c0,-3.029 0.367,-6.096 0.921,-9.171c0.496,-0.629 0.775,-1.425 0.683,-2.275c0.021,-1.425 1.138,-2.4 3.13,-2.513c1.183,0.013 2.379,0.488 3.408,1.688c-0,0.212 -0.038,0.404 -0.038,0.617c-0.212,8.904 6.413,18.412 19.667,19.137c0.763,0.067 1.496,0.083 2.225,0.083l0.092,0c7.212,0 12.891,-2.625 16.612,-6.562c0.992,-1.046 1.829,-2.204 2.563,-3.404c-0.196,2.4 -1.104,8.696 -1.104,14.171c-0,2.495 0.145,4.858 0.854,7.004c0.558,1.983 2.504,4.554 5.5,4.554l0.083,-0c3.154,-0.125 5.546,-1.971 8.8,-5.138c1.146,-1.187 1.146,-3.129 -0.021,-4.275c-1.15,-1.183 -3.05,-1.183 -4.216,0.017c-1.38,1.396 -2.521,2.317 -3.342,2.833c-0.475,0.296 -0.783,0.405 -0.983,0.488c-0.113,-0.238 -0.28,-0.671 -0.413,-1.338c-0.204,-1.05 -0.3,-2.529 -0.3,-4.145c-0.021,-5.588 1.15,-12.313 1.179,-15.092c0,-0 0.013,-0.096 0,-0.363c-0.071,-1.662 -1.475,-2.945 -3.112,-2.862c-0.484,0.029 -0.825,0.333 -1.217,0.571c0.733,-2.05 1.133,-4.146 1.196,-6.254c1.512,-0.375 2.883,-0.655 3.808,-0.642c0.359,-0 0.65,0.042 0.825,0.087l0,0.067c0,0.029 0,0.238 0.013,0.463c0.091,0.766 0.462,1.437 1,1.912c0.371,7.163 6.15,13.696 17.266,15.871c2.363,0.487 4.6,0.725 6.709,0.725c12.879,-0.025 20.591,-8.683 22.712,-17.533c0.767,-0.055 1.521,-0.167 2.284,-0.167c2.454,-0.013 4.8,0.279 6.837,0.892c-0.179,0.533 -0.2,1.133 -0.067,1.716c0.342,1.371 1.571,2.292 2.905,2.292c0.237,-0 0.479,-0.042 0.733,-0.096c0.012,-0.017 0.129,-0.017 0.192,-0.029c-0.18,0.796 -0.238,1.575 -0.446,2.4c-6.979,28.575 -33.459,54.221 -64.234,54.137" style="fill:#231f20;fill-rule:nonzero;"/><path d="M181.671,282.845c-6.246,0.612 -12.996,1.816 -19.259,1.804c-3.875,-0 -7.529,-0.45 -10.746,-1.65c-1.545,-0.588 -3.266,0.225 -3.825,1.8c-0.575,1.55 0.209,3.296 1.78,3.866l-0.025,0c4.15,1.538 8.512,2.013 12.816,2.013c6.979,-0.017 13.921,-1.258 19.838,-1.846c1.625,-0.167 2.829,-1.646 2.666,-3.304c-0.154,-1.65 -1.612,-2.875 -3.245,-2.683" style="fill:#231f20;fill-rule:nonzero;"/><path d="M180.859,90.16c-3.9,4.371 -8.354,9.105 -9.829,15.692c-0.354,1.621 0.658,3.225 2.271,3.6c0.208,0.042 0.425,0.058 0.641,0.058c1.367,0 2.604,-0.962 2.904,-2.358c0.921,-4.454 4.438,-8.571 8.417,-12.9c3.875,-4.354 8.242,-8.921 9.575,-15.287c0.163,-0.867 0.246,-1.717 0.246,-2.538c-0.113,-6.675 -4.9,-11.058 -9.742,-14.521c-4.929,-3.475 -10.55,-6.354 -13.754,-8.987c-8.067,-6.704 -12.737,-12.05 -12.779,-21.292c-0,-1.058 0.071,-2.175 0.204,-3.362c0.65,-5.417 2.729,-8.655 5.729,-12.05c2.988,-3.35 6.996,-6.613 10.584,-11.363c0.987,-1.354 0.737,-3.237 -0.567,-4.242c-1.325,-1.004 -3.204,-0.741 -4.188,0.584c-3.041,4.091 -6.8,7.15 -10.241,10.991c-3.446,3.767 -6.496,8.555 -7.246,15.38c-0.167,1.395 -0.242,2.737 -0.242,4.062c-0.041,11.767 6.667,19.221 15.009,25.967c4.041,3.296 9.608,6.087 14.054,9.254c4.546,3.183 7.296,6.437 7.204,9.579c-0,0.429 -0.042,0.879 -0.133,1.396c-0.746,4.017 -4.138,8.008 -8.117,12.337" style="fill:#231f20;fill-rule:nonzero;"/><path d="M83.98,97.882c5.125,-3.559 11.821,-7.067 15.204,-14.492c1.025,-2.304 1.542,-4.508 1.542,-6.617c-0.038,-6.379 -4.442,-10.579 -8.854,-13.566c-4.492,-3.088 -9.617,-5.405 -12.696,-7.655c-8.7,-6.266 -12.004,-13.566 -12.046,-21.212c-0.042,-9.467 5.479,-19.854 14.379,-28.092c1.209,-1.129 1.279,-3.058 0.167,-4.271c-1.117,-1.229 -3,-1.295 -4.208,-0.166l-0,-0.013c-9.742,9.088 -16.271,20.717 -16.313,32.542c-0.05,9.571 4.554,19.05 14.575,26.142c3.854,2.737 8.879,5 12.813,7.708c3.987,2.75 6.279,5.429 6.22,8.583c0,1.117 -0.266,2.471 -1.004,4.134c-2.204,5.079 -7.566,8.233 -13.137,12.004c-5.4,3.629 -11.313,8.7 -11.271,17.729c-0,1.342 0.125,2.75 0.392,4.271c0.237,1.241 1.183,2.221 2.433,2.441c1.029,0.184 2.004,0.238 2.933,0.238c0.55,-0 1.046,-0.042 1.5,-0.054c1.654,-0.042 2.929,-1.438 2.884,-3.1c-0.063,-1.675 -1.446,-2.971 -3.088,-2.904c-0.396,0.016 -0.758,0.016 -1.058,0.029c-0.021,-0.321 -0.042,-0.629 -0.042,-0.921c0.063,-6.113 3.421,-9.046 8.675,-12.758" style="fill:#231f20;fill-rule:nonzero;"/><path d="M239.149,184.653c-3.304,5.067 -9.891,9.213 -13.525,16.559c-0.562,1.17 -0.316,2.566 0.613,3.475c0.566,0.57 1.312,0.866 2.066,0.866c0.467,0 0.934,-0.129 1.384,-0.35c3.954,-2.208 4.441,-5.654 5.316,-6.408c0.288,-0.363 0.467,-0.779 0.567,-1.2c2.692,-2.875 5.917,-5.808 8.508,-9.533c0.921,-1.371 0.575,-3.238 -0.775,-4.175c-1.375,-0.938 -3.212,-0.588 -4.154,0.766" style="fill:#231f20;fill-rule:nonzero;"/><path d="M275.778,89.184c3.95,-3.908 7.721,-9.087 7.654,-16.779c0,-0.754 -0.021,-1.563 -0.087,-2.404c-0.609,-7.063 -4.184,-12.059 -7.988,-16.109c-3.816,-4.045 -7.929,-7.454 -10.671,-11.612c-1.954,-2.892 -3.112,-7.342 -3.079,-11.95c-0.021,-4.746 1.179,-9.621 3.421,-13.163c2.254,-3.562 5.263,-5.779 9.558,-6.112c1.625,-0.129 2.88,-1.567 2.755,-3.225c-0.134,-1.679 -1.563,-2.933 -3.188,-2.792c-6.367,0.446 -11.225,4.129 -14.171,8.904c-2.975,4.775 -4.329,10.663 -4.341,16.388c0.012,5.571 1.283,11.054 4.095,15.3c3.43,5.108 7.867,8.725 11.296,12.408c3.446,3.729 5.884,7.263 6.371,12.525c0.063,0.613 0.083,1.242 0.083,1.842c-0.062,5.696 -2.337,8.821 -5.912,12.496c-3.538,3.587 -8.354,7.187 -11.733,13.05c-0.821,1.45 -0.334,3.296 1.104,4.116c0.454,0.28 0.979,0.405 1.479,0.405c1.033,-0 2.046,-0.525 2.592,-1.505c2.583,-4.566 6.77,-7.804 10.762,-11.783" style="fill:#231f20;fill-rule:nonzero;"/></svg>