<?xml version="1.0" encoding="UTF-8" standalone="no"?><!DOCTYPE svg PUBLIC "-//W3C//DTD SVG 1.1//EN" "http://www.w3.org/Graphics/SVG/1.1/DTD/svg11.dtd"><svg width="100%" height="100%" viewBox="0 0 333 302" version="1.1" xmlns="http://www.w3.org/2000/svg" xmlns:xlink="http://www.w3.org/1999/xlink" xml:space="preserve" xmlns:serif="http://www.serif.com/" style="fill-rule:evenodd;clip-rule:evenodd;stroke-linejoin:round;stroke-miterlimit:2;"><path d="M0.783,234.32c0.496,0.113 1.034,0.204 1.517,0.308c2.529,18.609 6.992,36.234 12.908,51.375l0.663,1.705l1.854,0.045c0.488,0.017 0.983,0.017 1.483,0.017c6.917,-0.017 14.125,-1.229 21.33,-3.058c13.066,-3.342 26.091,-8.771 37.233,-13.134l1.687,-0.67l0.334,-0.13l-0.304,-2.158c-2.659,-18.887 -7.188,-38.158 -7.175,-56.446c-0,-1.162 0.016,-2.316 0.062,-3.441c0.271,-9.634 4.021,-20.675 8.117,-31.296c1.033,-2.659 2.071,-5.284 3.096,-7.842c1.45,12.213 3.929,28.05 7.887,43.388c0.033,0.158 0.075,0.329 0.113,0.475c0.091,0.354 0.187,0.687 0.291,1.041c3.784,14.063 8.696,27.617 15.609,37.446c3.204,4.521 6.816,8.279 10.966,10.9c2.863,1.783 6.246,2.438 9.796,2.446c17.825,-0.15 43.692,-16.342 56.038,-21.596c24.425,-10.642 51.008,-23.671 75.687,-31.529l2.196,-0.708l-0.3,-2.275c-2.521,-20.288 -12.658,-38.088 -19.429,-56.021c-3.246,-8.446 -4.438,-19.046 -8.317,-28.104c-1.204,-2.65 -2.9,-5.321 -4.617,-7.909c-2.312,-3.496 -4.633,-6.879 -5.795,-9.966c0.262,-0 0.491,-0.013 0.725,-0.013c10.2,-0.017 17.57,5.413 23.733,13.6c2.742,3.646 5.25,7.821 7.637,12.313c1.446,2.687 2.809,5.47 4.167,8.279c0.021,0.025 0.042,0.075 0.063,0.112c1.083,2.25 2.162,4.492 3.237,6.713c4.738,9.866 9.571,19.291 16.279,25.25c4.959,4.346 9.517,6.504 14.175,6.504c7.892,-0.15 14.025,-5.517 23.267,-11.563c9.962,-6.679 15.442,-12.07 15.542,-19.587c-0.063,-5.496 -2.913,-10.771 -7.459,-17.642c-3.021,-4.512 -6.096,-9.246 -9.25,-14.054c-27.466,-42.021 -60.546,-91.975 -114.808,-92.217c-6.904,0 -14.117,0.83 -21.658,2.596c-13.846,3.292 -27.459,10.317 -40.105,10.575l-1.891,-1.554c-0.629,-1.533 -1.425,-3.504 -2.317,-5.708c-1.387,-3.425 -3.012,-7.425 -4.592,-11.338c-1.829,-4.512 -3.608,-8.912 -4.933,-12.212c-0.404,-1.004 -0.767,-1.917 -1.083,-2.688l0.304,-0.091l-1.129,-2.255l-0.371,-0.725l-0.029,-0.054c-0.05,-0.083 0.046,-0.029 -0.35,-0.529c-0.246,0 -0.313,-1.108 -2.821,-0.858c-0.033,0.008 -0.063,0.029 -0.079,0.037c-1.421,0.429 -5.321,2.029 -10.563,4.309c-6.329,2.762 -14.6,6.5 -22.875,10.491c-7.571,3.617 -15.004,7.384 -20.625,10.621c-0.554,0.325 -1.087,0.621 -1.608,0.946c-2.1,1.237 -3.9,2.4 -5.304,3.471c-1.667,1.525 -3.167,2 -3.592,5.041c-0.021,0.392 0.079,0.909 0.25,1.3c1.325,3.034 2.533,6.15 3.708,9.284c2.546,6.854 4.975,13.85 7.93,20.75c-0.946,0.1 -1.93,0.196 -2.917,0.308c-0.438,0.054 -0.858,0.1 -1.317,0.146l0.446,4.204c-0.854,0.438 -1.737,0.846 -2.583,1.304c-1.004,0.529 -2.004,1.067 -2.967,1.654c-42.208,24.571 -57.967,76.33 -57.95,126.788c0,9.933 0.663,19.779 1.792,29.454l-1.009,4.175Zm282.4,-65.05c-4.187,-3.587 -7.804,-9.475 -11.362,-16.312c2.412,-1.359 4.842,-2.838 7.275,-4.355c2.504,2.859 4.667,8.417 6.712,13.638c1.175,2.937 2.375,5.783 3.967,8.108c1.146,1.667 2.713,3.267 4.763,4c-0.28,0.009 -0.559,0.054 -0.809,0.046c-2.875,0 -6.054,-1.229 -10.546,-5.125m43.825,-20.479c0.046,2.346 -1.037,4.733 -3.741,7.562c-1.492,-2.27 -4.371,-7.262 -6.975,-12.062c-3.525,-6.4 -6.817,-12.583 -8.504,-14.825l-4.359,3.375c1.046,1.321 5.067,8.717 8.721,15.367c1.863,3.366 3.696,6.629 5.183,9.104c0.65,1.066 1.238,1.971 1.767,2.725c-1.487,1.171 -3.162,2.391 -5.179,3.75c-6.475,4.379 -11.296,7.783 -15.258,9.466l-1.067,-4.112c-0.3,0.083 -0.529,0.104 -0.683,0.104c-0.625,0.008 -1.409,-0.354 -2.58,-2.037c-3.304,-4.467 -5.341,-15.005 -10.625,-21.588c4.521,-2.996 8.959,-6.129 13.105,-9.15c4.158,-3.071 7.029,-7.05 10.229,-9.258c2.021,-1.421 3.479,-2.546 4.446,-3.263c0.483,-0.354 0.837,-0.612 1.012,-0.725l0.038,-0.016l-0.805,-1.809l0.371,0.021c2.834,4.363 5.625,8.629 8.367,12.779c4.462,6.634 6.583,11.3 6.537,14.592m-16.175,-27.492l-1.345,0.809l1.345,-0.809Zm-178.729,-83.083c-0.983,0.867 -2.021,1.721 -3.104,2.642l0.604,0.716c-4.896,5.134 -9.779,9.059 -14.846,12.167c-4.97,-13.225 -12.658,-29.325 -12.787,-39.983c7.383,-3.367 13.829,-6.167 17.196,-7.525c2.646,6.65 9.741,24.116 12.937,31.983m-35.533,-21.967c1.196,12.592 8.833,28.067 13.317,40.179c-5.288,2.613 -10.825,4.484 -16.859,5.905c-0.412,-0.392 -0.708,-0.709 -1,-1.192l-0.254,0.142c-5.362,-10.146 -9.696,-24.88 -17.1,-34.292c6.529,-3.442 14.408,-7.254 21.896,-10.742m-35.354,18.975c0.058,-0.037 0.087,-0.083 0.154,-0.133c1.462,-1.346 4.496,-3.254 8.404,-5.45c6.571,7.729 11.063,22.621 17.046,33.975c-4.308,0.783 -8.875,1.412 -13.763,2.008c-4.337,-9.725 -7.479,-20.171 -11.841,-30.4m-13.317,52.425c4.75,-4.016 9.963,-7.579 15.654,-10.612c0.229,-0.138 0.446,-0.279 0.684,-0.409c2.808,-1.47 5.72,-2.8 8.754,-4.008l2.779,-1.096l-0.3,-0.596c3.754,-0.458 7.346,-0.958 10.812,-1.575c1.192,-0.204 2.35,-0.445 3.517,-0.666c0.408,0.621 0.821,1.237 1.246,1.812l4.962,6.559l0,-8.234l-0.004,-0.091c0.013,-0.475 -0.033,-0.95 -0.104,-1.413c5.517,-1.396 10.746,-3.229 15.754,-5.646c0.038,0.1 0.079,0.242 0.121,0.342l2,6.717l3.113,-6.28c0.941,-1.954 1.433,-3.262 1.608,-4.537c4.55,-2.854 8.971,-6.354 13.321,-10.688c1.179,-1.17 2.358,-2.391 3.529,-3.7l0.646,0.038c0.762,0.037 1.541,0.071 2.358,0.071l0.138,-0c0.333,-0.017 0.67,-0.063 1,-0.071c14.462,-0.446 28.25,-7.775 41.129,-10.708c7.154,-1.68 13.946,-2.434 20.404,-2.446c26.071,-0.138 47.342,12.687 65.621,30.916c14.433,14.388 26.996,32.15 38.579,49.6c1.617,2.455 3.225,4.905 4.817,7.338c-0.763,0.329 -1,0.762 -1.842,1.237c-1.021,0.763 -2.408,1.825 -4.354,3.2c-4.184,3.013 -7.059,6.996 -10.284,9.292c-0.975,0.708 -2.016,1.442 -3.012,2.167c-6.825,4.875 -14.129,9.85 -21.217,13.85c-2.783,-5.654 -5.575,-11.713 -8.633,-17.504c-7.829,-14.817 -18.133,-28.796 -36.258,-28.85c-1.455,-0 -2.963,0.091 -4.488,0.279l-2.779,0.341l0.367,2.763c1.312,8.837 9.104,16.221 11.508,22.192c0.229,0.52 0.417,1.058 0.625,1.591c3,7.746 4.296,17.542 7.6,26.321c6.754,17.688 16.046,34.475 18.812,52.463c-24.583,8.112 -50.437,20.758 -74.008,31.008c-12.15,5.396 -36.387,19.767 -51.533,21.029c-0.792,0.067 -1.559,0.121 -2.292,0.113c-2.862,-0 -5.175,-0.55 -6.896,-1.63c-10.816,-6.537 -19.171,-25.575 -24.412,-46.054c-5.342,-20.462 -7.975,-42.271 -9.038,-54.491l-5.358,-0.692c-5.183,14.725 -15.088,34.179 -15.704,51.658c-0.034,1.096 -0.059,2.234 -0.059,3.346l0,0.279c0,6.429 0.546,12.9 1.346,19.354c1.467,12.046 3.867,24.063 5.575,35.725c-4.296,1.692 -8.821,3.509 -13.458,5.246c-1.725,-10.846 -7.188,-26.637 -9.225,-32.729l-5.25,1.767c2.1,6.196 7.779,22.796 9.146,32.662l1.075,-0.137c-7.804,2.8 -15.804,5.312 -23.521,6.779c-4.388,0.858 -8.675,1.379 -12.783,1.396c-3.78,-9.963 -6.875,-21.096 -9.242,-32.821c-0.892,-4.458 -1.688,-8.983 -2.354,-13.6c6.429,1.162 13.283,1.954 20.233,2.558c0.275,1.842 0.438,4 0.421,6.371c-0,9.917 -2.092,22.788 -2.283,31.308c-0.021,0.25 -0.038,0.538 -0.038,0.78l0.925,0.029l4.604,0.15c0.129,-3.246 2.054,-5.329 3.542,-9.667l-2.825,-0.9c0.675,-6.875 1.587,-14.825 1.587,-21.7c-0.008,-2.092 -0.112,-4.046 -0.32,-5.933c8.675,0.625 17.287,0.979 25.17,1.283c0.109,0 0.217,0.008 0.33,0.008c3.066,0.134 6.054,0.25 8.854,0.384l0.241,-5.517c-2.308,-0.108 -4.741,-0.212 -7.245,-0.304c-8.9,-0.363 -18.78,-0.754 -28.559,-1.492c-0.325,-0.871 -0.666,-1.729 -1.141,-2.508l-3.48,2.146c-0.558,-0.046 -1.12,-0.092 -1.683,-0.129c-6.679,-0.63 -13.129,-1.505 -19.096,-2.659c-0.504,-4.371 -0.929,-8.791 -1.216,-13.246c-0.03,-0.529 -0.071,-1.058 -0.096,-1.579c-0.079,-1.237 -0.196,-2.466 -0.246,-3.712c-0.163,-3.592 -0.246,-7.2 -0.246,-10.796c0.021,-43.817 12.096,-87.538 42.375,-113.042" style="fill:#231f20;fill-rule:nonzero;"/><path d="M130.763,102.363c-1.175,2.483 -2.05,5.042 -2.995,7.367c-1.534,-3.705 -3.246,-7.192 -4.021,-10.409l-0.592,-2.325l-2.392,0.242c-6.008,0.504 -9.162,4.371 -11.05,7.917l2.625,1.533c-0.329,1.525 -0.562,3.087 -0.562,4.696c0.108,7.866 3.542,16.721 9.979,21.346c-0.554,0.354 -1.017,0.8 -1.471,1.266l-0.362,0.388l-0.184,0.512c-1.266,3.375 -1.854,6.463 -1.854,9.263c-0.037,4.95 1.979,9.025 5.096,11.571c1.567,1.291 3.358,2.212 5.25,2.808c-0.35,0.55 -0.633,1.162 -0.646,1.946c0.088,1.541 0.629,2.016 0.729,2.304c0.071,0.142 0.092,0.217 0.092,0.217l0.183,-0.05l1.125,0.087c6.092,17.363 13.55,35.479 20.375,52.796l0.755,1.908l2.037,-0.166c3.796,-0.33 6.8,-1.592 8.742,-3.834c1.925,-2.221 2.525,-5.021 2.516,-7.683c-0.033,-4.65 -1.65,-9.588 -2.887,-13.679c10.608,-4.221 16.687,-8.288 19.283,-8.009c1.163,0.046 1.954,0.28 3.759,2.671c1.695,2.35 3.754,6.65 6.366,13.217l1.267,3.179l2.837,-1.908c4.817,-3.217 9.646,-6.025 15.209,-8.85l2.096,-1.084l-0.73,-2.241c-4.445,-13.259 -12.57,-33.975 -28.933,-36.579c-0.667,-0.092 -1.354,-0.13 -2.037,-0.13c-8.313,0.15 -17.167,5.375 -22.8,5.2c-3.23,-0.225 -5.367,-0.808 -7.021,-7.004c1.533,-2.416 2.471,-5.346 2.496,-8.779c-0,-4.158 -1.375,-8.771 -4.371,-13.754l-0.625,-1.042l-1.171,-0.241c-2.3,-0.488 -4.679,-0.746 -7.071,-0.746c-0.233,-0 -0.471,0.008 -0.721,0.016c4.784,-6.97 7.079,-15.77 7.104,-24.141c0,-0.604 -0.041,-1.184 -0.066,-1.796l0.354,0.354l0.042,-0.017c0.154,-0.095 0.466,-0.262 0.925,-0.558c0.312,-0.279 1.495,-0.783 1.654,-2.812c-0.079,-1.655 -1.025,-2.363 -1.538,-2.771c-0.575,-0.438 -1.175,-0.734 -1.966,-1.079l-0.575,-0.242l-0.621,0.021c-7.359,0.1 -11.613,4.546 -13.634,9.104m26.805,61.037c8.054,-0.175 16.82,-5.383 22.8,-5.216c0.445,-0.009 0.879,0.021 1.316,0.075c10.738,0.966 19.417,17.716 23.688,30.562c-3.834,2.029 -7.384,4.063 -10.842,6.279c-2.117,-5.05 -3.883,-8.65 -5.742,-11.262c-2.129,-3.108 -5.033,-5.063 -8.254,-5.004c-6.408,0.296 -11.858,5.125 -23.571,9.279l-2.391,0.875l0.671,2.446c1.333,4.808 3.408,10.621 3.366,14.629c0,1.917 -0.408,3.208 -1.171,4.075c-0.545,0.612 -1.42,1.217 -3.025,1.6c-6.854,-17.317 -14.2,-35.288 -20.112,-52.333c4.108,-0.067 8.442,-1.396 11.904,-3.938c2.417,5.492 6.7,8.121 11.363,7.933m-13.025,-31.183c2.158,3.888 2.962,7.179 2.962,9.85c-0.004,2.538 -0.8,4.658 -2.071,6.417l-1.037,0.158c0.041,0.325 0.137,0.604 0.179,0.904c-2.571,2.771 -6.521,4.279 -10.554,4.342c-5.967,-0.204 -10.517,-2.883 -10.621,-9.729c-0,-1.571 0.275,-3.404 0.904,-5.513c0.413,0.192 0.921,0.334 1.563,0.363l0.045,-0l0,-1.721c3.03,-3.729 8.205,-5.458 13.892,-5.479c1.575,-0 3.175,0.15 4.738,0.408m-17.646,-2.817c-5.254,-2.091 -9.713,-10.837 -9.588,-18.016c-0.008,-1.896 0.279,-3.625 0.817,-5.021l-2.071,-0.783c0.842,-1.134 1.679,-1.896 3.096,-2.363c1.712,5.088 4.367,9.825 5.437,14.054l1.455,5.554l3.429,-4.616c3.312,-4.517 4.416,-9.754 6.258,-13.438c1.321,-2.483 2.521,-4.146 4.733,-5.096c0.067,0.838 0.2,1.646 0.2,2.484c0.021,9.533 -3.587,19.708 -10.158,25.621c-1.25,0.437 -2.471,0.97 -3.608,1.62" style="fill:#231f20;fill-rule:nonzero;"/><path d="M123.97,301.179l0.008,-0l-0.008,-0Z" style="fill:#231f20;fill-rule:nonzero;"/></svg>