<?xml version="1.0" encoding="UTF-8" standalone="no"?><!DOCTYPE svg PUBLIC "-//W3C//DTD SVG 1.1//EN" "http://www.w3.org/Graphics/SVG/1.1/DTD/svg11.dtd"><svg width="100%" height="100%" viewBox="0 0 296 272" version="1.1" xmlns="http://www.w3.org/2000/svg" xmlns:xlink="http://www.w3.org/1999/xlink" xml:space="preserve" xmlns:serif="http://www.serif.com/" style="fill-rule:evenodd;clip-rule:evenodd;stroke-linejoin:round;stroke-miterlimit:2;"><path d="M9.038,215.143c-0.779,-0.896 -2.129,-0.971 -3.025,-0.196c-0.887,0.788 -0.975,2.138 -0.195,3.017c8.858,10.137 20.708,13.846 32.512,13.816c12.583,0 25.288,-4.07 35.383,-8.925c7.234,-3.483 13.08,-4.762 18.255,-4.762c15.283,-0.213 26.112,12.046 47.883,15.021c2.062,0.262 4.046,0.391 5.996,0.391c26.066,-0.258 43.379,-21.137 67.221,-20.891c2.804,-0 5.7,0.271 8.745,0.896c2.613,0.52 5.134,1.225 7.63,1.995c-0.563,1.088 -1.117,2.167 -1.696,3.242c-0.55,1.046 -0.159,2.342 0.887,2.896c1.042,0.558 2.342,0.167 2.9,-0.871c0.696,-1.287 1.363,-2.592 2.034,-3.892c6.875,2.392 13.741,5.155 21.858,6.584c2.962,0.512 5.642,0.716 8.137,0.716c8.717,-0.037 14.905,-2.345 24.255,-2.316c0.57,-0 1.125,0.012 1.7,0.029c1.183,0.046 2.179,-0.875 2.225,-2.046c0.041,-1.183 -0.875,-2.183 -2.05,-2.237c-0.65,-0.021 -1.275,-0.021 -1.875,-0.021c-10.125,0.008 -16.459,2.325 -24.255,2.296c-2.258,-0 -4.687,-0.175 -7.404,-0.642c-7.337,-1.271 -13.812,-3.858 -20.6,-6.217c7.284,-14.287 14.013,-28.691 23.425,-41.733c0.471,-0.663 0.534,-1.55 0.154,-2.258c-0.383,-0.709 -1.141,-1.167 -1.95,-1.138c-30.691,0.858 -60.47,5.05 -90.341,8.129c0.7,-7.312 1.087,-14.637 1.087,-21.987c0,-1.829 -0.125,-3.667 -0.162,-5.479c1.666,0.091 3.333,0.158 5.025,0.158c5.308,-0 10.754,-0.571 16.216,-1.446c0.98,0.3 1.95,0.604 2.946,0.925c0.217,0.063 0.434,0.092 0.65,0.092c0.913,-0 1.75,-0.579 2.046,-1.475c0.163,-0.513 0.104,-1.029 -0.092,-1.484c0.155,-0.375 0.234,-0.783 0.155,-1.204c-0.246,-1.158 -1.371,-1.904 -2.521,-1.679c-0.942,0.183 -1.859,0.271 -2.788,0.429c-8.308,-2.654 -15.721,-4.971 -22.125,-7.871c-2.25,-37.595 -9.916,-75.454 -10.187,-112.641c0.921,-0.859 1.858,-1.717 2.862,-2.492c0.767,0.133 1.588,0.283 2.325,0.404c0.117,0.009 0.229,0.025 0.346,0.025c1.029,0 1.946,-0.754 2.121,-1.8c0.083,-0.562 -0.058,-1.1 -0.354,-1.55c4.175,-2.341 8.929,-3.987 14.375,-4.671c1.183,-0.145 2.004,-1.229 1.85,-2.395c-0.021,-0.2 -0.104,-0.359 -0.171,-0.525c0.133,-0.317 0.221,-0.671 0.187,-1.046c-0.141,-1.184 -1.204,-2.025 -2.379,-1.896c-7.462,0.925 -14.537,3.392 -21.096,6.987c0.055,-1.983 0.142,-3.95 0.255,-5.92l0.145,-0c1.171,-0.134 2.03,-1.188 1.905,-2.363c-0.1,-0.992 -0.88,-1.708 -1.817,-1.85c0.021,-0.317 0.033,-0.642 0.058,-0.962c0.084,-1.175 -0.804,-2.2 -1.975,-2.305c-1.179,-0.083 -2.204,0.796 -2.3,1.98c-0.033,0.441 -0.05,0.879 -0.071,1.308c-5.295,-0.15 -10.695,-1.642 -16.554,-1.683c-1.487,-0 -3.004,0.112 -4.546,0.395c-9.041,1.709 -14.72,7.075 -22.008,7.609l-0.062,-0c-0.038,-0 -0.075,0.008 -0.1,0.008c-1.159,0.075 -2.046,1.083 -1.975,2.242c0.058,1.166 1.037,2.054 2.204,2.016l0.116,0c0.867,-0.02 1.738,-0.037 2.617,-0.037c12.058,-0 25.308,2.212 36.771,4.246c-24.375,17.487 -40.129,50.35 -40.488,73.641c-0.008,0.209 -0.008,0.45 -0.008,0.713c-0.033,18.633 7.333,32.908 18.992,42.292c9.5,7.654 21.762,12.05 35.162,13.462c0.034,1.95 0.167,3.9 0.167,5.842c-0,7.516 -0.396,14.996 -1.129,22.433c-4.138,0.404 -8.279,0.788 -12.421,1.142c-34.463,2.904 -68.358,3.329 -103.742,5.041c-0.721,0.025 -1.379,0.421 -1.741,1.038c-0.363,0.625 -0.413,1.379 -0.1,2.025c5.42,11.283 11.67,25.654 15.145,38.137c-6.845,2.192 -14.187,3.65 -21.333,3.65c-10.975,-0.029 -21.346,-3.308 -29.292,-12.362m170.121,-71.017c-2.125,0.129 -4.275,0.317 -6.362,0.317c-1.734,-0.008 -3.446,-0.092 -5.146,-0.196c-0.05,-1.483 -0.054,-2.979 -0.121,-4.483c3.658,1.587 7.542,3.008 11.629,4.362m-16.325,-11.391c-10.016,-5.546 -17.171,-13.525 -21.104,-28.746c-1.817,-7.067 -3.012,-16.429 -3.012,-26.459c0.029,-18 3.841,-37.641 14.22,-50.712c0.809,35.442 7.571,71 9.896,105.917m-29.816,-126.5c1.262,-0.234 2.52,-0.33 3.791,-0.33c5.013,-0.029 10.379,1.438 16.317,1.671c-0.125,2.234 -0.213,4.463 -0.258,6.696c-9.084,-1.625 -19.617,-3.5 -30.03,-4.304c3.367,-1.596 6.567,-3.163 10.18,-3.733m-19.409,86.208c0,-0.208 0.009,-0.421 0.009,-0.663c0.091,-21.325 15.179,-52.387 37.466,-69.291c-12.412,14.162 -16.662,36.008 -16.646,55.041c0,10.363 1.23,20.017 3.134,27.513c4.471,17.683 13.591,26.637 25.621,32.704c0.108,2.046 0.1,4.071 0.175,6.108c-28.092,-3.175 -49.68,-20.033 -49.759,-51.412m-63.837,94.337c34.146,-1.587 67.066,-2.062 100.687,-4.891c4.046,-0.346 8.071,-0.721 12.092,-1.129c0.321,0.6 0.879,1.045 1.604,1.129c0.075,0.008 0.158,0.008 0.242,0.008c0.933,0 1.737,-0.633 2.008,-1.529c28.871,-2.95 57.454,-6.929 86.629,-8.046c-8.55,12.667 -14.866,26.183 -21.579,39.321c-2.808,-0.896 -5.717,-1.717 -8.787,-2.333c-3.325,-0.675 -6.517,-0.98 -9.6,-0.98c-26.359,0.259 -43.717,21.142 -67.221,20.88c-1.767,-0 -3.575,-0.1 -5.442,-0.342c-20.171,-2.492 -30.7,-14.871 -48.437,-15.071c-5.909,0 -12.442,1.496 -20.113,5.213c-2.558,1.233 -5.3,2.379 -8.15,3.454c-3.321,-11.8 -8.846,-24.854 -13.933,-35.684" style="fill:#231f20;fill-rule:nonzero;"/><path d="M292.319,254.578c-8.688,3.604 -18.242,5.192 -27.992,5.192c-12.196,-0 -24.692,-2.475 -36.142,-6.45c-11.337,-3.913 -22.641,-8.546 -35.379,-8.55c-0.691,-0 -1.371,0.004 -2.058,0.045c-16.925,0.846 -23.933,11.621 -37.367,14.171c-2.666,0.521 -5.204,0.767 -7.641,0.767c-16.417,0.158 -28.946,-11.175 -46.25,-11.338c-4.221,-0.008 -8.684,0.721 -13.434,2.505c-14.258,5.425 -24.275,16.133 -38.079,16.383l-0.896,-0c-13.308,0.083 -33.987,-7.963 -43.612,-15.629c-0.929,-0.746 -2.279,-0.567 -3.004,0.358c-0.742,0.921 -0.575,2.288 0.354,3.013c10.721,8.375 31.412,16.466 46.262,16.545c0.342,0 0.659,0 0.988,-0.008c16.062,-0.554 26.462,-11.946 39.475,-16.65c4.3,-1.612 8.216,-2.237 11.946,-2.237c15.183,-0.171 27.854,11.183 46.25,11.333c2.712,-0 5.537,-0.25 8.491,-0.85c15.417,-3.325 21.954,-13.633 36.696,-14.088c0.633,-0.02 1.267,-0.037 1.879,-0.037c11.659,-0.013 22.496,4.329 33.975,8.317c11.838,4.116 24.775,6.675 37.546,6.675c10.213,-0 20.321,-1.642 29.625,-5.509c1.092,-0.454 1.613,-1.716 1.158,-2.808c-0.462,-1.092 -1.7,-1.596 -2.791,-1.15" style="fill:#231f20;fill-rule:nonzero;"/><path d="M92.278,12.826c-0.35,-0.038 -0.671,-0.058 -0.996,-0.058c-8.634,0.112 -14.546,7.508 -18.434,15.9c-3.195,6.983 -5.129,14.958 -5.725,21.52c-5.862,-9.683 -13.295,-22.2 -25.82,-24.554c-1.171,-0.196 -2.28,0.596 -2.475,1.754c-0.196,1.167 0.583,2.271 1.758,2.475c12.129,1.83 20.183,18.717 26.892,28.905c0.404,0.604 1.079,0.941 1.779,0.941c0.25,0 0.508,-0.046 0.758,-0.129c0.925,-0.354 1.488,-1.287 1.358,-2.279c-0.112,-0.867 -0.175,-1.875 -0.175,-2.988c-0.012,-6.337 1.917,-16.029 5.538,-23.845c3.637,-7.934 8.846,-13.525 14.546,-13.413c0.216,0 0.412,0.017 0.608,0.025c1.175,0.113 2.217,-0.762 2.325,-1.929c0.108,-1.188 -0.762,-2.233 -1.937,-2.325" style="fill:#231f20;fill-rule:nonzero;"/><path d="M81.13,72.135c-0.85,-0.016 -1.633,0.446 -1.987,1.205c-5.425,11.304 -8.379,24.808 -16.9,34.616c-0.779,0.9 -0.671,2.25 0.221,3.025c0.4,0.346 0.904,0.513 1.396,0.513c0.6,-0 1.2,-0.242 1.625,-0.734l-0,-0.012c8.091,-9.429 11.404,-21.154 15.479,-30.996c2.921,7.471 5.654,15.283 9.187,22.529c0.525,1.075 1.809,1.513 2.871,1c1.067,-0.525 1.508,-1.804 0.988,-2.875c-4.105,-8.404 -7.188,-17.925 -10.967,-26.954c-0.325,-0.775 -1.075,-1.287 -1.913,-1.317" style="fill:#231f20;fill-rule:nonzero;"/><path d="M198.74,61.428c-5.121,-8.246 -12.242,-18.488 -21.771,-19.813c-1.171,-0.129 -2.242,0.721 -2.363,1.896c-0.133,1.184 0.725,2.229 1.892,2.371c7.8,0.525 16.55,13.883 21.425,22.4c0.392,0.65 1.1,1.033 1.846,1.033c0.175,0 0.354,-0.008 0.521,-0.054c0.933,-0.241 1.583,-1.058 1.625,-2.008c0.008,-13.117 24.087,-39.567 40.058,-39.042c0.529,0 1.042,0.009 1.542,0.063c1.166,0.15 2.233,-0.709 2.366,-1.875c0.134,-1.184 -0.716,-2.242 -1.891,-2.371c-0.68,-0.088 -1.355,-0.113 -2.017,-0.113c-17.513,0.467 -38.192,21.313 -43.233,37.513" style="fill:#231f20;fill-rule:nonzero;"/></svg>