<?xml version="1.0" encoding="UTF-8" standalone="no"?><!DOCTYPE svg PUBLIC "-//W3C//DTD SVG 1.1//EN" "http://www.w3.org/Graphics/SVG/1.1/DTD/svg11.dtd"><svg width="100%" height="100%" viewBox="0 0 309 159" version="1.1" xmlns="http://www.w3.org/2000/svg" xmlns:xlink="http://www.w3.org/1999/xlink" xml:space="preserve" xmlns:serif="http://www.serif.com/" style="fill-rule:evenodd;clip-rule:evenodd;stroke-linejoin:round;stroke-miterlimit:2;"><path d="M134.975,117.334c6.433,3.483 14.216,5.041 22.254,5.041l0.046,0c18.558,0 40.525,-8.833 45.566,-30.6c0.338,-1.437 0.43,-2.841 0.43,-4.216c-0.184,-10.184 -5.917,-20.7 -12.842,-30.267c-3.104,-4.096 -6.375,-7.887 -9.738,-11.187c0.921,-2.813 -0.35,-5.934 -3.041,-7.217c-7.55,-3.792 -15.209,-5.475 -22.484,-5.475c-26,0.125 -46.637,21.125 -46.787,44.758c-0.096,14.521 8.437,29.471 26.596,39.163m-4.617,-61.692c6.342,-6.179 15.083,-10.183 24.808,-10.183c1.667,-0 3.363,0.091 5.134,0.366c0.658,0.921 1.591,1.65 2.725,2.08c3.729,1.225 11.846,8.287 17.854,16.633c6.204,8.192 10.683,18.067 10.467,23.021c-0,0.704 -0.059,1.254 -0.15,1.65c-2.63,13.512 -18.405,21.125 -33.967,21.125c-6.45,0.029 -12.488,-1.346 -16.646,-3.609c-15.208,-8.404 -20.204,-18.741 -20.3,-28.554c-0.029,-8.104 3.75,-16.325 10.075,-22.529" style="fill:#231f20;fill-rule:nonzero;"/><path d="M139.558,84.715c-0.716,3.116 1.055,6.204 4.05,7.154c1.68,0.55 3.442,0.825 5.213,0.791l0.183,0c1.134,0 2.217,-0.12 3.242,-0.304c0.917,-0.179 1.758,-0.521 2.433,-1.041c3.175,-0.15 6.675,-1.25 9.521,-4c2.921,-2.784 4.554,-7.067 4.663,-11.8c0.058,-0.613 0.058,-1.259 -0,-1.9c-0.063,-0.488 -0.063,-0.917 -0.109,-1.434c-0.258,-2.996 -2.629,-5.383 -5.625,-5.504c-0.641,-0.029 -1.283,-0.092 -1.925,-0.092c-3.516,0.063 -7.016,0.43 -10.179,3.059c-0.458,0.396 -0.887,0.825 -1.287,1.283c-1.817,-0.858 -4.092,-0.762 -5.913,0.488c-2.492,1.683 -4.817,4.679 -4.754,8.345c0.046,1.471 0.321,2.721 0.808,3.825c-0.121,0.363 -0.229,0.734 -0.321,1.13" style="fill:#231f20;fill-rule:nonzero;"/><path d="M5.948,97.646c1.33,-0 2.584,-0.396 3.667,-1.254c0.138,-0 0.279,0.029 0.458,0.062l0.063,0c0.108,0 0.2,-0.121 0.304,-0.121c7.538,25.863 34.517,40.167 63.3,49.159c16.142,4.979 33,8.1 48.396,10.146c1.433,0.308 2.842,0.795 4.275,0.983c9.021,1.433 19.354,2.321 30.162,2.321c2.109,-0 4.28,-0.154 6.421,-0.213c0.179,0 0.35,0.029 0.563,0.029l0.308,0c0.625,0 1.238,-0.091 1.896,-0.091c1.146,-0.059 2.229,-0.092 3.329,-0.184c54.342,-1.375 96.929,-23.879 134.929,-60.408c1.117,-0.825 2.338,-1.958 3.379,-3.546c1.663,-2.571 1.13,-5.991 -1.208,-7.921c-0.704,-0.55 -1.5,-0.55 -2.292,-0.791c-0.095,-0.063 -0.095,-0.125 -0.125,-0.217c-16.904,-12.017 -22.758,-34.787 -46.512,-50.475c-28.45,-18.217 -52.279,-35.125 -88.229,-35.125c-1.392,0 -2.829,0.029 -4.188,0.125c-26.308,0.946 -56.771,3.758 -81.796,15.925c-31.854,15.713 -55.641,44.483 -78.6,68.508c-1.712,1.042 -2.75,2.663 -3.591,3.98c-1.559,2.629 -0.946,5.991 1.471,7.854c1.05,0.858 2.354,1.254 3.62,1.254m244.905,-52.308c18.358,11.375 24.487,31.12 42.054,46.62c-0.034,0.125 -0.188,0.184 -0.229,0.275c-17.842,16.663 -36.384,29.809 -56.605,39.042c0.917,-1.071 1.988,-2.017 2.859,-3.179c7.137,-10 10.196,-21.371 10.196,-32.65c-0.092,-24.396 -13.559,-48.363 -30.296,-64.142c-6.113,-5.683 -12.475,-10.271 -19.217,-14.154c17.138,5.842 32.546,16.142 51.238,28.188m-119.53,-23.234c0.242,0 0.517,0.029 0.763,0.029c0.292,0 0.625,0 0.992,0.063c3.287,0.121 6.041,-2.479 6.191,-5.808l0,-0.184c1.221,-0.304 2.584,-0.579 3.929,-0.796c4.05,-0.733 8.605,-1.254 9.98,-1.254l0.216,-0.029l0,0.029l0.059,0c7.629,0 11.22,1.529 19.2,4.192c14.754,4.95 26.75,11.25 38.091,21.796c14.721,13.696 26.55,35.646 26.463,55.304c-0.034,9.142 -2.371,17.792 -7.934,25.617c-11.116,15.929 -35.295,23.508 -59.92,25.375c-1.959,0.062 -3.809,0.245 -5.796,0.245c-2.721,0 -5.425,-0.033 -8.192,-0.12c-8.471,-0.342 -19.475,-1.259 -31.333,-2.817c-26.584,-5.9 -52.2,-26.133 -51.925,-54.663c-0,-0.762 0.012,-1.525 0.041,-2.35c0.905,-30.237 32.33,-64.6 59.175,-64.629m-43.045,4.8c2.062,-1.008 4.475,-1.65 6.666,-2.508c-19.158,14.521 -33.312,38.154 -34.7,61.725c-0.046,0.946 -0.062,1.925 -0.062,2.962c0.137,19.021 8.604,34.488 20.954,45.892c-1.267,-0.371 -2.642,-0.612 -3.913,-1.012c-27.804,-8.467 -50.612,-22.375 -55.379,-41.117c-0.687,-2.417 -2.766,-3.608 -5.075,-3.913c22.059,-23.416 44.254,-48.791 71.509,-62.029" style="fill:#231f20;fill-rule:nonzero;"/></svg>