<?xml version="1.0" encoding="UTF-8" standalone="no"?><!DOCTYPE svg PUBLIC "-//W3C//DTD SVG 1.1//EN" "http://www.w3.org/Graphics/SVG/1.1/DTD/svg11.dtd"><svg width="100%" height="100%" viewBox="0 0 379 221" version="1.1" xmlns="http://www.w3.org/2000/svg" xmlns:xlink="http://www.w3.org/1999/xlink" xml:space="preserve" xmlns:serif="http://www.serif.com/" style="fill-rule:evenodd;clip-rule:evenodd;stroke-linejoin:round;stroke-miterlimit:2;"><path d="M165.404,150.952c0.23,0 0.446,-0.025 0.688,-0.087c1.975,-0.588 4.521,-1.083 7.233,-1.579c2.075,7.029 2.063,15.571 4.646,23.554c0.317,1.029 1.3,1.692 2.342,1.692c0.246,-0 0.512,-0.05 0.766,-0.125c1.284,-0.421 1.971,-1.821 1.55,-3.096c-2.262,-6.763 -2.316,-15.088 -4.491,-22.967c4.912,-1.071 9.971,-2.537 13.621,-5.387c1.07,-0.867 1.225,-2.392 0.383,-3.438c-0.867,-1.058 -2.392,-1.225 -3.45,-0.371c-4.713,3.975 -16.617,5.017 -23.95,6.992c-1.296,0.354 -2.063,1.729 -1.679,3.029c0.304,1.083 1.258,1.783 2.341,1.783" style="fill:#231f20;fill-rule:nonzero;"/><path d="M149.897,155.917c0.154,0 0.304,-0.012 0.458,-0.062c0.242,-0.038 0.713,-0.142 1.259,-0.296c1.862,7.438 3.337,16.196 6.725,23.708c-0.063,0.05 -0.18,0.088 -0.23,0.105c-0.154,0.075 -0.291,0.125 -0.408,0.15c-0.062,-0 -0.087,0.025 -0.112,0.025l-0.025,0.025l-0,0.029c-1.175,0.179 -2.05,1.196 -2.05,2.404c-0,1.35 1.091,2.458 2.454,2.458l-0,-0.025l0.012,0c2.346,-0.316 5.742,-2.241 8.417,-3.287c1.25,-0.559 1.796,-1.996 1.262,-3.221c-0.537,-1.233 -1.975,-1.821 -3.22,-1.296c-0.446,0.204 -1.034,0.458 -1.58,0.713c-3.095,-6.713 -4.583,-15.396 -6.545,-23.2c0.266,-0.125 0.587,-0.217 0.829,-0.33c1.208,-0.562 1.741,-2.025 1.196,-3.22c-0.575,-1.25 -2.013,-1.796 -3.234,-1.234c-1.275,0.609 -5.321,1.642 -5.666,1.679c-1.325,0.242 -2.205,1.538 -1.95,2.863c0.216,1.183 1.25,2.012 2.408,2.012" style="fill:#231f20;fill-rule:nonzero;"/><path d="M190.614,52.979c0.842,-0.409 1.35,-1.275 1.35,-2.179c0,-0.521 -0.075,-0.942 -0.179,-1.346c0.167,-0.296 0.283,-0.729 0.358,-1.35l0,-0.042c0,-1.35 -1.108,-2.429 -2.446,-2.429c-0.229,-0 -0.445,0.037 -0.65,0.1c-0.229,-0.038 -0.404,-0.038 -0.583,-0.063c-0.6,0.025 -1.133,0.088 -1.783,0.242c-0.409,0.396 -1.771,-0.217 -2.471,2.775c0.1,1.629 1.083,2.138 1.337,2.367c0.409,0.271 0.855,0.396 1.288,0.396c0.342,0.562 0.775,0.995 1.221,1.275c0.446,0.354 0.954,0.52 1.487,0.52c0.346,0 0.729,-0.075 1.071,-0.266" style="fill:#231f20;fill-rule:nonzero;"/><path d="M154.265,52.495c0.471,0.587 1.196,0.916 1.946,0.916l0.179,0c0.842,-0.062 1.567,-0.533 1.95,-1.262c0.558,-1.042 0.942,-1.884 0.954,-3.029c0.167,-1.73 -1.721,-3.13 -2.421,-3.13c-0.216,-0.079 -0.383,-0.116 -0.496,-0.129c-0.954,-0.471 -2.137,-0.279 -2.891,0.559c-0.788,0.866 -0.838,2.141 -0.192,3.07c-0.05,0.167 -0.075,0.367 -0.075,0.546c0.129,1.479 0.613,1.759 1.046,2.459" style="fill:#231f20;fill-rule:nonzero;"/><path d="M4.101,153.792c0.025,19.862 12.858,31.804 29.704,31.816c1.375,0 2.775,-0.075 4.175,-0.229c5.425,5.579 12.084,10.213 19.813,13.496c1.858,0.792 3.654,1.579 5.475,2.358c2.916,2.621 6.162,4.113 9.612,4.138c18.029,7.687 34.734,14.029 56.417,15.062c5.754,0.255 11.421,0.43 17.046,0.43c15.154,-0 30.062,-1.134 45.521,-3.88c8.566,-1.529 16.841,-3.362 24.941,-5.412c0.15,0.025 0.267,0.192 0.446,0.192c0.7,-0 1.296,-0.334 1.767,-0.817c21.175,-5.513 41.05,-12.808 60.125,-22.421c1.283,9.358 3.804,18.5 8.171,26.879c0.625,1.196 2.129,1.642 3.312,1.042c1.208,-0.625 1.667,-2.113 1.058,-3.333c-4.316,-8.225 -6.737,-17.434 -7.883,-26.992c6.125,-3.225 12.158,-6.688 18.142,-10.404c6.112,8.262 14.95,12.108 24.104,12.058c17.775,-0.092 36.833,-13.483 43.083,-33.283c0.396,-1.246 0.754,-2.584 1.121,-3.934c4.521,-4.725 7.425,-11.675 7.438,-20.945c-0.013,-1.08 -0.063,-2.188 -0.1,-3.309c-0.334,-4.916 -1.43,-9.908 -3.046,-14.704c2.446,-2.537 4.15,-5.629 4.391,-9.462c0,-0.334 -0.037,-0.65 -0.037,-0.98c-0.075,-1.212 -1.029,-2.179 -2.229,-2.279c-0.596,-0.066 -1.104,-0.066 -1.575,-0.066c-2.179,0.037 -4.292,0.308 -6.342,0.754c-0.012,-0.025 -0.025,-0.038 -0.067,-0.067c0.675,-0.775 1.313,-1.579 1.888,-2.429c0.458,-0.7 0.558,-1.579 0.229,-2.354c-0.333,-0.742 -1.021,-1.313 -1.846,-1.454c-1.158,-0.192 -2.316,-0.28 -3.479,-0.28c-0.558,0.013 -1.142,0.205 -1.729,0.242c-1.133,-1.312 -2.367,-2.546 -3.704,-3.667c0.254,-0.904 0.521,-1.808 0.65,-2.712c0.087,-0.775 -0.167,-1.567 -0.713,-2.088c-0.562,-0.545 -1.362,-0.779 -2.129,-0.65c-1.296,0.255 -2.521,0.725 -3.692,1.325c-7.754,-4.712 -15.125,-7.029 -22,-7.029c-26.012,0.55 -42.183,29.45 -49.466,56.825c-7.309,3.971 -14.729,7.575 -20.829,7.488c-1.475,-0 -2.813,-0.204 -4.113,-0.588c-7.117,-2.1 -12.658,-6.391 -17.737,-11.483c-0.05,-1.108 -0.713,-2.113 -1.834,-2.317l-0.025,0c-0.166,-0.029 -0.366,-0.029 -0.558,-0.054c-9.475,-10.25 -17.658,-23.121 -31.871,-30.392c-0.546,-0.266 -1.104,-0.47 -1.667,-0.712c-0.1,-0.063 -0.087,-0.204 -0.204,-0.279c-0.341,-0.279 -0.8,-0.267 -1.233,-0.304c-5.604,-2.13 -10.975,-2.7 -16.121,-3.475c15.583,-5.513 27.492,-17.359 30.992,-35.5c0.391,-2.113 0.583,-4.163 0.583,-6.163c0.054,-11.879 -7.254,-21.542 -18.562,-26.175c-0.063,-0.012 -0.088,-0.012 -0.113,-0.042c8.4,-5.816 17.8,-10.641 26.863,-15.975c1.183,-0.679 1.566,-2.179 0.891,-3.35c-0.675,-1.17 -2.187,-1.566 -3.35,-0.879c-9.941,5.842 -20.737,11.167 -30.325,18.346c-4.087,-1.183 -8.1,-1.958 -11.996,-2.075c4.738,-7.637 17.875,-16.692 25.671,-16.383c0.342,-0 0.609,-0 0.85,0.025c1.338,0.162 2.575,-0.792 2.738,-2.129c0.154,-1.363 -0.775,-2.559 -2.138,-2.75c-0.533,-0.063 -1.004,-0.063 -1.45,-0.063c-11.637,0.304 -26.458,11.113 -31.133,21.583c-3.104,0.342 -6.071,0.955 -8.875,1.996c4.825,-8.175 11.6,-13.675 20.971,-18.921c1.171,-0.687 1.591,-2.187 0.929,-3.358c-0.675,-1.171 -2.15,-1.592 -3.333,-0.954c-11.83,6.604 -20.855,14.167 -26.117,27.154c-9.346,6.558 -15.367,17.879 -15.379,32.608c-0,0.738 -0,1.5 0.037,2.342c0.371,10.517 4.192,22.229 12.313,28.763c-21.975,5.425 -30.988,19.275 -43.034,39.141c-1.02,1.667 -1.975,3.434 -2.891,5.271c-0.688,0.329 -1.4,0.683 -2.038,1.246c-1.029,0.879 -1.133,2.433 -0.229,3.45c0,0.012 0.013,-0 0.029,0.012c-5.337,11.805 -9.604,24.93 -16.3,32.98c-2.712,3.27 -4.646,4.108 -5.679,4.058c-1.871,0.446 -5.271,-4.088 -7.396,-10.771c-0.204,-0.558 -0.358,-1.146 -0.521,-1.717c14.017,-12.237 25.159,-28.625 26.125,-46.104c0.038,-0.487 0.038,-0.966 0.038,-1.412c0.025,-9.4 -4.608,-15.725 -11.292,-19.713c0.929,-2.887 1.475,-5.921 1.513,-9.05c-0,-3.046 -0.521,-6.112 -1.604,-9.179c-4.405,-12.658 -14.996,-17.775 -26.113,-17.662c-6.175,0.05 -12.617,1.504 -18.833,3.745c-1.438,-2.55 -3.079,-4.75 -4.938,-6.304c-1.096,-0.829 -2.583,-0.65 -3.437,0.409c-2.446,3.054 -3.375,6.645 -3.35,10.145c-0,0.396 0.087,0.788 0.087,1.171c-0.596,0.359 -1.208,0.65 -1.779,1.021c-1.312,-0.867 -2.762,-1.517 -4.583,-1.617c-0.317,0 -0.713,0 -1.213,0.113c-1.066,0.167 -1.858,1.021 -1.996,2.092c-0.104,0.8 -0.166,1.641 -0.166,2.454c-0,0.816 0.216,1.529 0.316,2.291c-3.054,2.471 -5.779,5.067 -7.829,7.667c-8.912,11.471 -19.354,28.521 -19.454,43.913c-0.05,5.616 1.542,11.062 5.154,15.608c-0.558,2.637 -0.929,5.208 -1.029,7.692c-0.025,0.52 -0.025,1.083 -0.025,1.629m369.846,-50.038c-0.217,0.967 -0.675,1.925 -1.392,2.838c-0.354,-0.813 -0.737,-1.629 -1.146,-2.404c0.855,-0.13 1.684,-0.396 2.538,-0.434m-70.425,65.188c-1.158,-2.279 -2.188,-4.85 -3.004,-7.754c-0.829,-3.03 -1.271,-6.313 -1.567,-9.713c4.113,-2.304 8.071,-4.737 11.675,-7.333c2.483,-1.784 4.775,-3.492 7.042,-5.184c2.966,4.713 6.75,8.684 11.079,11.713c-4.558,3.95 -8.9,7.196 -12.15,9.475c-4.338,3.079 -8.721,5.996 -13.075,8.796m-4.888,-22.967c0,-4.75 0.613,-9.612 1.605,-14.467c4.1,-1.741 8.312,-3.45 12.529,-5.241c0.254,2.075 0.662,4.125 1.462,6.108c0.304,0.763 0.738,1.479 1.084,2.229c-2.446,1.821 -4.93,3.692 -7.55,5.579c-2.813,2.009 -5.946,3.93 -9.13,5.792m22.93,-9.892c8.162,-5.958 15.854,-10.775 27.158,-13.179c1.021,-0.254 2.229,-0.562 3.604,-0.916c-3.846,8.937 -11.792,17.962 -19.787,25.325c-4.3,-2.842 -8.121,-6.646 -10.975,-11.23m4.483,46.775c-7.717,-0.087 -14.821,-2.875 -19.938,-9.762c4.467,-2.842 8.9,-5.821 13.317,-8.95c3.604,-2.625 8.517,-6.304 13.688,-10.763c5.829,3.121 12.208,4.775 18.308,4.8c4.304,0 8.467,-0.916 12.183,-2.762c-6.212,16.362 -22.941,27.475 -37.558,27.437m42.679,-57.625c0,8.059 -1.237,16.221 -2.979,23.121c-3.783,3.325 -8.8,4.825 -14.325,4.942c-4.7,-0 -9.688,-1.183 -14.388,-3.45c8.863,-8.225 17.571,-18.513 21.021,-29.438c3.309,-1.02 6.8,-2.341 10.021,-4.112c0.383,2.917 0.65,5.896 0.65,8.937m-3.25,-19.504c0.654,1.742 1.263,3.5 1.696,5.384c-2.367,1.412 -5.108,2.65 -7.871,3.716c0.154,-1.154 0.358,-2.291 0.383,-3.433c0,-1.033 -0.191,-2.067 -0.329,-3.108c2.05,-0.967 4.088,-1.821 6.121,-2.559m-3.754,-7.362c0.142,0.216 0.267,0.483 0.396,0.691c-1.3,1.196 -2.725,2.342 -4.217,3.409c-0.125,-0.317 -0.192,-0.646 -0.317,-0.954c-0.291,-0.65 -0.687,-1.096 -1.008,-1.705c1.671,-0.662 3.388,-1.145 5.146,-1.441m-8.033,-6.746c0.037,0.037 0.125,0.087 0.191,0.112c-0.446,0.855 -0.916,1.671 -1.466,2.509c-0.255,-0.242 -0.509,-0.521 -0.775,-0.763c0.675,-0.687 1.362,-1.287 2.05,-1.858m-5.209,5.525c0.292,0.267 0.588,0.587 0.892,0.879c-1.463,1.017 -2.825,2.15 -3.921,3.45c0.867,-1.412 1.908,-2.879 3.029,-4.329m-5.475,7.167c0.588,-0.163 1.071,-0.521 1.375,-1.005c0.05,-0.05 0.075,-0.1 0.104,-0.154c0.1,-0.162 0.217,-0.354 0.305,-0.533c-0.205,0.779 -0.013,1.654 0.575,2.292c0.837,0.904 2.162,1.058 3.166,0.395c1.288,-0.916 2.509,-2.037 3.721,-3.233c0.279,0.508 0.571,0.879 0.863,1.475c0.254,0.546 0.345,1.108 0.55,1.667c-1.63,0.966 -3.238,1.975 -4.855,2.791c-0.075,0.063 -0.162,0.1 -0.254,0.15c-0.012,0.025 -0.025,0.025 -0.062,0.038c-1.196,0.587 -1.642,2.054 -1.084,3.275c0.613,1.171 2.08,1.667 3.275,1.108c1.35,-0.675 2.684,-1.35 4.021,-2.012c0,0.266 0.079,0.533 0.079,0.829c0.038,1.692 -0.216,3.396 -0.6,5.129c-2.445,0.738 -4.725,1.275 -6.479,1.579c-11.946,2.546 -20.233,7.638 -28.396,13.546c-0.162,-0.371 -0.366,-0.687 -0.533,-1.071c-0.812,-2.062 -1.158,-4.187 -1.271,-6.337c6.809,-3.046 13.509,-6.429 19.567,-10.863c0.192,-0.125 0.192,-0.341 0.317,-0.496c0.129,-0.141 0.308,-0.166 0.408,-0.345c1.3,-2.559 2.333,-5.496 3.325,-8.467l0.037,0.025c0.546,0.308 1.196,0.408 1.809,0.233c0.025,0 0.025,0 0.037,-0.016m-25.146,14.362c0.98,-5.562 3.717,-11.075 7.475,-15.417c4.075,-4.762 9.18,-7.854 13.8,-8.62c-2.075,5.425 -3.333,11.091 -5.395,15.05c-4.855,3.512 -10.263,6.379 -15.88,8.987m23.671,-30.337c0.217,-0 0.421,0.075 0.646,0.075c-0.225,0.358 -0.483,0.675 -0.7,1.029c-0.05,-0 -0.112,-0.025 -0.162,-0.025c-13.755,0.308 -27.3,15.483 -28.609,31.537c-3.658,1.579 -7.35,3.134 -11.041,4.663c4.8,-16.642 15.291,-31.592 30.762,-35.946c3.129,-0.9 6.1,-1.308 8.888,-1.333l0.216,-0Zm-9.983,-5.042c0.217,-0 0.421,0.012 0.612,0.012c1.58,0 3.209,0.138 4.863,0.421c-1.95,0.25 -3.908,0.646 -5.946,1.234c-19.071,5.637 -30.708,23.87 -35.204,43.187c-2.279,1.121 -4.65,2.367 -7.129,3.729c7.612,-24.533 22.612,-48.571 42.804,-48.583m-44.667,55.242c2.754,-1.567 5.375,-3.042 7.884,-4.38c-0.613,4.025 -1.046,8.009 -1.059,11.905c0,0.854 0.129,1.679 0.154,2.52c-3.233,1.734 -6.516,3.413 -9.904,4.967c0.609,-4.787 1.604,-9.854 2.925,-15.012m-3.612,22.216c0.025,-0.521 0.087,-1.079 0.125,-1.629c3.666,-1.604 7.258,-3.346 10.8,-5.204c0.341,2.962 0.85,5.829 1.587,8.567c0.921,3.375 2.117,6.404 3.579,9.079c-5.333,3.283 -10.67,6.379 -16.079,9.266c-0.229,-3.27 -0.346,-6.541 -0.346,-9.829c0,-3.408 0.13,-6.85 0.334,-10.25m-249.463,19.967c-14.45,-0.192 -24.637,-9.192 -24.804,-26.929c0,-0.459 0.013,-0.929 0.042,-1.438c0.012,-1.225 0.112,-2.483 0.304,-3.771c1.771,1.388 3.792,2.613 6.112,3.692c2.392,1.121 4.888,2 7.434,2.725c1.325,9.283 5.133,18.158 11.029,25.721l-0.117,-0Zm9.917,-80.975c-0.075,-0.154 -0.163,-0.283 -0.242,-0.45c0.179,-0.075 0.334,-0.15 0.509,-0.254c0.041,0.054 0.066,0.104 0.079,0.141c0.662,0.817 1.796,1.121 2.762,0.75c0.992,-0.366 1.629,-1.32 1.592,-2.379c-0,-0.054 -0.013,-0.129 -0.013,-0.166c1.109,-0.342 2.267,-0.559 3.45,-0.763c0.013,0.267 0.05,0.546 0.075,0.825c-5.229,3.071 -9.866,7.233 -14.091,12.138c-0.029,-0.03 -0.029,-0.105 -0.092,-0.142c-0.825,-0.725 -2.2,-1.963 -3.767,-3.438c1.73,-1.541 3.488,-2.916 5.23,-4.137c0.195,0.217 0.433,0.496 0.587,0.7c0.829,0.812 2.167,0.904 3.133,0.229c0.967,-0.712 1.3,-1.987 0.788,-3.054m25.325,49.35c0.062,0.187 0.117,0.367 0.179,0.546c0.942,2.9 2.088,8.187 3.642,13.612c-5.4,4.417 -11.129,8.209 -16.796,11.113c-1.438,-6.313 -2.558,-12.796 -3.625,-19.138c5.779,-1.3 11.379,-3.412 16.6,-6.133m-17.467,1.283c-0.079,-0.329 -0.116,-0.7 -0.166,-1.016c-0.892,-4.167 -1.975,-10.125 -3.517,-16.3c4.408,-0.892 8.483,-1.959 11.625,-3.092c0.879,-0.333 1.862,-0.854 2.779,-1.263c1.742,5.363 3.488,10.555 5.167,15.675c-4.938,2.65 -10.325,4.713 -15.888,5.996m20.229,-8.566c-1.679,-5.005 -3.345,-10.046 -5.041,-15.192c6.887,-3.754 14.108,-9.254 19.491,-16.042c1.467,2.496 2.309,5.167 2.309,7.946c-0,3.667 -1.275,7.675 -4.534,12.096c-3.208,4.329 -7.45,8.058 -12.225,11.192m14.234,-39.613c-1.104,-1.079 -2.317,-2.1 -3.6,-3.054c0.166,-0.154 0.329,-0.296 0.483,-0.433c1.5,0.395 2.917,0.854 4.25,1.387c-0.354,0.7 -0.725,1.413 -1.133,2.1m-2.863,4.317c-4.8,6.329 -11.496,11.725 -17.966,15.366c-1.5,-4.695 -2.355,-7.537 -2.317,-9.291c-0.038,-1.388 0.508,-2.775 1.821,-4.838c4.787,-0.804 9.5,-2.687 13.558,-5.362c1.838,1.233 3.492,2.621 4.904,4.125m-13.483,-5.396c0.6,-0.754 1.183,-1.492 1.729,-2.217c0.638,0.242 1.313,0.409 1.938,0.713c-1.171,0.637 -2.434,1.008 -3.667,1.504m0.117,-8.942c-0.817,0.038 -1.621,0.038 -2.409,0.117c-0.483,-0.117 -0.966,-0.167 -1.45,-0.254c1.604,-1.604 3.246,-2.763 4.913,-3.096c-0.229,1.237 -0.596,2.254 -1.054,3.233m-3.467,5.246c-0.329,0.446 -0.621,0.817 -0.992,1.288c-1.287,1.616 -2.366,3.016 -3.325,4.291c-0.712,0.063 -1.425,0.304 -2.112,0.304c-0.571,0 -1.121,-0.1 -1.692,-0.141c0.775,-1.4 1.667,-2.913 2.596,-4.429c1.758,-0.571 3.592,-1.034 5.525,-1.313m-7.321,10.671c-0.608,1.454 -1.017,2.862 -1.042,4.496c0.038,3.208 1.159,6.341 2.775,11.446c-0.954,0.445 -1.975,1.004 -2.891,1.312c-2.967,1.079 -6.938,2.125 -11.242,3.004c-1.517,-5.183 -3.475,-10.237 -5.996,-14.35c2.634,-3.183 5.334,-6.137 8.2,-8.521c3.154,1.746 6.659,2.513 10.196,2.613m-15.992,25.833c1.592,6.113 2.763,12.175 3.555,16.425c0.062,0.279 0.116,0.575 0.179,0.892c-3.004,0.433 -6.013,0.75 -8.992,0.75c-3.55,-0 -7.012,-0.342 -10.375,-1.004c-0.079,-1.096 -0.117,-2.192 -0.117,-3.275c0,-4.175 0.55,-8.413 1.709,-12.604l0.841,-0c4.38,-0 8.871,-0.509 13.2,-1.184m-12.4,-3.729c1.592,-4.112 3.871,-8.125 6.725,-12.021c1.667,3.146 3.105,6.938 4.35,11c-3.704,0.55 -7.458,0.967 -11.075,1.021m3.567,-16.821c0.088,0.092 0.163,0.242 0.254,0.334c-0.025,0.025 -0.037,0.037 -0.05,0.05c-4,5.191 -6.979,10.654 -8.941,16.233c-3.425,-0.292 -6.38,-0.879 -8.759,-1.883c3.729,-6.813 8.542,-13.384 13.775,-18.771c0.55,0.5 1.071,0.983 1.542,1.4c0.025,0.079 0.025,0.129 0.05,0.191c0.067,0.205 0.117,0.309 0.154,0.384c0.088,0.141 0.167,0.241 0.217,0.304c0.229,0.321 0.229,0.271 0.433,0.512c0,0.28 0.558,0.863 1.325,1.246m-10.2,21.417c-1.096,4.304 -1.617,8.633 -1.617,12.921c0,0.662 0.025,1.337 0.05,2.012c-1.691,-0.558 -3.308,-1.196 -4.875,-1.908c-2.941,-1.413 -5.27,-2.992 -7.066,-4.75c0.941,-3.463 2.304,-7.042 3.983,-10.604c2.854,1.221 6.113,1.958 9.525,2.329m4.05,21.3c3.183,0.533 6.442,0.804 9.725,0.804c3.3,0 6.583,-0.346 9.867,-0.854c1.133,6.571 2.179,13.625 3.808,20.512c-1.592,0.688 -3.171,1.309 -4.725,1.846c-2.342,0.813 -4.658,1.4 -6.887,1.796c-6.134,-6.979 -10.209,-15.296 -11.788,-24.104m15.888,28.254c1.466,-0.371 2.904,-0.817 4.395,-1.325c1.45,-0.496 2.9,-1.083 4.392,-1.692c1.158,4.071 2.633,8.017 4.529,11.738c-4.95,-2.408 -9.471,-5.271 -13.316,-8.721m175.795,21.288c0.1,-10.696 0.546,-22.217 0.546,-33.842c0,-11.104 -0.433,-22.246 -2.1,-32.658c1.492,2.05 2.942,4.225 4.479,6.287c0,0.538 0.042,1.058 0.13,1.671c0.191,1.183 1.22,2.037 2.433,2.037c0.037,0 0.112,0 0.175,-0.012c7.883,10.729 14.158,20.217 26.754,20.358c3.396,0 7.167,-0.741 11.408,-2.266c4.746,-1.746 9.738,-3.734 14.792,-5.846c-0.192,3.171 -0.329,6.379 -0.329,9.637c-0,4.088 0.15,8.213 0.546,12.3c-18.692,9.6 -38.109,16.809 -58.834,22.334m36.567,-58.825c1.742,0.55 3.538,0.791 5.346,0.791l0.217,0c6.379,-0.087 12.975,-2.762 19.275,-5.996c-1.08,4.925 -1.821,9.713 -2.317,14.196c-5.754,2.496 -11.508,4.813 -16.946,6.788c-3.858,1.412 -7.054,1.996 -9.725,1.996c-9.971,0.141 -15.458,-8.43 -24.371,-20.475c0.292,-2.417 1.325,-5.105 3.017,-7.192c1.517,-1.95 3.4,-3.208 4.892,-3.629c5.65,5.691 12.054,10.721 20.612,13.521m-96.792,-106.375c0.496,-0 1.034,0.062 1.642,0.166c3.033,0.646 4.229,2.967 4.354,6.709c0.013,2.637 -0.875,5.666 -2.275,7.829c-1.454,2.204 -3.15,3.287 -4.712,3.287c-0.817,-0.012 -1.709,-0.241 -2.854,-0.971c-2.484,-1.629 -3.642,-4.429 -3.68,-7.562c0.055,-5.029 3.109,-9.446 7.525,-9.458m-10.362,21.758c-0.025,-0.7 -0.025,-1.388 -0.025,-2.088c-0,-0.879 0.162,-1.616 0.2,-2.445c0.929,1.479 2.062,2.841 3.654,3.883c1.808,1.183 3.679,1.783 5.542,1.783c4.25,-0.229 7.321,-2.862 9.291,-6.366c-0.916,7.437 -2.15,14.87 -2.733,22.408c-0.079,1.096 0.558,2.1 1.6,2.483c1.338,0.496 2.725,0.75 4.05,0.75l0.075,0c2.675,0 5.183,-1.091 7.388,-2.837c1.079,-0.813 1.258,-2.354 0.445,-3.438c-0.841,-1.096 -2.366,-1.246 -3.45,-0.408c-1.695,1.287 -3.07,1.783 -4.458,1.783c-0.192,0 -0.392,0 -0.6,-0.012c0.717,-7.538 2.054,-15.229 2.917,-23.146c1.171,-0.217 2.304,-0.65 3.4,-1.3c1.208,5.425 6.087,9.154 12.183,9.371l0.729,-0c8.759,-0.113 13.609,-8.088 13.609,-14.959c-0,-5.554 -3.767,-11.345 -11.18,-11.345c-0.175,-0 -0.354,-0.025 -0.775,0.087c-0.508,0.117 -0.929,0.371 -1.262,0.738c-0.1,-0.025 -0.175,-0.025 -0.267,-0.025c-4.762,-0.267 -10.35,1.441 -12.529,8.266c-0.2,0.534 -0.162,1.042 -0.304,1.588c-0.354,0.154 -0.763,0.271 -1.004,0.6c-0.55,0.791 -1.338,1.35 -2.167,1.733c0.167,-2.321 0.333,-4.65 0.333,-7.004c0,-2.167 -0.079,-4.329 -0.258,-6.521c-0.1,-1.358 -1.296,-2.354 -2.633,-2.237c-1.375,0.1 -2.367,1.295 -2.254,2.658c0.129,1.579 0.166,3.158 0.191,4.75c-1.3,-2.471 -3.425,-4.496 -6.721,-5.129c-0.891,-0.179 -1.745,-0.296 -2.625,-0.296c-0.712,0.029 -1.387,0.167 -2.062,0.283c5.029,-5.616 11.996,-8.812 20.092,-9.475c0.012,0 0.05,0.025 0.075,0.025c0.037,0 0.054,-0.037 0.091,-0.037c0.879,-0.063 1.679,-0.229 2.571,-0.242c5.413,0 11.292,1.183 17.329,3.717c9.867,4.179 15.534,11.829 15.571,21.658c0,1.683 -0.167,3.4 -0.533,5.221c-3.925,19.825 -18.109,30.937 -37.104,34.275c-0.138,0.025 -0.267,-0 -0.396,0.062c-0.238,0.055 -0.446,0.13 -0.7,0.18c-1.234,0.154 -2.429,0.254 -3.563,0.254c-1.437,0.025 -2.725,-0.217 -4.037,-0.496c-0.496,-0.842 -1.296,-1.479 -2.317,-1.3l0,-0.038c-0.371,0.063 -0.65,0.142 -1.021,0.205c-9.179,-4.1 -13.825,-15.85 -14.358,-27.617m31.675,-11.508c-0,-1.046 0.229,-2.28 0.725,-3.642c2.042,-4.875 3.412,-4.75 7.933,-5.004c1.659,-0 3.629,0.087 5.796,0.087l0.254,0c1.767,1.071 2.379,3.004 2.534,5.529c-0.025,4.85 -3.542,10.059 -8.709,10.059l-0.487,-0c-5.296,-0.459 -7.954,-3.009 -8.046,-7.029m-17.708,44.191c2.379,0.842 4.9,1.454 7.766,1.479c1.388,0 2.825,-0.129 4.329,-0.345c0.421,-0.063 0.813,-0.192 1.246,-0.267c7.871,2.596 15.05,2.675 21.838,4.608c-7.717,10.467 -15.534,19.696 -28.267,22.6c-2.112,0.471 -3.983,0.663 -5.667,0.663c-11.179,-0.013 -15.087,-9.575 -15.291,-22.792c-0,-0.621 0.012,-1.233 0.054,-1.858c-0,-0.063 -0.079,-0.088 -0.079,-0.154c4.012,-1.705 8.671,-2.992 14.071,-3.934m-45.392,38.042c9.154,-14.804 15.596,-25.092 26.458,-31.521c0.167,13.521 5.246,27.108 20.179,27.133c2.1,0 4.317,-0.27 6.738,-0.804c15.237,-3.487 23.987,-14.629 31.996,-25.616c0.15,0.062 0.316,0.075 0.471,0.162c11.941,5.704 19.454,17.113 28.57,27.288c-3.591,1.808 -6.504,5.295 -8.125,9.345c-2.391,-3.462 -4.991,-7.166 -8.504,-9.983c-0.829,-0.662 -1.946,-0.712 -2.837,-0.167c-0.892,0.588 -1.325,1.659 -1.046,2.663c3.004,12.183 3.771,26.179 3.758,40.375c0.013,12.004 -0.487,24.037 -0.55,35.267c-7.729,1.925 -15.658,3.641 -23.821,5.104c-15.137,2.7 -29.741,3.783 -44.666,3.783c-5.538,0 -11.125,-0.15 -16.804,-0.421c-18.513,-0.879 -33.259,-5.791 -48.892,-12.233c16.921,-7.958 32.912,-37.067 40.846,-52.304c0.229,-0.104 0.521,-0.092 0.712,-0.292l-0.012,0c4.862,-5.196 8.058,-13.408 12.029,-16.325c1.187,9.242 1.529,18.617 1.504,28.1c0.025,13.129 -0.625,26.471 -0.65,39.992c0,1.35 1.096,2.446 2.458,2.446c1.363,-0 2.471,-1.096 2.471,-2.446c-0.012,-13.367 0.634,-26.713 0.634,-39.992c-0,-10.696 -0.405,-21.312 -1.959,-31.896c-0.104,-0.687 -0.483,-1.271 -1.021,-1.654c-0.57,-0.392 -1.245,-0.546 -1.908,-0.417c-6.392,1.638 -9.7,7.521 -12.604,12.538c-0.088,-0.013 -0.179,-0.013 -0.279,-0.013c-1.096,-2.812 -3.388,-5.004 -6.367,-5.895c0.421,-0.75 0.788,-1.525 1.221,-2.217m-31.296,49.354c3.338,-0.054 6.367,-2.112 9.463,-5.833c8.133,-10.034 12.591,-25.017 18.32,-36.963c0.038,0 0.075,-0.012 0.1,-0.012c1.925,0.012 4.459,2.816 4.496,5.362c-0.037,0.663 -0.191,1.259 -0.483,1.796c-0.013,0.063 -0,0.125 -0.013,0.2c-8.137,16.083 -29.945,53.208 -44.55,53.567c-2.57,-1.109 -5.208,-2.242 -7.895,-3.388c-1.196,-1.208 -2.392,-2.712 -3.588,-4.825c-2.204,-3.883 -3.683,-8.341 -4.979,-12.975c5.767,-2.887 11.583,-6.621 17.112,-10.937c2.496,6.687 5.259,13.562 12.017,14.008m13.358,-64.908c0,0.379 0,0.775 -0.025,1.183c-0.587,14.804 -10.291,29.625 -22.779,41.125c-1.196,-4.421 -2.179,-8.696 -3.066,-11.525c-0.155,-0.496 -0.334,-1.004 -0.513,-1.512c5.667,-3.542 10.683,-7.909 14.567,-13.08c3.754,-5.091 5.512,-10.195 5.512,-15.033c-0.087,-4.596 -1.604,-8.758 -4.1,-12.35c0.779,-1.275 1.504,-2.575 2.142,-3.9c5.117,3.188 8.208,7.996 8.262,15.092m-9.841,-30.163c0.025,0.471 0.037,0.938 0.037,1.4c0.038,2.317 -0.321,4.621 -0.996,6.888c-0.8,-0.342 -1.641,-0.638 -2.495,-0.917c1.616,-2.267 2.791,-4.75 3.454,-7.371m-22.613,-19.15c0.113,0 0.279,0 0.404,0.013c3.096,0.012 5.871,0.675 8.305,2.1c7.204,4.266 9.508,8.808 9.55,13.05c0.025,3.325 -1.555,6.85 -4.255,10.008c-1.12,-0.242 -2.266,-0.433 -3.412,-0.587c-1.017,-0.15 -1.963,-0.138 -2.992,-0.217c0.6,-1.729 1.046,-3.55 1.134,-5.792c0.062,-1.246 -0.83,-2.354 -2.075,-2.521c-0.575,-0.1 -1.159,-0.129 -1.771,-0.129c-5.259,0.217 -9.129,3.413 -12.146,7.234c-0.942,-0.05 -1.9,-0.167 -2.817,-0.167c-0.404,-0 -0.787,0.079 -1.183,0.092c-0.892,-6.1 -2.392,-12.696 -4.521,-18.538c5.554,-2.817 10.979,-4.546 15.779,-4.546m-20.183,6.963c1.758,5.133 3.133,11.025 4.025,16.529c-1.221,0.187 -2.383,0.596 -3.554,0.942c-1.171,-4.917 -3.284,-9.996 -4.696,-14.759c1.387,-0.979 2.812,-1.858 4.225,-2.712m-4.775,-9.929c0.5,0.612 0.946,1.462 1.417,2.291c-0.663,0.279 -1.325,0.559 -2,0.879c0.112,-1.095 0.179,-2.216 0.583,-3.17m-5.754,17.291c0.241,0.534 0.496,1.054 0.729,1.642c1.512,3.587 2.762,7.471 4.262,10.808c-0.179,0.063 -0.341,0.142 -0.508,0.242c-2.279,-3.779 -4.775,-7.421 -6.621,-10.988c0.7,-0.57 1.438,-1.145 2.138,-1.704m-8.784,7.663c2.392,1.654 5.538,5.066 8.188,8.125c-1.863,1.308 -3.683,2.812 -5.463,4.391c-2.787,-2.929 -5.437,-6.112 -6.583,-8.62c1.208,-1.313 2.521,-2.596 3.858,-3.896m-15.291,19.762c1.412,-3.375 4.25,-7.566 7.983,-12.008c1.629,2.967 4.008,5.742 6.404,8.15c-5.525,5.625 -10.491,12.375 -14.387,19.467c-1.529,-1.617 -2.384,-3.705 -2.396,-6.305c-0,-2.416 0.712,-5.512 2.396,-9.304m-7.625,19.059c-0.017,-2.113 0.229,-4.305 0.687,-6.546c0.659,3.25 2.329,5.716 4.634,7.591c-1.3,2.746 -2.409,5.513 -3.338,8.263c-1.375,-2.804 -1.946,-5.908 -1.983,-9.308" style="fill:#231f20;fill-rule:nonzero;"/></svg>