<?xml version="1.0" encoding="UTF-8" standalone="no"?><!DOCTYPE svg PUBLIC "-//W3C//DTD SVG 1.1//EN" "http://www.w3.org/Graphics/SVG/1.1/DTD/svg11.dtd"><svg width="100%" height="100%" viewBox="0 0 303 271" version="1.1" xmlns="http://www.w3.org/2000/svg" xmlns:xlink="http://www.w3.org/1999/xlink" xml:space="preserve" xmlns:serif="http://www.serif.com/" style="fill-rule:evenodd;clip-rule:evenodd;stroke-linejoin:round;stroke-miterlimit:2;"><path d="M267.177,259.83c3.008,0.87 6.983,1.216 11.058,1.237c4.046,-0.021 8.029,-0.367 11.054,-1.237c1.238,-0.388 2.1,-1.496 2.175,-2.78c1.046,-21.225 2.725,-43.054 2.746,-64.641c-0.021,-12.104 -0.625,-24.125 -2.104,-35.967c0.304,0.079 0.654,0.117 0.962,0.188c0.817,0.187 1.688,0.029 2.367,-0.438c0.7,-0.487 1.158,-1.212 1.317,-2.046c0.712,-4.412 1.4,-9.287 1.4,-13.7c-0.017,-3.116 -0.3,-6.029 -1.542,-8.596c-1.117,-2.595 -4.025,-4.762 -7.321,-4.645c-0.221,-0 -0.521,-0 -0.925,0.066c-1.662,0.229 -2.816,1.788 -2.571,3.459c0.259,1.67 1.8,2.808 3.48,2.558c-0,-0.017 0.016,-0 0.016,-0c1.184,0.137 1.2,0.175 1.854,1.242c0.55,1.083 0.955,3.275 0.917,5.916c0.021,2.875 -0.35,6.221 -0.833,9.554c-22.263,-4.691 -45.446,-6.591 -68.984,-6.616c-15.9,0.025 -31.975,0.887 -48.05,2.375c-42.741,3.991 -92.683,14.479 -137.183,14.471c-8.642,-0 -17.037,-0.396 -25.15,-1.296c0.029,-0.963 0.046,-1.925 0.046,-2.888c-0,-9.462 -1.213,-19.125 -3.054,-27.987c39.691,0.046 79.054,1.046 118.546,1.054c20.266,-0.008 40.575,-0.283 60.991,-1.088c22.017,-0.904 54.234,-7.425 80.55,-7.4c11.45,0 21.717,1.242 29.259,4.488c1.55,0.679 3.341,-0.033 4,-1.575c0.654,-1.554 -0.042,-3.342 -1.596,-4.021c-8.442,-3.579 -18.809,-4.825 -30.059,-4.946c-0.529,0 -1.062,-0.054 -1.604,-0.054c-3.158,0 -6.404,0.117 -9.679,0.275c-11.058,0.542 -22.629,1.863 -33.712,3.221c-0.359,-2 -0.617,-4 -0.617,-5.983c-0.017,-9.367 3.717,-18.434 8.729,-25.038c4.954,-6.662 11.321,-10.533 15.25,-10.425c3.65,0.025 7.292,2.65 7.567,15.358c-0,4.975 -0.725,11.334 -2.384,19.188c-0.358,1.642 0.68,3.267 2.321,3.617c1.671,0.354 3.292,-0.7 3.65,-2.342c1.725,-8.158 2.496,-14.892 2.496,-20.463c0,-8.312 -2.017,-14.487 -5.512,-18.02c-0.38,-0.375 -0.792,-0.68 -1.213,-0.98c-1.971,-1.545 -4.267,-2.441 -6.925,-2.441c-2.679,0.108 -5.379,1.062 -8.037,2.404c-2.242,1.117 -4.425,2.567 -6.509,4.404c-0.191,0.175 -0.391,0.292 -0.596,0.475c-8.258,7.617 -14.708,20.371 -14.92,34.263c-0,2.22 0.312,4.487 0.679,6.737c-3.954,0.504 -7.817,0.979 -11.542,1.421c-4.175,0.475 -8.204,0.917 -11.954,1.229c0.429,-0.617 0.617,-1.358 0.533,-2.062c-0.083,-0.725 -0.404,-1.425 -0.991,-1.946c-3.7,-3.075 -6.259,-9.571 -8.646,-16.6c-0.779,-2.259 -1.521,-4.55 -2.292,-6.809c-0.387,-1.091 -0.783,-2.204 -1.204,-3.304c-1.679,-4.429 -3.696,-8.733 -6.708,-11.837c-0.08,-0.1 -0.125,-0.192 -0.209,-0.254c6.809,-4.138 10.304,-9.875 10.259,-15.663c-0.146,-9.508 -7.955,-17.692 -17.563,-19.508c0.596,-0.9 1.275,-1.8 1.971,-2.696c2.554,-3.35 5.608,-6.579 8.317,-8.571c1.329,-1 1.62,-2.9 0.62,-4.25c-0.987,-1.346 -2.887,-1.642 -4.237,-0.642c-3.55,2.655 -7.167,6.517 -10.138,10.571c-1.341,1.809 -2.508,3.642 -3.45,5.442c-0.037,-0 -0.075,-0 -0.104,0.029c0.029,-0.221 -0.054,-0.425 -0.071,-0.625c0,-0.083 -0.008,-0.158 -0.029,-0.246c-0.025,-0.187 0,-0.371 -0.062,-0.554c-0.579,-1.567 -2.321,-2.375 -3.909,-1.796c-1.404,0.504 -2.662,1.138 -3.845,1.825l-0,-6.687c-0,-2.229 -0,-4.313 0.02,-5.334l0,-0.65c0,-0.645 -0.212,-1.258 -0.579,-1.783c-0.021,-0.017 -0.029,-0.025 -0.029,-0.033c-0.017,-0.029 -0.037,-0.038 -0.037,-0.059c-0.025,-0.008 -0.046,-0.041 -0.063,-0.062c-0.008,-0.021 -0.021,-0.038 -0.037,-0.046c-0.009,-0.008 -0.038,-0.054 -0.055,-0.062c-0.037,-0.046 -0.075,-0.075 -0.112,-0.113c-0.567,-0.567 -1.346,-0.9 -2.146,-0.9c-0.817,0 -1.596,0.333 -2.167,0.9c-0.558,0.558 -0.887,1.35 -0.887,2.158l-0,7.771c-0,2.504 -0,4.892 0.017,5.938c-0,1.091 0.616,2.025 1.479,2.546c-2.213,2.279 -3.846,4.929 -4.892,7.745c-0.962,2.655 -1.496,5.434 -1.479,8.159c0.012,7.283 3.462,14.691 9.592,18.646c-1.517,1.429 -2.871,3.062 -4.067,4.87c-6.304,9.48 -8.517,23.175 -8.679,32.288c-0,0.929 0.016,1.825 0.083,2.679c0.008,0.258 0.121,0.496 0.2,0.733c0.404,1.242 1.517,2.121 2.854,2.121c0.054,0 0.121,-0.008 0.192,-0.008c1.371,-0.092 2.404,-1.075 2.725,-2.342c0.067,-0.291 0.137,-0.575 0.112,-0.896l-0.012,0c-0.033,-0.733 -0.063,-1.487 -0.063,-2.287c-0.016,-6.771 1.596,-16.488 5.075,-24.104c2.13,-4.667 4.78,-8.329 7.93,-10.525c1.116,0.225 2.262,0.416 3.475,0.416c2.425,0 5.02,-0.616 7.67,-1.516c3.505,2.166 6.075,7.471 8.488,14.516c2.708,7.605 5.067,16.242 9.862,22.571c0.267,0.342 0.542,0.65 0.817,0.967c0.596,0.733 1.1,1.55 1.792,2.187c-1.059,0.059 -2.204,0.175 -3.213,0.205c-20.233,0.808 -40.325,1.083 -60.458,1.083c0.212,-0.917 0.054,-1.908 -0.613,-2.679c-0.312,-0.259 -0.908,-1.521 -1.633,-3.321c-1.717,-4.313 -4.25,-12.046 -6.387,-19.213c-1.605,-5.195 -3.163,-10.295 -4.58,-14.25c-0.183,-0.57 -0.383,-1.066 -0.579,-1.587c-0.346,-0.971 -0.704,-1.846 -1.046,-2.617c8.746,-6.633 12.134,-21.129 12.35,-31.041c0,-2 -0.162,-3.871 -0.495,-5.542c-0.246,-1.229 -1.209,-2.2 -2.467,-2.421c-2.383,-0.421 -4.742,-0.562 -7.092,-0.562c-1.258,-0 -2.533,0.05 -3.808,0.133c-1.696,0.1 -2.954,1.537 -2.833,3.246c0.108,1.662 1.558,2.937 3.229,2.825c1.137,-0.063 2.275,-0.109 3.412,-0.109c1.321,0 2.596,0.046 3.871,0.184c0.067,0.696 0.092,1.458 0.092,2.246c0.021,5.625 -1.55,13.204 -4.442,19.004c-1.696,3.404 -3.733,5.908 -5.962,7.525c-0.984,-0.288 -1.984,-0.542 -2.938,-0.542c-2.192,0.121 -4.175,0.733 -6.025,1.733c-0.829,-0.295 -1.671,-0.616 -2.608,-1.137c-3.396,-2.021 -4.534,-4.596 -4.613,-8.388c-0.333,-8.062 7.475,-19.745 14.367,-25.387c1.321,-0.625 2.504,-1.421 3.571,-2.329c0.658,-0.334 1.337,-0.709 1.933,-0.854c0.938,-0.275 1.6,-0.963 1.929,-1.825c0.246,-0.609 0.329,-1.275 0.129,-1.946c-0.075,-0.279 -0.241,-0.517 -0.379,-0.763c0.304,-1 0.496,-2.037 0.517,-3.204l-0,-0.467c-0,-1.687 -1.379,-3.054 -3.046,-3.054c-1.692,0 -3.037,1.367 -3.037,3.054l-0,0.467c0.054,1.417 -0.68,2.692 -1.93,3.8c-0.566,0.342 -1.129,0.8 -1.695,1.175c-0.184,0.108 -0.413,0.2 -0.617,0.304c-0.863,0.421 -1.796,0.779 -2.925,1.071l-0,-6.817c-0,-1.687 -1.367,-3.045 -3.046,-3.045c-1.679,-0 -3.021,1.358 -3.021,3.045c-0.016,1.48 0,2.975 -0.016,4.442l-0,6.146c-0,0.058 0.037,0.104 0.037,0.158c0,0.063 -0.021,0.109 -0.021,0.167c0.021,0.054 0.067,0.083 0.067,0.146c0.117,0.687 0.421,1.304 0.904,1.75c0.058,0.029 0.083,0.046 0.129,0.075c0.084,0.083 0.184,0.129 0.288,0.191c-4.121,4.921 -7.434,10.859 -9.075,16.884c-0.625,2.287 -1.084,4.571 -1.146,6.816c-0.092,5.275 2.3,10.692 7.671,13.684c0.062,0.025 0.125,0.054 0.191,0.079c-3.32,3.458 -6.175,8.004 -8.9,12.546c-4.15,7.266 -7.525,15.062 -9.616,19.825c-0.563,1.25 -1.038,2.333 -1.404,3.104c-0.725,1.512 -0.084,3.337 1.441,4.046c1.529,0.733 3.338,0.083 4.063,-1.434l-0.009,0c0.038,-0.108 0.1,-0.229 0.159,-0.32c1.925,-4.146 5.771,-13.617 10.658,-22.175c0.7,-1.313 1.45,-2.542 2.229,-3.755c2.609,-4.091 5.463,-7.495 8.029,-9.57c0.784,0.12 1.571,0.35 2.35,0.35l0.075,-0c1.442,-0.084 2.771,-0.388 4.063,-0.771c1.146,2.791 2.854,8.016 4.633,13.716c0.596,1.892 1.196,3.809 1.763,5.717c2.1,6.596 3.929,12.792 5.771,17.304c0.654,1.617 1.304,3.013 1.983,4.113c-0.396,-0 -0.763,-0.013 -1.121,-0.021c-2.129,-0 -4.275,-0.033 -6.404,-0.033c-16.596,-0.092 -33.167,-0.23 -49.788,-0.442c-0.016,-3.533 -0.07,-7.121 -0.208,-10.717c-0.617,-14.791 -2.862,-29.616 -11.525,-39.529c-0.571,-0.65 -1.158,-1.283 -1.792,-1.871c2.913,-1.137 5.325,-2.671 7.271,-4.466c4.275,-3.867 6.384,-8.988 6.292,-14.18c-0.025,-4.283 -1.304,-8.604 -3.567,-12.341c-0.562,-0.934 -1.241,-1.817 -1.929,-2.671c0.579,-0.133 1.167,-0.271 1.746,-0.429c7.267,-1.888 14.304,-4.525 20.1,-6.275c1.608,-0.496 2.504,-2.192 2.029,-3.8c-0.504,-1.604 -2.183,-2.504 -3.792,-2.021c-5.712,1.762 -12.283,4.133 -18.787,5.904c-2.367,0.642 -4.725,1.2 -7.029,1.604c-2.709,-1.679 -5.809,-2.746 -9.242,-2.971c0.488,-1.891 1.267,-3.616 2.288,-5.233c1.054,-1.704 2.283,-3.292 3.87,-4.642c1.267,-1.091 1.434,-3.037 0.338,-4.304c-1.092,-1.283 -3.008,-1.429 -4.292,-0.337c-2.379,2.016 -4.241,4.479 -5.716,7.166c-1.359,2.459 -2.342,5.121 -2.825,7.984c-1.321,0.346 -2.625,0.771 -3.93,1.391c-2.887,0.588 -5.512,1.909 -7.854,3.688c-0.633,-2.071 -1.312,-3.971 -2.071,-5.779c-0.22,-0.588 -0.45,-1.267 -0.7,-1.809c-1.879,-3.716 -2.579,-5.979 -5.32,-7.779c-1.513,-0.754 -3.342,-0.121 -4.092,1.404c-0.708,1.413 -0.183,3.1 1.137,3.917c0.017,0.008 0.025,0.008 0.025,0.008c0.655,0.65 2.68,4.534 4.396,9.196c0.663,1.863 1.288,3.817 1.763,5.771c-3.375,4.504 -5.404,10.158 -5.513,15.563c0,2.045 0.359,4.1 1.054,6.045c0.842,2.359 2.184,4.596 4.213,6.43c1.971,1.762 4.483,3.075 7.467,3.95c0.137,0.05 0.295,0.05 0.433,0.108c-0.038,0.025 -0.067,0.046 -0.113,0.062c-7.825,4.855 -12.333,11.792 -15.587,19.846c-1.367,3.609 -1.625,9.892 -1.879,15.988c-0.021,0.962 -0.05,1.833 -0.075,2.741c-0.038,1.925 -0.067,3.755 -0.092,5.155c0,0.279 -0.008,0.554 -0.008,0.8c-0.121,0.366 -0.184,0.745 -0.175,1.15c0.025,0.575 0.062,0.995 0.071,1.3c0.02,0.166 0.02,0.275 0.045,0.45c0.013,0.083 0.013,0.145 0.038,0.358c0.029,0.092 0.054,0.212 0.175,0.496c0.258,0.091 -0.121,1.396 2.837,1.941c2.459,-0.308 2.596,-1.65 2.78,-1.804c0.495,-1.633 0.162,-0.954 0.275,-1.441c-0,-0.071 0.008,-0.275 0.008,-0.384c0.008,-3.358 0.212,-21.5 1.633,-24.446c2.846,-6.862 5.892,-12.029 11.221,-15.9c0.275,-0.008 0.479,-0.245 0.742,-0.35c0.458,-0.145 0.946,-0.229 1.287,-0.583c0.313,-0.158 0.992,-0.471 1.634,-0.708c0.437,-0.175 0.9,-0.367 1.3,-0.567c0.212,-0.096 0.404,-0.196 0.691,-0.358c0.109,-0.35 0.675,-0.092 1.192,-1.442c0.121,-0.312 0.237,-0.671 0.35,-1.204c0.071,-0 0.117,0.021 0.2,0.021l0.092,-0c1,-0 2.037,-0.029 3.108,-0.092c1.067,-0.054 1.992,-0.25 2.992,-0.379c0.966,0.662 1.883,1.371 2.754,2.167c1.908,1.77 3.504,3.87 4.871,6.22c5.204,8.984 6.866,21.571 7.212,34.838c0.075,2.35 0.083,4.717 0.092,7.075c-0.55,-0 -1.092,-0 -1.634,-0.008c-6.366,-0.084 -12.779,-0.1 -19.166,-0.163c-10.571,-0.112 -21.084,-0.287 -31.692,-0.287c-1.696,-0 -3.046,1.366 -3.046,3.058c0,0.483 0.138,0.925 0.346,1.346c-0.283,0.579 -0.421,1.229 -0.283,1.937l-0,-0.021c1.875,8.813 3.121,18.488 3.1,27.796c-0,1.55 -0.063,3.1 -0.117,4.625c-0.662,-1.296 -2.137,-2 -3.579,-1.554c-1.008,0.321 -1.679,1.142 -1.954,2.075c-0.154,0.55 -0.229,1.154 -0.038,1.771l0,-0.017c0.829,2.567 1.479,5.254 2.038,8c1.9,9.092 2.571,19.009 2.554,29.325c0.017,18.129 -1.929,37.342 -1.929,55.234c-0,4.187 0.121,8.287 0.366,12.325c0.084,0.954 0.596,1.825 1.413,2.358c0.496,0.312 1.067,0.467 1.633,0.467c0.367,-0 0.734,-0.063 1.084,-0.192c11.479,-4.329 24.95,-6.35 38.15,-7.892c1.029,-0.108 1.9,-0.725 2.387,-1.621c0.458,-0.929 0.429,-1.983 -0.054,-2.883c-6.296,-11.242 -9.267,-31.271 -9.233,-50.321c-0,-11.641 1.058,-22.937 2.9,-31.716c0.487,0.533 1.25,1.075 2.054,1.558c0.129,0.083 0.196,0.175 0.325,0.258c1.879,6.046 3.162,12.092 4.037,18.167c2.292,16.058 1.925,32.433 2.842,50.421c0.008,0.366 0.229,0.637 0.358,0.933c0.35,0.883 0.963,1.617 1.879,1.863c0.159,0.045 0.288,0.058 0.45,0.1c5.084,1.341 9.792,2.091 14.525,2.075l0.138,-0c4.829,-0 9.6,-0.763 14.812,-2.221c0.955,-0.246 1.705,-0.934 2.055,-1.854c0.345,-0.925 0.22,-1.955 -0.313,-2.771c-4.167,-6.421 -10.608,-10.909 -20.287,-11.742c-2.375,-17.058 -1.025,-40.958 -5.567,-58.725c-0.663,-2.625 -1.471,-5.1 -2.433,-7.429c-0.075,-0.188 -0.121,-0.388 -0.192,-0.583c-0.075,-0.125 -0.183,-0.225 -0.267,-0.346c11.579,-0.634 23.304,-1.771 35.042,-3.167c-0.396,0.396 -0.717,0.863 -0.838,1.45c-0.116,0.542 -0.1,1.138 -0.145,1.692c-0.017,0.329 -0.075,0.666 -0.092,1.025c-0,0.266 -0.054,0.475 -0.054,0.779c0.016,4.258 0.725,10.854 1.45,17.392c-3.013,-5.717 -6.417,-11.546 -11.213,-16.28c-0.287,-0.304 -0.525,-0.616 -0.808,-0.9c-1.258,-1.137 -3.167,-1.045 -4.313,0.192c-0.466,0.508 -0.604,1.175 -0.641,1.808c-0.084,0.93 0.108,1.834 0.854,2.496c6.521,5.892 10.442,15.646 15.542,24.396c-4.634,1.688 -7.321,4.408 -9.321,4.746c-1.013,0.267 -1.838,1.046 -2.121,2.046c-0.292,1.008 -0.083,2.083 0.604,2.891c1.825,2.13 3.863,3.667 5.938,4.771c2.42,1.3 4.954,1.971 7.379,1.971l0.041,0c9.167,-0.237 16.409,-7.45 16.684,-15.046c0.054,-2.671 -1.221,-5.525 -3.709,-7.296c-0.491,-0.366 -1.2,-0.52 -1.795,-0.816c-1.825,-0.909 -4.021,-1.479 -6.625,-1.642c-0.855,-7.8 -1.871,-16.221 -1.846,-20.729c-0,-0.942 0.054,-1.633 0.108,-1.963c0.013,-0.054 0.021,-0.175 0.021,-0.212c0.275,-1.3 -0.329,-2.567 -1.404,-3.229c5.525,-0.688 11.05,-1.375 16.541,-2.138c0.038,0.834 0.075,1.709 0.138,2.625c0.396,5.779 1.571,13.167 3.442,19.892c1.87,5.754 3.487,11.304 6.883,14.45c1.392,1.304 3.1,2.229 5.296,2.517c2.254,-0.155 4,-1.184 5.604,-2.792c0.029,-0.025 0.046,-0.046 0.075,-0.071c1.954,-2.037 3.612,-5.037 5.346,-9.067c0.425,-1 0.266,-2.145 -0.392,-3c-0.642,-0.854 -1.717,-1.312 -2.779,-1.175c-0.433,0.046 -0.938,0.084 -1.517,0.084l-0.037,-0c-2.175,-0 -4.992,-0.442 -7.725,-0.763c-0.071,-2.65 -0.129,-6.046 -0.192,-9.321c-0.029,-2.625 -0.067,-5.158 -0.092,-7.158c-0.008,-1.625 -0.008,-2.917 -0.016,-3.604c0.025,-0.167 0.016,-0.246 0.008,-0.275c0.063,-0.892 -0.221,-1.792 -0.9,-2.442c-1.183,-1.183 -3.112,-1.183 -4.304,0c-0.367,0.542 -0.596,0.917 -0.717,1.221c-0.421,0.833 0,0.742 -0.183,0.933l-0,0.196c-0,1.192 0.037,7.1 0.15,12.979c-1.05,-4.933 -1.738,-9.916 -1.954,-13.733c-0.067,-0.854 -0.084,-1.617 -0.084,-2.321c9.755,-1.358 19.367,-2.7 28.8,-3.946c-0.558,0.938 -0.604,2.13 -0.008,3.13c1.183,1.916 2.283,4.504 3.313,7.366c4.037,11.379 6.808,28.821 8.237,42.292c-7.083,3.954 -7.833,9.55 -10.808,12.412c-0.742,0.792 -0.971,1.871 -0.713,2.9c0.284,1.013 1.054,1.8 2.071,2.13c2.092,0.604 4.092,0.9 5.983,0.9l0.155,-0c7.608,-0 12.562,-5.563 14.82,-12.184c2.43,-6.762 3.1,-15.233 3.13,-23.729c-0.03,-9.287 -0.863,-18.7 -1.459,-25.471c-0.312,-3.641 -0.541,-6.554 -0.541,-8.204c-0,-1.679 -1.388,-3.046 -3.059,-3.046c-1.696,0 -3.016,1.367 -3.016,3.046c-0,1.938 0.229,4.913 0.533,8.45c0.575,6.867 1.429,16.067 1.429,25.225c0.029,8.154 -0.725,16.146 -2.733,21.646c-2.167,5.492 -4.625,8.017 -8.992,8.162c2.008,-3.283 2.971,-5.65 7.671,-7.641c1.221,-0.542 1.954,-1.792 1.817,-3.121c-1.434,-13.367 -3.817,-30.967 -8.15,-43.975c-1.321,-3.929 -2.788,-7.496 -4.496,-10.342c-0.138,-0.221 -0.321,-0.366 -0.504,-0.541c8.22,-1.075 16.341,-2.067 24.112,-2.78c3.517,-0.325 7.029,-0.495 10.533,-0.762c-0.025,0.137 -0.079,0.25 -0.079,0.383c0,4.25 0.009,8.563 0.009,12.867l-0,0.267c-0,19.633 -0.442,39.57 -4.875,57.162c-0.23,0.925 -0.009,1.933 0.6,2.679c0.595,0.754 1.537,1.146 2.495,1.121c0.375,-0.021 0.759,-0.046 1.138,-0.046c1.796,0 3.758,0.146 5.871,0.146c0.962,0 1.946,-0.046 2.962,-0.121c0.809,-0.071 1.55,-0.45 2.084,-1.083c0.533,-0.625 0.779,-1.421 0.695,-2.229c-1.008,-10.609 -4.395,-25.717 -4.358,-39.896c-0.037,-6.763 0.875,-13.138 2.913,-18.717c1.016,-2.771 2.208,-5.404 3.9,-7.687c1.008,-1.342 0.733,-3.259 -0.625,-4.25c-1.35,-1 -3.259,-0.725 -4.259,0.616c-0.916,1.23 -1.716,2.505 -2.441,3.834c-0.009,-1.571 -0.009,-3.121 -0.009,-4.663c0,-0.291 -0.083,-0.541 -0.166,-0.804c10.425,-0.671 20.812,-1.146 31.095,-1.146c0.717,0 1.434,0.034 2.138,0.034c-0.733,0.533 -0.863,1.075 -1.246,1.22c-0.321,0.284 -0.321,0.246 -0.321,0.296l-0.121,0c-1.687,0 -3.054,1.354 -3.054,3.063c0,1.671 1.367,3.029 3.054,3.029l0.121,-0c0.504,-0 0.934,-0.067 1.367,-0.167c-0.321,1.184 -0.588,2.304 -0.883,3.463c-1.359,5.275 -2.588,10.375 -3.688,15.321c-4.337,19.487 -6.825,37.354 -8.246,60.504c-4.462,2.079 -6.691,4.587 -10.104,5.291c-1.479,0.359 -2.487,1.763 -2.329,3.284l-0.008,0.029c-0,0.146 0.008,0.379 0.008,0.658c-0,0.946 -0.008,2.434 -0.008,3.692c-0.042,0.633 -0.046,1.2 -0.046,1.604l-0,0.421c-0.196,1.533 0.796,2.967 2.312,3.325c2.95,0.742 5.613,1.092 8.025,1.092c6.517,0.108 11.479,-3.013 13.875,-7.625c2.45,-4.534 2.984,-10.067 3,-15.921c0,-8.471 -1.291,-17.746 -1.291,-24.938c-0,-2.937 0.216,-5.5 0.741,-7.35c2.442,-9.991 13.746,-28.929 24,-38.658c-6.154,11.692 -13.146,24.142 -16.65,37.192c-0.975,3.633 -1.266,7.587 -1.266,11.679c-0,8.475 1.266,17.646 1.266,25.571c0.017,7.258 -1.15,13.129 -4.304,16.525c-0.733,0.779 -0.983,1.9 -0.696,2.925c0.313,1.029 1.138,1.82 2.184,2.091c1.558,0.388 3.025,0.625 4.429,0.792c0.946,0.108 1.891,0.204 2.754,0.204l0.321,0c5.321,0 9.596,-2.525 11.754,-6.333c0.558,-0.954 1.008,-1.954 1.383,-3.009c1.1,-3.145 1.404,-6.662 1.434,-10.35c-0.03,-10.266 -2.717,-22.387 -2.671,-29.958c-0,-0.442 -0,-0.879 0.037,-1.237c0.984,-20.73 8.113,-34.271 15.496,-54.167c0.083,-0.2 0.158,-0.383 0.229,-0.583c0.059,-0.159 0.038,-0.296 0.067,-0.45c6.946,0.833 13.792,1.895 20.571,3.208c1.612,12.112 2.221,24.546 2.221,37.146c-0,20.504 -1.534,41.433 -2.609,62.025c-2.025,0.35 -4.658,0.55 -7.254,0.55c-2.6,-0 -5.258,-0.2 -7.271,-0.55c-0.687,-12.013 -2.358,-30.984 -2.358,-48.942c-0.229,-20.067 2.625,-39.017 8.937,-43.787c1.28,-1.063 1.45,-2.992 0.359,-4.275c-1.075,-1.305 -2.992,-1.475 -4.275,-0.384c-4.2,3.742 -6.742,9.642 -8.367,16.738c-2.092,9.091 -2.633,20.162 -2.737,31.708l-0,1.017c0.058,19.225 1.929,39.2 2.479,50.541c0.075,1.284 0.946,2.392 2.175,2.78m-117.767,-198.421c0.008,-1.717 0.238,-3.404 0.725,-5.038c1.183,0.471 2.604,0.138 3.467,-0.925c2.158,-2.633 4.396,-4.221 6.654,-5.175c1.762,-0.746 3.533,-1.137 5.258,-1.146c7.863,0.009 15.159,7.184 15.167,13.817c-0.067,3.925 -2.138,8.167 -9.479,11.808c-0.221,0.1 -0.404,0.138 -0.642,0.23c-1.029,-0.321 -2.083,-0.55 -3.275,-0.671c-0.342,-0.017 -0.746,-0.025 -1.129,-0.025c-2.204,0.091 -4.221,0.55 -6.083,1.246c-0.505,0.191 -0.992,0.387 -1.488,0.608c-5.679,-2.021 -9.112,-8.013 -9.175,-14.729m-118.087,-23.471c0.816,0.229 1.725,0.137 2.475,-0.367c0.616,-0.387 1.22,-0.733 1.8,-1.046c0.345,-0.029 0.687,-0.054 1.008,-0.054c0.304,0 0.604,0.084 0.9,0.117c0.1,0.142 0.183,0.25 0.283,0.371c0.138,0.146 0.267,0.291 0.425,0.408c0.138,0.113 0.292,0.204 0.459,0.288c0.183,0.1 0.366,0.183 0.575,0.245c0.104,0.03 0.175,0.084 0.275,0.105c0.166,0.037 0.358,0.016 0.533,0.054c0.008,-0 0.017,0.016 0.046,0.016l0.066,0c1.742,0.275 3.513,0.45 5.3,0.45c1.992,0 4.013,-0.2 6.038,-0.466c4.012,3.283 6.679,8.512 6.7,13.641c-0.192,6.105 -3.221,11.863 -13.563,14.005c-1.07,-0.625 -2.175,-1.23 -3.383,-1.755c-1.542,-0.65 -3.333,0.084 -3.975,1.634c-0.129,0.283 -0.146,0.571 -0.175,0.879c-12.604,-0.367 -15.387,-5.338 -15.671,-11.558c-0.029,-3.955 1.725,-8.517 4.442,-12.075c0.45,-0.296 0.762,-0.709 1.008,-1.196c1.367,-1.504 2.863,-2.813 4.434,-3.696m72.412,160.058c0.046,1.513 -1.046,3.942 -3.075,5.796c-2.008,1.883 -4.754,3.158 -7.517,3.158c-1.795,-0.008 -3.679,-0.495 -5.641,-1.833c2.287,-1.333 4.266,-2.671 6.929,-3.271c0.396,0.159 0.779,0.267 1.212,0.267l0.217,-0c1.679,-0.108 2.946,-1.567 2.838,-3.238c-0.075,-1.375 -0.221,-2.916 -0.367,-4.541c4.908,0.566 5.267,2.166 5.404,3.662m26.588,-8.625c-0.675,1.2 -1.292,2.129 -1.834,2.742c-1.083,1.258 -1.596,1.267 -1.612,1.258c-0.075,0.038 -1.221,-0.396 -2.592,-2.833c-0.354,-0.583 -0.687,-1.271 -1.033,-1.992c1.979,0.184 4.512,0.604 7.071,0.825m-79.963,-22.5c-0.083,0.55 -0.075,1.121 0.175,1.671l-0.008,0c0.887,2.029 1.65,4.296 2.291,6.742c4.388,16.921 2.93,42.679 5.83,60.916c0.229,1.45 1.458,2.517 2.916,2.571c7.45,0.329 11.746,2.221 15.1,5.642c-3.062,0.604 -5.933,0.908 -8.771,0.908c-3.604,0 -7.229,-0.487 -11.229,-1.429c-1.029,-22.271 -0.1,-42.962 -5.975,-64.367c-0.712,-2.633 -1.496,-5.275 -2.437,-7.937c-0.571,-1.588 -2.304,-2.404 -3.892,-1.846c-0.046,0.021 -0.083,0.067 -0.146,0.083c-0.083,-0.083 -0.15,-0.145 -0.241,-0.229c-0.788,-0.687 -1.909,-1.3 -3.275,-1.229c-0.817,0 -1.55,0.138 -2.3,0.388c-1.021,0.3 -1.809,1.129 -2.059,2.145c-2.521,9.88 -3.908,23.13 -3.916,36.846c0.045,17.788 2.291,36.254 8.045,49.304c-10.616,1.338 -21.45,3.092 -31.454,6.346c-0.091,-2.566 -0.125,-5.2 -0.125,-7.891c-0.037,-17.45 1.917,-36.68 1.917,-55.234c-0,-12.746 -1.013,-25.133 -4.175,-36.491c0.458,0.441 1.025,0.779 1.679,0.87c9.296,1.175 18.871,1.663 28.7,1.663c4.488,-0 9.054,-0.183 13.625,-0.358c-0.146,0.275 -0.237,0.595 -0.275,0.916m136.788,52.592c0.57,-2.613 1.066,-5.246 1.487,-7.904c0.429,2.85 0.833,5.529 1.129,7.979c-0.837,-0.025 -1.716,-0.054 -2.616,-0.075m22.066,30.071c-1.221,0.016 -2.633,-0.113 -4.212,-0.384c0.012,-0.8 0.012,-1.645 0.012,-2.433c4.521,-1.754 6.9,-4.45 10.284,-5.525c1.166,-0.421 1.945,-1.479 2.037,-2.717c0.479,-7.945 1.054,-15.245 1.771,-22.166c0.396,5.35 0.9,10.846 0.9,15.8c-0.388,11.304 -1.808,17.362 -10.792,17.425m34.217,-42.654c-0.017,0.475 -0.017,1.062 -0.017,1.612c0.009,8.717 2.659,20.633 2.634,29.958c-0.38,9.23 -1.638,13.442 -8.792,13.596c-0.404,0 -0.833,-0.016 -1.283,-0.062c2.42,-4.792 2.987,-10.517 3,-16.379c-0,-8.505 -1.275,-17.692 -1.267,-25.571c-0,-3.8 0.312,-7.25 1.071,-10.121c2.746,-10.379 8.158,-20.783 13.571,-31.033c-4.521,11.775 -8.2,23.179 -8.917,38m-0.375,-47.742c-1.608,1.633 -3.158,3.358 -4.671,5.221c-6.258,7.662 -11.746,16.883 -15.342,24.9c1.871,-10.109 4.3,-20.329 7.296,-31.684c0.263,-0.97 0.475,-1.9 0.742,-2.895l-0.075,-1.792c-0.55,-1.083 -0.704,-2.321 -1.888,-3.246c8.313,0.138 16.58,0.513 24.746,1.208c-3.662,1.855 -7.304,4.68 -10.808,8.288" style="fill:#231f20;fill-rule:nonzero;"/><path d="M241.678,69.329c3.433,-0 7.175,-0.746 11.266,-2.313c12.113,-4.562 17.617,-12.946 17.538,-21.287c-0.038,-2.8 -0.7,-5.504 -1.671,-8.1c-3.617,-9.463 -12.692,-16.888 -22.388,-17.088c-3.716,-0.054 -7.454,1.238 -10.654,3.871c-9.825,2.25 -14.571,12.425 -14.487,21.838c0.008,6.691 2.504,13.875 7.633,18.425c3.221,2.833 7.433,4.654 12.763,4.654m-10.305,-34.6c0.138,0.1 0.25,0.225 0.405,0.3c0.137,0.083 0.304,0.096 0.458,0.158c1.367,0.475 2.946,-0.029 3.687,-1.35c0.855,-1.512 1.746,-2.754 2.671,-3.725c0.067,-0.008 0.121,-0.008 0.175,-0.008c0.167,-0.021 0.284,-0.138 0.442,-0.175c1.092,-0.267 2,-1.021 2.283,-2.084c1.571,-0.845 3.221,-1.204 4.929,-1.22c4.025,-0.034 8.634,2.258 12.159,5.975c0.904,0.933 1.725,1.962 2.446,3.045c2.112,3.121 3.37,6.696 3.358,10.084c-0.092,5.671 -3.092,11.396 -13.642,15.587c-3.504,1.35 -6.525,1.921 -9.066,1.921c-5.284,-0.008 -8.971,-2.462 -11.313,-6.112c-1.908,-3.009 -2.917,-6.817 -3.008,-10.875c0.054,-4.238 1.162,-8.1 3.1,-11.038c0.183,-0.246 0.329,-0.567 0.512,-0.825c0.113,0.146 0.275,0.229 0.404,0.342" style="fill:#231f20;fill-rule:nonzero;"/><path d="M236.366,8.192c-3.43,-0.534 -7.109,-0.909 -10.725,-0.909c-5.342,0.017 -10.563,0.734 -14.867,3.221c-4.329,2.442 -7.367,7.163 -7.283,13.267c-0,1.929 0.258,3.971 0.787,6.212c0.275,1.13 1.204,2.017 2.321,2.267c0.433,0.092 0.837,0.171 1.242,0.238c-2.755,8.341 -8.967,19.662 -9.075,29.525c-0.305,7.02 4.145,13.387 13.479,15.62c-0.054,0.23 -0.084,0.484 -0.121,0.771c-0.204,2 2.183,3.513 2.937,3.513c1.292,0.237 1.946,0.1 2.45,0.183c0.171,0.017 0.275,0.029 0.338,0.054c0.596,0.588 1.387,0.9 2.167,0.9c0.725,0 1.458,-0.266 2.037,-0.779c1.263,-1.129 1.375,-3.058 0.238,-4.304c-0.78,-0.817 -1.605,-1.304 -2.405,-1.579c0.284,-0.725 0.284,-1.534 -0.02,-2.254c-0.409,-1.03 -1.355,-1.746 -2.446,-1.875c-10.867,-1.642 -12.234,-4.805 -12.584,-10.25c-0.125,-8.346 7.288,-21.321 9.8,-31.113c0.205,-0.817 0.059,-1.658 -0.404,-2.367c-0.429,-0.708 -1.154,-1.191 -1.979,-1.35c-0.8,-0.162 -1.608,-0.32 -2.412,-0.487c-0.175,-1.063 -0.259,-2.033 -0.259,-2.925c0.009,-7.963 6.192,-10.1 16.059,-10.404c1.941,-0 3.945,0.154 5.945,0.366c-0.287,0.367 -0.6,0.688 -0.854,1.055c-0.946,1.395 -0.596,3.295 0.8,4.241c1.409,0.925 3.284,0.575 4.238,-0.816c5.441,-8.013 14.725,-12.105 24.662,-12.134c1.021,0.021 2.046,0.067 3.067,0.15c-0.221,1.354 -0.275,2.55 -0.275,3.596c-0,1.229 0.054,2.238 0.054,3.038c-0.167,2.07 0.221,2.604 -4.642,6.641c-0.983,0.725 -1.379,1.984 -1.083,3.175c0.3,1.167 1.267,2.046 2.467,2.259c11.516,2.075 14.646,7.779 14.891,15.32c0,0.663 -0.083,1.359 -0.137,2.067c-0.725,7.946 -5.808,17.121 -12.092,22.242c-0.8,0.65 -1.204,1.65 -1.104,2.679c0.138,1.025 0.738,1.908 1.671,2.396c0.717,0.371 1.229,0.75 1.808,1.125c3.388,2.229 4.742,4.616 4.754,6.954c0,0.662 -0.15,1.404 -0.387,2.167c-0.521,1.725 -1.679,3.645 -3.717,5.67c-0.062,0.071 -0.1,0.138 -0.175,0.205c-1.229,1.162 -1.237,3.108 -0.079,4.308c0.192,0.196 0.421,0.296 0.633,0.433c0.496,0.296 1.009,0.496 1.559,0.496c0.771,0 1.541,-0.292 2.137,-0.862c2.479,-2.413 4.213,-5.063 5.192,-7.809c0.542,-1.512 0.921,-3.029 0.921,-4.608c0.016,-3.925 -1.929,-7.458 -5.138,-10.292c-0.387,-0.329 -0.708,-0.708 -1.15,-1.029c2.992,-3.1 5.488,-6.854 7.45,-10.862c2.388,-4.863 3.921,-10.105 3.946,-15.28c0.213,-8.375 -4.421,-16.516 -14.296,-19.975c2.084,-2.616 2.8,-5.162 2.663,-7.42c-0,-1.092 -0.063,-2.05 -0.063,-3.038c0,-0.229 0.042,-0.504 0.054,-0.737c0.055,-1.255 0.2,-2.65 0.809,-4.5c0.246,-0.838 0.146,-1.755 -0.296,-2.509c-0.475,-0.75 -1.213,-1.266 -2.083,-1.429c-2.459,-0.433 -4.946,-0.65 -7.359,-0.65c-2.925,0 -5.808,0.308 -8.616,0.925c-5.588,1.229 -10.825,3.65 -15.213,7.358c-0.071,-0.029 -0.146,-0.083 -0.237,-0.091" style="fill:#231f20;fill-rule:nonzero;"/></svg>