<?xml version="1.0" encoding="UTF-8" standalone="no"?><!DOCTYPE svg PUBLIC "-//W3C//DTD SVG 1.1//EN" "http://www.w3.org/Graphics/SVG/1.1/DTD/svg11.dtd"><svg width="100%" height="100%" viewBox="0 0 331 206" version="1.1" xmlns="http://www.w3.org/2000/svg" xmlns:xlink="http://www.w3.org/1999/xlink" xml:space="preserve" xmlns:serif="http://www.serif.com/" style="fill-rule:evenodd;clip-rule:evenodd;stroke-linejoin:round;stroke-miterlimit:2;"><path d="M327.251,60.945c2.362,-4.208 3.462,-8.5 3.458,-12.996c0,-1.233 -0.075,-2.483 -0.229,-3.75c-0.554,-4.037 -2.137,-7.133 -2.075,-9.758c0.008,-0.792 0.113,-1.563 0.417,-2.388c0.425,-1.183 -0.196,-2.495 -1.375,-2.929c-1.196,-0.429 -2.513,0.184 -2.934,1.379l-0.008,-0.008c-0.112,0.313 -0.162,0.621 -0.246,0.929c-9.404,7.4 -24.75,11.938 -32.308,23.05c-2.442,3.713 -3.654,9.067 -3.675,14.521c0.021,4.975 1.054,10.083 3.796,13.917c-1.721,0.937 -3.438,2.05 -5.138,3.283c-4.391,3.175 -8.725,7.246 -12.929,11.958c-3.417,3.834 -6.754,8.071 -9.967,12.567c-0.241,0.338 -0.491,0.683 -0.733,1.021c-0.992,1.412 -1.975,2.854 -2.938,4.304c-0.345,-0.187 -0.691,-0.296 -1.062,-0.3c-0.642,-0.004 -1.283,0.229 -1.738,0.746c-0.704,0.792 -0.72,1.904 -0.17,2.746c0.07,0.112 0.15,0.229 0.25,0.333c0.041,0.046 0.062,0.108 0.112,0.158c0.038,0.03 0.096,0.067 0.133,0.1c-0.279,0.442 -0.562,0.888 -0.841,1.334c-0.929,1.475 -1.846,2.962 -2.75,4.458c-0.246,0.425 -0.508,0.838 -0.754,1.263c-12.534,21.337 -21.605,43.87 -22.584,55.629c-0.025,0.346 0.03,0.683 0.146,0.983c-0.021,0.05 -0.037,0.1 -0.046,0.15c-0.629,2.088 -0.945,3.817 -0.954,5.342c0,1.496 0.325,2.925 1.304,4.05c0.963,1.125 2.405,1.554 3.617,1.554c0.021,-0 0.038,-0 0.063,-0.004c3.291,-0.121 6.695,-2.05 10.137,-4.413c0.646,-0.446 1.292,-0.9 1.942,-1.362c4.025,-3.009 7.587,-6.288 9.216,-8.338c7.284,-9.258 11.271,-18.541 16.075,-28.129c0.663,-1.321 1.342,-2.65 2.042,-3.987c3.538,-6.746 6.454,-14.25 9.129,-21.863c0.113,-0.3 0.213,-0.604 0.321,-0.904c0.033,-0.038 0.088,-0.063 0.121,-0.096c0.55,-0.542 0.721,-1.287 0.608,-2c2.2,-6.408 4.271,-12.825 6.425,-18.9c2.559,-7.217 5.25,-13.912 8.429,-19.487c0.305,-0.059 0.6,-0.163 0.855,-0.346c0.758,-0.538 1.554,-1.084 2.333,-1.625c8.921,-6.163 19.083,-12.621 24.525,-22.192m-3.083,-23.408c-0.117,-0.067 -0.225,-0.15 -0.35,-0.2c0.1,-0.054 0.195,-0.125 0.291,-0.188c0.017,0.129 0.034,0.267 0.059,0.388m-4.009,6.116c-2.841,4.667 -5.133,9.096 -8.725,13.375c-2.841,3.434 -6.454,7.05 -9.746,10.892c3.555,-9.296 10.592,-19.192 18.471,-24.267m-24.391,13.359c3.4,-5.254 9.67,-9.05 16.37,-12.825c-9.854,9.054 -16.845,23.108 -17.433,34.216c-1.208,-2.595 -1.862,-5.958 -1.842,-9.408c-0.029,-4.717 1.192,-9.483 2.905,-11.983m-42.98,120.625c-1.1,1.416 -4.637,4.746 -8.35,7.496c-3.658,2.812 -7.97,5.008 -9.345,4.87c-0.13,0 -0.213,-0.016 -0.259,-0.029c-0.046,-0.1 -0.137,-0.412 -0.137,-0.987c-0.004,-0.846 0.204,-2.213 0.754,-4.034c0.146,-0.495 0.117,-1 -0.05,-1.45c0.071,-0.2 0.121,-0.412 0.146,-0.633l-0.009,-0.004c0.73,-10.154 9.655,-32.85 21.959,-53.658c1.337,-2.292 2.725,-4.559 4.141,-6.792c4.375,2.608 10.617,5.254 16.038,5.354c0.212,0 0.417,-0.033 0.633,-0.042c-2.35,6.525 -4.871,12.842 -7.862,18.496c-5.967,11.35 -9.871,21.534 -17.659,31.413m38.85,-86.817c-4.304,9.721 -7.787,20.954 -11.558,31.917c-0.571,0.271 -1.35,0.441 -2.404,0.441c-3.771,0.096 -9.654,-2.37 -13.529,-4.595c8.6,-12.863 18.3,-24.055 27.4,-30.042c0.508,-0.333 1.029,-0.679 1.529,-0.979c-0.5,1.041 -0.958,2.175 -1.438,3.258m7.6,-10.833c-0.004,-0.146 -0.008,-0.292 -0.008,-0.442c0,-0.062 0.004,-0.133 0.004,-0.2c3.084,-6.292 10.334,-12.987 15.717,-19.383c4.712,-5.654 7.254,-11.159 10.729,-16.479c0.092,0.42 0.204,0.858 0.246,1.266c0.133,1.104 0.2,2.167 0.2,3.2c-0.008,3.763 -0.867,7.146 -2.879,10.75c-4.688,8.446 -14.75,14.888 -24.009,21.288" style="fill:#231f20;fill-rule:nonzero;"/><path d="M179.42,42.443c-2.921,0.012 -6.192,0.958 -9.955,2.958c0,-0.008 0,-0.013 -0.004,-0.017c-0.429,-1.187 -1.737,-1.812 -2.929,-1.383c-11.583,4.037 -17.25,13.079 -17.729,24.4c-0.038,0.692 0.246,1.362 0.75,1.829c6.983,6.346 13.546,9.088 19.417,9.088c13.57,-0.217 21.004,-13.892 21.045,-24.255c-0.008,-3.2 -0.695,-6.241 -2.45,-8.658c-1.72,-2.429 -4.666,-4.004 -8.145,-3.962m-19.046,10.22c1.333,-1.141 2.866,-2.154 4.654,-3.041c0.042,0.337 0.158,0.671 0.362,0.979c0.68,1.067 2.105,1.362 3.171,0.667c1.538,-1.005 2.917,-1.742 4.221,-2.363c2.742,-1.308 5,-1.883 6.638,-1.879c4.15,0.071 5.8,2.829 6.008,8.037c0.004,0.542 -0.1,1.134 -0.154,1.7c-0.354,3.805 -1.834,8.088 -4.375,11.455c-2.938,3.895 -6.934,6.512 -11.929,6.516c-2.584,0 -5.542,-0.712 -8.846,-2.483c-2.084,-1.113 -4.3,-2.638 -6.65,-4.688c0.583,-6.391 2.654,-11.291 6.9,-14.9" style="fill:#231f20;fill-rule:nonzero;"/><path d="M232.213,94.763c6.77,-19.35 13.695,-38.371 24.462,-55.888c0.379,-0.604 0.446,-1.342 0.196,-2.008c-0.254,-0.671 -0.788,-1.171 -1.467,-1.379c-12.487,-3.825 -27.166,-3.638 -40.171,-4.78c-4.637,-0.412 -9.05,-1.016 -13.075,-2.016c-1.025,-3 -2.208,-5.929 -3.571,-8.7c-5.387,-11.067 -14.166,-20.017 -27.487,-19.992c-7.604,0 -16.388,2.846 -26.692,9.304c-8.383,5.163 -11.279,12.184 -12.125,19.25c-0.395,-0.133 -0.821,-0.196 -1.254,-0.091c-0.292,0.07 -0.65,0.095 -0.958,0.154c-1.604,0.3 -3.429,0.462 -5.509,0.458c-7.129,0.021 -16.32,-1.521 -24.733,-1.529c-7.4,0.017 -14.608,1.162 -19.058,6.642c-0.796,0.991 -0.634,2.433 0.35,3.229c0.429,0.333 0.929,0.491 1.433,0.491c0.121,0 0.229,-0.054 0.342,-0.075c-3.442,9.084 -5.713,21.671 -5.763,31.813c0.009,3.104 0.221,5.95 0.746,8.45c-3.154,0.292 -6.333,0.587 -9.525,0.954c-14.042,1.6 -28.312,4.475 -41.375,13.321c-3.05,2.087 -5.808,4.208 -8.312,6.342c-12.825,10.891 -18.663,22.2 -18.667,33.162c0.058,16.3 12.625,30.413 30.654,40.488c7.659,4.27 16.4,7.787 25.704,10.487c-0.55,0.2 -1.02,0.608 -1.283,1.179c-0.788,1.688 -1.442,3.913 -2,6.271c-0.317,1.367 -0.608,2.763 -0.863,4.154c-0.3,1.654 -0.566,3.275 -0.791,4.734c-0.088,0.641 0.091,1.304 0.496,1.795c0.275,0.334 0.65,0.542 1.054,0.675c0.196,0.067 0.396,0.15 0.612,0.159c10.013,0.458 20.204,0.95 30.471,1.433c26.567,1.242 53.688,2.388 79.938,2.388c3.016,-0 6,-0.046 8.983,-0.08c6.783,-0.07 13.517,-0.191 20.129,-0.45c1.038,-0.045 1.921,-0.783 2.146,-1.787c4.033,-17.967 10.263,-36.225 17.008,-54.417c3.563,-9.625 7.271,-19.229 10.88,-28.766c3.2,-8.459 6.125,-16.946 9.075,-25.375m-150.488,-25.117c-0.05,-12.038 3.825,-29.092 8.229,-36.108c0.029,-0.042 0.029,-0.092 0.05,-0.138c2.738,-0.9 6.071,-1.275 9.825,-1.267c7.879,-0.008 17.017,1.521 24.733,1.534c2.476,-0 4.8,-0.192 6.951,-0.65c0.154,-0.034 0.32,-0.046 0.474,-0.079c-0.012,0.625 -0.016,1.241 -0.008,1.858c0.008,3.325 0.175,6.612 0.175,9.808c-0.129,9.575 -1.267,17.534 -12.975,24.217c-2.637,1.508 -5.416,2.683 -8.275,3.692c-8.725,3.095 -18.371,4.233 -28.416,5.158c-0.5,-2.133 -0.767,-4.904 -0.763,-8.025m-48.842,98.712c-17.354,-9.67 -28.366,-22.795 -28.3,-36.483c-0.008,-11.017 6.967,-23.329 25,-35.737c4.363,-3.038 8.955,-5.263 13.675,-7.005c7.625,-2.82 15.617,-4.283 23.73,-5.245c11.099,-1.321 22.404,-1.834 33.216,-3.888c1.146,-0.221 2.288,-0.458 3.425,-0.721c0.175,-0.037 0.35,-0.066 0.521,-0.108c5.979,-1.388 11.779,-3.35 17.267,-6.346c13.421,-7.358 15.454,-18.346 15.32,-28.221c0,-3.358 -0.179,-6.65 -0.17,-9.808c0.095,-8.733 1.12,-15.775 10.27,-21.608c3.575,-2.242 6.9,-3.975 10,-5.292c5.425,-2.313 10.155,-3.317 14.238,-3.317l0.025,0c11.042,0.029 18.212,7.092 23.375,17.438c1.329,2.708 2.483,5.625 3.496,8.633c2.833,8.446 4.504,17.696 5.504,25.563c0.746,5.933 1.142,11.829 1.142,17.658c-0.03,26.933 -8.338,52.433 -27.688,74.183c-5.812,6.534 -12.579,12.746 -20.479,18.529c-16.679,12.221 -38.2,17.48 -59.842,17.471c-23.179,0.009 -46.441,-6.046 -63.725,-15.696m158.288,32.23c-8.9,0.329 -17.979,0.466 -27.179,0.466c-35.355,0 -72.446,-2.091 -107.642,-3.7c0.337,-2.021 0.762,-4.183 1.221,-6.15c0.508,-2.146 1.071,-4.05 1.641,-5.225c0.38,-0.821 0.23,-1.746 -0.304,-2.408c11.959,3.225 24.796,5.067 37.7,5.071c11.154,-0 22.325,-1.35 32.925,-4.296c10.663,-2.975 20.746,-7.567 29.634,-14.058c35.287,-25.788 50.066,-60.163 50.029,-96.417c-0,-6.033 -0.404,-12.129 -1.179,-18.233c-0.855,-6.705 -2.167,-14.413 -4.3,-21.942c15.062,3.012 33.116,1.733 47.495,5.371c-14.85,25.208 -22.258,52.791 -32.354,79.441c-10.2,26.95 -21.329,54.667 -27.687,82.08" style="fill:#231f20;fill-rule:nonzero;"/></svg>