<?xml version="1.0" encoding="UTF-8" standalone="no"?><!DOCTYPE svg PUBLIC "-//W3C//DTD SVG 1.1//EN" "http://www.w3.org/Graphics/SVG/1.1/DTD/svg11.dtd"><svg width="100%" height="100%" viewBox="0 0 296 248" version="1.1" xmlns="http://www.w3.org/2000/svg" xmlns:xlink="http://www.w3.org/1999/xlink" xml:space="preserve" xmlns:serif="http://www.serif.com/" style="fill-rule:evenodd;clip-rule:evenodd;stroke-linejoin:round;stroke-miterlimit:2;"><path d="M289.583,173.602c0.929,6.212 1.274,12.212 1.274,18.116c0.009,17.109 -2.941,33.509 -2.945,51.934c-0,1.225 0.991,2.229 2.208,2.229c1.221,-0 2.208,-1.004 2.208,-2.229c-0.012,-17.934 2.946,-34.304 2.946,-51.934c0,-6.075 -0.35,-12.3 -1.308,-18.762c-3.929,-25.929 -21.542,-57.875 -45.759,-72.458c8.271,-4.23 15.446,-11.067 20.638,-18.821c0.35,0.25 0.775,0.396 1.212,0.396c0.238,-0 0.48,-0.042 0.713,-0.117c4.587,-1.683 8.142,-5.575 8.3,-9.971c0.071,-2.117 -1.117,-4.017 -3.079,-5.2c1.091,-3.629 1.704,-7.233 1.746,-10.612c-0,-0.771 -0.046,-1.534 -0.1,-2.275c-0.163,-1.792 -0.509,-3.467 -0.992,-5.025c0.05,-0.05 0.121,-0.03 0.171,-0.071c3.433,-2.809 4.971,-6.859 4.946,-10.929c-0.121,-9.98 -8.246,-20.9 -19.309,-23.271c-1.779,-0.367 -3.745,-0.542 -5.816,-0.542c-13.525,0.242 -33.85,6.467 -34.538,20.904c0,0.521 0.108,1.05 0.171,1.579c-5.563,2.68 -10.308,6.384 -13.521,11.009c-1.233,-0.329 -2.421,-0.513 -3.546,-0.513c-6.379,0.021 -9.787,5.271 -9.796,10.088c0.009,4.583 3.101,9.533 8.859,10.246c0.471,13.516 4.346,30.1 15.117,34.945c4.116,1.675 8.254,2.446 12.304,2.446c2.404,0 4.77,-0.279 7.079,-0.771l-0.459,-2.145l0.471,2.145c1.746,-0.395 3.45,-0.954 5.129,-1.587c0.171,0.492 0.496,0.925 0.984,1.212l-0.008,-0.008c23.149,13.125 41.05,45.017 44.7,69.992m-14.938,-101.617c0.104,1.004 -0.954,2.729 -2.512,4.088c0.849,-1.621 1.629,-3.255 2.295,-4.905c0.142,0.25 0.175,0.521 0.217,0.817m-38.079,-48.804c6.071,-3.021 13.937,-4.7 20.071,-4.688c1.85,0 3.529,0.146 4.941,0.434c8.65,1.616 15.884,11.391 15.767,18.946c-0.021,2.65 -0.833,4.862 -2.546,6.675c-5.267,-9.346 -16.866,-13.459 -28.571,-13.363c-6.62,0.021 -13.466,1.283 -19.687,3.604c0.021,-4.479 3.946,-8.608 10.025,-11.608m-36.738,33.946c0.13,-3.092 1.659,-5.609 5.375,-5.654c0.313,-0 0.65,0.016 1.013,0.066c-0.013,0.184 -0.017,0.384 -0.017,0.617c-1.121,2.833 -1.708,6.529 -1.9,10.671c-2.996,-0.604 -4.358,-2.929 -4.471,-5.7m38.017,42.55c-2.046,0.446 -4.1,0.675 -6.158,0.675c-3.488,-0 -7.038,-0.663 -10.621,-2.125c-7.738,-2.754 -12.613,-19.621 -12.429,-32.634c-0.009,-4.375 0.52,-8.208 1.358,-10.808c0.471,-0.433 0.729,-1.05 0.7,-1.704c4.596,-10.442 20.492,-17.483 35.283,-17.483l0.25,-0c14.159,0.108 25.938,5.837 26.996,18.658c0.046,0.625 0.088,1.262 0.088,1.917c0.033,2.916 -0.509,6.095 -1.521,9.379c-0.075,-0.009 -0.138,-0.038 -0.217,-0.038c-1.221,-0.104 -2.296,0.809 -2.387,2.034c-0.084,0.875 0.383,1.666 1.108,2.087c-5.575,13.371 -18.271,27.104 -32.45,30.042" style="fill:#231f20;fill-rule:nonzero;"/><path d="M54.91,83.872l0.041,-0c8.546,-0.029 16.754,-4.65 22.8,-10.988c0.829,-0.887 0.804,-2.283 -0.083,-3.121c-0.879,-0.85 -2.288,-0.82 -3.129,0.084c-5.384,5.696 -12.729,9.633 -19.588,9.612c-4.216,-0.008 -8.296,-1.396 -12.087,-4.871c-0.892,-0.82 -2.292,-0.783 -3.113,0.134c-0.841,0.896 -0.766,2.291 0.129,3.121c4.521,4.179 9.813,6.029 15.03,6.029" style="fill:#231f20;fill-rule:nonzero;"/><path d="M248.975,81.553c-3.304,1.725 -6.854,2.57 -10.292,2.57c-7.079,-0.029 -13.416,-3.495 -16.07,-9.966c-0.475,-1.138 -1.767,-1.659 -2.884,-1.188c-1.133,0.454 -1.671,1.742 -1.208,2.879l-0,-0.008c3.421,8.321 11.612,12.696 20.071,12.696l0.091,-0c4.155,-0 8.417,-1.021 12.342,-3.075c1.075,-0.567 1.492,-1.908 0.929,-2.996c-0.575,-1.079 -1.904,-1.483 -2.979,-0.912" style="fill:#231f20;fill-rule:nonzero;"/><path d="M140.237,148.425c1.013,-0.696 1.275,-2.071 0.592,-3.084c-0.688,-1 -2.063,-1.258 -3.063,-0.583c-4.866,3.3 -7.671,4.429 -9.858,4.4c-2.483,0.046 -5.35,-1.504 -10.554,-4.488c-1.067,-0.6 -2.413,-0.233 -3.017,0.825c-0.592,1.071 -0.229,2.417 0.838,3.025l-0,-0.008c5.108,2.863 8.454,5.008 12.733,5.067c3.733,-0.021 7.279,-1.754 12.329,-5.154" style="fill:#231f20;fill-rule:nonzero;"/><path d="M55.781,142.472c1.075,-0.567 1.492,-1.909 0.921,-2.975c-0.571,-1.079 -1.9,-1.492 -2.987,-0.925c-16.963,9.041 -22.905,30.025 -22.909,50.837c0.021,18.3 4.575,36.754 11.338,48.109c0.416,0.675 1.15,1.058 1.9,1.058c0.391,-0 0.787,-0.096 1.137,-0.304c1.05,-0.629 1.388,-1.988 0.767,-3.034c-6.2,-10.3 -10.75,-28.291 -10.725,-45.829c-0.025,-20.121 5.929,-39.316 20.558,-46.937" style="fill:#231f20;fill-rule:nonzero;"/><path d="M24.671,74.973c0.042,-0 0.083,-0.017 0.125,-0.017c3.708,13.904 14.15,25.504 32.179,25.542c1.146,-0 2.342,-0.096 3.533,-0.183c-12.262,4.12 -23.67,10.912 -33.429,21.45c-14.666,15.912 -27.033,46.529 -27.079,74.02c0,15.621 4.079,30.38 14.558,40.471c0.425,0.417 0.988,0.625 1.542,0.625c0.504,0 1.008,-0.162 1.421,-0.521c0.871,-0.737 1.037,-2 0.396,-2.937c-2.046,-3.021 -3.034,-6.067 -3.809,-9.638c-0.254,-1.204 -1.42,-1.966 -2.616,-1.708c-0.563,0.117 -1.017,0.425 -1.325,0.858c-3.979,-7.77 -5.734,-17.133 -5.734,-27.15c-0.062,-26.15 12.175,-56.308 25.888,-70.995c5.429,-5.867 11.421,-10.413 17.771,-14.063c3.991,11.375 15.516,22.317 28.846,22.463c2.641,-0 5.345,-0.467 7.995,-1.467c14.975,-5.663 18.992,-19.175 19.98,-31.554c2.675,0.212 5.354,0.491 8.037,0.858c0.375,3.45 1.075,8.329 1.196,12.5c-4.671,2.921 -7.633,7.517 -8.838,14.125c-4.204,0.758 -7.566,3.263 -7.796,7.213c0.009,2.983 2.401,5.316 5.98,6.529c0.25,0.087 0.496,0.125 0.746,0.125c0.241,-0 0.45,-0.125 0.675,-0.213c1.216,9.884 5.854,20.371 15.533,23.754c-20.563,5.305 -39.821,19.005 -47.629,35.175c-0.525,1.109 -0.063,2.417 1.037,2.938c1.109,0.537 2.429,0.067 2.959,-1.025l-0.009,-0.004c4.688,-10 14.892,-19.334 27.092,-25.867c2.625,7.104 9.383,10.029 16.529,10.029c0.121,0 0.246,0 0.362,-0.008c13.146,-0.175 29.076,-7.638 36.526,-15.308c6.975,2.933 12.379,7.275 16.895,12.429c0,0.308 0,0.625 0.034,0.95c0.091,1.166 1.058,2.054 2.212,2.054c0.05,-0 0.108,-0.021 0.175,-0.021l0.013,-0.008c7.171,9.312 12.087,20.725 17.912,31.612c0.4,0.75 1.171,1.163 1.959,1.163c0.354,-0 0.704,-0.088 1.037,-0.25c1.075,-0.575 1.471,-1.917 0.896,-3.004c-5.975,-11.084 -11.246,-23.725 -19.696,-33.955c0.658,-10.641 12.187,-27.016 20.492,-33.67c0.941,-0.771 1.075,-2.159 0.304,-3.1c-0.771,-0.946 -2.167,-1.088 -3.108,-0.3c-8.167,6.858 -18.717,20.583 -21.517,32.816c-2.638,-2.658 -5.625,-5.029 -8.946,-7.1c1.012,-0.116 1.867,-0.896 1.971,-1.966c1.521,-18.355 26.204,-41.075 45.654,-54.271c0.183,10.921 11.225,16.679 21.925,16.687l0.104,0c9.104,0 18.875,-4.187 23.075,-13.925c0.483,-1.125 -0.029,-2.416 -1.146,-2.9c-1.125,-0.479 -2.429,0.021 -2.908,1.159c-3.325,7.72 -11.2,11.237 -19.125,11.258c-9.508,-0.029 -17.5,-5.067 -17.513,-12.329c0,-0.954 0.13,-1.996 0.43,-3.113c1.579,-0.983 3.12,-1.916 4.575,-2.741c1.054,-0.609 1.425,-1.959 0.812,-3.017c-0.617,-1.058 -1.954,-1.417 -3.012,-0.808c-0.363,0.2 -0.759,0.454 -1.13,0.675c-0.195,-0.292 -0.45,-0.563 -0.783,-0.734c-1.087,-0.55 -2.408,-0.125 -2.975,0.963c-0.5,0.975 -0.887,1.925 -1.221,2.871c-5.562,3.583 -11.687,7.966 -17.75,12.945c-14.658,-4.595 -30.079,-10.875 -45.491,-15.808c4.929,-7.204 9.541,-15.296 14.687,-21.908c0.729,-0.975 0.571,-2.363 -0.408,-3.104c-0.954,-0.75 -2.35,-0.567 -3.084,0.387c-5.679,7.338 -10.575,16.017 -15.604,23.229c-3.483,-1.05 -7,-2.041 -10.558,-2.958c2.412,-5.063 5.508,-10.342 7.287,-15.833c0.355,-1.175 -0.295,-2.4 -1.466,-2.763c-1.163,-0.367 -2.4,0.296 -2.767,1.454c-1.5,5.075 -4.871,10.384 -7.454,16.075c-5.025,-1.187 -10.083,-2.175 -15.158,-2.966c-0.35,-0.788 -1.13,-1.321 -2.034,-1.321c-0.662,0.012 -1.229,0.308 -1.629,0.783c-2.712,-0.367 -5.421,-0.654 -8.133,-0.879c0.008,-0.271 0.016,-0.558 0.033,-0.846c0.017,-0.821 -0.404,-1.579 -1.121,-1.975c-0.716,-0.404 -1.583,-0.396 -2.275,0.05c-0.954,0.517 -1.675,1.529 -1.971,2.404c-2.129,-0.096 -4.254,-0.162 -6.379,-0.162c-7.416,-0.009 -14.729,0.733 -21.871,2.166c14.442,-6.983 21.471,-24.512 21.492,-38.129l0,-0.041c0,-0.155 -0.017,-0.317 -0.021,-0.48c0.159,-0.058 0.329,-0.05 0.479,-0.154c2.617,-2.091 3.83,-5.758 3.917,-9.479c0,-1.983 -0.421,-4.046 -1.729,-5.787c-1.271,-1.746 -3.542,-2.863 -6.146,-2.813c-0.558,0 -1.154,0.088 -1.746,0.171c-4.25,-6.733 -10.671,-11.617 -17.854,-14.283c0.042,-0.067 0.125,-0.096 0.154,-0.171c3.629,-7.784 12.371,-14.188 17.329,-22.946c0.596,-1.058 0.209,-2.396 -0.854,-2.983c-1.062,-0.609 -2.412,-0.225 -3.004,0.837c-4.158,7.617 -13.012,14.05 -17.458,23.183c-0.134,0.271 -0.209,0.571 -0.217,0.846c-2.871,-0.712 -5.817,-1.116 -8.754,-1.116c-2.521,-0.009 -5.042,0.329 -7.504,0.895c1.658,-7.087 2.941,-14.158 5.783,-20.62c0.5,-1.117 -0.012,-2.43 -1.137,-2.917c-1.113,-0.483 -2.413,0.029 -2.905,1.133c-3.5,7.975 -4.704,16.271 -6.637,23.917c-5.292,2.129 -10.092,5.683 -13.808,10.817c-1.709,-7.05 -0.05,-15.98 -2.134,-24.675c-0.304,-1.196 -1.508,-1.9 -2.683,-1.609c-1.183,0.296 -1.908,1.5 -1.613,2.675c2.1,8.017 -0.233,17.829 2.738,26.863c0.171,0.521 0.533,0.887 0.971,1.146c-0.734,1.429 -1.434,2.87 -2.013,4.47c-1.421,3.855 -2.329,7.955 -2.725,12.109c-2.425,0.162 -4.479,0.962 -5.912,2.337c-1.604,1.504 -2.379,3.588 -2.363,5.588c0.009,4.375 3.634,8.787 9.463,8.804m77.25,59.892c-0.013,-0.33 0.3,-1.092 1.358,-1.813c0.388,-0.258 0.921,-0.471 1.467,-0.675c-0.017,0.138 -0.046,0.233 -0.046,0.367c-0.088,1.029 -0.133,2.1 -0.133,3.187c-0,0.367 0.025,0.763 0.041,1.129c-2.408,-0.975 -2.691,-1.908 -2.687,-2.195m11.466,18.725c-2.995,-4.963 -4.404,-11.675 -4.395,-17.659c-0,-0.971 0.05,-1.925 0.104,-2.85c0.058,-0.596 0.162,-1.05 0.237,-1.596c0.617,-0.366 1.079,-1.004 1.113,-1.775c0.033,-0.625 -0.213,-1.204 -0.625,-1.629c0.862,-4.383 2.271,-7.375 4.579,-9.487c0.35,0.579 0.925,1.004 1.646,1.087c0.066,0 0.141,0.013 0.212,0.013c1.129,-0 2.092,-0.859 2.204,-2.004c0.055,-0.492 0.05,-1.042 0.063,-1.55c2.633,-1.034 6.037,-1.617 10.304,-1.946c0.179,1.05 1.075,1.85 2.138,1.85l0.125,-0c1.12,-0.067 1.979,-0.971 2.058,-2.071c12.75,0.383 18.646,3.775 19.567,16.096l-0,0.016c-0.425,0.213 -0.8,0.55 -1.017,1.021c-0.483,1.034 -0.058,2.217 0.896,2.796c-0.171,2.358 -0.567,4.746 -1.25,7.125c-0.846,0.463 -1.35,1.396 -1.134,2.388c0.034,0.137 0.163,0.212 0.209,0.337c-2.854,7.563 -8.296,14.325 -16.121,16.792c-2.713,0.883 -5.129,1.258 -7.279,1.258c-6.371,-0.029 -10.604,-3.242 -13.634,-8.212m43.438,-15.146c-0,0.087 -0,0.175 -0.008,0.262c-0.159,0.059 -0.296,0.134 -0.467,0.204c0.104,-0.491 0.229,-1.012 0.308,-1.504c0.088,0.317 0.159,0.654 0.167,1.038m-36.038,43.433c-6.633,-0.108 -11.079,-2.121 -12.933,-7.592c9.575,-4.479 20.075,-7.204 30.013,-7.166c3.429,-0 6.804,0.3 10.037,0.983c1.692,0.346 3.313,0.763 4.867,1.233c-6.942,6.042 -21.4,12.684 -31.984,12.542m72.205,-57.175c-14.613,12.696 -27.784,28.413 -29.446,43.504c-0.034,0.346 0.029,0.688 0.141,0.984c-1.204,-0.663 -2.491,-1.28 -3.808,-1.859c0.042,-0.741 -0.254,-1.483 -0.912,-1.933c-0.946,-0.658 -2.213,-0.446 -2.934,0.433c-2.279,-0.8 -4.646,-1.533 -7.237,-2.062c-2.85,-0.588 -5.792,-0.867 -8.754,-0.971c7.308,-3.963 12.183,-10.846 14.8,-18.333c1.845,-0.721 3.329,-1.696 4.629,-2.042c0.766,-0.242 1.354,-0.867 1.529,-1.654c0.154,-0.792 0.258,-1.559 0.258,-2.325c0.025,-3.167 -1.733,-5.45 -4.091,-7.046c-0,-0.542 -0.013,-1.05 -0.03,-1.546c-0.3,-9.042 -4.279,-14.779 -10.504,-17.787c0.721,-0.888 1.454,-1.792 2.15,-2.746c14.729,4.641 29.684,10.654 44.209,15.383m-48.73,-16.758c-0.533,0.683 -1.062,1.396 -1.612,2.029c-0.129,0.167 -0.204,0.358 -0.288,0.542c-2.7,-0.713 -5.687,-0.992 -8.879,-0.963c0.279,-1.387 0.734,-2.812 1.267,-4.25c3.204,0.821 6.367,1.704 9.512,2.642m-15.2,1.733c-4.041,0.154 -7.575,0.742 -10.587,1.8c-0.217,-3.475 -0.671,-7.05 -0.996,-9.758c4.329,0.704 8.642,1.571 12.942,2.554c-0.609,1.762 -1.079,3.562 -1.359,5.404m-28.795,-9.875c0.075,0.071 0.125,0.146 0.204,0.183c-0.979,11.696 -4.504,22.875 -17.084,27.605c-2.162,0.8 -4.316,1.179 -6.45,1.179c-11.008,0.141 -21.95,-10.309 -24.954,-20.238c12.675,-6.308 26.767,-8.883 41.45,-8.891c2.267,-0 4.55,0.058 6.834,0.162m-7.25,-50.7c0.033,1.117 -0.246,2.3 -0.621,3.342c-0.492,-2.638 -1.246,-5.113 -2.263,-7.425c2.171,0.296 2.663,1.521 2.884,4.083m-62.68,-1.433c5,-13.446 15.684,-19.138 26.813,-19.209c10.271,0.03 20.567,5.046 26.471,13.88c-0.317,0.541 -0.429,1.175 -0.213,1.812c0.313,0.933 1.192,1.5 2.121,1.492c1.942,3.941 3.1,8.487 3.104,13.571l0,0.041c0.025,14.967 -9.633,34.934 -27.433,36.6c-1.458,0.142 -2.871,0.221 -4.225,0.221c-16.146,-0.037 -25.146,-10.242 -28.163,-23.1c0.042,-0.258 0.067,-0.517 0.03,-0.771c-0.059,-0.333 -0.188,-0.612 -0.367,-0.875c-0.504,-2.666 -0.804,-5.433 -0.825,-8.233c-0,-5.271 0.921,-10.588 2.687,-15.429m-7.095,15.108c-0.005,0.108 -0.021,0.217 -0.021,0.321c0.008,2.446 0.212,4.883 0.587,7.3c-2.837,-0.413 -4.121,-2.363 -4.179,-4.229c0.121,-1.609 0.846,-2.975 3.613,-3.392" style="fill:#231f20;fill-rule:nonzero;"/><path d="M258.419,246.87c0.304,0.146 0.621,0.205 0.937,0.205c0.829,-0 1.625,-0.471 1.996,-1.271c5.821,-12.592 12.029,-38.009 12.054,-60.017c-0.033,-12.946 -2.075,-24.754 -8.371,-32.15c-0.795,-0.917 -2.191,-1.025 -3.104,-0.233c-0.941,0.791 -1.033,2.196 -0.237,3.121c5.075,5.808 7.333,16.787 7.287,29.262c0.029,21.133 -6.179,46.463 -11.641,58.146c-0.509,1.108 -0.025,2.425 1.079,2.937" style="fill:#231f20;fill-rule:nonzero;"/><path d="M171.574,224.468c0.117,1.134 1.071,1.984 2.192,1.984c0.075,-0 0.15,-0 0.237,-0.009c1.209,-0.137 2.096,-1.225 1.963,-2.429c-1.271,-11.904 -7.463,-27.054 -13.846,-35.137c-0.771,-0.954 -2.162,-1.096 -3.104,-0.338c-0.954,0.763 -1.113,2.15 -0.354,3.104l-0,-0.008c5.671,7.021 11.837,22.054 12.912,32.833" style="fill:#231f20;fill-rule:nonzero;"/><path d="M81.955,234.985c-0.083,1.225 0.817,2.304 2.042,2.37c0.058,0 0.125,0.009 0.175,0.009c1.146,-0 2.113,-0.888 2.204,-2.034c0.934,-13.233 9.617,-25.55 14.534,-36.908c0.479,-1.125 -0.042,-2.433 -1.155,-2.908c-1.133,-0.471 -2.429,0.05 -2.908,1.166l0,-0.012c-4.529,10.733 -13.737,23.458 -14.892,38.317" style="fill:#231f20;fill-rule:nonzero;"/><path d="M43.428,57.578c0.213,0.067 0.43,0.096 0.65,0.096c0.367,-0 0.734,-0.096 1.063,-0.271c1.504,-0.758 2.658,-2.483 2.621,-4.238l-0.217,-0.991c-0.133,-0.296 -0.379,-0.8 -0.696,-1.3c-0.571,-0.434 -0.058,-1.221 -2.562,-1.763c-0.605,-0.029 -1.171,0.271 -1.58,0.638c-0.145,-0 -0.287,0.016 -0.433,0.037c-0.971,0.184 -1.654,0.971 -1.758,1.917c-0.221,0.271 -0.7,0.896 -0.8,2.233c0.133,2.263 1.971,3.142 3.712,3.642" style="fill:#231f20;fill-rule:nonzero;"/><path d="M65.659,51.578c0.279,0 0.554,-0.058 0.825,-0.166c1.504,-0.575 2.696,-0.846 4.329,-2.492c0.529,-0.5 0.783,-1.212 0.658,-1.929c-0.1,-0.721 -0.546,-1.325 -1.187,-1.646c-0.688,-0.279 -1.067,-0.346 -1.484,-0.362c-0.475,-1.042 -1.662,-1.571 -2.758,-1.18c-0.762,0.28 -1.292,0.934 -1.429,1.68c-0.367,0.45 -1.25,1.404 -1.338,3.166c-0.008,0.542 0.125,1.196 0.417,1.725c0.396,0.763 1.158,1.204 1.967,1.204" style="fill:#231f20;fill-rule:nonzero;"/><path d="M119.948,132.407c0.396,0.288 0.862,0.425 1.325,0.425c0.542,0 1.087,-0.192 1.512,-0.579c0.463,-0.433 0.921,-0.846 1.375,-1.242c0.425,-0.366 0.705,-0.904 0.755,-1.454c0.016,-0.175 0.033,-0.35 0.033,-0.521c-0.017,-0.879 -0.229,-1.616 -0.571,-2.271c-0.433,-0.55 -0.608,-1.429 -2.504,-1.658c-0.588,0.079 -1.042,0.258 -1.392,0.471c-0.241,-0.067 0.079,-0.479 -1.696,-0.779c-0.483,-0 -1.116,0.191 -1.562,0.654c-0.463,0.45 -0.654,1.087 -0.654,1.571c0.183,1.387 0.291,1.012 0.475,1.55c0.587,1.041 1.441,2.65 2.904,3.833" style="fill:#231f20;fill-rule:nonzero;"/><path d="M132.951,129.43c0.008,0.405 -0.054,1.042 -0.054,1.717c-0,0.404 -0,0.808 0.166,1.375c0.217,0.667 0.725,1.204 1.384,1.446c0.241,0.075 0.487,0.117 0.725,0.117c0.45,-0 0.891,-0.138 1.266,-0.405c1.434,-1.012 1.296,-0.558 2.755,-1.475c1.516,-1.483 1.216,-2.358 1.708,-4.525c0.121,-0.716 -0.108,-1.437 -0.613,-1.937c-0.508,-0.521 -1.237,-0.742 -1.937,-0.629c-1.408,0.416 -1.671,0.841 -2.279,1.35c-0.738,-0.413 -1.692,-0.384 -2.404,0.166c-0.842,0.617 -1.1,1.7 -0.717,2.617l-0,0.183Z" style="fill:#231f20;fill-rule:nonzero;"/><path d="M227.173,56.066c0,0 -0.004,-0.008 -0.008,-0.008l0.008,0.008Z" style="fill:#231f20;fill-rule:nonzero;"/><path d="M227.52,57.067c0.208,0.888 1.188,2.542 2.908,3.171c0.271,0.104 0.555,0.171 0.838,0.171c0.671,-0 1.333,-0.317 1.762,-0.875c0.9,-1.175 2.071,-2.138 2.817,-4.642c0.3,-0.946 -0.067,-1.967 -0.879,-2.496c-0.613,-0.412 -1.313,-0.741 -2.213,-0.75c-1.237,0.029 -2.02,0.663 -2.487,1.25c-0.083,-0.066 -0.154,-0.146 -0.238,-0.2c-0.925,-0.779 -2.325,-0.666 -3.116,0.25c-0.792,0.921 -0.671,2.321 0.25,3.109c0.029,0.02 0.075,0.05 0.358,1.012" style="fill:#231f20;fill-rule:nonzero;"/><path d="M254.214,57.289c-0.491,0.125 -1,0.492 -1.433,0.946c-0.625,-0.029 -1.267,0.2 -1.725,0.692c-0.608,0.646 -0.754,1.579 -0.438,2.35c0.009,0.191 0.021,0.558 0.009,0.962c-0,0 -0.009,0.021 -0.009,0.213c0.042,0.733 -0.079,1.196 0.225,2.275c0.296,0.846 1.08,1.421 1.967,1.454c0.042,0.008 0.083,0.008 0.129,0.008c0.85,0 1.613,-0.479 1.988,-1.254c0.012,-0.017 0.02,-0.037 0.029,-0.067c0.333,-0.162 0.633,-0.412 0.854,-0.729c0.479,-0.658 0.717,-1.483 0.721,-2.129c0.3,-0.667 0.554,-1.417 0.721,-2.283c0.133,-0.809 -0.163,-1.609 -0.792,-2.129c-0.642,-0.5 -1.488,-0.625 -2.246,-0.309" style="fill:#231f20;fill-rule:nonzero;"/></svg>