<?xml version="1.0" encoding="UTF-8" standalone="no"?><!DOCTYPE svg PUBLIC "-//W3C//DTD SVG 1.1//EN" "http://www.w3.org/Graphics/SVG/1.1/DTD/svg11.dtd"><svg width="100%" height="100%" viewBox="0 0 298 346" version="1.1" xmlns="http://www.w3.org/2000/svg" xmlns:xlink="http://www.w3.org/1999/xlink" xml:space="preserve" xmlns:serif="http://www.serif.com/" style="fill-rule:evenodd;clip-rule:evenodd;stroke-linejoin:round;stroke-miterlimit:2;"><path d="M2.337,206.658c-1.608,3.684 -2.337,7.338 -2.337,10.95c-0,4.759 1.246,9.359 3.15,13.971c3.35,7.509 9.117,12.125 9.304,16.388c0.017,0.279 0.029,0.579 0.029,0.9c0.204,4.079 -3.5,9.571 -3.716,16.329c-0.017,2.271 0.6,4.771 2.066,7.012c3.217,4.971 7.521,7.113 10.296,9.317c2.8,2.283 4.5,3.95 5.096,9.496l-0,0.354c0.267,4.038 -5.592,14.721 -5.775,23.413c-0.388,5.375 3.675,11.104 11.058,11.658c0.642,0.067 1.25,-0.088 1.804,-0.354c-0.316,3.329 -0.5,6.633 -0.508,9.833c0,2.158 0.071,4.304 0.229,6.408c0.104,1.709 1.538,3.021 3.217,3.021l0.225,0c1.792,-0.141 3.142,-1.696 3.025,-3.458l-0.021,-0c-0.133,-1.963 -0.204,-3.95 -0.204,-5.971c-0.013,-2.992 0.162,-6.037 0.446,-9.158c0.171,0.029 0.354,0.1 0.521,0.1c1.383,-0 2.662,-0.917 3.1,-2.271c0.529,-1.738 -0.417,-3.558 -2.13,-4.079c-0.208,-0.059 -0.416,-0.154 -0.625,-0.213c3.813,-25.204 16.4,-52.708 34.9,-73.804c-0.666,2.763 -1.108,5.613 -1.108,8.621c0.163,24.821 21.163,57.042 52.013,57.379c2.066,0 4.154,-0.142 6.295,-0.45c42.484,-7.242 36.063,-66.021 46.492,-90.575c13.138,6.308 26.709,15.158 38.817,25.446c24.537,20.633 43.117,47.062 42.971,67.992c-0,0.408 -0,0.833 -0.017,1.254c-0.033,1.796 1.383,3.291 3.183,3.304c1.788,0.029 3.259,-1.383 3.296,-3.175c0,-0.467 0.013,-0.946 0.013,-1.383c-0,-1.2 -0.113,-2.425 -0.204,-3.642c0.475,-0.971 0.52,-2.088 -0.005,-2.992c0.196,-3.908 8.934,-21.662 10.2,-23.846c6.33,-13.141 19.563,-22.216 19.759,-40.42c-0,-0.48 -0.013,-0.917 -0.029,-1.313c-0.305,-10.654 -4.105,-13.842 -8.967,-21.012c-1.963,-2.934 -2.613,-5.617 -2.625,-8.58c-0.242,-8.625 7.062,-19.166 7.237,-31.825c0,-2.466 -0.296,-5.02 -1.029,-7.604c-6.462,-19.079 -26.762,-21.366 -27.025,-39.191c-0.029,-0.509 -0.033,-1 -0.033,-1.484c-0.029,-3.441 0.562,-7.208 0.562,-11.187c0.029,-4.434 -0.858,-9.459 -4.721,-13.634c-8.245,-8.762 -19.975,-7.579 -27.908,-9.95c-20.179,-5.458 -23.987,-24.625 -26.012,-42.745c-0.855,-7.438 -0.446,-15.846 -2.505,-23.538c-1.958,-7.708 -7.395,-14.792 -18.25,-17.262c-3.504,-0.83 -5.383,-1.48 -8.091,-1.496c-2.125,-0 -4.25,0.425 -7.679,1.271c-3.921,1.075 -9.763,4.008 -11.755,3.837c-0.012,0.017 -0.099,0 -0.358,0c-5.321,-0.196 -13.358,-5.825 -20.696,-9.242c-6.745,-2.933 -16.633,-8.916 -25.575,-9.058l-0.016,0c-10.884,0.379 -16.063,9.117 -21.6,10.129c-7.5,2.104 -16.238,0.284 -25.684,4.334c-7.729,3.445 -11.208,8.766 -15.837,13.212c-8.184,8.496 -26.496,14.533 -27.017,31.65c0,1.583 0.179,3.246 0.567,5.013c2.05,6.504 7.071,9.229 6.421,11.075c-0,0.058 -0.017,0.241 -0.05,0.537c-0.017,1.821 -3.559,5.25 -8.1,8.808c-4.355,3.667 -9.592,7.663 -11.1,14.138c-0.296,1.312 -0.438,2.625 -0.438,3.967c0.171,10.133 7.213,19.079 11.317,26.262c-6.838,8.3 -11.188,24.529 -11.379,36.425c0.012,2.892 0.266,5.517 1.041,7.875c1.271,3.938 3.563,6.35 5.013,8.1c1.516,1.821 2.004,2.513 2.058,4.204c0,0.467 -0.071,1.059 -0.217,1.821c-0.566,4.629 -10.541,11.163 -14.375,19.108m170.88,12.28c-10.621,28.279 -6.521,82.512 -41.471,86.691c-1.829,0.267 -3.596,0.392 -5.354,0.392c-12.925,0.017 -24.259,-7.071 -32.492,-17.188c-8.217,-10.045 -13.071,-23.058 -13.042,-33.712c0,-4.321 0.796,-8.213 2.309,-11.433c0.696,-1.496 0.15,-3.188 -1.192,-4.05c7.712,-7.621 16.254,-14.055 25.442,-18.867c0.283,0.071 0.516,0.283 0.825,0.283c0.221,0 0.454,-0.016 0.671,-0.083c1.129,-0.229 1.95,-1.063 2.308,-2.092c8.954,-4.162 18.408,-6.875 28.325,-7.45c0.6,-0.041 1.204,-0.041 1.812,-0.041c0.329,0.083 0.613,0.295 0.971,0.295c0.304,0 0.625,-0.041 0.934,-0.129c0.1,-0.029 0.154,-0.1 0.241,-0.125c8.75,0.184 18.992,2.909 29.742,7.45c-0.017,0.017 -0.029,0.029 -0.029,0.059m-43.142,-65.413l2.125,2.471l-2.125,-2.458c-1.483,1.27 -3.021,2.458 -4.621,3.487c-3.367,2.217 -6.675,3.104 -10.079,3.121c-10.329,0.167 -22.442,-9.513 -31.708,-21.75c-9.292,-12.079 -15.821,-26.654 -16.4,-33.713c-0.23,-2.4 -0.338,-4.883 -0.338,-7.395c0.121,-23.75 10.021,-50.084 37.313,-52.496c1.187,-0.1 2.383,-0.154 3.57,-0.154c12.934,-0 24.705,6.533 33.334,16.17c8.629,9.584 13.846,22.225 13.829,33.575c-0,1.042 -0.033,2.046 -0.113,3.046c-0.791,9.484 -2.575,19.575 -5.879,28.338c-3.675,9.85 -10.541,20.604 -18.908,27.758m-14.7,13.096c4.617,-0 9.287,-1.325 13.633,-4.175c1.829,-1.213 3.609,-2.542 5.3,-4.008c0.975,-0.846 1.813,-1.834 2.738,-2.738c-1.742,7.083 -2.563,14.492 -2.563,21.917c0,9.396 1.342,18.737 3.617,27.504c-9.713,0.804 -18.925,3.387 -27.633,7.183c-2.238,-12.971 -4.738,-35.971 -6.321,-48.15c3.625,1.492 7.362,2.442 11.229,2.467m-95.546,10.712c-1.642,-1.92 -2.983,-3.387 -3.817,-5.941c-0.458,-1.342 -0.72,-3.388 -0.72,-5.842c-0.196,-10.925 5.754,-29.2 11,-33.529c1.125,-0.975 1.42,-2.6 0.729,-3.913c-4.504,-8.295 -11.842,-17.737 -11.659,-25.245c0,-0.875 0.088,-1.734 0.275,-2.596c0.596,-3.317 4.425,-6.946 8.892,-10.5c4.271,-3.654 9.338,-6.984 10.417,-13.042c0.046,-0.437 0.091,-0.829 0.091,-1.312c-0.65,-7.267 -6.629,-9.946 -6.57,-12.475c-0.296,-1.296 -0.405,-2.496 -0.405,-3.613c-0.512,-11.092 14.58,-17.342 25.059,-26.996c5.262,-5.191 7.987,-9.329 13.937,-11.954c7.025,-3.242 15.234,-1.621 24.729,-4.004c9.005,-2.867 13.392,-10.263 19.921,-9.908l0.013,-0c5.975,-0.084 15.9,5.25 22.925,8.495c6.521,2.821 14.541,9.13 23.158,9.821c0.2,0.017 0.296,0.017 0.558,0.017c5.05,-0.171 10.713,-3.546 13.288,-4.038c3.346,-0.833 5,-1.116 6.146,-1.1c1.354,-0.029 2.8,0.409 6.566,1.325c8.838,2.3 11.659,6.45 13.521,12.671c1.746,6.242 1.446,14.454 2.309,22.513c1.875,17.991 6.208,41.504 30.741,48.291c9.754,2.496 19.625,2.046 24.854,8.071c2.405,2.725 2.992,5.534 3.021,9.288c0.013,3.316 -0.558,7.112 -0.579,11.187c0,0.596 0.021,1.217 0.054,1.821c1.871,23.146 24.084,26.408 27.259,40.646c0.558,1.946 0.8,3.867 0.8,5.812c0.183,9.967 -7.038,20.209 -7.259,31.825c-0.025,4.021 1.046,8.242 3.721,12.192c5.604,8.425 7.396,8.483 7.896,17.571c-0,0.379 0.012,0.775 0.012,1.142c0.192,14.383 -11.325,22.537 -19.079,37.512c-0.775,1.763 -4.583,8.763 -7.479,15.621c-6.637,-19.263 -22.754,-38.821 -41.975,-55.163c-24.487,-20.604 -53.917,-35.833 -77.392,-36.904c-2.4,-8.696 -3.812,-18.079 -3.812,-27.462c-0,-9.429 1.379,-18.759 4.404,-27.209c0.429,-1.229 0.075,-2.554 -0.804,-3.416c4.425,-6.013 8.058,-12.559 10.471,-18.954c3.591,-9.55 5.441,-20.163 6.275,-30.071c0.083,-1.2 0.141,-2.388 0.141,-3.584c-0.141,-26.433 -23.258,-55.983 -53.65,-56.225c-1.375,0 -2.779,0.059 -4.2,0.213c-32.175,3.075 -43.279,33.925 -43.154,58.917c0,2.695 0.121,5.391 0.367,7.987c0.962,9.429 7.85,24.05 17.696,37.046c5.391,7 11.679,13.475 18.566,18.008c1.475,9.638 4.55,39.713 7.325,54.796c-37.404,19.517 -63.541,63.408 -69.975,102.921c-0.995,-0.379 -2.012,-0.692 -2.991,-1.088c-1.25,-0.52 -2.675,-0.225 -3.592,0.792c-0.087,0.071 -0.133,0.142 -0.2,0.225c-0.479,-0.733 -0.55,-1.721 -0.733,-3.187c-0.163,-6.071 5.541,-16.117 5.787,-23.413c0,-0.267 0,-0.554 -0.021,-0.892c-0.495,-7.183 -4.066,-11.5 -7.595,-14.095c-3.555,-2.667 -6.667,-4.321 -8.817,-7.675c-0.763,-1.217 -1.017,-2.246 -1.025,-3.517c-0.204,-3.908 3.533,-9.454 3.721,-16.329c-0,-0.521 -0.017,-1.042 -0.088,-1.609c-1.212,-8.17 -7.737,-12.641 -9.75,-18.15c-1.708,-4.133 -2.654,-7.887 -2.654,-11.5c0,-2.75 0.529,-5.462 1.792,-8.395c1.879,-5.25 12.379,-11.346 14.783,-20.321c0.221,-1.129 0.358,-2.146 0.358,-3.163c0.046,-3.866 -2.008,-6.575 -3.583,-8.396" style="fill:#231f20;fill-rule:nonzero;"/><path d="M132.163,121.125c-6.871,9.17 -13.796,12.983 -20.792,12.983c-5.462,-0 -11.404,-2.371 -17.729,-7.438c-1.396,-1.141 -3.429,-0.904 -4.55,0.492c-1.121,1.383 -0.896,3.446 0.5,4.558l0,-0.012c7.067,5.675 14.404,8.879 21.779,8.879l0.046,0c9.546,0 18.425,-5.462 25.933,-15.596c1.071,-1.454 0.767,-3.471 -0.662,-4.546c-1.425,-1.058 -3.471,-0.745 -4.525,0.68" style="fill:#231f20;fill-rule:nonzero;"/><path d="M91.26,92.759c0.6,-0.888 1.041,-1.354 1.412,-1.763c0.454,-0.354 1.008,-0.779 1.996,-1.371c1.458,-1.029 1.783,-3.075 0.746,-4.516c-1.034,-1.467 -3.063,-1.792 -4.521,-0.734l-0,-0.041c-0.063,0.071 -0.133,0.112 -0.204,0.154c-2.775,0.55 -1.95,0.946 -2.788,1.358c-0.433,0.846 -0.791,-0.187 -1.483,2.609c-0.042,0.054 -0.079,0.112 -0.125,0.154c-1.15,1.383 -0.967,3.416 0.417,4.575c0.604,0.491 1.337,0.733 2.075,0.733c0.912,0 1.837,-0.396 2.475,-1.158" style="fill:#231f20;fill-rule:nonzero;"/><path d="M127.097,85.972c1.404,0.762 2.979,1.2 4.608,1.2c0.079,0.012 0.083,-0 0.092,-0c0.054,-0 0.112,0.012 0.162,0.012c1.383,0 2.667,-0.887 3.092,-2.241c0.366,-1.117 0.579,-2.175 0.591,-3.263c0,-1.158 -0.304,-2.596 -1.412,-3.712c-1.088,-1.13 -2.563,-1.496 -3.692,-1.48c-1.754,0.03 -3.237,0.563 -4.958,1.367c-1.2,0.567 -1.933,1.779 -1.842,3.092c0,2.087 1.55,4.204 3.359,5.025m2.887,-5.8l-0.108,0.241l0.183,-0.129l-0.183,0.129l0.108,-0.241Zm-0.221,0.479l0.213,-0.017l-0.213,0.017Z" style="fill:#231f20;fill-rule:nonzero;"/><path d="M103.261,105.29c-0.113,1.85 -1.009,5.221 -1.042,8.454c0.017,1.438 0.138,2.992 1.146,4.613c0.95,1.625 3.037,2.654 4.912,2.654c0.084,-0 0.155,-0.013 0.25,-0.013c2.05,-0.016 4.113,-0.679 6.7,-1.862c1.609,-0.779 2.309,-2.713 1.546,-4.321c-0.754,-1.625 -2.696,-2.313 -4.316,-1.567c-1.83,0.892 -3.113,1.213 -3.713,1.259c-0.029,-0.184 -0.05,-0.455 -0.05,-0.763c-0.012,-1.975 0.783,-5.196 1.029,-8.004c0.059,-1.071 0.084,-2.046 0.084,-3.033c-0.013,-6.28 -1.192,-11.896 -1.175,-17.342c-0,-0.367 0.012,-0.763 0.033,-1.2c0.046,-1.779 -1.363,-3.304 -3.138,-3.346c-1.795,-0.054 -3.275,1.354 -3.337,3.15c-0.017,0.404 -0.038,0.871 -0.038,1.396c0.021,6.321 1.196,11.95 1.18,17.342c-0,0.85 -0.03,1.695 -0.071,2.583" style="fill:#231f20;fill-rule:nonzero;"/></svg>