<?xml version="1.0" encoding="UTF-8" standalone="no"?><!DOCTYPE svg PUBLIC "-//W3C//DTD SVG 1.1//EN" "http://www.w3.org/Graphics/SVG/1.1/DTD/svg11.dtd"><svg width="100%" height="100%" viewBox="0 0 305 337" version="1.1" xmlns="http://www.w3.org/2000/svg" xmlns:xlink="http://www.w3.org/1999/xlink" xml:space="preserve" xmlns:serif="http://www.serif.com/" style="fill-rule:evenodd;clip-rule:evenodd;stroke-linejoin:round;stroke-miterlimit:2;"><path d="M27.525,2.1l-10.288,-2.1l6.155,6.808c-0.417,-0.046 -0.859,-0.116 -1.292,-0.116c-8.383,0.125 -13.692,6.841 -17.004,13.77c-3.354,7.109 -4.992,15.18 -5.084,20.917c0,0.092 -0.012,0.279 -0.012,0.508c0.104,18.717 8.979,37.555 10.654,54.309c0.663,6.425 0.858,12.671 0.858,19.025c0,2.979 -0.079,6.016 -0.12,9.054c-0.121,5.971 -0.271,12.025 -0.271,18.433c-0,1.392 0.004,2.817 0.016,4.279c0.08,13.438 4.192,21.563 10,28.105c2.83,3.2 6.042,6.016 9.413,8.879l-4.075,-0l-0,0.071c0.262,13.562 -13.075,31.22 -13.413,46.7c0,0.416 0.005,0.845 0.034,1.3c0.816,10.187 11.566,29.679 16.337,37.095c20.142,30.192 51.975,31.038 83.342,36.975c36.067,6.759 76.65,9.796 111.721,19.95c3.212,0.905 6.858,2.055 10.771,3.213c11.55,3.479 25.391,7.304 37.529,7.342c7.279,-0.013 14.187,-1.405 19.475,-5.696c4.808,-3.942 7.683,-10.109 8.171,-18.309c0.054,-0.854 0.104,-1.737 0.095,-2.637c0,-0.421 -0.041,-0.858 -0.041,-1.288c2.462,-3.537 3.562,-7.77 3.554,-12.162c-0.129,-13.646 -9.183,-29.821 -20.696,-43.233c-9.767,-11.084 -21.033,-20.2 -31.733,-23.05c-9.471,-19.617 -9.971,-55.905 -11.067,-77.725c-0.258,-4.555 -0.371,-9.113 -0.371,-13.705c0,-17.079 1.454,-34.387 2.146,-51.683c0.204,-5.229 0.367,-10.433 0.367,-15.675c-0,-3.096 -0.05,-6.204 -0.163,-9.287l-0.087,-3.121l-2.067,-0.15l-1.054,-0.046c-74.037,-5.029 -139.517,-41.958 -211.8,-56.75m-7.212,158.704c-1.042,-2.85 -1.742,-6.129 -2.08,-10.142c-0.1,-1.204 -0.162,-2.458 -0.179,-3.779c-0.041,-1.437 -0.054,-2.804 -0.054,-4.175c0,-9.458 0.388,-18.433 0.413,-27.487c-0.025,-6.484 -0.205,-12.996 -0.917,-19.746c-2.017,-18.375 -10.683,-37.063 -10.6,-53.588c-0,-0.091 -0,-0.229 0.008,-0.429c0.017,-4.483 1.55,-12.054 4.413,-18.037c2.912,-6.146 6.854,-9.971 10.783,-9.842c1.433,0 3.175,0.463 5.258,1.667c1.225,12.137 6.017,21.425 7.2,33.104c0.3,2.85 0.434,5.725 0.434,8.658c-0,11.684 -2.084,23.834 -2.104,36.729c-0,2.505 0.087,5.034 0.279,7.58c0.475,6.054 0.625,12.245 0.6,18.529c0.025,12.058 -0.563,24.391 -0.563,36.566c0,7.246 0.221,14.425 0.9,21.463c-6.362,-5.475 -11.158,-9.8 -13.791,-17.071m267.591,164.763c-3.421,2.85 -8.662,4.15 -15.108,4.137c-4.388,0.013 -9.229,-0.612 -14.183,-1.575c-11.292,-2.146 -23.221,-6.075 -32.209,-8.683c-36.05,-10.425 -76.837,-13.417 -112.362,-20.104c-32.479,-6.017 -61.05,-7.05 -78.879,-34.005c-4.28,-6.204 -15.059,-27.2 -15.196,-33.704c-0.025,-0.325 -0.025,-0.625 -0.029,-0.891c-0.292,-10.138 9.879,-25.138 12.7,-40.071c5.558,17.425 2.725,45.066 14.937,62.537c14.767,19.304 53.217,15.663 72.346,20.292c58.712,12.983 115.85,23.592 173.717,36.529c-0.025,3.375 -0.442,6.113 -1.142,8.375c-1.004,3.242 -2.604,5.517 -4.592,7.163m-9.766,-67.767c10.941,12.5 19.15,28.242 19.025,38.725c-0.013,2.446 -0.463,4.533 -1.271,6.329l-1.717,0.221c-57.683,-12.867 -114.517,-23.421 -172.762,-36.304c-20.884,-4.192 -58.509,-2.884 -68.255,-17.596c-10.254,-13.692 -8,-40 -13.779,-59.675c2.238,-0.125 4.475,-0.229 6.729,-0.229c35.913,-0.034 74.313,16.021 110.288,26.479c27.621,7.975 59.683,11.596 85.725,20.871l-0,0.033c-0,-0.025 0.012,-0.025 0.012,-0.025c2.555,0.942 5.134,1.821 7.563,2.854l10.187,4.321l-2.283,-3.604c6.704,3.85 14.15,10.112 20.538,17.6m-34.371,-28.438c-0.4,0.021 -0.813,0.009 -1.204,0.092c-26.767,-9.171 -58.071,-12.696 -84.259,-20.312c-35.454,-10.238 -74.296,-26.7 -112.196,-26.759c-1.533,0 -3.058,0.046 -4.579,0.104c-1.1,-8.337 -1.437,-17.091 -1.437,-26.075c-0,-11.929 0.579,-24.287 0.579,-36.566c-0,-6.388 -0.142,-12.754 -0.629,-19.038c-0.192,-2.375 -0.254,-4.716 -0.254,-7.071c-0.021,-12.116 2.075,-24.254 2.079,-36.729c-0,-3.096 -0.129,-6.25 -0.463,-9.391c-1.658,-14.63 -7.241,-24.417 -7.462,-36.613l0.321,-0.404c66.85,15.196 129.629,49.042 201.47,54.883c0.038,1.984 0.075,3.988 0.075,5.971c0.013,21.958 -2.504,44.6 -2.504,67.358c0,4.696 0.104,9.392 0.371,14.088c1.25,20.487 1.125,54.004 10.092,76.462" style="fill:#231f20;fill-rule:nonzero;"/><path d="M209.257,132.656c1.288,-11.804 4.925,-20.716 5.021,-29.354c0.1,-4.683 -1.416,-9.146 -4.825,-13.146c-2.462,-2.866 -5.854,-5.508 -10.475,-7.791c-15.962,-8.175 -33.55,-12.513 -51.346,-16.096c-24.516,-4.925 -49.42,-8.496 -71.245,-18.629c-1.517,-0.696 -3.05,-1.38 -4.538,-2.155l-3.525,-1.833l-1.3,3.767c-0.042,0.104 -0.054,0.196 -0.075,0.312c-0.208,0.65 -0.358,1.288 -0.462,1.95c-0.084,0.45 -0.13,0.904 -0.167,1.346c-0.05,0.554 -0.108,1.113 -0.108,1.633c-0,1.113 0.07,2.18 0.187,3.234c-1.433,4.579 -2.396,9.371 -3.096,14.262c-1.025,7.059 -1.479,14.375 -1.479,21.804c0.017,19.967 2.621,40.625 2.621,58.155c-0,3.02 -0.063,5.937 -0.238,8.745l-0.225,3.546l3.575,0.092c0.292,0.012 0.609,0.033 0.892,0.046c24.017,0.662 52.367,6.287 76.417,12.512c3.791,0.975 8.458,2.596 13.529,4.392c12.55,4.479 27.8,10.146 40.258,10.204c2.917,0 5.738,-0.325 8.367,-1.137c0.8,-0.23 1.554,-0.534 2.312,-0.855c0.042,-0.012 0.088,-0.037 0.121,-0.05l3.021,-1.366l-1.229,-3.063c-0.075,-0.162 -0.121,-0.366 -0.196,-0.529c-2.371,-6.204 -3.308,-15.667 -3.292,-25.217c0,-8.895 0.73,-17.904 1.5,-24.779m-5.6,49.621c-1.5,0.313 -3.17,0.488 -5.004,0.488c-14.833,0.116 -37.887,-10.596 -52.079,-14.375c-23.492,-6.063 -51.054,-11.642 -75.329,-12.646c0.062,-1.859 0.079,-3.738 0.079,-5.629c0,-1.38 -0.096,-2.85 -0.112,-4.255c-0.275,-13.029 -1.509,-27.033 -2.134,-40.912c-0.2,-4.358 -0.35,-8.708 -0.35,-12.988c-0.021,-13.666 1.3,-26.687 5.529,-37.679c39.688,17.892 86.259,15.784 121.559,34.225c9.825,5.313 11.371,9.059 11.558,14.796c0.096,6.479 -3.479,15.896 -4.946,28.6c-0.804,7.029 -1.571,16.267 -1.571,25.533c0.03,8.788 0.667,17.609 2.8,24.842" style="fill:#231f20;fill-rule:nonzero;"/><path d="M85.494,247.47c53.321,4.35 131.016,15.825 174.95,39.337l3.241,-6.075c-45.929,-24.425 -123.816,-35.637 -177.625,-40.137l-0.566,6.875Z" style="fill:#231f20;fill-rule:nonzero;"/><path d="M244.033,248.41c-23.141,-6.771 -66.179,-11.825 -79.775,-16.417c-34.779,-11.571 -70,-17.392 -105.075,-27.05l-1.816,6.658c35.537,9.746 70.625,15.567 104.708,26.929c10.258,3.375 32.296,6.6 52.75,10.4c10.183,1.905 19.9,3.93 27.254,6.1c7.334,1.925 12.209,5.017 12.075,5.496l6.188,-3.025c-2.842,-4.858 -8.529,-6.566 -16.309,-9.091" style="fill:#231f20;fill-rule:nonzero;"/></svg>