<?xml version="1.0" encoding="UTF-8" standalone="no"?><!DOCTYPE svg PUBLIC "-//W3C//DTD SVG 1.1//EN" "http://www.w3.org/Graphics/SVG/1.1/DTD/svg11.dtd"><svg width="100%" height="100%" viewBox="0 0 220 351" version="1.1" xmlns="http://www.w3.org/2000/svg" xmlns:xlink="http://www.w3.org/1999/xlink" xml:space="preserve" xmlns:serif="http://www.serif.com/" style="fill-rule:evenodd;clip-rule:evenodd;stroke-linejoin:round;stroke-miterlimit:2;"><path d="M0.492,60.327c-0.371,0.862 -0.542,1.758 -0.4,2.641c-0,0.138 -0,0.321 0.021,0.459c-0.05,0.362 -0.092,0.72 -0.113,1.062l0.192,0.042c0.121,1.3 0.341,2.2 0.321,3.021c-0,0.641 -0.071,1.1 -0.292,1.7l4.833,1.72c1.171,16.092 4.371,27.8 12.129,41.988l8.109,-3.158c-0.263,-1.084 -0.404,-2.125 -0.404,-3.184c-0.059,-5.562 3.525,-11.866 9.579,-16.712c6.041,-4.863 14.308,-8.104 22.575,-8.104c7.145,0.016 14.271,2.32 20.583,8.125c7.246,6.683 9.238,11.766 9.288,16.291c0.658,11.309 -16.292,24.538 -23.859,43.15c-5.3,13.871 -7.846,26.338 -7.846,37.363c-0.05,15.275 5.075,27.883 14.584,36.371c9.483,8.425 22.866,12.608 38.725,12.608c14.3,-0 30.671,-3.304 48.683,-10.129l5.575,-2.104l-3.671,-4.7c-18.325,-22.538 -50.496,-35.925 -51.316,-60.705c-0.071,-0.679 -0.092,-1.2 -0.092,-1.7c-0.992,-24.216 34.937,-47.412 35.596,-86.541c-0,-1.7 -0.042,-3.484 -0.221,-5.3c-1.721,-20.234 -9.925,-35.588 -21.504,-46.275c-13.242,-12.267 -30.892,-18.371 -48.484,-18.254c-13.308,-0.059 -26.8,3.404 -38.55,10.15c-17.229,9.845 -30.65,26.716 -34.041,50.175m72.591,-51.559c29.5,0.2 57.7,17.813 61.263,56.521c0.137,1.5 0.2,3.021 0.2,4.542c0.65,33.425 -34.625,54.979 -35.583,86.541c-0,0.763 0.016,1.542 0.1,2.342c2.379,29.5 32.62,43.071 49.183,60.742c-14.883,5.108 -28.3,7.504 -39.729,7.504c-28.792,-0.479 -44.179,-13.708 -44.563,-40.229c0,-9.663 2.284,-21.134 7.296,-34.242c5.483,-15.75 23.729,-28.037 24.4,-46.271c0.021,-7.566 -3.825,-15.229 -12.092,-22.775c-7.925,-7.287 -17.341,-10.371 -26.366,-10.371l-0.15,0c-16.442,0.184 -32.121,9.55 -38.238,22.496c-3.841,-10.383 -5.062,-20.512 -5.512,-36.146l-0.163,-4.979l-2.629,0.421c7.633,-30.262 35.042,-45.996 62.583,-46.096" style="fill:#231f20;fill-rule:nonzero;"/><path d="M128.77,294.251l0,-0.025l0,0.025Z" style="fill:#231f20;fill-rule:nonzero;"/><path d="M170.76,265.329l-2.379,-2.063l-2.704,1.6c-17.575,10.829 -25.379,16.034 -26.146,25.079c-0.033,1.663 0.396,3.246 1.058,4.642l7.954,-3.721c-0.229,-0.458 -0.27,-0.679 -0.27,-0.921c-0.059,-0.441 0.441,-2.2 3.945,-5.304c3.013,-2.721 7.975,-6.204 15.188,-10.587c14.733,13.312 25.871,28.262 38.508,44.791c-15.471,6.346 -31.812,13.713 -46.491,20.138c-9.067,-15.875 -16.28,-31.163 -22.446,-47.796l-8.204,3.063c6.783,18.291 14.816,35.025 25.025,52.558l1.941,3.321l3.563,-1.542c17.404,-7.525 37.258,-16.612 55.229,-23.758l5.392,-2.159l-3.542,-4.625c-14.7,-19.033 -27.308,-36.825 -45.621,-52.716" style="fill:#231f20;fill-rule:nonzero;"/></svg>