<?xml version="1.0" encoding="UTF-8" standalone="no"?><!DOCTYPE svg PUBLIC "-//W3C//DTD SVG 1.1//EN" "http://www.w3.org/Graphics/SVG/1.1/DTD/svg11.dtd"><svg width="100%" height="100%" viewBox="0 0 688 198" version="1.1" xmlns="http://www.w3.org/2000/svg" xmlns:xlink="http://www.w3.org/1999/xlink" xml:space="preserve" xmlns:serif="http://www.serif.com/" style="fill-rule:evenodd;clip-rule:evenodd;stroke-linejoin:round;stroke-miterlimit:2;"><path d="M685.417,95.554c-3.47,-3.671 -4.687,-5.267 -7.016,-7.746c-2.546,-2.696 -2.225,-2.779 -4.771,-5.475c-14.296,-15.158 -16.788,-18.642 -17.809,-19.458c-0.154,-0.125 -4.991,-5.309 -11.266,-12.046c-0.488,-0.954 -1.113,-1.846 -2.025,-2.558c-0.359,-0.275 -0.725,-0.513 -1.083,-0.784c-6.505,-6.979 -13.892,-14.904 -19.192,-20.558c-1.996,-2.821 -4.067,-5.583 -6.283,-8.217c-2.734,-3.254 -5.959,-5.858 -9.25,-8.516c-1.217,-0.988 -2.438,-1.971 -3.659,-2.955c0.146,-0.17 -0.608,-1.358 -1.891,-2.179c-0.184,-0.121 -0.371,-0.229 -0.563,-0.329c-0.037,0.196 0.021,0.404 0.117,0.617c-1.513,-1.221 -3.025,-2.446 -4.542,-3.667c-0.008,-0.062 -0.025,-0.121 0,-0.179c0.096,-0.154 0,-0.288 -0.229,-0.296c-0.896,-0.025 -2.317,-2.083 -2.821,-0.771c-0.129,0.329 -0.446,0.417 -1.083,0.284c-0.734,-0.146 -0.946,-0.055 -1.121,0.491c-0.417,1.25 0.6,2.6 -0.296,1.854c-0.558,-0.462 -0.612,-0.108 -0.171,1.096c0.2,0.538 0.209,0.963 0,1.196c-0.604,0.733 0.558,2.017 -0.416,1.625c-0.417,-0.175 -0.492,-0.087 -0.309,0.479c0.321,0.979 0.263,1.759 -0.471,6.088c-0.704,5.158 -0.908,10.371 -0.604,15.571c-12.021,-0.55 -561.621,-0.367 -573.616,0.554c-0.013,0.054 -0.021,0.108 -0.034,0.162c-0.262,0.004 -0.521,-0.046 -0.783,-0.021c-0.708,0.063 -1.392,0.159 -2.054,0.296c-0.025,-0.304 -0.084,-0.466 -0.154,-0.291c-0.121,0.208 -0.33,0.341 -0.521,0.487c-0.384,0.1 -0.771,0.192 -1.138,0.329c-1.146,-0.183 -2.179,-1.379 -1.075,-0.946c0.609,0.234 1.009,-0.591 0.525,-0.287c-0.196,0.121 -0.358,0.087 -0.358,-0.075c-0,-0.483 -1.517,0.371 -1.704,0.954c-0.067,0.196 -0.142,0.3 -0.246,0.342c-0.154,-0.071 -0.325,-0.079 -0.488,-0.109l-0.054,-0.012l-0.033,-0.004c-0.117,-0.017 -0.221,-0.084 -0.346,-0.079c-0.025,-0 -0.046,0.016 -0.071,0.016c-0.154,-0.025 -0.296,-0.112 -0.45,-0.066c-0.016,0.058 -0.021,0.116 -0.037,0.175c-0.146,0.037 -0.309,0.025 -0.446,0.1c-0.308,0.1 -0.571,0.279 -0.8,0.512c-0.071,-0.496 -0.246,-0.579 -0.725,-0.579c-1.638,-0 -0.146,2.171 -1.221,2.587c-0.487,0.342 -0.604,1.013 -0.262,1.496c0.07,0.104 0.162,0.192 0.262,0.263c0.25,0.091 0.463,0.304 0.463,0.441c-0,0.392 -0.934,0.342 -0.967,-0.045c-0,-0.188 -0.163,0.208 -0.313,0.866c-0.208,0.909 -0.183,1.275 0.113,1.459c0.296,0.183 0.317,0.241 -0,0.241c-0.238,0.038 -0.4,0.254 -0.375,0.492c-0,0.179 -0.071,0.283 -0.171,0.304c-0.05,0.229 0.079,0.462 0.3,0.542c0.879,0.416 0.3,0.6 -0.417,0.496c0.675,5.02 -1.187,33.92 -0.704,39.783c-0.125,0.804 -0.254,1.604 -0.321,2.412c-0.029,0.355 -0.016,0.705 0.025,1.055c0.017,0.125 0.038,0.254 0.055,0.379c-0.342,3.029 -0.346,11.762 -0.463,37.171c-0.079,18.662 -0.125,29.308 0.175,35.416c0.258,0.146 0.446,0.717 0.475,1.821c0.071,2.613 2.275,0.529 2.367,3.896c0.046,1.762 -0.446,1.733 -0.959,2.187l0.159,0.084c0.325,0.183 0.696,0.262 1.066,0.216c0.15,-0.091 0.255,0 0.255,0.221c-0,0.221 0.075,0.304 0.166,0.209c1.396,0.05 2.763,0.416 3.992,1.075c0.362,0.27 0.8,0.416 1.25,0.416c1.292,0.029 2.575,0.217 3.817,0.563c0.391,0.241 4.408,0.383 8.579,0.833c2.037,0.025 4.066,0.204 6.075,0.538c0.229,0.354 -2.284,-0.067 -2.284,0.32c2.063,0.525 4.184,0.78 6.309,0.746c6.004,0 2.312,-0.371 -3.688,-0.929l3.971,0c4.858,0 5.938,0.45 4.971,0.513c-0.558,0.033 -0.563,0.062 -0.075,0.358c0.542,0.204 1.121,0.271 1.692,0.196c1,-0.109 1.062,-0.154 0.462,-0.354c-0.371,-0.13 -0.687,-0.321 -0.687,-0.417c1.941,-0.188 3.887,-0.246 5.833,-0.171c4.742,0 543.417,-0.054 543.417,-0.392c-0,-0.55 0.612,-0.512 0.612,-0.112c0,0.167 0.267,0.308 0.583,0.308c0.834,0 1.067,0.517 0.417,0.909c-0.296,0.17 -0.362,0.316 -0.146,0.329c0.217,0.012 0.417,0.416 0.417,1.012c-0,1.117 0.141,0.9 0.421,-0.787c0.271,-1.621 0.875,-1.209 0.679,-0.688c-0.263,0.679 -1.471,11.004 -1.525,13.009c-0,0.22 -0.113,0.391 -0.254,0.391c-0.205,-1.562 -0.142,-3.15 0.187,-4.687c0.225,-1.484 -0.775,-2.05 -0.775,3.75c0.059,0.816 -0.062,1.637 -0.35,2.404c-0.266,0.262 -0.183,0.317 0.309,0.187c0.575,-0.158 0.654,-0.045 0.654,0.875c0.029,0.488 -0.092,0.975 -0.342,1.392c-0.25,0.25 -0.142,0.45 0.342,0.713c1.254,0.658 1.504,-0.055 1.7,-4.65c0.266,-6.209 0.471,-4.946 0.612,-8.471c-0.033,-1.029 0.063,-2.059 0.288,-3.063c0.133,-1.054 0.525,-2.008 0.833,-2.008c0.167,-0 0.296,0.133 0.296,0.296l-0,0.012c-0,0.496 -1.042,0.134 -0.329,0.584c0.391,0.25 0.416,0.6 0.033,2.7c-1.029,6.012 -0.471,9.95 -0.971,9.95c-0.254,0.775 -0.333,1.591 -0.233,2.4c0.058,3.829 0.175,0.058 0.746,-0.13c0.391,-0.133 0.308,2.205 -0.163,4.65c-0.262,1.371 -0.262,1.888 0,2.055c0.263,0.166 0.271,0.537 0.175,0.954c-0.1,0.416 -0.108,0.562 0,0.341c0.071,-0.208 0.246,-0.366 0.463,-0.416c0.479,-0 -0.392,2.729 0.22,2.35c0.471,-0.296 0.45,0.329 0.059,0.571c-0.371,0.529 -0.417,1.22 -0.125,1.8c0.104,0.104 0.45,0.054 0.746,-0.1c0.691,-0.367 0.554,0.179 0.72,0.645c0.476,-0.416 2.413,-0.479 2.671,0c0.971,-0.416 1.905,-0.979 2.021,-1.333c0.092,-0.292 0.346,-0.5 0.65,-0.537c0.417,-0 0.417,0.075 0.063,0.537c-0.359,0.463 -0.292,0.417 0.266,-0.046c0.713,-0.612 0.942,-1 0.396,-0.658c-0.387,0.233 -0.55,-0.15 0.288,-0.688c0.391,-0.25 0.612,-0.275 0.612,-0.075c0,0.417 0.834,-0.025 1.809,-0.945c0.416,-0.371 0.754,-0.625 0.833,-0.571c0.175,0.179 -1.908,2.37 -2.621,2.754c-0.363,0.196 -0.583,0.417 -0.492,0.525c1.246,-0.508 2.38,-1.258 3.334,-2.208c0.075,-0.138 0.25,-0.188 0.391,-0.109l0.025,0.017c0.33,0.329 2.271,-1.642 2.271,-2.3c-0.008,-0.3 0.229,-0.55 0.529,-0.563l0.009,0c0.662,0 3.237,-2.412 3.075,-2.879c-0.163,-0.471 1.012,-1.725 1.446,-1.55c1.666,-1.121 3.087,-2.575 4.166,-4.266c0,-0.55 -1.954,1.925 -2.458,1.925c-0.758,-0 6.25,-6.992 6.021,-6.55c-0.371,0.704 0.316,0.833 3.466,-2.913c1.5,-1.612 2.863,-3.342 4.084,-5.171c-0,-0.496 -2.775,2.779 -2.775,2.459c-0,-0.321 2.171,-3.005 2.687,-2.809c0.517,0.192 1.317,-0.129 1.317,-0.562c0.187,-0.479 0.479,-0.904 0.858,-1.254c1.196,-1.271 5.563,-6.334 6.296,-6.863c0.733,-0.533 0.337,-0.967 1.088,-1.667c0.679,-0.616 35.916,-41.316 36.57,-41.987c0.534,-0.504 1.017,-1.063 1.438,-1.667c0.225,-0.375 0.517,-0.712 0.858,-0.987c0.975,-0.925 5.142,-5.871 6.188,-7.363c0.416,-0.558 0.908,-0.958 1.121,-0.879c0.212,0.079 0.458,-0.208 0.57,-0.767c0.167,-0.833 0.25,-0.887 0.88,-0.55c0.629,0.334 0.637,0.305 0.308,-0.054c-0.463,-0.483 -0.492,-1.196 -0.054,-1.196c0.437,0 1.379,1.446 1.7,1.134c0.125,-0.125 -0,-0.421 -0.317,-0.629c-0.471,-0.346 -0.517,-0.896 -0.696,-1.617c0.517,-0.488 0.963,-1.033 1.292,-1.663c0.421,0.405 0.829,0.829 1.271,1.217c0.133,0 0.095,-0.167 -0.092,-0.354c-0.229,-0.4 -0.304,-0.867 -0.208,-1.317c0.104,-0.612 -0.121,-1.208 -0.529,-1.658c-0.059,-0.604 -0.276,-1.171 -0.63,-1.683c0.088,0.091 0.138,0.141 0.238,0.254c0.517,0.521 0.971,1.104 1.354,1.733c-0,0.342 2.317,0.988 -1.867,-3.454Zm-0.708,1.412l-0.017,0.13c0.009,-0.055 0.009,-0.109 0.013,-0.163l0.004,0.033Z" style="fill:#64338c;fill-rule:nonzero;"/></svg>