<?xml version="1.0" encoding="UTF-8" standalone="no"?><!DOCTYPE svg PUBLIC "-//W3C//DTD SVG 1.1//EN" "http://www.w3.org/Graphics/SVG/1.1/DTD/svg11.dtd"><svg width="100%" height="100%" viewBox="0 0 151 198" version="1.1" xmlns="http://www.w3.org/2000/svg" xmlns:xlink="http://www.w3.org/1999/xlink" xml:space="preserve" xmlns:serif="http://www.serif.com/" style="fill-rule:evenodd;clip-rule:evenodd;stroke-linejoin:round;stroke-miterlimit:2;"><path d="M140.868,87.807c-2.547,-2.694 -2.223,-2.78 -4.77,-5.474c-14.296,-15.163 -16.788,-18.643 -17.809,-19.462c-0.156,-0.124 -5.257,-5.596 -11.798,-12.616c-0.36,0.244 -0.614,0.522 -0.584,0.987c0.087,1.322 -1.054,0.3 -2.944,0.425c-0.004,-0.068 -1.121,0.096 -1.159,-0.506c-0.022,-0.322 1.881,-1.484 3.008,-2.71c-11.787,-12.651 -27.062,-29.046 -27.261,-29.046c-0.141,-0 -0.268,0.221 -0.268,0.463c0,0.249 -0.095,0.47 -0.195,0.47c-0.263,0 -1.505,-1.43 -1.741,-1.692c1.398,-0.336 1.854,0.107 -2.787,-4.642c-5.281,-5.402 -5.294,-4.749 -1.894,-1.223c1.276,1.324 2.31,2.533 2.31,2.701c-0,0.167 -0.209,0.134 -0.45,-0.074c-0.242,-0.203 -0.719,-0.295 -1.041,-0.195c-0.417,0.135 -0.746,-0.061 -1.162,-0.672c-0.31,-0.463 -0.538,-1.068 -0.497,-1.316c0.107,-0.686 -1.754,-2.809 -2.372,-2.701c-0.282,0.047 -0.853,-0.188 -1.269,-0.525c-0.286,-0.225 -0.695,-0.654 -1.091,-1.113c0.005,0.695 1.387,1.434 0.779,2.108c-0.63,0.699 -4.321,-2.629 -3.691,-3.327c0.68,-0.755 -1.919,-2.925 -2.864,-2.39c-1.036,0.585 -0.854,-1.227 -0.957,-1.114c-0.127,-1.133 -0.001,-1.9 0.279,-2.397c-0.033,-0.093 -0.032,-0.192 0.013,-0.264c0.095,-0.155 -0.013,-0.289 -0.235,-0.296c-0.893,-0.026 -2.317,-2.076 -2.815,-0.772c-0.127,0.328 -0.45,0.409 -1.081,0.281c-0.733,-0.147 -0.947,-0.053 -1.122,0.491c-0.403,1.23 0.598,2.6 -0.295,1.854c-0.559,-0.463 -0.613,-0.108 -0.169,1.095c0.201,0.538 0.208,0.961 0.007,1.195c-0.604,0.732 0.558,2.016 -0.436,1.626c-0.437,-0.174 -0.492,-0.087 -0.31,0.478c0.323,0.981 0.262,1.76 -0.471,6.086c-0.751,4.447 -0.645,6.617 -0.604,15.572c-18.156,-0.124 -32.129,-0.442 -36.059,0.555c-0.047,0.187 -0.09,0.39 -0.122,0.607c0.029,-0.002 0.059,-0.005 0.089,-0.006c0.066,-0.018 0.133,-0.034 0.205,-0.054c0.638,-0.175 1.451,-0.316 1.787,-0.308c0.513,0.009 0.108,0.239 -0.621,0.489c0.054,0.01 0.104,0.018 0.16,0.03c4.025,0.83 1.074,2.397 2.7,2.732c0.381,0.078 0.565,0.769 0.408,1.534c-0.337,1.631 -5.321,1.015 -6.716,-0.831c0.03,-0.146 -1.665,-2.347 0.049,-1.994c0.636,0.131 0.703,-0.189 0.79,-0.578c-0.053,-0.079 -0.109,-0.165 -0.168,-0.254c-1.37,0.126 -1.4,0.098 -1.419,-0.739c-0.014,-0.484 -0.087,-0.699 -0.175,-0.484c-0.08,0.208 -0.41,0.524 -0.753,0.706c-1.336,0.718 -3.385,-1.385 -1.98,-0.846c0.61,0.235 1.007,-0.592 0.524,-0.289c-0.195,0.12 -0.358,0.086 -0.358,-0.075c0,-0.484 -1.517,0.37 -1.705,0.954c-0.142,0.43 -0.296,0.478 -0.787,0.221c-0.343,-0.181 -0.736,-0.237 -0.9,-0.133c-0.165,0.105 -0.295,1.222 -0.295,2.519c-0,2.028 -0.061,2.284 -0.464,1.955c-0.322,-0.27 -0.463,-0.967 -0.463,-2.311c0,-1.861 -0.034,-1.935 -0.786,-1.935c-1.639,0 -0.147,2.17 -1.223,2.587c-0.611,0.235 -0.611,1.531 0,1.76c0.248,0.093 0.463,0.302 0.463,0.443c0,0.39 -0.934,0.342 -0.967,-0.047c-0.02,-0.189 -0.161,0.208 -0.315,0.866c-0.208,0.908 -0.182,1.277 0.115,1.459c0.315,0.194 0.315,0.241 0.005,0.241c-0.208,-0 -0.376,0.222 -0.376,0.49c0,0.178 -0.071,0.283 -0.172,0.304c-0.017,0.214 0.007,0.41 0.298,0.542c0.881,0.4 0.301,0.6 -0.435,0.495c0.72,5.35 -1.446,37.83 -0.577,40.633c0.101,0.331 0.144,0.617 0.138,0.879c0.103,0.023 0.21,0.053 0.32,0.091c1.362,-2.358 5.704,-0.268 2.302,2.013l-0.145,0.095c0.004,0.049 0.007,0.098 0.004,0.147c-0.158,0.123 0.183,2.917 -1.73,0.905c-0.627,0.267 -0.735,-0.047 -0.793,-0.951c-0.157,-0.207 -0.295,-0.402 -0.408,-0.579c-0.389,2.643 -0.388,10.997 -0.508,37.567c-0.079,18.663 -0.125,29.31 0.176,35.401c0.26,0.147 0.446,0.716 0.475,1.819c0.071,2.612 2.277,0.528 2.366,3.894c0.047,1.763 -0.445,1.731 -0.957,2.187c0.051,0.03 0.103,0.059 0.157,0.084c0.443,0.202 0.927,0.302 1.068,0.215c0.148,-0.094 0.255,-0 0.255,0.222c0,0.214 0.074,0.302 0.168,0.208c0.255,-0.255 3.642,0.658 3.991,1.074c0.175,0.203 0.732,0.384 1.242,0.404c1.472,0.06 3.481,0.362 3.816,0.564c0.39,0.242 4.407,0.383 8.579,0.813c3.991,0.417 5.864,0.215 6.073,0.538c0.229,0.356 -2.284,-0.068 -2.284,0.322c0,0.269 4.084,0.746 6.308,0.746c6.006,-0.014 2.311,-0.369 -3.687,-0.928l3.969,-0c4.857,-0.013 5.939,0.451 4.971,0.511c-0.557,0.033 -0.564,0.061 -0.073,0.357c0.302,0.174 1.055,0.261 1.693,0.194c1.001,-0.108 1.062,-0.155 0.463,-0.356c-0.369,-0.127 -0.685,-0.322 -0.685,-0.429c0,-0.109 2.628,-0.182 5.851,-0.169c4.744,0.02 5.859,-0.053 5.859,-0.39c-0,-0.55 0.611,-0.511 0.611,-0.114c-0,0.168 0.269,0.31 0.585,0.31c0.833,-0 1.068,0.516 0.416,0.906c-0.296,0.169 -0.363,0.315 -0.147,0.33c0.228,0.006 0.402,0.423 0.408,1.014c0.021,1.115 0.142,0.9 0.425,-0.787c0.274,-1.619 0.88,-1.209 0.678,-0.685c-0.262,0.679 -1.472,11.004 -1.526,13.006c-0.006,0.222 -0.114,0.39 -0.254,0.39c-0.236,-0 -0.134,-2.613 0.187,-4.688c0.229,-1.486 -0.772,-2.05 -0.772,3.761c-0,1.121 -0.164,2.214 -0.356,2.405c-0.265,0.264 -0.182,0.316 0.309,0.188c0.578,-0.154 0.659,-0.047 0.659,0.88c-0,0.584 -0.155,1.203 -0.343,1.391c-0.249,0.249 -0.148,0.45 0.343,0.712c1.242,0.659 1.498,-0.053 1.699,-4.649c0.269,-6.207 0.47,-4.945 0.611,-8.471c0.115,-2.997 0.122,-1.807 0.29,-3.064c0.134,-1.055 0.523,-2.009 0.82,-2.009c0.166,0 0.295,0.135 0.295,0.31c-0,0.497 -1.048,0.135 -0.33,0.584c0.39,0.249 0.397,0.599 0.035,2.7c-1.029,6.013 -0.472,9.95 -0.975,9.95c-0.148,-0 -0.255,1.075 -0.235,2.399c0.06,3.829 0.174,0.06 0.745,-0.129c0.39,-0.134 0.309,2.205 -0.161,4.65c-0.262,1.369 -0.262,1.887 -0,2.055c0.201,0.121 0.276,0.538 0.175,0.954c-0.108,0.418 -0.108,0.565 -0,0.343c0.101,-0.222 0.309,-0.397 0.463,-0.397c0.478,0 -0.39,2.728 0.223,2.351c0.469,-0.295 0.449,0.33 0.06,0.572c-0.343,0.209 -0.438,1.491 -0.122,1.801c0.105,0.102 0.451,0.053 0.746,-0.101c0.69,-0.367 0.553,0.178 0.717,0.645c0.473,-0.434 2.413,-0.481 2.671,0.003c0.97,-0.415 1.906,-0.979 2.021,-1.334c0.093,-0.288 0.388,-0.537 0.651,-0.537c0.41,0 0.423,0.073 0.061,0.537c-0.343,0.444 -0.29,0.437 0.268,-0.047c0.712,-0.611 0.94,-1.001 0.396,-0.658c-0.389,0.235 -0.551,-0.148 0.289,-0.685c0.391,-0.248 0.611,-0.276 0.611,-0.075c0,0.41 0.833,-0.026 1.808,-0.947c0.397,-0.369 0.753,-0.624 0.813,-0.571c0.175,0.182 -1.909,2.372 -2.621,2.755c-0.362,0.195 -0.584,0.43 -0.49,0.524c0.188,0.187 2.956,-1.639 3.333,-2.203c0.113,-0.169 0.315,-0.216 0.436,-0.095c0.329,0.33 2.27,-1.638 2.27,-2.297c0,-0.316 0.235,-0.564 0.539,-0.564c0.664,-0 3.238,-2.412 3.076,-2.882c-0.154,-0.464 1.014,-1.72 1.444,-1.551c0.423,0.16 4.185,-3.683 4.185,-4.268c0,-0.55 -1.954,1.929 -2.458,1.929c-0.759,-0 6.255,-6.994 6.02,-6.55c-0.369,0.706 0.315,0.826 3.466,-2.91c1.202,-1.43 4.094,-4.715 4.085,-5.172c-0.01,-0.498 -2.775,2.781 -2.775,2.459c-0,-0.262 2.17,-3.004 2.686,-2.808c0.538,0.208 1.318,-0.128 1.318,-0.565c-0,-0.194 0.376,-0.745 0.859,-1.263c1.197,-1.276 5.562,-6.335 6.295,-6.866c0.759,-0.557 0.337,-0.967 1.088,-1.652c0.68,-0.618 35.916,-41.316 36.573,-41.988c0.787,-0.805 1.438,-1.558 1.438,-1.659c0,-0.101 0.39,-0.55 0.86,-0.988c0.973,-0.926 5.14,-5.87 6.188,-7.363c0.402,-0.557 0.906,-0.96 1.12,-0.88c0.235,0.095 0.458,-0.208 0.572,-0.765c0.168,-0.833 0.248,-0.886 0.88,-0.552c0.591,0.31 0.638,0.303 0.309,-0.053c-0.464,-0.484 -0.49,-1.196 -0.054,-1.196c0.478,0 1.378,1.452 1.7,1.135c0.125,-0.122 -0.02,-0.416 -0.316,-0.63c-0.806,-0.592 -0.308,-1.707 -1.491,-3.441c-0.45,-0.658 -0.752,-1.296 -0.672,-1.417c0.081,-0.121 -0.175,-0.296 -0.583,-0.403c-0.412,-0.101 -0.955,-0.51 -1.225,-0.927c-0.436,-0.659 -0.436,-0.786 -0.039,-1.121c0.248,-0.209 0.456,-0.256 0.456,-0.115c0,0.148 0.121,0.074 0.262,-0.148c0.283,-0.45 0.954,-0.242 0.954,0.296c0,0.174 -0.14,0.234 -0.302,0.134c-0.168,-0.101 -0.302,-0.074 -0.296,0.06c0.015,0.343 4.495,5.039 4.804,5.039c0.135,-0 0.094,-0.161 -0.094,-0.356c-0.195,-0.195 -0.283,-0.779 -0.208,-1.316c0.1,-0.74 -0.06,-1.182 -0.672,-1.862c-0.685,-0.759 -0.894,-0.839 -1.384,-0.537c-0.316,0.194 -0.78,0.275 -1.035,0.175c-0.658,-0.255 -0.611,-1.103 0.047,-0.988c0.357,0.06 0.572,-0.155 0.645,-0.645c0.108,-0.685 0.188,-0.645 1.472,0.772c0.745,0.834 1.357,1.606 1.357,1.733c-0,0.343 2.317,0.99 -1.868,-3.452c-3.459,-3.674 -4.675,-5.273 -7.007,-7.753Zm-105.107,-55.42c0.44,-0.296 0.646,-1.646 0.561,-1.589c0.071,-2.913 0.81,-0.543 1.839,-1.233c0.814,-0.545 1.375,0.29 0.56,0.836c-1.071,0.718 1.429,2.094 -2.149,2.887c-0.978,0.217 -1.544,-0.411 -0.811,-0.901Zm0.217,7.982c-0.73,-0.492 2.255,-0.304 2.922,-0.012c0.978,0.431 -2.382,0.378 -2.922,0.012Zm-13.714,-0.439c2.308,0.259 3.437,0.838 1.235,0.611c-0.964,-0.1 -5.403,-0.423 -5.403,-0.856c-0,-0.39 1.468,-0.06 4.168,0.245Zm-19.306,91.287c-2.525,0.46 -0.2,-1.001 -1.757,-2.08c0.084,-0.122 -0.881,-0.52 0.07,-1.159c1.511,-1.015 2.254,2.232 3.367,0.624c1.455,-2.103 3.598,1.655 -1.68,2.615Zm44.571,23.464c-0.476,1.309 -0.636,1.489 -1.161,1.298c-1.486,-0.542 1.823,-4.986 2.311,-4.809c0.759,0.278 -0.155,0.78 -1.15,3.511Zm6.559,-147.977c0.125,-0.133 0.152,-0.664 0.058,-1.181c-0.45,-2.484 2.321,-2.148 3.537,0.429c0.342,0.725 -1.493,2.794 -2.576,2.905c-1.101,0.112 -1.789,-1.339 -1.019,-2.153Zm4.19,16.181c-0.147,0.108 -0.266,0.619 -0.266,1.136c-0.001,2.487 -2.629,1.674 -3.354,-1.037c-0.203,-0.764 1.94,-2.446 3.009,-2.363c1.088,0.084 1.498,1.611 0.611,2.264Zm6.363,143.395c0,-1.828 -0.76,-1.89 -0.264,-2.494c0.382,-0.464 0.697,-0.552 0.434,-0.122c-0.108,0.177 0.001,0.318 0.247,0.318c0.23,0 0.619,0.22 0.818,0.464c0.317,0.389 0.269,0.464 -0.293,0.464c-0.587,0 -0.662,0.135 -0.587,1.064c0.115,1.421 -0.355,1.901 -0.355,0.306Zm1.883,8.703c-0.346,0.441 -0.558,0.929 -0.464,1.077c0.097,0.151 -0.147,0.268 -0.563,0.268c-0.634,-0 -0.716,-0.122 -0.611,-0.904c0.08,-0.587 0.264,-0.854 0.525,-0.758c0.221,0.079 0.499,0.002 0.612,-0.171c0.11,-0.168 0.427,-0.318 0.672,-0.318c0.366,-0 0.33,0.17 -0.171,0.806Zm4.816,-143.356c-0.23,0.225 -1.149,-0.437 -1.149,-0.828c0,-0.362 1.295,0.015 1.931,0.563c0.293,0.253 0.537,0.603 0.537,0.769c0,0.452 -1.032,-0.786 -1.319,-0.504Zm21.89,23.765c0.896,1.026 1.22,1.613 0.893,1.613c-0.065,0 -0.64,-0.635 -1.26,-1.393c-1.36,-1.662 -1.052,-1.847 0.367,-0.22Zm-9.801,94.02c-0.894,0.996 -1.529,1.595 -1.529,1.957c0,0.31 -0.822,0.71 -1.319,0.976c1.167,-1.46 2.921,-3.764 3.3,-3.764c0.164,0 -0.036,0.366 -0.452,0.831Zm7.014,-0.15c-0.695,2.908 -4.17,-1.184 -1.203,-1.588c1.323,-0.181 1.554,0.123 1.203,1.588Zm0.454,-96.046c-0.318,-0.29 -0.664,-0.412 -0.795,-0.281c-0.509,0.509 0.382,-1.162 -0.647,-1.162c-0.269,0 -0.412,-0.126 -0.318,-0.28c0.24,-0.396 -1.687,-1.449 -1.687,-1.969c0,-0.355 -0.367,-0.855 -2.549,-3.471c-1.414,-1.693 -0.658,-1.222 1.136,0.709c0.905,0.974 2.302,2.64 3.076,3.667c0.773,1.027 1.628,2.055 1.881,2.261c0.618,0.504 0.656,1.212 -0.097,0.526Zm5.904,11.711c-0.514,-0.447 -0.684,-0.477 -0.819,-0.148c-0.095,0.228 -0.144,0.136 -0.11,-0.207c0.036,-0.368 -0.106,-0.588 -0.343,-0.539c-0.219,0.047 -0.325,-0.047 -0.232,-0.207c0.23,-0.395 -1.862,-2.927 -2.994,-4.425c-1.055,-1.397 -1.267,-2.069 1.308,1.235c1.264,1.621 4.143,5.116 3.19,4.291Zm0.595,-3.888c-0.842,-0.876 -2.186,-2.864 -2.881,-3.863c0.242,0.257 4.242,4.462 3.985,4.462c2.129,2.872 3.116,3.092 1.919,3.092c-0.391,0 -0.631,-0.089 -0.526,-0.195c0.201,-0.2 -1.157,-2.103 -2.497,-3.496Zm6.662,7.529c-0.411,-0.833 2.484,2.371 2.484,2.788c0,0.381 -2.062,-1.932 -2.484,-2.788Zm6.873,12.957c-0.154,-0.41 0.135,-0.099 1.785,1.931c0.735,0.905 1.277,1.693 1.209,1.76c-0.129,0.13 -2.793,-3.153 -2.994,-3.691Zm12.04,9.094c-0.423,0 -1.108,-1.54 -1.773,-1.54c-0.268,0 -0.407,-0.113 -0.318,-0.257c0.044,-0.071 -0.239,-0.507 -0.73,-1.149c-0.714,0.114 -0.512,1.017 -1.204,0.909c-0.442,-0.07 -0.406,-1.468 -0.15,-2.578c-0.19,-0.226 -0.389,-0.456 -0.592,-0.69c-4.366,-5.006 -7.943,-9.405 -8.582,-9.643c-0.394,-0.147 -1.244,-1.48 -1.771,-2.775c-0.178,-0.439 0.158,-0.074 2.278,2.468c0.684,0.823 5.294,6.037 8.801,10.143c0.172,-0.523 0.395,-0.892 0.631,-0.855c0.915,0.143 -0.054,1.143 1.237,1.345c1.042,0.163 0.894,1.611 -0.025,1.69c1.442,1.729 2.381,2.932 2.198,2.932Zm6.221,-10.39c-2.809,-3.15 -2.051,-2.689 0.502,0.208c2.546,2.89 2.313,2.949 -0.502,-0.208Zm4.506,5.256c-1.936,-2.458 -1.586,-2.347 0.618,0.195c2.128,2.455 1.557,2.566 -0.618,-0.195Z" style="fill:#39bdc8;fill-rule:nonzero;"/></svg>