<?xml version="1.0" encoding="UTF-8" standalone="no" ?>
<!DOCTYPE svg PUBLIC "-//W3C//DTD SVG 1.1//EN"
  "http://www.w3.org/Graphics/SVG/1.1/DTD/svg11.dtd">
<svg
  width="100%"
  height="100%"
  viewBox="0 0 106 108"
  version="1.1"
  xmlns="http://www.w3.org/2000/svg"
  xmlns:xlink="http://www.w3.org/1999/xlink"
  xml:space="preserve"
  xmlns:serif="http://www.serif.com/"
  style="fill-rule:evenodd;clip-rule:evenodd;stroke-linejoin:round;stroke-miterlimit:2;"><path
    d="M4.506,8.215c1.288,-0 0.614,1.077 0.047,0.957c-0.704,-0.15 -1.093,1.645 -2.096,1.645c-0.537,-0 -0.582,0.12 -0.162,0.614c0.4,0.478 0.341,0.552 -0.346,0.388c-0.599,-0.15 -0.957,0.074 -1.152,0.689c-0.162,0.479 -0.464,0.897 -0.671,0.897c-0.556,-0 0.927,2.183 0.598,2.691c-0.12,0.195 0.134,1.302 0.551,2.394c0.584,1.51 0.645,2.078 0.257,2.197c-0.271,0.106 -0.405,0.359 -0.271,0.569c0.134,0.224 -0.075,0.405 -0.448,0.405c-0.763,-0 -0.927,1.076 -0.24,1.51c0.24,0.149 0.45,0.03 0.45,-0.239c-0,-0.389 0.134,-0.404 0.584,-0.031c0.313,0.254 0.72,0.333 0.879,0.165c0.156,-0.161 0.15,0.076 -0.029,0.522c-0.195,0.54 -0.148,0.72 0.179,0.524c0.554,-0.344 2.021,2.124 1.646,2.738c-0.136,0.209 0.299,0.777 0.956,1.255c0.643,0.479 0.93,0.883 0.629,0.897c-0.403,0.016 -0.433,0.24 -0.09,0.899c0.255,0.477 0.719,0.867 1.034,0.867c0.328,0 0.582,0.508 0.582,1.195c0.018,0.745 1.497,4.128 2.956,6.679c0.781,0.041 1.678,0.446 1.282,1.756c-0.019,0.058 -0.041,0.109 -0.061,0.162c0.48,0.646 0.899,1.051 1.192,1.051c0.448,-0 1.286,0.432 1.811,0.927c0.763,0.731 0.791,0.867 0.193,0.658c-0.671,-0.239 -0.702,-0.15 -0.285,0.642c0.436,0.793 0.405,0.898 -0.163,0.673c-0.539,-0.208 -0.612,-0.074 -0.329,0.689c0.179,0.523 0.553,0.942 0.806,0.942c0.614,-0 1.361,0.896 0.63,0.493c-1.467,-0.823 0.568,2.528 1.211,2.138c0.464,-0.283 1.406,1.362 1.465,2.573c0.03,0.479 0.315,0.883 0.614,0.883c1.164,0 3.634,4.426 1.137,1.66l-1.078,-1.211c0.749,1.599 1.856,4.097 2.319,4.097c0.597,0 -0.374,-1.496 0.342,-1.047c0.255,0.149 0.36,0.553 0.24,0.852c-0.12,0.315 0.12,1.227 0.54,2.019c2.976,5.624 3.44,4.667 2.227,2.962c-1.21,-1.705 -0.433,-1.929 0.808,0.417c0.508,0.973 0.718,1.752 0.478,1.752c-0.702,0 2.543,5.413 2.948,5.009c0.342,-0.343 1.823,1.107 1.823,1.796c-0,0.343 -0.193,0.492 -0.434,0.343c-0.553,-0.359 -0.701,0.733 0.302,0.568c0.97,-0.165 1.29,1.197 0.626,0.777c-0.274,-0.172 -0.494,-0.225 -0.494,-0.103c-0,0.463 3.873,7.133 4.816,6.565c0.447,-0.285 1.165,0.912 0.447,0.478c-2.136,-1.316 3.949,7.119 4.952,7.119c0.134,-0 0.118,-0.239 -0.044,-0.553c-0.585,-1.152 2.856,3.305 1.554,2.512c-0.717,-0.449 0.553,1.931 2.767,5.16c1.017,1.482 1.959,3.005 2.124,3.409c0.464,1.242 2.451,4.212 2.783,4.158c1.176,-0.19 1.839,0.24 2.332,1.48l0.553,1.407c0.388,-2.483 0.509,-3.574 0.897,-2.707c0.179,0.404 0.495,0.657 0.688,0.538c0.673,-0.418 0.105,1.975 -0.674,2.826c-0.987,1.092 -0.313,1.362 1.018,-0.448c0.523,-0.718 1.196,-1.302 1.495,-1.286c0.36,0.015 0.33,0.149 -0.09,0.388c-0.343,0.21 -0.642,0.778 -0.69,1.257c-0.058,0.732 0.062,0.808 0.69,0.48c2.273,-1.198 0.507,0.621 1.317,1.135c0.228,0.143 0.405,-0.15 0.405,-0.657c-0,-0.524 0.176,-0.823 0.402,-0.674c0.582,0.388 -0.402,2.707 -0.402,3.156c-0,0.075 0.313,0.12 0.657,0.12c0.478,-0 0.584,-0.27 0.388,-1.062c-0.702,-2.813 3.575,-2.363 4.246,-3.455c0.181,-0.3 0.314,-0.134 0.33,0.373c0.016,0.793 0.061,0.808 0.466,0.121c0.238,-0.404 0.82,-0.748 1.271,-0.748c0.6,-0 0.946,-0.286 1.003,-0.692c-0.366,-0.123 -3.655,-0.128 -0.832,-2.322c-0.032,-0.907 0.377,-1.816 0.993,-1.577c1.213,0.463 -0.236,-1.542 0.509,-2.513c0.215,-0.28 1.033,-1.959 1.808,-3.754c4.204,-9.691 0.794,-1.016 20.685,-44.028c16.376,-35.4 14.718,-33.082 15.389,-33.83c0.493,-0.539 0.45,-2.708 -0.059,-3.021c-0.283,-0.179 -0.199,-0.529 0.238,-0.972c0.611,-0.615 0.601,-0.747 0.045,-1.062c-0.462,-0.254 -0.582,-0.853 -0.417,-2.303c0.208,-1.75 0.134,-1.958 -0.643,-1.958c-0.48,0 -0.972,-0.374 -1.093,-0.824c-0.508,-1.959 -5.428,-3.454 -6.028,-2.511c-0.207,0.328 0.017,0.612 0.629,0.777c0.867,0.225 0.822,0.271 -0.344,0.434c-1.481,0.21 -3.678,-0.373 -3.678,-0.973c-0,-0.508 -3.919,-0.478 -3.919,-0.029c0,0.434 -1.554,0.148 -5.07,0.104c-2.197,-0.03 -2.663,-0.15 -2.451,-0.672c0.221,-0.524 -0.18,-0.643 -2.185,-0.643c-1.72,-0 -2.438,0.178 -2.438,0.568c0,0.417 -0.793,0.553 -3.021,0.508c-4.128,-0.105 -3.784,-0.643 -2.573,-0.733c0.583,-0.03 -0.224,-0.18 -1.793,-0.315c-3.678,-0.328 -8.315,-0.089 -8.002,0.419c0.33,0.524 -0.956,0.599 -1.165,-0.06c-0.257,-0.776 -12.443,-0.403 -13.597,0.031c-0.582,0.225 -1.076,0.269 -1.076,0.105c-0,-0.523 -8,-0.031 -8.36,0.507c-0.238,0.375 -0.313,0.345 -0.313,-0.059c-0,-0.763 -1.002,-0.673 -0.643,-0.12c0.358,0.569 -0.509,0.569 -0.853,0.015c-0.148,-0.239 -0.508,-0.314 -0.852,-0.193c-0.33,0.119 -1.465,-0 -2.499,-0.286c-1.69,-0.463 -7.06,-0.643 -8.673,-0.299c-0.329,0.075 -0.514,-0.131 -0.433,-0.477c0.116,-0.492 -0.344,-0.553 -2.379,-0.331c-8.51,0.914 -5.787,0.765 -9.466,2.348c-2.932,1.257 -2.02,1.197 1.717,-0.119c3.247,-1.122 8.915,-1.914 8.915,-1.226c0,0.568 -5.564,1.496 -7.163,1.823c-0.973,0.182 -2.362,0.659 -3.141,1.064c-0.747,0.389 -1.689,0.717 -2.049,0.717c-0.973,-0 -3.41,1.766 -4.38,1.766c-0.346,-0 -0.631,0.194 -0.631,0.417c-0,0.225 -0.312,0.434 -0.655,0.434c-0.855,-0 -0.975,0.868 0.252,0.868Z"
    style="fill:hsla(329, 85%, 43%, 1);fill-rule:nonzero;" /></svg>
