<?xml version="1.0" encoding="UTF-8" standalone="no"?><!DOCTYPE svg PUBLIC "-//W3C//DTD SVG 1.1//EN" "http://www.w3.org/Graphics/SVG/1.1/DTD/svg11.dtd"><svg width="100%" height="100%" viewBox="0 0 921 568" version="1.1" xmlns="http://www.w3.org/2000/svg" xmlns:xlink="http://www.w3.org/1999/xlink" xml:space="preserve" xmlns:serif="http://www.serif.com/" style="fill-rule:evenodd;clip-rule:evenodd;stroke-linejoin:round;stroke-miterlimit:2;"><path d="M900.128,472.721c-5.001,1.068 -6.902,0.941 -3.948,-0.264c1.153,-0.472 1.167,-0.798 0.052,-1.139c-1.166,-0.361 -1.137,-0.65 0.11,-1.135c2.357,-0.92 -0.602,-1.693 -1.249,-0.22c-0.622,1.436 -6.408,2.729 -7.473,1.672c-1.135,-1.124 -13.436,1.157 -14.416,2.67c-0.427,0.659 -1.174,0.705 -1.581,0.1c-0.463,-0.688 -1.191,-0.54 -1.806,0.361c-0.615,0.901 -1.175,1 -1.383,0.242c-0.185,-0.661 -0.635,-1.036 -0.949,-0.784c-4.104,3.352 -23.491,6.363 -26.739,6.05c-1.755,-0.171 -3.441,0.329 -3.761,1.113c-0.317,0.78 -1.627,1.267 -2.882,1.079c-3.508,-0.532 0.875,-0.644 0.157,-1.362c-0.524,-0.524 -7.683,1.301 -5.689,1.846c1.978,0.541 -0.983,1.888 -1.874,0.552c-0.678,-1.019 -1.89,-0.468 -3.363,1.526c-0.417,0.56 -0.934,0.5 -1.104,-0.127c-0.42,-1.57 -3.512,-0.779 -1.709,-0.275c1.834,0.512 1.17,1.035 -2.647,2.095c-1.785,0.492 -3.336,0.469 -3.475,-0.06c-0.134,-0.512 -0.926,-0.222 -1.704,0.624c-0.784,0.845 -1.789,1.098 -2.17,0.544c-0.951,-1.388 -4.195,0.046 -2.45,0.531c1.654,0.455 -5.229,2.302 -5.753,1.778c-0.577,-0.577 4.132,-1.288 3.557,-1.863c-0.217,-0.217 -2.907,0.346 -5.925,1.229c-7.667,2.25 -0.691,1.476 0.121,0.664c0.723,-0.723 2.264,0.515 -3.668,2.186c-4.398,1.236 -6.351,1.133 -3.322,-0.181c2.155,-0.933 0.839,-1.002 -2.406,-0.126c-1.619,0.44 -2.073,0.829 -1.236,1.056c3.539,0.973 -4.223,2.282 -5.556,2.555l2.123,-1.291c1.188,-0.713 -0.199,-0.685 -3.13,0.067c-7.26,1.867 -5.826,3.136 -2.669,1.831c1.38,-0.574 2.76,-0.871 2.988,-0.643c0.791,0.791 -26.397,9.777 -26.99,7.75c-0.252,-0.866 -0.846,-0.577 -1.779,0.876c-0.935,1.453 -2.257,2.096 -3.974,1.933c-1.536,-0.147 -2.9,0.417 -3.379,1.394c-0.455,0.937 -1.998,1.577 -3.598,1.493c-1.487,-0.075 -2.799,0.189 -2.793,0.569c0.006,0.395 -2.76,1.362 -6.186,2.162c-3.429,0.797 -6.284,1.959 -6.392,2.604c-0.112,0.648 -0.499,0.855 -0.888,0.467c-1.024,-1.024 -12.306,3.079 -12.713,1.648c-0.373,-1.321 -3.429,-0.637 -1.625,-0.117c1.665,0.482 1.175,2.649 -0.672,2.97c-2.117,0.369 -3.767,2.504 -9.162,4.82c-3.661,1.573 -29.24,14.56 -30.037,14.406c-0.437,-0.084 -2.675,1.605 -4.908,3.707c-2.456,2.313 -5.006,3.874 -6.353,3.893c-2.674,0.033 -5.132,2.202 -4.649,4.103c0.466,1.848 -15.235,17.581 -15.298,16.381c-0.137,-2.665 10.063,-10.76 1.707,-5.017c-2.247,1.55 -4.389,3.477 -4.82,4.344c-1.067,2.141 -3.359,1.014 -2.474,0.129c0.386,-0.386 0.193,-1.276 -0.41,-1.878c-0.601,-0.601 -1.631,-0.654 -2.172,-0.113c-1.54,1.54 -2.842,-0.346 -1.691,-2.448c0.766,-1.393 -0.148,-1.395 -4.508,-0.008c-5.017,1.595 -5.448,1.553 -5.244,-0.531c0.495,-4.948 -1.797,1.348 -6.77,-3.625c-1.925,-1.925 -2.309,-3.081 -1.684,-5.046c0.44,-1.401 0.225,-2.841 -0.48,-3.19c-0.848,-0.418 -0.347,-2.841 1.467,-7.094c3.126,-7.33 11.955,-18.398 26.739,-33.529c7.289,-7.453 9.287,-9.068 10.769,-8.69c1.532,0.39 1.75,0.207 1.392,-1.154c-0.225,-0.858 0.185,-1.747 0.872,-1.891c0.71,-0.151 2.434,-1.197 3.814,-2.314c2.097,-1.695 2.238,-2.205 0.837,-3.064c-0.932,-0.568 -2.515,-0.56 -3.563,0.016c-1.037,0.577 -2.968,0.567 -4.304,-0.021c-1.335,-0.587 -2.809,-0.679 -3.288,-0.2c-0.487,0.487 -1.253,0.623 -1.751,0.308c-1.31,-0.827 -8.567,-0.762 -9.644,-1.838c-0.422,-0.423 -1.212,-0.292 -1.807,0.304c-0.598,0.597 -1.716,0.751 -2.574,0.353c-2.285,-1.061 -2.51,1.384 -4.715,0.328c-0.814,-0.394 -1.018,-0.984 -0.461,-1.329c2.554,-1.594 4.783,-1.795 8.438,-0.757c4.212,1.196 6.706,-0.482 4.777,-3.215c-1.165,-1.648 -9.234,-2.021 -10.861,-0.503c-0.503,0.471 -1.18,0.412 -1.544,-0.137c-0.364,-0.542 -1.645,-0.775 -2.907,-0.522c-6.661,1.336 -9.065,1.14 -7.311,2.446c1.917,1.425 3.101,0.614 3.499,2.086c0.409,1.503 -4.9,2.618 -10.206,2.149c-12.056,-1.058 -40.436,0.626 -39.825,-2.206c0.23,-1.103 -0.17,-1.417 -1.746,-1.368c-1.472,0.048 -1.793,0.322 -1.147,0.968c4.9,4.9 -110.202,-4.507 -142.294,-9.799c-4.026,-0.663 -7.282,-0.842 -7.355,-0.399c-0.069,0.422 -0.549,0.372 -1.031,-0.11c-2.149,-2.148 -62.319,-10.223 -67.919,-11.795c-5.071,-1.425 -17.264,-2.934 -17.225,-2.135c0.022,0.377 2.846,1.184 6.218,1.775l6.187,1.092c-6.935,-0.691 -11.581,-0.849 -14.115,-3.383c-1.861,-1.861 -1.893,-2.211 -0.204,-2.319c1.767,-0.112 1.733,-0.168 -0.314,-0.531c-1.225,-0.215 -2.279,-0.029 -2.256,0.398c0.059,1.197 -7.718,0.619 -8.059,-0.598c-0.161,-0.566 0.643,-1.071 1.783,-1.122c1.215,-0.054 0.41,-0.47 -1.941,-1.002c-4.51,-1.021 -5.832,-0.692 -2.248,0.557c4.131,1.442 0.436,1.371 -7.899,-0.154c-6.607,-1.209 -7.924,-1.765 -8.448,-3.571c-1.073,-3.677 -0.732,0.845 -2.988,0.157c-0.71,-0.216 -1.35,0.167 -1.492,0.894c-0.153,0.786 -0.392,0.752 -0.632,-0.091c-0.584,-2.073 -26.172,-7.854 -27.133,-8.815c-0.249,-0.249 0.145,-0.559 0.878,-0.694c1.841,-0.341 -1.397,-1.393 -1.63,-0.058c-0.273,1.588 -14.597,-4.01 -7.572,-2.885c2.356,0.379 2.356,0.35 0.014,-0.554c-1.389,-0.536 -2.553,-0.536 -2.652,0.005c-0.098,0.534 -1.006,0.828 -2.045,0.666c-1.455,-0.235 -1.736,-0.565 -1.277,-1.494c0.375,-0.757 -0.318,-0.97 -1.883,-0.585c-1.541,0.384 -3.164,-0.075 -4.308,-1.219c-1.141,-1.141 -2.92,-1.673 -4.717,-1.412c-1.611,0.235 -3.167,-0.153 -3.515,-0.875c-0.852,-1.754 -17.876,-8.102 -19.731,-7.359c-0.85,0.345 -1.981,0.19 -2.508,-0.337c-0.66,-0.66 -0.391,-0.814 0.847,-0.489c6.203,1.625 -11.104,-6.328 -11.402,-4.593c-0.107,0.657 -0.526,0.474 -0.961,-0.418c-0.418,-0.864 -5.355,-3.36 -10.902,-5.507c-26.467,-10.265 -57.856,-29.301 -63.124,-32.045c-3.098,-1.616 -4.287,-2.756 -18.493,-12.582c-23.32,-16.128 -56.156,-43.937 -74.509,-69.527c-2.229,-3.108 -12.679,-16.654 -13.273,-20.033c-0.129,-0.735 -1.517,-3.647 -3.101,-6.511c-4.717,-8.514 -16.748,-38.738 -17.395,-43.69c-0.151,-1.17 -0.49,-2.344 -0.756,-2.609c-1.176,-1.176 -4.337,-18.023 -4.728,-25.206c-0.47,-8.552 0.804,-24.569 2.367,-29.835c0.519,-1.756 1.689,-3.787 2.61,-4.544c0.896,-0.729 1.335,-1.476 0.949,-1.608c-0.666,-0.224 -1.133,-7.029 -0.569,-8.307c0.173,-0.395 0.64,-1.045 1.109,-1.549c0.438,-0.471 0.91,-1.961 1.026,-3.253c0.173,-1.886 -0.161,-2.436 -1.618,-2.65c-1.454,-0.208 -1.696,-1.206 -1.154,-4.785c1.166,-7.722 4.246,-16.348 6.165,-17.248c1.176,-0.557 1.799,-1.81 1.719,-3.484c-0.213,-4.579 8.421,-20.739 18.644,-34.905c14.431,-19.998 37.456,-38.092 70.102,-55.094c24.447,-12.733 62.227,-25.136 104.944,-34.45c28.478,-6.211 29.846,-6.434 30.544,-5.069c0.775,1.516 7.853,2.215 8.116,0.805c0.268,-1.425 11.353,0.949 -2.651,4.286c-54.776,13.06 -56.97,15.1 -57.739,14.362c-0.626,-0.605 -5.749,1.06 -6.941,2.252c-0.489,0.489 -1.143,0.591 -1.497,0.237c-0.352,-0.352 -2.718,-0.004 -5.3,0.772c-7.797,2.344 -2.924,2.931 5.787,0.692c18.547,-4.757 51.061,-11.823 54.502,-11.838l3.67,-0.013c-1.639,0.685 -5.306,2.177 -5.9,2.77c-0.728,0.728 11.663,-1.234 18.431,-2.922c3.471,-0.864 6.964,-1.609 7.861,-1.678c2.195,-0.164 3.107,1.048 1.337,1.771c-2.122,0.862 0.499,3.007 2.285,2.285c2.406,-0.97 3.352,0.967 1.033,2.119c-1.193,0.593 0.23,0.773 3.475,0.439c4.32,-0.45 5.412,-0.218 5.093,1.084c-0.568,2.355 -3.874,3.89 -5.931,2.753c-2.088,-1.155 -6.203,0.888 -6.289,3.127c-0.039,0.938 -0.275,1.72 -0.546,1.786c-0.264,0.065 0.302,0.032 1.279,-0.077c16.196,-1.799 16.089,-1.804 17.326,0.709c0.795,1.612 1.782,2.467 2.967,2.567c1.396,0.115 1.464,0.217 0.312,0.472c-0.83,0.181 -1.731,0.979 -2.074,1.827c-0.507,1.264 -0.245,1.571 1.608,1.881c1.544,0.257 1.779,0.462 0.776,0.668c-2.073,0.427 -0.419,1.685 4.196,3.192c2.177,0.714 3.754,1.516 3.472,1.766c-1.118,0.986 -7.754,4.656 -7.325,6.062c0.167,0.552 1.067,0.254 1.988,-0.667c1.68,-1.681 4.815,-1.065 4.448,0.87c-0.281,1.493 -23.803,6.546 -22.937,8.119c1.038,1.884 -5.104,2.941 -5.068,4.197c0.089,3.305 20.876,-4.377 22.562,-2.692c0.336,0.336 -0.351,0.84 -1.566,1.145c-1.473,0.368 -1.916,0.794 -1.385,1.325c0.424,0.424 0.103,1.458 -0.709,2.271c-1.462,1.461 -1.447,1.484 0.95,1.276c2.09,-0.187 2.276,-0.049 1.304,0.978c-1.751,1.847 -2.677,-0.524 -5.584,2.817c-1.222,1.409 -4.64,3.056 -8.704,4.195c-8.546,2.401 -13.04,5.922 -0.601,2.433c11.598,-3.249 16.267,-4.219 16.961,-3.525c0.326,0.326 0.36,0.727 0.083,1.004c-0.253,0.253 -19.782,6.072 -43.468,12.951c-39.987,11.61 -67.306,20.515 -69.41,22.619c-0.486,0.486 -1.557,0.898 -2.269,0.875c-1.556,-0.055 -14.285,5.765 -18.225,8.332c-0.693,0.449 -16.826,6.945 -20.626,10.7c-2.07,2.048 -5.023,2.812 -4.731,1.228c0.111,-0.596 2.831,-2.372 5.973,-3.891c13.277,-6.429 6.591,-7.069 -4.239,0.531c-3.243,2.282 -3.368,1.424 -8.398,5.262c-3.775,2.881 -5.404,3.918 -10.262,6.539c-2.747,1.479 -4.089,1.65 -4.61,0.594c-1.179,-2.404 -2.944,1.735 -6.443,3.2c-1.531,0.641 -1.472,0.781 0.427,1.071c3.246,0.498 1.787,1.468 -2.084,1.393c-3.098,-0.061 -3.19,0.018 -2.745,2.295c0.426,2.155 0.059,2.608 -4.133,5.136c-6.561,3.951 -18.163,15.319 -20.253,19.855c-3.153,6.816 -3.568,8.214 -2.555,8.496c1.2,0.346 11.018,-9.684 10.939,-11.17c-0.029,-0.565 -1.163,0.083 -2.518,1.438c-3.21,3.21 -5.385,2.907 -0.929,-0.82c2.19,-1.823 3.64,-2.376 4.363,-1.653c0.734,0.734 1.444,0.467 2.207,-0.829c2.847,-4.849 25.134,-26.464 26.191,-25.406c0.231,0.231 3.567,-1.854 7.399,-4.633c3.835,-2.777 7.74,-5.194 8.671,-5.364c5.714,-1.05 -12.046,8.839 -16.402,13.513c-1.829,1.967 -1.916,2.27 -0.354,1.219c5.964,-4.01 3.59,2.291 2.353,1.053c-0.943,-0.943 -5.74,3.799 -4.739,4.8c0.395,0.395 0.266,1.239 -0.277,1.782c-1.247,1.246 -2.598,0.12 -1.94,-1.618c0.267,-0.695 -0.494,-0.329 -1.721,0.828c-1.338,1.264 -2.818,1.783 -3.78,1.315c-0.973,-0.471 -1.681,-0.202 -1.845,0.704c-0.592,3.275 -21.216,20.817 -19.683,25.454c0.3,0.902 0.132,2.153 -0.353,2.638c-0.501,0.502 -2.151,3.482 -3.621,6.565c-3.194,6.671 -4.234,13.309 -2.028,12.932c1.413,-0.246 1.433,-0.084 0.225,1.636c-2.934,4.171 15.138,50.873 19.902,51.55c1.357,0.192 2.985,1.704 5.74,5.324c4.918,6.472 23.079,22.847 36.033,32.495c5.928,4.416 10.383,8.298 10.955,9.544c0.531,1.157 0.588,1.801 0.132,1.434c-6.721,-5.41 -2.886,-0.804 -33.056,-26.882c-2.901,-2.508 -5.516,-4.517 -5.877,-4.519c-0.375,-0.004 -0.117,0.535 0.604,1.256c0.723,0.723 0.939,1.591 0.507,2.023c-0.448,0.447 -0.02,1.1 1.049,1.592c0.998,0.459 3.78,2.59 6.196,4.744c25.655,22.861 23.293,18.722 31.68,24.893c4.534,3.339 4.033,0.581 2.147,-0.347c-0.894,-0.437 -1.057,-1.165 -0.407,-1.814c0.694,-0.695 2.467,-0.247 4.936,1.253c2.098,1.27 3.876,2.703 3.896,3.135c0.073,1.383 5.382,1.193 2.631,1.763c-2.068,0.425 0.589,2.846 2.444,2.119c0.781,-0.302 1.994,-0.066 2.563,0.503c0.813,0.813 0.561,1.213 -0.999,1.603c-1.348,0.336 -3.832,-0.677 -7.046,-2.872c-6.549,-4.479 -7.163,-3.715 -1.601,0.458c6.273,4.704 5.045,4.843 9.835,7.177c4.084,1.991 6.757,3.739 9.137,5.236l-2.816,-4.766c42.733,28.025 85.824,40.504 90.201,43.859c0.64,0.494 2.445,1.045 4.051,1.239c2.655,0.324 5.593,1.143 10.811,3.014c3.688,1.326 9.757,2.105 11.071,3.419c0.712,0.712 0.945,0.511 0.984,-0.862c0.038,-1.362 0.704,-1.725 2.773,-1.513c3.275,0.337 3.052,1.162 -0.265,0.989c-5.917,-0.309 5.169,4.536 10.307,5.324c0.938,0.145 1.422,0.531 1.101,0.881c-0.311,0.347 0.462,0.245 1.728,-0.223c1.265,-0.472 2.419,-0.385 2.575,0.191c0.149,0.549 1.112,1.003 2.047,0.961c1.369,-0.065 1.52,-0.322 0.678,-1.164c-0.602,-0.602 -1.219,-0.545 -1.389,0.127c-0.569,2.243 -1.342,-3.932 2.747,0.078c1.276,1.25 2.842,1.647 4.556,1.157c1.432,-0.41 3.033,-0.329 3.542,0.18c0.541,0.542 1.155,0.654 1.455,0.264c0.834,-1.059 3.625,0.01 4.629,1.77c0.525,0.918 1.438,1.524 2.133,1.414c0.657,-0.103 1.36,0.327 1.53,0.935c0.186,0.657 0.498,0.861 0.755,0.485c1.325,-1.932 3.188,-2.776 4.107,-1.856c0.575,0.575 1.9,0.979 3.038,0.927c1.141,-0.054 2.346,0.309 2.772,0.836c1.555,1.929 2.802,2.607 3.5,1.909c0.408,-0.408 0.11,-0.89 -0.713,-1.147c-0.828,-0.259 -0.991,-0.445 -0.396,-0.449c0.616,-0.002 1.045,0.218 1.075,0.551c0.082,0.985 4.543,0.785 4.737,-0.212c0.101,-0.52 0.346,-0.485 0.508,0.074c0.432,1.48 12.146,2.154 12.487,3.326c0.13,0.452 1.132,0.806 2.174,0.767c1.049,-0.037 2.056,0.36 2.201,0.872c0.261,0.934 5.163,3.073 6.008,2.62c3.464,-1.848 6.488,-2.127 10.086,-0.924c5.858,1.954 17.718,4.327 19.567,3.912c0.815,-0.185 3.842,0.57 6.613,1.649c5.556,2.157 6.939,2.442 16.565,3.391c3.502,0.346 6.868,1.051 7.359,1.541c0.485,0.485 1.951,0.761 3.19,0.589c7.291,-0.979 15.104,5.026 172.402,19.915c1.157,0.109 96.453,9.996 91.138,7.328c-0.833,-0.418 -10.426,-4.482 -21.284,-9.014c-23.158,-9.666 -23.568,-9.858 -22.716,-10.71c0.348,-0.348 1.624,-0.36 2.738,-0.025c5.099,1.517 -8.204,-5.085 -9.055,-4.233c-0.154,0.153 0.952,1.21 2.519,2.41c2.542,1.951 2.359,1.967 -2.095,0.17c-9.509,-3.837 -20.297,-9.657 -21.48,-11.585c-0.776,-1.267 -1.546,-1.7 -2.074,-1.172c-0.496,0.496 -1.328,0.065 -2.021,-1.044c-0.648,-1.033 -1.248,-1.465 -1.327,-0.949c-0.143,0.879 -4.106,-2.093 -14.398,-10.797c-5.017,-4.245 -5.431,-4.824 -4.907,-6.935c0.318,-1.308 0.096,-2.776 -0.518,-3.39c-1.504,-1.504 1.178,-4.186 3.208,-3.208c0.893,0.425 1.885,0.136 2.208,-0.646c0.365,-0.892 1.285,-0.983 2.465,-0.244c1.416,0.888 2.482,0.587 4.271,-1.202c1.842,-1.842 2.029,-2.55 0.825,-3.11c-4.679,-2.179 -4.818,-2.407 -1.13,-1.875c4.938,0.712 43.114,15.236 44.154,16.8c0.419,0.625 1.235,0.696 1.776,0.155c0.554,-0.554 2.383,-0.526 4.079,0.066c7.561,2.63 23.912,7.923 25.249,9.26c1.631,1.63 2.347,-0.221 7.452,1.623c64.996,23.462 78.338,24.266 72.369,22.43c-29.422,-9.049 -103.302,-34.496 -115.251,-38.104c-8.863,-2.678 -34.51,-13.508 -36.352,-15.35c-2.855,-2.855 10.604,2.023 17.476,6.335c2.091,1.312 7.711,3.17 12.335,4.077c4.622,0.905 8.638,2.176 8.812,2.792c0.422,1.497 3.471,2.809 3.7,1.589c0.277,-1.491 7.496,0.915 8.473,2.824c0.45,0.873 0.83,1.088 0.845,0.478c0.015,-0.599 1.107,-0.869 2.386,-0.583c4.939,1.106 55.381,18.08 56.644,19.343c0.721,0.722 2.114,1.235 3.25,1.191c2.825,-0.102 8.318,2.168 9.112,3.763c0.894,1.804 3.414,1.175 2.171,-0.067c-0.517,-0.518 3.432,0.35 8.823,1.934c38.764,11.394 68.586,15.771 107.798,21.09c52.157,7.062 45.741,1.896 58.187,12.388l-4.558,-0.548c-3.329,-0.402 -4.758,-0.072 -5.295,1.207c-0.705,1.683 -0.645,1.747 1.388,1.553c2.538,-0.24 15.001,4.159 16.836,4.927c0.544,0.23 -3.363,1.556 -4.965,1.687c-1.236,0.105 -0.794,0.408 1.406,0.972c2.486,0.637 3.081,1.097 2.64,2.045c-0.417,0.916 0.241,1.327 2.594,1.616c7.59,0.942 -1.314,-0.187 -4.113,2.612c-1.512,1.512 -1.16,1.34 5.95,1.988l-2.473,1.811c-1.752,1.283 -2.099,1.992 -1.184,2.447c0.948,0.469 0.541,1.191 -1.57,2.769c-4.74,3.544 -9.49,3.679 -4.898,3.394c2.245,-0.14 2.379,-0.036 1.308,1.034c-0.651,0.652 -0.642,1.353 0.017,1.548c1.751,0.512 -0.622,2.399 -4.217,3.356c-1.8,0.48 -2.952,1.29 -2.768,1.949c0.174,0.635 -0.343,1.39 -1.194,1.734c-1.083,0.433 -1.436,0.234 -1.261,-0.719c0.167,-0.91 -0.262,-1.13 -1.349,-0.701c-1.088,0.429 -1.159,0.754 -0.23,1.017c0.938,0.264 0.769,0.716 -0.553,1.453c-5.695,3.188 5.079,0.358 5.37,-1.189c0.1,-0.544 0.75,-0.844 1.407,-0.662c2.223,0.628 -1.103,2.7 -6.019,3.747Zm-668.544,-393.545c-0.681,0.704 7.272,-0.967 10.841,-2.276c3.727,-1.365 3.761,-2.222 0.059,-1.348c-3.599,0.844 -10.399,3.107 -10.9,3.624Zm-68.038,22.257c3.992,-1.945 17.556,-6.511 38.114,-12.832c17.507,-5.386 12.55,-4.899 8.399,-3.689c-3.508,1.021 -41.003,11.171 -49.068,15.807c-3.792,2.179 -1.676,2.769 2.555,0.714Zm-57.723,-50.247c-7.681,2.678 -33.223,18.888 -15.594,9.881c12.237,-6.253 10.445,-4.185 14.157,-6.766c1.408,-0.973 3.874,-2.142 5.481,-2.594c4.07,-1.137 2.242,-0.865 4.571,-1.988c0.782,-0.371 2.238,-1.171 3.324,-1.82c6.662,-3.972 -7.704,1.154 -8.342,1.793c-0.208,0.207 -1.826,0.88 -3.597,1.494Zm-39.156,17.754c7.14,-4.039 10.566,-8.156 19.193,-12.946c9.117,-5.052 21.962,-12.98 27.345,-15.201c2.226,-0.918 4.402,-2.264 4.915,-3.051c0.51,-0.77 -4.795,1.273 -11.736,4.522c-6.941,3.249 -12.906,5.685 -13.202,5.389c-0.29,-0.291 -1.012,0.287 -1.56,1.259c-2.43,4.297 -23.022,11.295 -46.294,34.567c-19.347,19.346 18.574,-12.969 21.339,-14.539Zm-35.582,36.665c1.251,-2.328 1.223,-2.865 -0.125,-2.401c-0.942,0.319 -2.475,2.237 -3.348,4.183c-1.27,2.848 -1.247,3.346 0.127,2.403c0.938,-0.645 2.474,-2.568 3.346,-4.185Zm5.683,5.192c-0.198,3.328 -1.007,2.115 -5.152,11.705c-1.928,4.466 -2.539,6.91 -1.574,6.284c1.706,-1.094 7.836,-8.314 11.054,-13.01c11.809,-17.234 18.545,-23.109 9.567,-14.661c-6.757,6.353 -8.041,2.427 5.472,-7.155c17.966,-12.732 17.126,-15.241 21.773,-16.546c4.276,-1.197 4.781,-3.717 16.049,-10.938c4.227,-2.711 7.586,-5.042 7.456,-5.172c-1.385,-1.385 -13.951,9.118 -17.308,9.249c-1.915,0.077 -12.312,6.44 -18.488,11.318c-2.42,1.915 -4.441,2.695 -6.055,2.346c-3.979,-0.86 -0.782,0.966 -10.233,10.417c-6.233,6.233 -9.158,11.349 -6.189,10.829c1.292,-0.228 1.336,0.033 0.196,1.173c-1.039,1.039 -2.337,1.013 -4.48,-0.093l-3.014,-1.55l-0.593,3.203c-0.846,4.571 -0.787,4.859 0.498,2.34c1.137,-2.221 1.17,-2.214 1.021,0.261Zm-21.15,41.232c2.808,-4.296 4.353,-4.863 -0.696,-2.916c0.822,-2.243 1.464,-3.877 1.087,-6.557c-0.505,-3.604 1.092,-3.46 1.83,-8.09c0.532,-3.369 0.317,-4.096 -0.86,-2.919c-0.899,0.898 -3.377,16.46 -3.263,20.479c0.079,2.755 0.1,2.753 1.902,0.003Zm149.569,-126.784c-0.748,-0.747 -26.686,8.975 -27.195,9.552c-0.678,0.767 28.658,-8.088 27.195,-9.552Zm-19.757,12c-0.04,-0.725 -9.29,2.203 -13.256,4.199c-4.264,2.143 0.435,1.41 6.94,-1.081c3.527,-1.352 6.335,-2.736 6.316,-3.118Zm-128.294,138.146c0.814,-0.814 1.116,-1.811 0.684,-2.243c-0.424,-0.424 -0.184,-1.378 0.522,-2.083c1.516,-1.517 1.274,-3.623 -0.381,-3.305c-0.612,0.114 -1.355,2.168 -1.689,4.652c-0.488,3.63 -0.33,4.173 0.864,2.979Zm50.286,46.149c-1.438,-3.62 -3.076,-8.425 -3.609,-10.582c-1.327,-5.39 -2.622,-3.558 -1.124,0.336c1.845,4.798 3.205,14.615 4.918,15.107c0.693,0.2 0.889,0.672 0.455,1.107c-0.434,0.434 -0.264,0.903 0.398,1.102c0.602,0.182 0.807,0.697 0.427,1.077c-1.494,1.494 4.216,6.164 -1.465,-8.147Zm366.813,187.759c5.017,0.169 5.194,-0.216 0.482,-1.035c-5.745,-0.997 -2.079,-1.887 -10.52,-2.283c-7.245,-0.339 -4.991,-1.177 -13.829,-2.284c-3.846,-0.481 -7.191,-1.116 -7.423,-1.411c-1.277,-1.606 -2.557,-2.175 -3.321,-1.472c-0.883,0.813 -16.457,-1.719 -17.598,-2.859c-0.782,-0.783 -14.014,-1.656 -14.954,-2.596c-0.837,-0.838 -10.168,-3.445 -12.342,-3.453c-3.132,-0.008 -62.074,-12.913 -62.804,-12.183c-0.236,0.236 10.715,3.476 18.191,5.377c3.703,0.945 5.162,2.703 7.48,1.596c0.957,-0.455 2.21,-0.34 2.809,0.26c4.4,4.399 -12.21,-1.332 -12.149,-0.118c0.023,0.427 10.74,3.567 14.599,4.282c0.29,0.054 0.482,-0.582 0.456,-1.475c-0.042,-1.151 1.465,-1.288 5.613,-0.513c4.151,0.779 6.047,1.656 7.07,3.275c1.495,2.355 4.372,2.553 3.712,0.256c-0.545,-1.9 7.774,0.28 6.388,0.525c-1.69,0.299 -0.293,3.369 -0.299,2.031c-0.006,-1.362 3.817,-2.361 4.897,-1.281c0.536,0.537 0.025,0.894 -1.403,0.982c-1.948,0.122 -1.772,0.268 1.35,1.121c14.298,3.891 22.634,3.92 13.014,2.132c-2.433,-0.453 -4.115,-1.172 -3.701,-1.586c0.711,-0.711 11.331,0.688 21.45,2.833c27.504,5.821 30.636,5.353 31.817,6.534c0.494,0.493 1.825,0.743 2.936,0.551c1.127,-0.195 3.725,0.18 5.831,0.844c3.386,1.065 3.619,1.265 2.176,1.851c-2.909,1.183 2.835,2.004 6.093,2.027c3.269,0.019 3.498,-0.114 1.74,-1.023c-1.597,-0.826 -1.125,-1.016 2.239,-0.905Zm31.812,4.424c-1.299,-1.22 -7.123,-2.376 -7.93,-1.569c-1.572,1.572 0.945,2.895 4.796,2.519c2.074,-0.202 3.476,-0.626 3.134,-0.95Zm148.521,72.822c-0.478,-1.672 -8.07,-3.405 -10.823,-2.471c-1.21,0.415 -2.681,0.351 -3.162,-0.129c-1.144,-1.144 -6.113,-0.607 -6.357,0.688c-0.096,0.507 -0.487,0.265 -0.882,-0.545c-0.807,-1.657 -8.84,-1.263 -10.628,0.524c-0.651,0.652 -1.214,0.755 -1.243,0.225c-0.069,-1.384 -6.849,0.884 -7.331,-0.668c-0.47,-1.519 -8.96,0.556 -10.327,-0.732c-0.554,-0.525 -1.275,-0.463 -1.646,0.143c-1.063,1.745 -50.699,-2.014 -51.613,-1.101c-0.236,0.236 2.847,0.634 6.808,0.882c53.126,3.303 73.682,2.228 80.062,4.58c2.107,0.778 3.996,1.013 4.275,0.536c0.255,-0.449 0.014,-1.158 -0.508,-1.482c-1.365,-0.849 2.867,-0.906 3.411,-0.22c0.44,0.553 1.738,1.225 2.964,2.204c0.606,0.483 1.507,0.209 2.078,-0.632c0.567,-0.84 1.931,-1.292 3.136,-1.038c1.292,0.277 1.996,-0.026 1.786,-0.764Zm77.818,-51.061c0.057,-1.024 0.423,-1.528 0.824,-1.126c1.387,1.386 11.266,-1.242 12.441,1.143c0.787,1.595 3.72,2.226 6.744,1.457c1.91,-0.493 1.883,-0.584 -0.359,-1.228c-1.31,-0.374 -2.67,-0.457 -2.947,-0.18c-0.637,0.637 -3.245,-1.231 0.461,-1.219c3.05,0.009 2.632,-0.91 -0.923,-2.043c-1.256,-0.403 -12.998,-1.255 -26.11,-1.904c-68.143,-3.364 -145.125,-14.014 -145.573,-11.378c-0.208,1.211 -3.482,0.195 -1.554,-0.146c6.22,-1.11 -21.397,-3.753 -21.658,-2.203c-0.113,0.662 -0.361,0.602 -0.579,-0.141c-0.512,-1.754 -12.973,-1.977 -22.666,-3.304c-8.456,-1.159 -31.449,-3.862 -34.002,-3.993c-1.911,-0.1 -1.907,-0.014 0.036,0.687c4.474,1.617 8.632,-0.244 10.761,3.068c0.963,1.498 2.449,2.175 5.077,2.311c2.062,0.111 4.039,0.515 4.439,0.915c0.989,0.99 2.322,-0.387 1.173,-1.536c-1.586,-1.586 0.993,-0.749 2.817,0.914c1.389,1.266 2.199,1.178 3.852,-0.426c1.813,-1.762 2.361,-1.764 4.158,-0.013c2.799,2.728 4.82,2.144 3.017,1.553c-0.818,-0.271 -1.165,-0.757 -0.798,-1.123c1.029,-1.03 9.569,0.948 9.954,2.309c0.349,1.248 6.629,2.025 6.987,0.867c0.103,-0.338 0.479,-0.281 0.9,0.14c1,1 4.517,1.047 3.841,0.37c-1.157,-1.157 28.762,1.449 30.908,3.596c0.733,0.733 4.944,0.825 4.344,0.226c-0.634,-0.635 9.571,0.032 10.361,0.822c0.719,0.719 8.276,0.254 9.09,-0.56c0.79,-0.79 2.622,-0.572 3.981,0.473c1.698,1.304 9.556,2.042 9.763,0.916c0.105,-0.568 0.519,-0.319 0.954,0.573c0.43,0.89 1.093,1.246 1.522,0.817c0.434,-0.434 0.929,-0.463 1.155,-0.072c0.749,1.295 9.865,1.202 10.155,-0.106c0.16,-0.709 0.353,-0.822 0.413,-0.246c0.11,0.986 9.188,3.015 13.675,3.058c3.138,0.031 38.327,3.733 38.634,2.109c0.125,-0.655 0.397,-0.577 0.608,0.173c0.233,0.828 7.933,1.805 19.738,2.503c25.704,1.52 18.493,2.178 22.777,3.373c1.168,0.327 1.528,0.009 1.609,-1.426Zm-21.006,50.103c-0.624,-0.186 -0.883,-0.831 -0.623,-1.544c0.252,-0.692 -0.391,-0.283 -1.463,0.921c-1.226,1.376 -2.187,1.759 -2.682,1.058c-0.404,-0.576 -1.255,-0.608 -1.798,-0.065c-0.543,0.543 -1.571,0.488 -2.169,-0.11c-0.604,-0.604 -1.492,-0.799 -1.878,-0.413c-0.411,0.411 -0.926,0.087 -1.178,-0.744c-0.265,-0.879 -0.499,-0.5 -0.578,0.938c-0.072,1.335 -0.3,1.837 -0.51,1.114c-0.511,-1.738 -4.488,-1.287 -3.855,-0.654c0.635,0.635 -3.542,2.006 -4.436,0.165c-0.865,-1.782 -8.037,-1.115 -8.387,0.777c-0.164,0.881 3.656,1.432 10.699,1.539c9.139,0.143 10.925,0.48 10.768,2.042c-0.164,1.617 -0.086,1.651 0.582,0.26c0.42,-0.883 1.139,-1.246 1.58,-0.806c0.474,0.474 1.542,-0.195 2.544,-1.577c0.953,-1.323 2.009,-2.108 2.36,-1.758c0.851,0.851 2.401,-0.743 1.024,-1.143Zm56.239,22.093c-0.038,-0.827 -20.312,7.001 -21.501,8.309c-1.14,1.253 7.812,-2.943 8.77,-1.475c0.428,0.655 1.409,0.275 2.458,-0.957c0.972,-1.136 3.648,-2.745 6.025,-3.622c2.379,-0.871 4.266,-1.877 4.248,-2.255Zm147.586,-83.567c-9.282,-0.822 -11.934,-1.695 -15.237,-1.416c-5.29,0.453 8.018,1.841 13.399,2.235c10.49,0.758 10.567,-0.049 1.838,-0.819Z" style="fill:#39bdc8;fill-rule:nonzero;"/></svg>