<?xml version="1.0" encoding="UTF-8" standalone="no"?><!DOCTYPE svg PUBLIC "-//W3C//DTD SVG 1.1//EN" "http://www.w3.org/Graphics/SVG/1.1/DTD/svg11.dtd"><svg width="100%" height="100%" viewBox="0 0 151 198" version="1.1" xmlns="http://www.w3.org/2000/svg" xmlns:xlink="http://www.w3.org/1999/xlink" xml:space="preserve" xmlns:serif="http://www.serif.com/" style="fill-rule:evenodd;clip-rule:evenodd;stroke-linejoin:round;stroke-miterlimit:2;"><path d="M9.514,87.807c2.548,-2.694 2.224,-2.78 4.77,-5.474c14.297,-15.163 16.789,-18.643 17.809,-19.462c0.157,-0.124 5.257,-5.596 11.798,-12.616c0.361,0.244 0.615,0.522 0.584,0.987c-0.086,1.322 1.055,0.3 2.944,0.425c0.004,-0.068 1.121,0.096 1.16,-0.506c0.021,-0.322 -1.881,-1.484 -3.008,-2.71c11.787,-12.651 27.062,-29.046 27.26,-29.046c0.142,-0 0.269,0.221 0.269,0.463c-0,0.249 0.095,0.47 0.195,0.47c0.263,0 1.505,-1.43 1.74,-1.692c-1.397,-0.336 -1.854,0.107 2.788,-4.642c5.28,-5.402 5.294,-4.749 1.894,-1.223c-1.277,1.324 -2.31,2.533 -2.31,2.701c-0,0.167 0.208,0.134 0.449,-0.074c0.243,-0.203 0.72,-0.295 1.042,-0.195c0.416,0.135 0.746,-0.061 1.162,-0.672c0.309,-0.463 0.538,-1.068 0.497,-1.316c-0.107,-0.686 1.754,-2.809 2.371,-2.701c0.282,0.047 0.854,-0.188 1.27,-0.525c0.286,-0.225 0.695,-0.654 1.09,-1.113c-0.005,0.695 -1.386,1.434 -0.779,2.108c0.63,0.699 4.321,-2.629 3.692,-3.327c-0.681,-0.755 1.919,-2.925 2.864,-2.39c1.036,0.585 0.854,-1.227 0.957,-1.114c0.127,-1.133 0.001,-1.9 -0.279,-2.397c0.032,-0.093 0.032,-0.192 -0.013,-0.264c-0.095,-0.155 0.013,-0.289 0.235,-0.296c0.893,-0.026 2.317,-2.076 2.815,-0.772c0.127,0.328 0.449,0.409 1.081,0.281c0.732,-0.147 0.947,-0.053 1.122,0.491c0.403,1.23 -0.598,2.6 0.295,1.854c0.558,-0.463 0.612,-0.108 0.169,1.095c-0.202,0.538 -0.209,0.961 -0.007,1.195c0.604,0.732 -0.558,2.016 0.436,1.626c0.437,-0.174 0.492,-0.087 0.309,0.478c-0.322,0.981 -0.261,1.76 0.471,6.086c0.752,4.447 0.645,6.617 0.604,15.572c18.156,-0.124 32.129,-0.442 36.059,0.555c0.048,0.187 0.091,0.39 0.122,0.607c-0.028,-0.002 -0.058,-0.005 -0.088,-0.006c-0.066,-0.018 -0.134,-0.034 -0.205,-0.054c-0.639,-0.175 -1.451,-0.316 -1.787,-0.308c-0.513,0.009 -0.108,0.239 0.62,0.489c-0.053,0.01 -0.103,0.018 -0.159,0.03c-4.026,0.83 -1.074,2.397 -2.7,2.732c-0.382,0.078 -0.566,0.769 -0.408,1.534c0.337,1.631 5.321,1.015 6.716,-0.831c-0.031,-0.146 1.664,-2.347 -0.049,-1.994c-0.636,0.131 -0.703,-0.189 -0.791,-0.578c0.053,-0.079 0.11,-0.165 0.168,-0.254c1.371,0.126 1.4,0.098 1.42,-0.739c0.014,-0.484 0.087,-0.699 0.175,-0.484c0.08,0.208 0.41,0.524 0.752,0.706c1.337,0.718 3.386,-1.385 1.981,-0.846c-0.611,0.235 -1.007,-0.592 -0.524,-0.289c0.195,0.12 0.357,0.086 0.357,-0.075c0,-0.484 1.518,0.37 1.706,0.954c0.141,0.43 0.296,0.478 0.786,0.221c0.343,-0.181 0.737,-0.237 0.901,-0.133c0.164,0.105 0.295,1.222 0.295,2.519c-0,2.028 0.061,2.284 0.463,1.955c0.323,-0.27 0.463,-0.967 0.463,-2.311c0,-1.861 0.035,-1.935 0.787,-1.935c1.638,0 0.147,2.17 1.223,2.587c0.611,0.235 0.611,1.531 -0,1.76c-0.249,0.093 -0.463,0.302 -0.463,0.443c-0,0.39 0.933,0.342 0.967,-0.047c0.019,-0.189 0.161,0.208 0.314,0.866c0.209,0.908 0.182,1.277 -0.114,1.459c-0.315,0.194 -0.315,0.241 -0.006,0.241c0.209,-0 0.377,0.222 0.377,0.49c-0,0.178 0.071,0.283 0.172,0.304c0.017,0.214 -0.007,0.41 -0.299,0.542c-0.881,0.4 -0.301,0.6 0.436,0.495c-0.72,5.35 1.446,37.83 0.577,40.633c-0.101,0.331 -0.145,0.617 -0.139,0.879c-0.102,0.023 -0.209,0.053 -0.319,0.091c-1.362,-2.358 -5.705,-0.268 -2.302,2.013l0.144,0.095c-0.004,0.049 -0.007,0.098 -0.004,0.147c0.159,0.123 -0.182,2.917 1.731,0.905c0.627,0.267 0.735,-0.047 0.793,-0.951c0.157,-0.207 0.295,-0.402 0.408,-0.579c0.389,2.643 0.387,10.997 0.507,37.567c0.08,18.663 0.126,29.31 -0.175,35.401c-0.26,0.147 -0.446,0.716 -0.475,1.819c-0.071,2.612 -2.277,0.528 -2.367,3.894c-0.046,1.763 0.446,1.731 0.958,2.187c-0.051,0.03 -0.103,0.059 -0.157,0.084c-0.444,0.202 -0.928,0.302 -1.068,0.215c-0.149,-0.094 -0.256,-0 -0.256,0.222c0,0.214 -0.074,0.302 -0.168,0.208c-0.255,-0.255 -3.641,0.658 -3.99,1.074c-0.175,0.203 -0.732,0.384 -1.242,0.404c-1.472,0.06 -3.481,0.362 -3.817,0.564c-0.389,0.242 -4.406,0.383 -8.578,0.813c-3.991,0.417 -5.865,0.215 -6.073,0.538c-0.229,0.356 2.283,-0.068 2.283,0.322c0,0.269 -4.084,0.746 -6.308,0.746c-6.005,-0.014 -2.311,-0.369 3.688,-0.928l-3.969,-0c-4.858,-0.013 -5.939,0.451 -4.971,0.511c0.557,0.033 0.564,0.061 0.072,0.357c-0.302,0.174 -1.054,0.261 -1.692,0.194c-1.001,-0.108 -1.062,-0.155 -0.464,-0.356c0.369,-0.127 0.686,-0.322 0.686,-0.429c-0,-0.109 -2.628,-0.182 -5.852,-0.169c-4.743,0.02 -5.858,-0.053 -5.858,-0.39c0,-0.55 -0.611,-0.511 -0.611,-0.114c-0,0.168 -0.269,0.31 -0.585,0.31c-0.834,-0 -1.069,0.516 -0.416,0.906c0.296,0.169 0.363,0.315 0.147,0.33c-0.228,0.006 -0.402,0.423 -0.409,1.014c-0.02,1.115 -0.141,0.9 -0.424,-0.787c-0.274,-1.619 -0.88,-1.209 -0.679,-0.685c0.263,0.679 1.472,11.004 1.527,13.006c0.005,0.222 0.113,0.39 0.254,0.39c0.236,-0 0.134,-2.613 -0.187,-4.688c-0.229,-1.486 0.772,-2.05 0.772,3.761c-0,1.121 0.164,2.214 0.356,2.405c0.265,0.264 0.182,0.316 -0.31,0.188c-0.577,-0.154 -0.658,-0.047 -0.658,0.88c0,0.584 0.155,1.203 0.343,1.391c0.248,0.249 0.148,0.45 -0.343,0.712c-1.243,0.659 -1.498,-0.053 -1.699,-4.649c-0.269,-6.207 -0.47,-4.945 -0.612,-8.471c-0.114,-2.997 -0.121,-1.807 -0.289,-3.064c-0.134,-1.055 -0.524,-2.009 -0.82,-2.009c-0.167,0 -0.295,0.135 -0.295,0.31c0,0.497 1.048,0.135 0.33,0.584c-0.39,0.249 -0.397,0.599 -0.035,2.7c1.029,6.013 0.471,9.95 0.975,9.95c0.147,-0 0.255,1.075 0.235,2.399c-0.06,3.829 -0.174,0.06 -0.746,-0.129c-0.389,-0.134 -0.308,2.205 0.162,4.65c0.261,1.369 0.261,1.887 -0,2.055c-0.202,0.121 -0.276,0.538 -0.175,0.954c0.108,0.418 0.108,0.565 -0,0.343c-0.101,-0.222 -0.309,-0.397 -0.464,-0.397c-0.477,0 0.391,2.728 -0.222,2.351c-0.469,-0.295 -0.449,0.33 -0.06,0.572c0.342,0.209 0.438,1.491 0.121,1.801c-0.105,0.102 -0.45,0.053 -0.745,-0.101c-0.69,-0.367 -0.554,0.178 -0.718,0.645c-0.472,-0.434 -2.412,-0.481 -2.671,0.003c-0.969,-0.415 -1.905,-0.979 -2.02,-1.334c-0.094,-0.288 -0.389,-0.537 -0.651,-0.537c-0.41,0 -0.423,0.073 -0.061,0.537c0.343,0.444 0.29,0.437 -0.269,-0.047c-0.712,-0.611 -0.94,-1.001 -0.395,-0.658c0.388,0.235 0.551,-0.148 -0.289,-0.685c-0.391,-0.248 -0.611,-0.276 -0.611,-0.075c-0,0.41 -0.834,-0.026 -1.808,-0.947c-0.397,-0.369 -0.753,-0.624 -0.813,-0.571c-0.175,0.182 1.908,2.372 2.621,2.755c0.362,0.195 0.583,0.43 0.49,0.524c-0.188,0.187 -2.956,-1.639 -3.333,-2.203c-0.114,-0.169 -0.315,-0.216 -0.436,-0.095c-0.33,0.33 -2.271,-1.638 -2.271,-2.297c0,-0.316 -0.235,-0.564 -0.538,-0.564c-0.664,-0 -3.238,-2.412 -3.076,-2.882c0.154,-0.464 -1.014,-1.72 -1.444,-1.551c-0.424,0.16 -4.185,-3.683 -4.185,-4.268c-0,-0.55 1.954,1.929 2.458,1.929c0.759,-0 -6.255,-6.994 -6.02,-6.55c0.369,0.706 -0.315,0.826 -3.466,-2.91c-1.202,-1.43 -4.094,-4.715 -4.085,-5.172c0.01,-0.498 2.775,2.781 2.775,2.459c0,-0.262 -2.17,-3.004 -2.687,-2.808c-0.537,0.208 -1.317,-0.128 -1.317,-0.565c-0,-0.194 -0.376,-0.745 -0.859,-1.263c-1.197,-1.276 -5.563,-6.335 -6.295,-6.866c-0.759,-0.557 -0.337,-0.967 -1.089,-1.652c-0.679,-0.618 -35.915,-41.316 -36.572,-41.988c-0.787,-0.805 -1.438,-1.558 -1.438,-1.659c-0,-0.101 -0.39,-0.55 -0.86,-0.988c-0.973,-0.926 -5.14,-5.87 -6.188,-7.363c-0.403,-0.557 -0.906,-0.96 -1.121,-0.88c-0.235,0.095 -0.458,-0.208 -0.571,-0.765c-0.168,-0.833 -0.249,-0.886 -0.88,-0.552c-0.592,0.31 -0.638,0.303 -0.31,-0.053c0.464,-0.484 0.49,-1.196 0.054,-1.196c-0.477,0 -1.377,1.452 -1.7,1.135c-0.125,-0.122 0.021,-0.416 0.317,-0.63c0.805,-0.592 0.308,-1.707 1.491,-3.441c0.45,-0.658 0.752,-1.296 0.671,-1.417c-0.08,-0.121 0.175,-0.296 0.585,-0.403c0.41,-0.101 0.954,-0.51 1.223,-0.927c0.437,-0.659 0.437,-0.786 0.04,-1.121c-0.248,-0.209 -0.457,-0.256 -0.457,-0.115c0,0.148 -0.12,0.074 -0.261,-0.148c-0.283,-0.45 -0.955,-0.242 -0.955,0.296c0,0.174 0.141,0.234 0.302,0.134c0.168,-0.101 0.303,-0.074 0.297,0.06c-0.015,0.343 -4.495,5.039 -4.804,5.039c-0.135,-0 -0.095,-0.161 0.094,-0.356c0.195,-0.195 0.283,-0.779 0.208,-1.316c-0.1,-0.74 0.06,-1.182 0.672,-1.862c0.685,-0.759 0.894,-0.839 1.384,-0.537c0.315,0.194 0.779,0.275 1.034,0.175c0.659,-0.255 0.612,-1.103 -0.046,-0.988c-0.357,0.06 -0.572,-0.155 -0.645,-0.645c-0.108,-0.685 -0.188,-0.645 -1.472,0.772c-0.746,0.834 -1.357,1.606 -1.357,1.733c0,0.343 -2.317,0.99 1.868,-3.452c3.459,-3.674 4.675,-5.273 7.006,-7.753Zm105.108,-55.42c-0.44,-0.296 -0.646,-1.646 -0.562,-1.589c-0.071,-2.913 -0.809,-0.543 -1.839,-1.233c-0.813,-0.545 -1.374,0.29 -0.559,0.836c1.071,0.718 -1.429,2.094 2.148,2.887c0.979,0.217 1.545,-0.411 0.812,-0.901Zm-0.218,7.982c0.731,-0.492 -2.255,-0.304 -2.921,-0.012c-0.979,0.431 2.381,0.378 2.921,0.012Zm13.715,-0.439c-2.308,0.259 -3.437,0.838 -1.235,0.611c0.964,-0.1 5.403,-0.423 5.403,-0.856c-0,-0.39 -1.468,-0.06 -4.168,0.245Zm19.305,91.287c2.525,0.46 0.201,-1.001 1.757,-2.08c-0.083,-0.122 0.882,-0.52 -0.069,-1.159c-1.512,-1.015 -2.254,2.232 -3.367,0.624c-1.455,-2.103 -3.598,1.655 1.679,2.615Zm-44.571,23.464c0.477,1.309 0.637,1.489 1.161,1.298c1.486,-0.542 -1.823,-4.986 -2.31,-4.809c-0.76,0.278 0.154,0.78 1.149,3.511Zm-6.558,-147.977c-0.126,-0.133 -0.152,-0.664 -0.059,-1.181c0.451,-2.484 -2.32,-2.148 -3.536,0.429c-0.342,0.725 1.493,2.794 2.576,2.905c1.101,0.112 1.788,-1.339 1.019,-2.153Zm-4.19,16.181c0.147,0.108 0.265,0.619 0.265,1.136c0.002,2.487 2.63,1.674 3.355,-1.037c0.203,-0.764 -1.94,-2.446 -3.01,-2.363c-1.087,0.084 -1.497,1.611 -0.61,2.264Zm-6.364,143.395c0,-1.828 0.761,-1.89 0.265,-2.494c-0.383,-0.464 -0.697,-0.552 -0.435,-0.122c0.108,0.177 -0.001,0.318 -0.246,0.318c-0.231,0 -0.62,0.22 -0.819,0.464c-0.316,0.389 -0.268,0.464 0.293,0.464c0.588,0 0.662,0.135 0.587,1.064c-0.114,1.421 0.355,1.901 0.355,0.306Zm-1.883,8.703c0.347,0.441 0.559,0.929 0.465,1.077c-0.098,0.151 0.147,0.268 0.563,0.268c0.634,-0 0.716,-0.122 0.611,-0.904c-0.08,-0.587 -0.264,-0.854 -0.526,-0.758c-0.221,0.079 -0.498,0.002 -0.611,-0.171c-0.11,-0.168 -0.427,-0.318 -0.672,-0.318c-0.366,-0 -0.33,0.17 0.17,0.806Zm-4.815,-143.356c0.23,0.225 1.148,-0.437 1.148,-0.828c0,-0.362 -1.295,0.015 -1.931,0.563c-0.292,0.253 -0.537,0.603 -0.537,0.769c0,0.452 1.033,-0.786 1.32,-0.504Zm-21.89,23.765c-0.896,1.026 -1.22,1.613 -0.894,1.613c0.065,0 0.641,-0.635 1.261,-1.393c1.36,-1.662 1.051,-1.847 -0.367,-0.22Zm9.8,94.02c0.895,0.996 1.53,1.595 1.53,1.957c-0,0.31 0.822,0.71 1.319,0.976c-1.168,-1.46 -2.922,-3.764 -3.3,-3.764c-0.164,0 0.036,0.366 0.451,0.831Zm-7.013,-0.15c0.694,2.908 4.169,-1.184 1.203,-1.588c-1.323,-0.181 -1.554,0.123 -1.203,1.588Zm-0.454,-96.046c0.317,-0.29 0.663,-0.412 0.794,-0.281c0.509,0.509 -0.381,-1.162 0.648,-1.162c0.269,0 0.411,-0.126 0.318,-0.28c-0.24,-0.396 1.687,-1.449 1.687,-1.969c-0,-0.355 0.367,-0.855 2.549,-3.471c1.413,-1.693 0.658,-1.222 -1.137,0.709c-0.904,0.974 -2.302,2.64 -3.075,3.667c-0.773,1.027 -1.628,2.055 -1.882,2.261c-0.617,0.504 -0.655,1.212 0.098,0.526Zm-5.904,11.711c0.513,-0.447 0.683,-0.477 0.819,-0.148c0.094,0.228 0.143,0.136 0.109,-0.207c-0.035,-0.368 0.106,-0.588 0.343,-0.539c0.22,0.047 0.326,-0.047 0.232,-0.207c-0.23,-0.395 1.863,-2.927 2.995,-4.425c1.055,-1.397 1.267,-2.069 -1.308,1.235c-1.264,1.621 -4.143,5.116 -3.19,4.291Zm-0.595,-3.888c0.842,-0.876 2.186,-2.864 2.881,-3.863c-0.243,0.257 -4.243,4.462 -3.985,4.462c-2.129,2.872 -3.117,3.092 -1.92,3.092c0.392,0 0.632,-0.089 0.526,-0.195c-0.2,-0.2 1.158,-2.103 2.498,-3.496Zm-6.662,7.529c0.411,-0.833 -2.485,2.371 -2.485,2.788c0,0.381 2.063,-1.932 2.485,-2.788Zm-6.873,12.957c0.154,-0.41 -0.135,-0.099 -1.785,1.931c-0.736,0.905 -1.277,1.693 -1.209,1.76c0.129,0.13 2.793,-3.153 2.994,-3.691Zm-12.04,9.094c0.423,0 1.108,-1.54 1.773,-1.54c0.268,0 0.407,-0.113 0.318,-0.257c-0.044,-0.071 0.238,-0.507 0.73,-1.149c0.714,0.114 0.512,1.017 1.203,0.909c0.443,-0.07 0.407,-1.468 0.151,-2.578c0.19,-0.226 0.388,-0.456 0.592,-0.69c4.366,-5.006 7.943,-9.405 8.581,-9.643c0.394,-0.147 1.245,-1.48 1.771,-2.775c0.178,-0.439 -0.157,-0.074 -2.277,2.468c-0.685,0.823 -5.294,6.037 -8.801,10.143c-0.173,-0.523 -0.395,-0.892 -0.631,-0.855c-0.915,0.143 0.054,1.143 -1.237,1.345c-1.042,0.163 -0.895,1.611 0.024,1.69c-1.441,1.729 -2.38,2.932 -2.197,2.932Zm-6.222,-10.39c2.81,-3.15 2.051,-2.689 -0.501,0.208c-2.546,2.89 -2.313,2.949 0.501,-0.208Zm-4.505,5.256c1.936,-2.458 1.586,-2.347 -0.618,0.195c-2.129,2.455 -1.558,2.566 0.618,-0.195Z" style="fill:#39bdc8;fill-rule:nonzero;"/></svg>