<svg width="22" height="22" viewBox="0 0 22 22" fill="none" xmlns="http://www.w3.org/2000/svg">
<g clip-path="url(#clip0_1_834)">
<path fill-rule="evenodd" clip-rule="evenodd" d="M4.81942 2.302C4.81406 2.90672 5.05962 3.49079 5.50656 3.93638L12.8108 10.9988L5.50656 18.0612C5.05903 18.5055 4.81059 19.0875 4.81059 19.6916C4.81059 20.2958 5.05903 20.8778 5.50656 21.3221C5.72059 21.5357 5.98086 21.7063 6.27082 21.823C6.56078 21.9397 6.87411 22 7.19089 22C7.50768 22 7.821 21.9397 8.11096 21.823C8.40093 21.7063 8.66119 21.5357 8.87523 21.3221L17.8629 12.6284C18.3123 12.186 18.5621 11.6043 18.5621 11.0003C18.5621 10.3964 18.3123 9.81473 17.8629 9.37226L8.88382 0.675475C8.66978 0.461827 8.40952 0.291234 8.11955 0.174527C7.82959 0.0578222 7.51627 -0.00244428 7.19948 -0.00244431C6.8827 -0.00244433 6.56938 0.0578221 6.27941 0.174527C5.98945 0.291234 5.72919 0.461827 5.51515 0.675475C5.06876 1.11822 4.82312 1.69969 4.82802 2.302" fill="#C91070"/>
</g>
<defs>
<clipPath id="clip0_1_834">
<rect width="22" height="22" fill="white" transform="translate(22 22) rotate(-180)"/>
</clipPath>
</defs>
</svg>
