<?xml version="1.0" encoding="UTF-8" standalone="no"?><!DOCTYPE svg PUBLIC "-//W3C//DTD SVG 1.1//EN" "http://www.w3.org/Graphics/SVG/1.1/DTD/svg11.dtd"><svg width="100%" height="100%" viewBox="0 0 372 308" version="1.1" xmlns="http://www.w3.org/2000/svg" xmlns:xlink="http://www.w3.org/1999/xlink" xml:space="preserve" xmlns:serif="http://www.serif.com/" style="fill-rule:evenodd;clip-rule:evenodd;stroke-linejoin:round;stroke-miterlimit:2;"><path d="M14.549,305.07c2.453,-0.271 3.283,-0.604 1.724,-0.692c-0.609,-0.035 -0.678,-0.174 -0.242,-0.484c0.455,-0.327 0.386,-0.447 -0.268,-0.475c-1.236,-0.052 -0.054,-0.819 0.519,-0.277c0.556,0.529 3.405,0.24 3.681,-0.372c0.294,-0.652 6.261,-1.467 6.992,-0.957c0.319,0.222 0.663,0.133 0.73,-0.188c0.076,-0.365 0.432,-0.408 0.881,-0.109c0.45,0.3 0.721,0.261 0.668,-0.097c-0.043,-0.313 0.087,-0.541 0.276,-0.478c2.489,0.848 11.781,-0.689 13.181,-1.3c0.756,-0.33 1.61,-0.361 1.905,-0.07c0.292,0.291 0.974,0.31 1.502,0.045c1.475,-0.743 -0.517,-0.151 -0.332,-0.566c0.135,-0.303 3.703,-0.563 2.912,-0.035c-0.786,0.523 0.804,0.672 0.948,-0.036c0.109,-0.539 0.76,-0.479 1.805,0.167c0.295,0.181 0.515,0.079 0.472,-0.217c-0.113,-0.739 1.429,-0.85 0.715,-0.368c-0.726,0.49 -0.327,0.618 1.592,0.517c0.897,-0.048 1.589,-0.285 1.551,-0.534c-0.039,-0.241 0.373,-0.231 0.885,0.02c0.515,0.25 1.015,0.212 1.08,-0.083c0.161,-0.739 1.895,-0.594 1.203,-0.129c-0.656,0.439 2.793,0.229 2.928,-0.074c0.148,-0.333 -2.105,0.049 -1.957,-0.284c0.056,-0.126 1.373,-0.276 2.899,-0.336c3.879,-0.151 0.594,0.536 0.073,0.304c-0.463,-0.206 -0.918,0.554 2.069,0.408c2.214,-0.11 3.072,-0.441 1.459,-0.565c-1.148,-0.088 -0.57,-0.31 1.057,-0.407c0.812,-0.046 1.091,0.055 0.758,0.276c-1.404,0.938 2.337,0.368 2.988,0.29l-1.202,-0.247c-0.671,-0.134 -0.042,-0.325 1.42,-0.429c3.621,-0.256 3.221,0.502 1.551,0.4c-0.73,-0.046 -1.408,0.028 -1.467,0.16c-0.203,0.457 13.743,0.36 13.62,-0.603c-0.053,-0.41 0.27,-0.373 0.968,0.118c0.699,0.491 1.417,0.576 2.158,0.254c0.662,-0.289 1.383,-0.245 1.786,0.107c0.385,0.338 1.201,0.389 1.904,0.119c0.654,-0.251 1.295,-0.328 1.365,-0.164c0.073,0.173 1.502,0.185 3.195,0.029c1.695,-0.157 3.201,-0.073 3.374,0.189c0.174,0.264 0.388,0.297 0.488,0.072c0.264,-0.592 6.124,-0.471 6.031,-1.149c-0.086,-0.625 1.419,-0.777 0.708,-0.288c-0.655,0.452 -0.019,1.317 0.873,1.185c1.022,-0.151 2.174,0.53 5.044,0.741c1.947,0.143 15.938,2.01 16.267,1.827c0.18,-0.101 1.511,0.301 2.918,0.882c1.548,0.64 2.994,0.941 3.603,0.753c1.208,-0.378 2.73,0.199 2.878,1.091c0.145,0.867 10.223,5.365 10.021,4.838c-0.45,-1.172 -6.589,-3.176 -1.73,-1.918c1.307,0.34 2.64,0.859 3,1.171c0.891,0.769 1.705,-0.054 1.137,-0.306c-0.248,-0.11 -0.331,-0.523 -0.176,-0.872c0.155,-0.347 0.607,-0.521 0.954,-0.367c0.989,0.44 1.212,-0.565 0.291,-1.304c-0.612,-0.49 -0.202,-0.625 2.024,-0.663c2.561,-0.046 2.747,-0.127 2.256,-0.997c-1.173,-2.066 1.066,0.319 2.347,-2.557c0.495,-1.114 0.446,-1.669 -0.212,-2.427c-0.467,-0.541 -0.647,-1.194 -0.397,-1.448c0.301,-0.305 -0.389,-1.278 -2.022,-2.85c-2.812,-2.709 -8.906,-6.198 -18.456,-10.57c-4.708,-2.153 -5.916,-2.558 -6.509,-2.178c-0.614,0.393 -0.747,0.346 -0.848,-0.294c-0.063,-0.404 -0.418,-0.728 -0.755,-0.69c-0.348,0.039 -1.324,-0.16 -2.158,-0.441c-1.268,-0.425 -1.43,-0.625 -0.965,-1.201c0.31,-0.382 1.023,-0.61 1.605,-0.515c0.576,0.098 1.443,-0.189 1.93,-0.639c0.488,-0.449 1.133,-0.704 1.44,-0.567c0.312,0.139 0.683,0.085 0.846,-0.123c0.43,-0.55 3.705,-1.584 3.982,-2.206c0.109,-0.245 0.489,-0.304 0.871,-0.134c0.383,0.171 0.915,0.074 1.225,-0.224c0.823,-0.792 1.393,0.231 2.182,-0.548c0.29,-0.29 0.269,-0.574 -0.048,-0.642c-1.454,-0.314 -2.495,-0.075 -3.938,0.908c-1.664,1.133 -3.107,0.774 -2.765,-0.689c0.207,-0.882 3.763,-2.225 4.786,-1.807c0.316,0.13 0.609,0.005 0.668,-0.285c0.059,-0.288 0.59,-0.576 1.206,-0.651c3.25,-0.398 4.294,-0.835 3.756,-0.014c-0.588,0.896 -1.276,0.719 -1.172,1.413c0.104,0.71 2.705,0.414 4.999,-0.565c5.217,-2.222 18.297,-5.648 17.478,-6.782c-0.315,-0.443 -0.195,-0.637 0.522,-0.847c0.671,-0.194 0.868,-0.123 0.702,0.25c-1.262,2.835 48.671,-18.076 62.08,-25.059c1.682,-0.876 3.111,-1.43 3.229,-1.25c0.112,0.173 0.318,0.081 0.443,-0.198c0.553,-1.242 26.048,-13.537 28.264,-15.036c2.006,-1.357 7.197,-3.794 7.333,-3.443c0.062,0.166 -1.052,0.928 -2.455,1.677l-2.571,1.377c2.985,-1.314 5.043,-2.062 5.695,-3.527c0.48,-1.077 0.427,-1.233 -0.353,-1.032c-0.816,0.21 -0.812,0.181 0.039,-0.275c0.509,-0.272 1.019,-0.346 1.091,-0.159c0.203,0.526 3.588,-0.862 3.507,-1.438c-0.036,-0.267 -0.495,-0.368 -1.017,-0.223c-0.556,0.154 -0.274,-0.143 0.68,-0.717c1.832,-1.101 2.489,-1.152 1.117,-0.088c-1.579,1.227 0.068,0.656 3.522,-1.223c2.737,-1.489 3.222,-1.922 3.112,-2.779c-0.224,-1.746 0.491,0.257 1.373,-0.37c0.277,-0.197 0.639,-0.125 0.842,0.168c0.22,0.317 0.321,0.267 0.267,-0.132c-0.136,-0.981 10.256,-7.223 10.503,-7.779c0.065,-0.144 -0.172,-0.22 -0.527,-0.172c-0.894,0.123 0.36,-0.806 0.721,-0.263c0.428,0.646 5.791,-3.869 2.85,-2.355c-0.986,0.509 -0.992,0.496 -0.113,-0.237c0.521,-0.435 1.045,-0.605 1.193,-0.386c0.147,0.216 0.611,0.211 1.047,-0.012c0.609,-0.315 0.672,-0.498 0.287,-0.832c-0.313,-0.272 -0.043,-0.466 0.735,-0.528c0.766,-0.06 1.407,-0.496 1.702,-1.157c0.293,-0.66 0.991,-1.15 1.849,-1.301c0.769,-0.134 1.394,-0.529 1.412,-0.892c0.046,-0.883 6.48,-6.117 7.456,-6.067c0.448,0.024 0.927,-0.208 1.063,-0.512c0.17,-0.383 0.019,-0.41 -0.475,-0.088c-2.476,1.61 3.777,-4.359 4.244,-3.653c0.174,0.268 0.327,0.128 0.351,-0.321c0.022,-0.435 1.762,-2.236 3.843,-3.975c9.926,-8.308 20.381,-21.126 22.222,-23.082c1.082,-1.152 1.398,-1.819 5.897,-8.142c7.385,-10.381 16.806,-27.2 20.142,-40.94c0.405,-1.67 2.502,-9.051 2.12,-10.597c-0.083,-0.337 -0.018,-1.798 0.144,-3.267c0.485,-4.368 0.09,-19.185 -0.57,-21.419c-0.157,-0.527 -0.229,-1.084 -0.161,-1.238c0.303,-0.68 -1.511,-8.42 -2.714,-11.581c-1.431,-3.762 -5.079,-10.495 -6.793,-12.541c-0.57,-0.683 -1.486,-1.389 -2.045,-1.581c-0.543,-0.184 -0.884,-0.442 -0.735,-0.556c0.256,-0.194 -0.841,-3.202 -1.339,-3.672c-0.154,-0.145 -0.489,-0.357 -0.796,-0.506c-0.288,-0.14 -0.786,-0.714 -1.086,-1.255c-0.44,-0.79 -0.396,-1.076 0.218,-1.382c0.614,-0.302 0.531,-0.769 -0.4,-2.236c-2.007,-3.165 -5.047,-6.44 -6.083,-6.548c-0.635,-0.069 -1.156,-0.519 -1.441,-1.254c-0.784,-2.009 -7.767,-7.727 -15.082,-12.35c-10.327,-6.526 -24.15,-10.973 -42.089,-13.539c-13.434,-1.922 -32.797,-1.75 -53.787,0.478c-13.993,1.486 -14.651,1.59 -14.702,2.281c-0.058,0.769 -3.105,2.107 -3.494,1.536c-0.394,-0.576 -4.921,2.072 2.014,1.464c27.13,-2.376 28.508,-1.816 28.712,-2.248c0.165,-0.352 2.787,-0.383 3.552,-0.043c0.314,0.14 0.627,0.088 0.718,-0.116c0.091,-0.203 1.221,-0.4 2.531,-0.443c3.955,-0.128 1.877,0.839 -2.468,1.146c-9.25,0.66 -25.223,2.367 -26.772,2.864l-1.652,0.532c0.868,0.056 2.803,0.163 3.184,0.333c0.467,0.208 -5.479,1.174 -8.846,1.435c-1.726,0.135 -3.439,0.324 -3.856,0.426c-1.018,0.25 -1.195,0.908 -0.26,0.961c1.119,0.061 0.353,1.372 -0.589,1.321c-1.268,-0.067 -1.321,0.908 -0.058,1.067c0.651,0.081 0.045,0.367 -1.477,0.698c-2.028,0.438 -2.475,0.698 -2.082,1.214c0.708,0.934 2.489,1.113 3.195,0.321c0.717,-0.805 2.959,-0.525 3.427,0.43c0.198,0.399 0.454,0.703 0.589,0.692c0.131,-0.011 -0.13,0.058 -0.59,0.154c-7.625,1.593 -7.578,1.575 -7.652,2.842c-0.048,0.812 -0.327,1.326 -0.841,1.543c-0.605,0.254 -0.616,0.308 -0.049,0.25c0.408,-0.044 0.966,0.169 1.283,0.485c0.47,0.472 0.411,0.643 -0.362,1.049c-0.644,0.336 -0.711,0.459 -0.22,0.401c1.014,-0.118 0.511,0.667 -1.273,1.994c-0.842,0.627 -1.397,1.204 -1.222,1.27c0.692,0.263 4.379,0.877 4.456,1.547c0.031,0.263 -0.43,0.266 -1.021,0.003c-1.078,-0.48 -2.369,0.244 -1.833,1.027c0.413,0.604 11.957,-0.657 11.87,0.15c-0.105,0.966 2.858,0.523 3.083,1.071c0.595,1.441 -10.224,1.165 -10.658,2.14c-0.087,0.194 0.319,0.311 0.923,0.265c0.734,-0.057 1.014,0.063 0.878,0.369c-0.11,0.246 0.233,0.645 0.754,0.877c0.938,0.418 0.935,0.43 -0.182,0.691c-0.975,0.225 -1.032,0.312 -0.398,0.613c1.141,0.542 1.102,-0.618 3.051,0.4c0.82,0.43 2.672,0.641 4.718,0.538c4.302,-0.213 6.998,0.649 0.737,0.963c-5.838,0.294 -8.122,0.559 -8.301,0.96c-0.084,0.189 -0.022,0.366 0.156,0.445c0.162,0.073 10.057,-0.272 22.025,-0.767c20.204,-0.837 34.193,-0.989 35.542,-0.388c0.313,0.139 0.873,0.16 1.189,0.045c0.688,-0.251 7.528,0.4 9.791,0.933c0.398,0.092 8.897,0.536 11.326,1.602c1.324,0.582 2.798,0.48 2.363,-0.162c-0.165,-0.241 -1.728,-0.61 -3.432,-0.806c-7.203,-0.834 -4.32,-2.089 2.007,-0.391c1.896,0.511 1.787,0.122 4.785,1.044c2.25,0.692 3.181,0.901 5.868,1.323c1.52,0.236 2.155,0.114 2.187,-0.419c0.068,-1.211 1.656,0.319 3.51,0.44c0.811,0.052 0.812,0.122 0.014,0.524c-1.364,0.691 -0.521,0.897 1.204,0.297c1.381,-0.479 1.438,-0.459 1.674,0.59c0.223,0.993 0.475,1.135 2.845,1.613c3.707,0.747 11.105,3.96 12.916,5.613c2.725,2.484 3.18,3.027 2.779,3.297c-0.473,0.326 -6.812,-2.571 -7.062,-3.225c-0.095,-0.248 0.539,-0.134 1.409,0.253c2.059,0.917 2.978,0.468 0.259,-0.49c-1.334,-0.467 -2.092,-0.494 -2.278,-0.076c-0.189,0.425 -0.559,0.414 -1.151,-0.035c-2.211,-1.678 -16.379,-7.753 -16.651,-7.141c-0.06,0.133 -1.959,-0.279 -4.216,-0.918c-2.256,-0.639 -4.476,-1.112 -4.927,-1.048c-2.77,0.382 7.112,2.055 9.967,3.436c1.2,0.582 1.297,0.7 0.393,0.475c-3.45,-0.86 -1.174,1.515 -0.855,0.799c0.243,-0.545 3.31,0.801 3.052,1.38c-0.102,0.229 0.118,0.574 0.466,0.729c0.8,0.356 1.191,-0.328 0.562,-0.983c-0.254,-0.261 0.158,-0.214 0.933,0.106c0.844,0.35 1.609,0.358 1.951,0.015c0.347,-0.346 0.717,-0.334 0.965,0.034c0.894,1.328 13.533,5.887 13.734,8.115c0.039,0.433 0.354,0.949 0.665,1.088c0.322,0.143 1.636,1.19 2.888,2.307c2.716,2.414 4.458,5.129 3.394,5.289c-0.682,0.101 -0.66,0.174 0.213,0.74c2.12,1.372 2.964,24.192 0.952,25.181c-0.573,0.282 -1.014,1.173 -1.558,3.141c-0.968,3.515 -5.987,13.247 -9.957,19.311c-1.817,2.775 -3.074,5.104 -3.092,5.726c-0.017,0.578 0.081,0.864 0.216,0.639c1.982,-3.321 1.143,-0.77 9.697,-16.451c0.822,-1.508 1.612,-2.759 1.774,-2.812c0.168,-0.057 0.155,0.214 -0.03,0.631c-0.187,0.418 -0.117,0.824 0.16,0.948c0.287,0.128 0.22,0.472 -0.166,0.841c-0.36,0.344 -1.202,1.672 -1.874,2.956c-7.142,13.631 -6.875,11.497 -9.461,15.39c-1.396,2.107 -1.701,0.842 -1.031,0.165c0.318,-0.32 0.251,-0.658 -0.166,-0.843c-0.445,-0.198 -1.156,0.254 -1.978,1.264c-0.699,0.855 -1.223,1.734 -1.149,1.924c0.233,0.608 -2.19,1.304 -0.844,1.147c1.011,-0.119 0.282,1.316 -0.692,1.273c-0.409,-0.016 -0.909,0.263 -1.055,0.592c-0.21,0.47 -0.02,0.606 0.756,0.547c0.671,-0.053 1.593,-0.854 2.616,-2.272c2.084,-2.894 2.507,-2.654 0.808,-0.037c-1.917,2.95 -1.338,2.831 -3.043,4.54c-1.453,1.457 -2.319,2.604 -3.102,3.599l0.351,-2.471c-13.828,18.361 -30.801,30.058 -32.124,32.148c-0.193,0.308 -0.898,0.81 -1.583,1.129c-1.131,0.528 -2.295,1.312 -4.281,2.884c-1.403,1.112 -3.981,2.337 -4.32,3.097c-0.183,0.412 -0.327,0.359 -0.608,-0.228c-0.278,-0.583 -0.647,-0.643 -1.537,-0.248c-1.407,0.625 -1.148,0.948 0.31,0.388c2.6,-0.999 -1.453,2.716 -3.611,3.809c-0.394,0.2 -0.537,0.438 -0.326,0.542c0.207,0.104 -0.161,0.173 -0.819,0.156c-0.66,-0.018 -1.162,0.188 -1.122,0.46c0.039,0.259 -0.307,0.596 -0.735,0.714c-0.628,0.173 -0.745,0.084 -0.528,-0.403c0.155,-0.348 0.443,-0.414 0.648,-0.149c0.687,0.886 -0.151,-1.894 -1.219,0.436c-0.334,0.727 -0.961,1.128 -1.826,1.167c-0.723,0.032 -1.426,0.301 -1.558,0.596c-0.139,0.313 -0.393,0.452 -0.603,0.327c-0.578,-0.335 -1.628,0.535 -1.741,1.442c-0.06,0.473 -0.354,0.869 -0.687,0.923c-0.315,0.052 -0.549,0.341 -0.509,0.628c0.043,0.311 -0.058,0.445 -0.246,0.32c-0.966,-0.64 -1.965,-0.732 -2.202,-0.201c-0.148,0.333 -0.666,0.702 -1.188,0.846c-0.523,0.143 -0.995,0.476 -1.085,0.767c-0.329,1.061 -0.759,1.536 -1.207,1.337c-0.262,-0.117 -0.22,-0.369 0.1,-0.6c0.323,-0.233 0.36,-0.338 0.092,-0.252c-0.277,0.089 -0.428,0.247 -0.377,0.395c0.152,0.437 -1.892,1.004 -2.17,0.602c-0.146,-0.21 -0.249,-0.159 -0.214,0.106c0.09,0.702 -5.046,2.708 -4.975,3.265c0.029,0.214 -0.354,0.514 -0.83,0.649c-0.478,0.138 -0.855,0.457 -0.822,0.699c0.063,0.442 -1.73,2.083 -2.197,2.011c-1.912,-0.291 -3.325,0.031 -4.711,1.077c-2.258,1.702 -7.134,4.463 -8.045,4.554c-0.401,0.04 -1.617,0.809 -2.655,1.68c-2.084,1.745 -2.651,2.071 -6.795,3.89c-1.508,0.662 -2.886,1.459 -3.012,1.742c-0.125,0.281 -0.731,0.615 -1.321,0.722c-3.465,0.644 -5.824,4.382 -73.671,33.837c-0.499,0.217 -41.436,18.436 -39.56,16.505c0.295,-0.302 3.827,-3.462 7.837,-7.009c8.554,-7.565 8.701,-7.708 8.155,-7.951c-0.224,-0.099 -0.8,0.082 -1.236,0.39c-2.001,1.402 2.711,-3.398 3.258,-3.154c0.098,0.043 -0.196,0.662 -0.67,1.41c-0.768,1.215 -0.683,1.195 0.974,-0.233c3.538,-3.05 7.27,-7.143 7.431,-8.149c0.106,-0.661 0.369,-0.96 0.707,-0.81c0.319,0.142 0.61,-0.166 0.708,-0.747c0.093,-0.541 0.28,-0.815 0.415,-0.604c0.233,0.359 1.444,-1.505 4.399,-6.771c1.44,-2.569 1.514,-2.879 0.873,-3.715c-0.393,-0.518 -0.575,-1.185 -0.417,-1.54c0.387,-0.869 -1.334,-1.636 -2.058,-0.916c-0.32,0.314 -0.821,0.335 -1.117,0.044c-0.335,-0.332 -0.766,-0.236 -1.155,0.256c-0.466,0.59 -1.002,0.616 -2.15,0.105c-1.182,-0.526 -1.402,-0.804 -0.968,-1.222c1.685,-1.626 1.703,-1.745 0.148,-0.975c-2.083,1.03 -16.455,12.892 -16.622,13.719c-0.068,0.332 -0.421,0.482 -0.768,0.327c-0.356,-0.158 -1.172,0.122 -1.821,0.626c-2.894,2.243 -9.227,6.922 -9.572,7.695c-0.42,0.944 -1.097,0.249 -3.038,1.793c-24.711,19.648 -30.554,21.948 -28.223,20.282c11.488,-8.216 39.811,-30.022 44.489,-33.33c3.47,-2.454 12.919,-10.886 13.393,-11.951c0.735,-1.652 -4.378,2.426 -6.639,5.294c-0.688,0.873 -2.857,2.498 -4.762,3.566c-1.904,1.068 -3.465,2.205 -3.425,2.496c0.098,0.709 -1.021,1.722 -1.358,1.229c-0.41,-0.604 -3.194,1.492 -3.266,2.459c-0.035,0.444 -0.164,0.592 -0.288,0.331c-0.122,-0.257 -0.665,-0.213 -1.185,0.097c-2.007,1.201 -21.422,15.917 -21.747,16.647c-0.186,0.417 -0.713,0.843 -1.232,0.99c-1.29,0.369 -3.323,2.154 -3.374,2.959c-0.055,0.911 -1.308,1.007 -0.989,0.289c0.134,-0.299 -1.475,0.654 -3.594,2.127c-15.236,10.596 -27.801,16.852 -44.406,24.889c-22.088,10.684 -20.196,7.514 -23.776,13.868l1.943,-0.904c1.419,-0.661 2.125,-0.728 2.612,-0.254c0.64,0.624 0.626,0.661 -0.326,0.874c-1.186,0.268 -5.944,3.993 -6.621,4.593c-0.201,0.179 1.81,0.18 2.556,0.002c0.575,-0.136 0.435,0.06 -0.446,0.626c-0.995,0.639 -1.174,0.924 -0.794,1.27c0.363,0.334 0.146,0.608 -0.856,1.077c-3.231,1.518 0.555,-0.273 2.35,0.527c0.971,0.432 0.779,0.409 -2.292,1.729l1.459,0.421c1.034,0.297 1.326,0.553 1.002,0.883c-0.336,0.342 -0.014,0.594 1.237,0.967c2.811,0.837 4.972,0.2 2.854,0.749c-1.036,0.268 -1.077,0.333 -0.39,0.638c0.418,0.186 0.549,0.491 0.29,0.672c-0.689,0.477 0.74,0.945 2.54,0.832c0.901,-0.056 1.574,0.125 1.618,0.437c0.044,0.3 0.421,0.55 0.87,0.574c0.57,0.029 0.69,-0.109 0.429,-0.495c-0.25,-0.369 -0.1,-0.527 0.471,-0.5c0.572,0.025 0.666,0.156 0.299,0.405c-0.371,0.252 -0.208,0.422 0.528,0.547c3.172,0.544 -2.215,0.898 -2.642,0.273c-0.15,-0.221 -0.5,-0.255 -0.76,-0.081c-0.879,0.597 1.014,1.005 3.425,0.738Zm224.949,-267.858c0.441,0.204 -3.455,0.646 -5.31,0.603c-1.937,-0.044 -2.117,-0.409 -0.286,-0.574c1.78,-0.162 5.271,-0.179 5.596,-0.029Zm34.856,-0.344c-2.168,-0.256 -9.142,-0.243 -19.596,0.035c-8.903,0.236 -6.582,-0.279 -4.483,-0.364c1.773,-0.072 20.575,-1.176 25.091,-0.354c2.123,0.387 1.284,0.951 -1.012,0.683Zm16.299,-30.155c3.967,0.032 18.56,3.296 8.907,1.986c-6.701,-0.91 -5.499,-0.279 -7.663,-0.851c-0.819,-0.214 -2.153,-0.358 -2.961,-0.319c-2.048,0.105 -1.175,-0.044 -2.437,-0.189c-0.423,-0.045 -1.231,-0.178 -1.843,-0.299c-3.758,-0.742 3.684,-0.63 4.093,-0.447c0.134,0.059 0.99,0.113 1.904,0.119Zm21.009,1.938c-3.984,-0.699 -6.315,-1.977 -11.112,-2.783c-5.069,-0.848 -12.365,-2.392 -15.211,-2.564c-1.177,-0.071 -2.413,-0.334 -2.795,-0.599c-0.377,-0.258 2.4,-0.152 6.144,0.236c3.744,0.387 6.893,0.566 6.969,0.396c0.075,-0.169 0.51,-0.025 0.943,0.315c1.917,1.5 12.517,1.51 27.446,8.156c12.411,5.526 -10.839,-2.883 -12.384,-3.157Zm23.034,10.631c-1.009,-0.823 -1.1,-1.059 -0.405,-1.056c0.485,-0 1.543,0.604 2.309,1.317c1.117,1.045 1.203,1.263 0.404,1.057c-0.545,-0.142 -1.605,-0.747 -2.308,-1.318Zm-1.557,3.074c0.728,1.409 0.858,0.767 4.563,4.302c1.724,1.648 2.468,2.614 1.914,2.485c-0.977,-0.223 -5.119,-2.445 -7.467,-4.002c-8.617,-5.716 -12.773,-7.269 -7.115,-4.933c4.257,1.755 4.08,-0.129 -3.833,-2.29c-10.521,-2.87 -10.625,-4.077 -12.964,-3.961c-2.152,0.109 -2.863,-0.906 -9.314,-2.376c-2.421,-0.552 -4.378,-1.068 -4.345,-1.143c0.357,-0.801 8.022,1.897 9.556,1.462c0.876,-0.247 6.771,0.98 10.483,2.184c1.456,0.472 2.514,0.514 3.173,0.127c1.623,-0.954 0.537,0.302 6.599,3.001c3.999,1.781 6.296,3.563 4.861,3.773c-0.624,0.09 -0.594,0.21 0.137,0.535c0.667,0.297 1.246,0.096 1.997,-0.696l1.057,-1.11l0.881,1.296c1.258,1.851 1.287,1.984 0.226,1.084c-0.938,-0.793 -0.951,-0.785 -0.409,0.262Zm17.423,14.717c-2.088,-1.445 -2.89,-1.464 -0.247,-1.361c-0.801,-0.849 -1.403,-1.461 -1.748,-2.674c-0.465,-1.631 -1.155,-1.335 -2.376,-3.227c-0.886,-1.377 -0.929,-1.723 -0.173,-1.387c0.576,0.257 4.678,6.617 5.398,8.369c0.494,1.202 0.484,1.204 -0.854,0.28Zm-91.573,-32.877c0.192,-0.432 13.718,-0.029 14.058,0.146c0.451,0.232 -14.435,0.7 -14.058,-0.146Zm11.184,2.292c-0.121,-0.319 4.599,-0.409 6.765,-0.126c2.328,0.301 0.075,0.672 -3.327,0.548c-1.845,-0.068 -3.373,-0.254 -3.438,-0.422Zm84.192,40.899c-0.522,-0.232 -0.849,-0.619 -0.738,-0.869c0.109,-0.245 -0.182,-0.622 -0.635,-0.823c-0.972,-0.433 -1.268,-1.379 -0.463,-1.483c0.297,-0.041 1.025,0.737 1.652,1.762c0.917,1.497 0.95,1.754 0.184,1.413Zm-13.743,27.296c-0.048,-1.774 -0.235,-4.09 -0.41,-5.1c-0.438,-2.522 0.496,-1.92 0.57,-0.019c0.092,2.343 1.366,6.783 0.691,7.246c-0.274,0.188 -0.271,0.421 0.007,0.545c0.279,0.124 0.293,0.351 0.033,0.534c-0.236,0.167 -0.229,0.419 0.015,0.528c0.958,0.426 -0.712,3.28 -0.906,-3.734Zm-128.832,134.797c-2.222,0.808 -2.376,0.668 -0.415,-0.376c2.391,-1.272 0.572,-1.119 4.29,-2.526c3.192,-1.207 2.018,-1.239 5.778,-3.011c1.636,-0.77 3.018,-1.534 3.066,-1.696c0.265,-0.881 0.731,-1.313 1.21,-1.121c0.553,0.221 7.067,-3.152 7.361,-3.812c0.202,-0.452 5.981,-2.766 6.223,-3.31c0.216,-0.484 3.909,-2.976 4.886,-3.298c1.405,-0.462 25.422,-14.664 25.891,-14.455c0.151,0.067 -4.15,3.07 -7.145,4.986c-1.483,0.949 -1.801,1.922 -3.056,1.783c-0.517,-0.056 -1.058,0.177 -1.213,0.524c-1.133,2.544 5.233,-2.363 5.439,-1.829c0.071,0.188 -4.143,3.113 -5.74,3.986c-0.12,0.066 -0.328,-0.181 -0.489,-0.57c-0.202,-0.503 -0.905,-0.342 -2.621,0.6c-1.716,0.944 -2.4,1.6 -2.549,2.449c-0.22,1.236 -1.476,1.743 -1.62,0.655c-0.119,-0.901 -3.44,1.258 -2.77,1.161c0.817,-0.118 0.778,1.413 0.524,0.834c-0.258,-0.59 -2.169,-0.461 -2.447,0.163c-0.138,0.31 0.16,0.39 0.819,0.219c0.899,-0.232 0.848,-0.144 -0.391,0.682c-5.68,3.774 -9.422,5.006 -5.441,2.826c1.007,-0.552 1.625,-1.109 1.359,-1.227c-0.456,-0.203 -4.961,1.956 -9.097,4.363c-11.246,6.541 -12.744,6.797 -13.048,7.48c-0.127,0.285 -0.677,0.588 -1.214,0.667c-0.543,0.081 -1.64,0.623 -2.458,1.218c-1.318,0.956 -1.385,1.077 -0.623,1.118c1.534,0.086 -0.89,1.281 -2.35,1.768c-1.465,0.487 -1.594,0.463 -0.978,-0.187c0.559,-0.591 0.31,-0.604 -1.181,-0.064Zm-13.45,6.568c0.35,-0.717 2.746,-2.069 3.263,-1.838c1.009,0.449 0.131,1.388 -1.671,1.789c-0.972,0.217 -1.684,0.239 -1.592,0.049Zm-52.778,53.197c-0.106,-0.792 2.974,-2.652 4.391,-2.652c0.623,0.003 1.272,-0.241 1.396,-0.519c0.294,-0.661 2.631,-1.156 2.99,-0.633c0.14,0.205 0.27,0.044 0.291,-0.364c0.045,-0.834 3.732,-1.84 4.878,-1.33c0.418,0.187 0.691,0.149 0.602,-0.084c-0.234,-0.608 3.249,-0.621 3.167,-1.362c-0.08,-0.725 4.134,-1.071 4.502,-1.827c0.148,-0.308 0.484,-0.387 0.767,-0.18c0.813,0.598 22.403,-8.291 22.989,-8.03c0.151,0.068 -1.158,0.691 -2.891,1.378c-23.246,9.202 -32.692,11.747 -35.108,13.697c-0.798,0.644 -1.602,1.022 -1.819,0.857c-0.201,-0.157 -0.229,-0.498 -0.056,-0.714c0.45,-0.567 -1.463,0.028 -1.576,0.404c-0.092,0.303 -0.546,0.783 -0.909,1.386c-0.18,0.297 -0.638,0.31 -1.056,0.031c-0.416,-0.28 -1.116,-0.276 -1.609,0.011c-0.527,0.308 -0.902,0.28 -0.949,-0.069Zm-44.783,-10.668c-0.222,-0.434 -0.483,-0.598 -0.587,-0.365c-0.357,0.802 -5.302,1.112 -5.372,2.314c-0.048,0.804 -1.245,1.506 -2.752,1.617c-0.953,0.067 -0.958,0.023 -0.074,-0.583c0.517,-0.353 1.112,-0.589 1.29,-0.509c0.408,0.181 1.222,-1.007 -0.441,-0.46c-1.369,0.451 -1.358,-0.007 0.022,-1.017c0.488,-0.358 5.602,-2.445 11.371,-4.644c29.984,-11.428 62.543,-27.296 63.251,-26.223c0.326,0.493 1.602,-0.425 0.67,-0.29c-3.009,0.431 8.897,-4.753 9.312,-4.122c0.178,0.27 0.278,0.207 0.234,-0.146c-0.107,-0.832 5.451,-2.753 9.553,-4.744c3.578,-1.739 13.395,-6.272 14.517,-6.702c0.841,-0.323 0.855,-0.285 0.116,0.302c-1.7,1.353 -3.927,1.158 -4.248,2.9c-0.145,0.788 -0.683,1.298 -1.838,1.742c-0.906,0.349 -1.717,0.814 -1.819,1.045c-0.255,0.572 -1.119,0.172 -0.823,-0.492c0.408,-0.917 -0.59,-0.178 -1.09,0.807c-0.382,0.75 -0.763,0.831 -1.814,0.38c-1.153,-0.496 -1.4,-0.417 -1.871,0.603c-0.735,1.588 -1.756,1.632 -1.058,1.112c0.315,-0.237 0.378,-0.497 0.143,-0.602c-0.661,-0.294 -4.12,1.81 -4.031,2.455c0.082,0.59 -2.591,1.845 -2.974,1.397c-0.112,-0.131 -0.27,-0.051 -0.378,0.192c-0.258,0.579 -1.83,1.113 -1.655,0.722c0.298,-0.669 -12.651,4.836 -13.204,6.078c-0.188,0.423 -2.063,1.08 -1.909,0.733c0.164,-0.367 -4.296,1.415 -4.499,1.872c-0.185,0.415 -3.671,1.321 -4.194,1.088c-0.506,-0.226 -1.288,0.137 -1.698,0.787c-0.513,0.812 -3.903,2.281 -4.212,1.825c-0.157,-0.23 -0.295,-0.062 -0.319,0.387c-0.023,0.448 -0.252,0.698 -0.527,0.576c-0.279,-0.124 -0.507,-0.064 -0.534,0.138c-0.088,0.669 -4.203,1.963 -4.585,1.44c-0.208,-0.283 -0.316,-0.303 -0.233,-0.046c0.14,0.443 -3.551,2.647 -5.559,3.323c-1.405,0.473 -16.512,7.223 -16.962,6.566c-0.181,-0.265 -0.289,-0.191 -0.239,0.164c0.054,0.391 -3.22,1.94 -8.392,3.97c-11.262,4.418 -7.894,3.647 -9.591,4.791c-0.462,0.312 -0.685,0.227 -0.997,-0.381Zm19.062,18.569c0.245,-0.172 0.238,-0.488 -0.016,-0.758c-0.246,-0.262 0.121,-0.18 0.835,0.184c0.815,0.415 1.32,0.44 1.408,0.065c0.071,-0.308 0.447,-0.447 0.796,-0.292c0.348,0.155 0.8,-0.019 0.954,-0.365c0.155,-0.349 0.517,-0.563 0.764,-0.453c0.264,0.117 0.433,-0.098 0.387,-0.494c-0.05,-0.418 0.128,-0.289 0.44,0.32c0.289,0.567 0.488,0.75 0.443,0.407c-0.104,-0.826 1.77,-1.213 1.607,-0.846c-0.163,0.366 1.978,0.348 2.026,-0.579c0.047,-0.896 3.399,-1.658 3.919,-0.891c0.243,0.356 -1.368,1.153 -4.514,2.23c-4.08,1.4 -4.818,1.807 -4.448,2.458c0.385,0.675 0.356,0.701 -0.212,0.198c-0.358,-0.32 -0.751,-0.371 -0.864,-0.117c-0.122,0.275 -0.731,0.141 -1.447,-0.309c-0.682,-0.431 -1.308,-0.616 -1.398,-0.414c-0.219,0.493 -1.222,0.031 -0.68,-0.344Zm-21.037,17.776c-0.142,-0.363 10.474,0.051 11.26,0.442c0.753,0.374 -4.077,-0.128 -4.226,0.646c-0.066,0.346 -0.58,0.325 -1.288,-0.053c-0.655,-0.349 -2.167,-0.652 -3.404,-0.683c-1.236,-0.028 -2.278,-0.187 -2.342,-0.352Zm-82.385,-14.498c4.015,-1.713 5.039,-2.479 6.577,-2.842c2.465,-0.578 -3.25,1.969 -5.593,2.927c-4.57,1.863 -4.76,1.526 -0.984,-0.085Z" style="fill:#39bdc8;fill-rule:nonzero;"/></svg>