<svg width="15" height="22" viewBox="0 0 15 22" fill="none" xmlns="http://www.w3.org/2000/svg">
<path fill-rule="evenodd" clip-rule="evenodd" d="M14.1806 19.698C14.1859 19.0933 13.9404 18.5092 13.4934 18.0636L6.1892 11.0012L13.4934 3.93882C13.941 3.49455 14.1894 2.91251 14.1894 2.30837C14.1894 1.70423 13.941 1.12219 13.4934 0.67792C13.2794 0.464272 13.0191 0.293678 12.7292 0.176972C12.4392 0.0602666 12.1259 0 11.8091 0C11.4923 0 11.179 0.0602666 10.889 0.176972C10.5991 0.293678 10.3388 0.464272 10.1248 0.67792L1.13705 9.37156C0.687648 9.81403 0.437866 10.3957 0.437866 10.9997C0.437866 11.6036 0.687648 12.1853 1.13705 12.6277L10.1162 21.3245C10.3302 21.5382 10.5905 21.7088 10.8804 21.8255C11.1704 21.9422 11.4837 22.0024 11.8005 22.0024C12.1173 22.0024 12.4306 21.9422 12.7206 21.8255C13.0105 21.7088 13.2708 21.5382 13.4848 21.3245C13.9312 20.8818 14.1769 20.3003 14.172 19.698" fill="#C91070"/>
</svg>
