<?xml version="1.0" encoding="UTF-8" standalone="no"?>
<!DOCTYPE svg PUBLIC "-//W3C//DTD SVG 1.1//EN" "http://www.w3.org/Graphics/SVG/1.1/DTD/svg11.dtd">
<svg width="100%" height="100%" viewBox="0 0 151 198" version="1.1" xmlns="http://www.w3.org/2000/svg" xmlns:xlink="http://www.w3.org/1999/xlink" xml:space="preserve" xmlns:serif="http://www.serif.com/" style="fill-rule:evenodd;clip-rule:evenodd;stroke-linejoin:round;stroke-miterlimit:2;">
    <path d="M140.868,87.807C138.321,85.113 138.645,85.027 136.098,82.333C121.802,67.17 119.31,63.69 118.289,62.871C118.133,62.747 113.032,57.275 106.491,50.255C106.131,50.499 105.877,50.777 105.907,51.242C105.994,52.564 104.853,51.542 102.963,51.667C102.959,51.599 101.842,51.763 101.804,51.161C101.782,50.839 103.685,49.677 104.812,48.451C93.025,35.8 77.75,19.405 77.551,19.405C77.41,19.405 77.283,19.626 77.283,19.868C77.283,20.117 77.188,20.338 77.088,20.338C76.825,20.338 75.583,18.908 75.347,18.646C76.745,18.31 77.201,18.753 72.56,14.004C67.279,8.602 67.266,9.255 70.666,12.781C71.942,14.105 72.976,15.314 72.976,15.482C72.976,15.649 72.767,15.616 72.526,15.408C72.284,15.205 71.807,15.113 71.485,15.213C71.068,15.348 70.739,15.152 70.323,14.541C70.013,14.078 69.785,13.473 69.826,13.225C69.933,12.539 68.072,10.416 67.454,10.524C67.172,10.571 66.601,10.336 66.185,9.999C65.899,9.774 65.49,9.345 65.094,8.886C65.099,9.581 66.481,10.32 65.873,10.994C65.243,11.693 61.552,8.365 62.182,7.667C62.862,6.912 60.263,4.742 59.318,5.277C58.282,5.862 58.464,4.05 58.361,4.163C58.234,3.03 58.36,2.263 58.64,1.766C58.607,1.673 58.608,1.574 58.653,1.502C58.748,1.347 58.64,1.213 58.418,1.206C57.525,1.18 56.101,-0.87 55.603,0.434C55.476,0.762 55.153,0.843 54.522,0.715C53.789,0.568 53.575,0.662 53.4,1.206C52.997,2.436 53.998,3.806 53.105,3.06C52.546,2.597 52.492,2.952 52.936,4.155C53.137,4.693 53.144,5.116 52.943,5.35C52.339,6.082 53.501,7.366 52.507,6.976C52.07,6.802 52.015,6.889 52.197,7.454C52.52,8.435 52.459,9.214 51.726,13.54C50.975,17.987 51.081,20.157 51.122,29.112C32.966,28.988 18.993,28.67 15.063,29.667C15.016,29.854 14.973,30.057 14.941,30.274C14.97,30.272 15,30.269 15.03,30.268C15.096,30.25 15.163,30.234 15.235,30.214C15.873,30.039 16.686,29.898 17.022,29.906C17.535,29.915 17.13,30.145 16.401,30.395C16.455,30.405 16.505,30.413 16.561,30.425C20.586,31.255 17.635,32.822 19.261,33.157C19.642,33.235 19.826,33.926 19.669,34.691C19.332,36.322 14.348,35.706 12.953,33.86C12.983,33.714 11.288,31.513 13.002,31.866C13.638,31.997 13.705,31.677 13.792,31.288C13.739,31.209 13.683,31.123 13.624,31.034C12.254,31.16 12.224,31.132 12.205,30.295C12.191,29.811 12.118,29.596 12.03,29.811C11.95,30.019 11.62,30.335 11.277,30.517C9.941,31.235 7.892,29.132 9.297,29.671C9.907,29.906 10.304,29.079 9.821,29.382C9.626,29.502 9.463,29.468 9.463,29.307C9.463,28.823 7.946,29.677 7.758,30.261C7.616,30.691 7.462,30.739 6.971,30.482C6.628,30.301 6.235,30.245 6.071,30.349C5.906,30.454 5.776,31.571 5.776,32.868C5.776,34.896 5.715,35.152 5.312,34.823C4.99,34.553 4.849,33.856 4.849,32.512C4.849,30.651 4.815,30.577 4.063,30.577C2.424,30.577 3.916,32.747 2.84,33.164C2.229,33.399 2.229,34.695 2.84,34.924C3.088,35.017 3.303,35.226 3.303,35.367C3.303,35.757 2.369,35.709 2.336,35.32C2.316,35.131 2.175,35.528 2.021,36.186C1.813,37.094 1.839,37.463 2.136,37.645C2.451,37.839 2.451,37.886 2.141,37.886C1.933,37.886 1.765,38.108 1.765,38.376C1.765,38.554 1.694,38.659 1.593,38.68C1.576,38.894 1.6,39.09 1.891,39.222C2.772,39.622 2.192,39.822 1.456,39.717C2.176,45.067 0.01,77.547 0.879,80.35C0.98,80.681 1.023,80.967 1.017,81.229C1.12,81.252 1.227,81.282 1.337,81.32C2.699,78.962 7.041,81.052 3.639,83.333L3.494,83.428C3.498,83.477 3.501,83.526 3.498,83.575C3.34,83.698 3.681,86.492 1.768,84.48C1.141,84.747 1.033,84.433 0.975,83.529C0.818,83.322 0.68,83.127 0.567,82.95C0.178,85.593 0.179,93.947 0.059,120.517C-0.02,139.18 -0.066,149.827 0.235,155.918C0.495,156.065 0.681,156.634 0.71,157.737C0.781,160.349 2.987,158.265 3.076,161.631C3.123,163.394 2.631,163.362 2.119,163.818C2.17,163.848 2.222,163.877 2.276,163.902C2.719,164.104 3.203,164.204 3.344,164.117C3.492,164.023 3.599,164.117 3.599,164.339C3.599,164.553 3.673,164.641 3.767,164.547C4.022,164.292 7.409,165.205 7.758,165.621C7.933,165.824 8.49,166.005 9,166.025C10.472,166.085 12.481,166.387 12.816,166.589C13.206,166.831 17.223,166.972 21.395,167.402C25.386,167.819 27.259,167.617 27.468,167.94C27.697,168.296 25.184,167.872 25.184,168.262C25.184,168.531 29.268,169.008 31.492,169.008C37.498,168.994 33.803,168.639 27.805,168.08L31.774,168.08C36.631,168.067 37.713,168.531 36.745,168.591C36.188,168.624 36.181,168.652 36.672,168.948C36.974,169.122 37.727,169.209 38.365,169.142C39.366,169.034 39.427,168.987 38.828,168.786C38.459,168.659 38.143,168.464 38.143,168.357C38.143,168.248 40.771,168.175 43.994,168.188C48.738,168.208 49.853,168.135 49.853,167.798C49.853,167.248 50.464,167.287 50.464,167.684C50.464,167.852 50.733,167.994 51.049,167.994C51.882,167.994 52.117,168.51 51.465,168.9C51.169,169.069 51.102,169.215 51.318,169.23C51.546,169.236 51.72,169.653 51.726,170.244C51.747,171.359 51.868,171.144 52.151,169.457C52.425,167.838 53.031,168.248 52.829,168.772C52.567,169.451 51.357,179.776 51.303,181.778C51.297,182 51.189,182.168 51.049,182.168C50.813,182.168 50.915,179.555 51.236,177.48C51.465,175.994 50.464,175.43 50.464,181.241C50.464,182.362 50.3,183.455 50.108,183.646C49.843,183.91 49.926,183.962 50.417,183.834C50.995,183.68 51.076,183.787 51.076,184.714C51.076,185.298 50.921,185.917 50.733,186.105C50.484,186.354 50.585,186.555 51.076,186.817C52.318,187.476 52.574,186.764 52.775,182.168C53.044,175.961 53.245,177.223 53.386,173.697C53.501,170.7 53.508,171.89 53.676,170.633C53.81,169.578 54.199,168.624 54.496,168.624C54.662,168.624 54.791,168.759 54.791,168.934C54.791,169.431 53.743,169.069 54.461,169.518C54.851,169.767 54.858,170.117 54.496,172.218C53.467,178.231 54.024,182.168 53.521,182.168C53.373,182.168 53.266,183.243 53.286,184.567C53.346,188.396 53.46,184.627 54.031,184.438C54.421,184.304 54.34,186.643 53.87,189.088C53.608,190.457 53.608,190.975 53.87,191.143C54.071,191.264 54.146,191.681 54.045,192.097C53.937,192.515 53.937,192.662 54.045,192.44C54.146,192.218 54.354,192.043 54.508,192.043C54.986,192.043 54.118,194.771 54.731,194.394C55.2,194.099 55.18,194.724 54.791,194.966C54.448,195.175 54.353,196.457 54.669,196.767C54.774,196.869 55.12,196.82 55.415,196.666C56.105,196.299 55.968,196.844 56.132,197.311C56.605,196.877 58.545,196.83 58.803,197.314C59.773,196.899 60.709,196.335 60.824,195.98C60.917,195.692 61.212,195.443 61.475,195.443C61.885,195.443 61.898,195.516 61.536,195.98C61.193,196.424 61.246,196.417 61.804,195.933C62.516,195.322 62.744,194.932 62.2,195.275C61.811,195.51 61.649,195.127 62.489,194.59C62.88,194.342 63.1,194.314 63.1,194.515C63.1,194.925 63.933,194.489 64.908,193.568C65.305,193.199 65.661,192.944 65.721,192.997C65.896,193.179 63.812,195.369 63.1,195.752C62.738,195.947 62.516,196.182 62.61,196.276C62.798,196.463 65.566,194.637 65.943,194.073C66.056,193.904 66.258,193.857 66.379,193.978C66.708,194.308 68.649,192.34 68.649,191.681C68.649,191.365 68.884,191.117 69.188,191.117C69.852,191.117 72.426,188.705 72.264,188.235C72.11,187.771 73.278,186.515 73.708,186.684C74.131,186.844 77.893,183.001 77.893,182.416C77.893,181.866 75.939,184.345 75.435,184.345C74.676,184.345 81.69,177.351 81.455,177.795C81.086,178.501 81.77,178.621 84.921,174.885C86.123,173.455 89.015,170.17 89.006,169.713C88.996,169.215 86.231,172.494 86.231,172.172C86.231,171.91 88.401,169.168 88.917,169.364C89.455,169.572 90.235,169.236 90.235,168.799C90.235,168.605 90.611,168.054 91.094,167.536C92.291,166.26 96.656,161.201 97.389,160.67C98.148,160.113 97.726,159.703 98.477,159.018C99.157,158.4 134.393,117.702 135.05,117.03C135.837,116.225 136.488,115.472 136.488,115.371C136.488,115.27 136.878,114.821 137.348,114.383C138.321,113.457 142.488,108.513 143.536,107.02C143.938,106.463 144.442,106.06 144.656,106.14C144.891,106.235 145.114,105.932 145.228,105.375C145.396,104.542 145.476,104.489 146.108,104.823C146.699,105.133 146.746,105.126 146.417,104.77C145.953,104.286 145.927,103.574 146.363,103.574C146.841,103.574 147.741,105.026 148.063,104.709C148.188,104.587 148.043,104.293 147.747,104.079C146.941,103.487 147.439,102.372 146.256,100.638C145.806,99.98 145.504,99.342 145.584,99.221C145.665,99.1 145.409,98.925 145.001,98.818C144.589,98.717 144.046,98.308 143.776,97.891C143.34,97.232 143.34,97.105 143.737,96.77C143.985,96.561 144.193,96.514 144.193,96.655C144.193,96.803 144.314,96.729 144.455,96.507C144.738,96.057 145.409,96.265 145.409,96.803C145.409,96.977 145.269,97.037 145.107,96.937C144.939,96.836 144.805,96.863 144.811,96.997C144.826,97.34 149.306,102.036 149.615,102.036C149.75,102.036 149.709,101.875 149.521,101.68C149.326,101.485 149.238,100.901 149.313,100.364C149.413,99.624 149.253,99.182 148.641,98.502C147.956,97.743 147.747,97.663 147.257,97.965C146.941,98.159 146.477,98.24 146.222,98.14C145.564,97.885 145.611,97.037 146.269,97.152C146.626,97.212 146.841,96.997 146.914,96.507C147.022,95.822 147.102,95.862 148.386,97.279C149.131,98.113 149.743,98.885 149.743,99.012C149.743,99.355 152.06,100.002 147.875,95.56C144.416,91.886 143.2,90.287 140.868,87.807ZM35.761,32.387C36.201,32.091 36.407,30.741 36.322,30.798C36.393,27.885 37.132,30.255 38.161,29.565C38.975,29.02 39.536,29.855 38.721,30.401C37.65,31.119 40.15,32.495 36.572,33.288C35.594,33.505 35.028,32.877 35.761,32.387ZM35.978,40.369C35.248,39.877 38.233,40.065 38.9,40.357C39.878,40.788 36.518,40.735 35.978,40.369ZM22.264,39.93C24.572,40.189 25.701,40.768 23.499,40.541C22.535,40.441 18.096,40.118 18.096,39.685C18.096,39.295 19.564,39.625 22.264,39.93ZM2.958,131.217C0.433,131.677 2.758,130.216 1.201,129.137C1.285,129.015 0.32,128.617 1.271,127.978C2.782,126.963 3.525,130.21 4.638,128.602C6.093,126.499 8.236,130.257 2.958,131.217ZM47.529,154.681C47.053,155.99 46.893,156.17 46.368,155.979C44.882,155.437 48.191,150.993 48.679,151.17C49.438,151.448 48.524,151.95 47.529,154.681ZM54.088,6.704C54.213,6.571 54.24,6.04 54.146,5.523C53.696,3.039 56.467,3.375 57.683,5.952C58.025,6.677 56.19,8.746 55.107,8.857C54.006,8.969 53.318,7.518 54.088,6.704ZM58.278,22.885C58.131,22.993 58.012,23.504 58.012,24.021C58.011,26.508 55.383,25.695 54.658,22.984C54.455,22.22 56.598,20.538 57.667,20.621C58.755,20.705 59.165,22.232 58.278,22.885ZM64.641,166.28C64.641,164.452 63.881,164.39 64.377,163.786C64.759,163.322 65.074,163.234 64.811,163.664C64.703,163.841 64.812,163.982 65.058,163.982C65.288,163.982 65.677,164.202 65.876,164.446C66.193,164.835 66.145,164.91 65.583,164.91C64.996,164.91 64.921,165.045 64.996,165.974C65.111,167.395 64.641,167.875 64.641,166.28ZM66.524,174.983C66.178,175.424 65.966,175.912 66.06,176.06C66.157,176.211 65.913,176.328 65.497,176.328C64.863,176.328 64.781,176.206 64.886,175.424C64.966,174.837 65.15,174.57 65.411,174.666C65.632,174.745 65.91,174.668 66.023,174.495C66.133,174.327 66.45,174.177 66.695,174.177C67.061,174.177 67.025,174.347 66.524,174.983ZM71.34,31.627C71.11,31.852 70.191,31.19 70.191,30.799C70.191,30.437 71.486,30.814 72.122,31.362C72.415,31.615 72.659,31.965 72.659,32.131C72.659,32.583 71.627,31.345 71.34,31.627ZM93.23,55.392C94.126,56.418 94.45,57.005 94.123,57.005C94.058,57.005 93.483,56.37 92.863,55.612C91.503,53.95 91.811,53.765 93.23,55.392ZM83.429,149.412C82.535,150.408 81.9,151.007 81.9,151.369C81.9,151.679 81.078,152.079 80.581,152.345C81.748,150.885 83.502,148.581 83.881,148.581C84.045,148.581 83.845,148.947 83.429,149.412ZM90.443,149.262C89.748,152.17 86.273,148.078 89.24,147.674C90.563,147.493 90.794,147.797 90.443,149.262ZM90.897,53.216C90.579,52.926 90.233,52.804 90.102,52.935C89.593,53.444 90.484,51.773 89.455,51.773C89.186,51.773 89.043,51.647 89.137,51.493C89.377,51.097 87.45,50.044 87.45,49.524C87.45,49.169 87.083,48.669 84.901,46.053C83.487,44.36 84.243,44.831 86.037,46.762C86.942,47.736 88.339,49.402 89.113,50.429C89.886,51.456 90.741,52.484 90.994,52.69C91.612,53.194 91.65,53.902 90.897,53.216ZM96.801,64.927C96.287,64.48 96.117,64.45 95.982,64.779C95.887,65.007 95.838,64.915 95.872,64.572C95.908,64.204 95.766,63.984 95.529,64.033C95.31,64.08 95.204,63.986 95.297,63.826C95.527,63.431 93.435,60.899 92.303,59.401C91.248,58.004 91.036,57.332 93.611,60.636C94.875,62.257 97.754,65.752 96.801,64.927ZM97.396,61.039C96.554,60.163 95.21,58.175 94.515,57.176C94.757,57.433 98.757,61.638 98.5,61.638C100.629,64.51 101.616,64.73 100.419,64.73C100.028,64.73 99.788,64.641 99.893,64.535C100.094,64.335 98.736,62.432 97.396,61.039ZM104.058,68.568C103.647,67.735 106.542,70.939 106.542,71.356C106.542,71.737 104.48,69.424 104.058,68.568ZM110.931,81.525C110.777,81.115 111.066,81.426 112.716,83.456C113.451,84.361 113.993,85.149 113.925,85.216C113.796,85.346 111.132,82.063 110.931,81.525ZM122.971,90.619C122.548,90.619 121.863,89.079 121.198,89.079C120.93,89.079 120.791,88.966 120.88,88.822C120.924,88.751 120.641,88.315 120.15,87.673C119.436,87.787 119.638,88.69 118.946,88.582C118.504,88.512 118.54,87.114 118.796,86.004C118.606,85.778 118.407,85.548 118.204,85.314C113.838,80.308 110.261,75.909 109.622,75.671C109.228,75.524 108.378,74.191 107.851,72.896C107.673,72.457 108.009,72.822 110.129,75.364C110.813,76.187 115.423,81.401 118.93,85.507C119.102,84.984 119.325,84.615 119.561,84.652C120.476,84.795 119.507,85.795 120.798,85.997C121.84,86.16 121.692,87.608 120.773,87.687C122.215,89.416 123.154,90.619 122.971,90.619ZM129.192,80.229C126.383,77.079 127.141,77.54 129.694,80.437C132.24,83.327 132.007,83.386 129.192,80.229ZM133.698,85.485C131.762,83.027 132.112,83.138 134.316,85.68C136.444,88.135 135.873,88.246 133.698,85.485Z" style="fill:rgb(2,121,212);fill-rule:nonzero;"/>
</svg>
