<?xml version="1.0" encoding="UTF-8" standalone="no"?><!DOCTYPE svg PUBLIC "-//W3C//DTD SVG 1.1//EN" "http://www.w3.org/Graphics/SVG/1.1/DTD/svg11.dtd"><svg width="100%" height="100%" viewBox="0 0 443 316" version="1.1" xmlns="http://www.w3.org/2000/svg" xmlns:xlink="http://www.w3.org/1999/xlink" xml:space="preserve" xmlns:serif="http://www.serif.com/" style="fill-rule:evenodd;clip-rule:evenodd;stroke-linejoin:round;stroke-miterlimit:2;"><path d="M229.017,19.477c0.216,-0.048 0.509,-0.079 0.712,-0.097c0.671,-0.21 3.76,-1.994 4.951,-2.673c1.841,-1.186 3.794,-2.161 6.042,-2.979c0.811,-0.262 1.608,-0.64 2.443,-1.163c1.7,-1.043 3.494,-1.906 5.326,-2.57c0.234,-0.082 0.47,-0.153 0.707,-0.205c0.396,-0.09 0.804,-0.241 1.398,-0.54c1.469,-0.695 3.359,-1.486 5.059,-2.193c1.112,-0.463 2.123,-0.873 2.766,-1.174c0.747,-0.531 1.61,-0.93 2.478,-1.118c0.391,-0.088 0.777,-0.117 1.149,-0.096c0.732,-0.238 1.457,-0.362 2.129,-0.359c0.525,-0.067 1.091,-0.206 1.843,-0.467c4.309,-1.322 8.564,-2.179 12.822,-2.554c0.773,-0.041 1.575,-0.148 2.389,-0.321c1.077,-0.363 2.131,-0.439 2.972,-0.213c1.348,0.175 2.806,0.151 4.356,-0.076c0.438,-0.141 0.87,-0.235 1.285,-0.274c0.527,-0.205 0.979,-0.306 1.304,-0.356c1.284,-0.2 2.49,0.231 2.924,0.983c0.07,0.121 0.127,0.253 0.173,0.4l0.145,-0.078c1.007,0.089 1.935,0.307 2.759,0.64c0.101,0.042 0.199,0.085 0.285,0.141c0.793,0.169 1.36,0.53 1.666,1.06c0.16,0.278 0.226,0.628 0.205,1.011c0.608,0.313 1.155,0.68 1.461,1.21c0.081,0.141 0.143,0.29 0.185,0.446c0.17,0.043 0.349,0.075 0.54,0.094c1.035,0.002 1.864,0.386 2.276,1.098l0.02,0.036c0.348,0.157 0.645,0.368 0.846,0.573c0.888,-0.128 1.914,0.136 2.446,0.5c0.478,0.215 0.903,0.479 1.281,0.822c0.37,-0.014 0.715,0.011 1.038,0.075c2.149,-0.662 3.303,0.067 3.669,0.7c0.168,0.291 0.228,0.597 0.224,0.902c0.601,0.133 1.066,0.432 1.32,0.871c0.23,0.4 0.259,0.821 0.186,1.249c0.205,0.12 0.387,0.259 0.547,0.417c0.747,0.1 1.364,0.386 1.774,0.843c0.285,0.25 0.628,0.449 1.009,0.595c0.457,0.17 0.876,0.391 1.24,0.651c1.026,-0.436 2.171,-0.589 3.442,-0.449c1.192,0.162 2.1,0.7 2.565,1.505c0.422,0.733 0.472,1.634 0.169,2.591c0.548,0.166 0.978,0.465 1.216,0.878c0.075,0.13 0.17,0.319 0.273,0.64c0.5,0.025 1.231,0.098 1.866,0.396c0.095,-0.028 0.19,-0.057 0.29,-0.085c1.496,-0.396 2.836,-0.296 3.762,0.281c0.368,0.226 0.615,0.469 0.785,0.762c0.38,0.66 0.245,1.72 -0.363,2.636c0.513,0.493 1.093,0.934 1.733,1.327c1.064,-0.277 2.056,-0.258 2.724,0.033c0.861,0.288 1.396,0.668 1.693,1.182c0.2,0.346 0.255,0.82 0.177,1.324c0.924,0.634 1.662,1.415 2.195,2.339c0.068,0.117 0.129,0.231 0.188,0.351c0.952,0.209 1.668,0.675 2.07,1.355c0.734,0.109 1.352,0.381 1.782,0.798c0.648,0.164 1.17,0.513 1.476,1.042c0.056,0.097 0.105,0.198 0.148,0.306c0.358,0.175 0.645,0.419 0.846,0.726c0.353,0.132 0.648,0.323 0.877,0.568c2.8,-0.073 4.212,2.307 4.229,2.335c0.117,0.203 0.204,0.412 0.262,0.623c0.813,0.113 1.447,0.488 1.794,1.088c0.423,0.732 0.301,1.497 0.043,2.111c1.126,0.335 1.702,1.332 2.204,2.201l0.511,0.953c0.093,0.237 0.207,0.468 0.333,0.686c0.335,0.581 0.781,1.091 1.316,1.53c0.482,0.23 0.972,0.532 1.264,1.038c0.092,0.158 0.154,0.325 0.197,0.5c0.636,0.26 1.082,0.655 1.435,0.963c0.539,0.471 1.132,0.909 1.718,1.276c0.611,0.36 1.111,0.806 1.486,1.337c0.649,0.149 1.169,0.487 1.469,1.005c0.057,0.099 0.114,0.249 0.166,0.404l0.201,0.375c0.78,1.351 1.868,2.511 3.238,3.446c0.158,0.08 0.313,0.164 0.466,0.252c0.257,0.158 0.453,0.356 0.59,0.592c0.209,0.362 0.27,0.806 0.166,1.298c-0.012,0.055 -0.021,0.106 -0.031,0.157c0.494,0.132 0.888,0.385 1.13,0.745c0.759,1.129 1.872,2.543 2.899,3.691c0.205,0.229 0.368,0.461 0.49,0.673c0.196,0.34 0.305,0.671 0.349,0.999c0.349,0.134 0.636,0.328 0.833,0.569l0.321,0.395c0.451,0.571 1.005,1.279 1.528,1.747c0.289,0.257 0.472,0.489 0.58,0.677c0.272,0.47 0.287,1.17 0.054,1.869c0.087,0.091 0.16,0.193 0.223,0.301c0.267,0.464 0.683,1.747 -1.26,3.749c-0.62,0.625 -1.326,1.153 -2.067,1.561c0.281,0.302 0.618,0.566 1.005,0.79c1.229,0.353 1.792,1.177 1.953,1.456c0.251,0.434 0.332,0.87 0.305,1.285c1.375,0.607 2.441,1.518 3.104,2.668l0.206,0.39c0.092,0.193 0.141,0.386 0.152,0.6c0.845,0.101 1.557,0.466 1.862,0.996c0.143,0.247 0.222,0.519 0.239,0.809c0.245,0.188 0.451,0.42 0.608,0.691c0.211,0.366 0.315,0.774 0.319,1.192c0.548,0.134 0.98,0.393 1.211,0.792c0.395,0.685 0.207,1.496 -0.006,2.137c0.025,0.026 0.053,0.057 0.077,0.09c0.901,1.148 1.73,2.367 2.455,3.622c-0,-0 0.766,1.411 0.906,1.654c0.597,1.034 1.318,2.004 2.145,2.882c0.725,0.456 1.597,1.108 2.022,1.845c0.295,0.51 0.359,1.058 0.255,1.603c0.225,0.279 0.589,0.699 1.177,1.306c0.266,0.2 0.477,0.44 0.635,0.713c0.078,0.135 0.143,0.274 0.191,0.423c0.921,0.544 1.496,1.43 1.878,2.025c0.173,0.265 0.32,0.503 0.445,0.72c0.224,0.388 0.382,0.762 0.482,1.112c0.372,0.148 0.708,0.386 0.927,0.765c0.136,0.234 0.207,0.501 0.213,0.789c0.615,0.787 1.168,1.611 1.664,2.47c0.614,1.063 1.14,2.186 1.57,3.35c0.839,0.225 1.602,0.757 2.162,1.726c0.286,0.496 0.446,0.992 0.479,1.494c0.352,0.223 0.629,0.51 0.826,0.85c0.178,0.309 0.282,0.649 0.316,1.018c0.583,0.507 0.981,1.195 1.339,1.815c0.322,0.558 1.02,1.859 1.243,3.121l0.048,0.04c0.95,0.914 1.756,1.94 2.398,3.052c0.472,0.818 0.863,1.696 1.16,2.607c1.37,2.692 2.612,5.113 2.982,5.753c0.002,0.004 1.672,2.829 2.29,3.899c1.889,3.272 2.591,4.649 2.684,5.684c0.393,0.209 0.778,0.489 1.021,0.91c0.255,0.442 0.305,0.966 0.177,1.519c0.058,0.058 0.11,0.122 0.158,0.189c1.171,1.641 2.273,3.365 3.28,5.109c1.171,2.028 2.24,4.141 3.192,6.303c0.968,0.077 1.679,0.511 2.13,1.292c0.498,0.862 0.412,1.915 -0.193,2.947c0.122,0.176 0.238,0.362 0.347,0.55c0.453,0.785 0.779,1.644 0.923,2.406c0.124,0.392 0.286,0.764 0.487,1.113c0.123,0.213 0.259,0.415 0.418,0.623c0.196,0.255 0.373,0.52 0.531,0.794c0.389,0.672 0.669,1.402 0.838,2.184c0.321,0.159 0.572,0.375 0.717,0.627c0.148,0.256 0.34,0.766 0.137,1.515c0.421,0.293 0.818,0.719 1.165,1.319l0.25,0.468c0.219,0.447 0.661,1.33 0.575,2.401c0.187,0.139 0.349,0.318 0.479,0.544c0.493,0.853 0.123,1.87 0.015,2.129c-0.079,0.299 -0.094,0.585 -0.052,0.834c0.088,0.44 0.297,1.534 -0.604,2.884c0.089,0.205 0.14,0.428 0.144,0.67l0.014,0.024c0.737,1.278 -0.136,3.282 -1.624,4.903c0.068,0.185 0.12,0.367 0.155,0.537c0.144,0.494 0.338,0.964 0.606,1.445c1.011,1.97 1.811,4.079 2.378,6.272c0.035,0.13 0.053,0.27 0.052,0.411c0.008,0.181 0.015,0.362 0.004,0.351c0.295,1.151 0.176,8.047 -0.023,9.88c-0.085,0.434 -0.077,0.835 0.018,1.201c0.059,0.078 0.111,0.159 0.16,0.243c0.177,0.307 0.286,0.656 0.316,1.044c0.176,0.145 0.321,0.303 0.413,0.462c0.708,1.227 0.289,3.892 -2.207,5.711c-0.385,1.301 -0.891,2.638 -1.533,4.041c-0.448,0.932 -0.781,1.862 -0.977,2.767c-0.015,0.782 -0.429,1.663 -1.036,2.505c-0.047,0.768 -0.438,1.605 -1.111,2.367c-1.126,1.701 -1.971,3.409 -2.507,5.09c-0.023,0.801 -0.473,1.72 -1.296,2.592c-0.592,0.698 -1.064,1.421 -1.39,2.127c-0.679,1.483 -1.666,2.944 -2.939,4.35c-0.09,0.096 -0.181,0.19 -0.278,0.284c-0.541,1.268 -1.636,2.533 -2.849,3.369c-0.573,0.437 -1.075,0.914 -1.487,1.429c-0.764,0.949 -1.627,1.869 -2.699,2.855c-0.81,0.7 -1.512,1.47 -2.06,2.254c-0.111,0.844 -0.66,1.802 -1.569,2.683c-0.953,0.918 -2.135,1.621 -3.316,2.015c-0.558,0.463 -1.31,1.165 -1.762,1.643c-0.098,0.343 -0.251,0.684 -0.457,0.991c-1.152,1.733 -3.281,2.639 -3.789,2.852c-0.154,0.071 -0.285,0.171 -0.399,0.31c-0.44,0.542 -0.925,1.075 -1.445,1.587c-0.068,0.622 -0.418,1.447 -1.393,2.458c-0.449,0.468 -0.96,0.878 -1.514,1.224c-0.503,0.652 -1.225,1.278 -2.106,1.787c-1.155,0.666 -2.205,0.975 -3.092,1.023c-3.479,2.488 -7.083,4.869 -10.739,7.1c-0.132,0.082 -0.268,0.158 -0.407,0.229c-9.57,4.987 -19.46,9.07 -29.399,12.138l-2.764,0.842c-6.74,2.065 -14.378,4.401 -19.453,5.749c-8.01,2.371 -16.055,4.28 -23.912,5.672l-0.125,0.019c-7.877,2.839 -38.896,8.125 -40.862,8.21c-0.151,-0.001 -0.318,0.022 -0.426,0.045c-1.029,0.271 -2.025,0.405 -2.72,0.388c-0.802,0.04 -2.747,0.189 -4.947,0.356c-6.087,0.464 -8.398,0.616 -9.584,0.598c-2.106,0.577 -3.96,-0.061 -4.796,-1.247c-0.57,0.038 -1.453,0.115 -2.816,0.27c-12.392,1.371 -17.219,1.534 -19.251,1.186c-0.517,0.081 -0.995,0.101 -1.406,0.062c-4.342,-0.208 -8.584,-0.656 -12.624,-1.327c-0.136,-0.025 -0.274,-0.054 -0.397,-0.098c-0.993,-0.315 -2.099,-0.497 -3.322,-0.538c-0.923,-0.035 -1.824,-0.115 -2.698,-0.24c-1.263,0.456 -2.415,0.386 -3.19,0.339c-1.047,-0.046 -2,-0.249 -2.805,-0.601c-0.972,0.143 -1.926,0.064 -2.865,-0.015c-2.047,-0.162 -3.172,-0.253 -3.863,-0.558c-1.151,0.177 -2.092,0.037 -2.66,-0.047c-0.795,-0.115 -1.553,-0.259 -2.129,-0.574c-0.903,0.11 -1.719,0.001 -2.418,-0.092c-1.165,-0.148 -2.574,-0.453 -3.284,-1.481c-0.865,-0.092 -1.678,-0.246 -2.436,-0.458c-2.304,0.915 -3.9,0.227 -6.17,-0.977c-0.537,0.104 -1.128,0.139 -1.755,0.048c-3.611,1.082 -8.003,-0.839 -9.94,-1.845c-1.367,-0.711 -3.249,-1.657 -5.209,-2.637c-7.552,-3.782 -9.302,-4.728 -9.865,-5.324c-0.507,-0.534 -1.249,-1.373 -1.825,-2.017l-0.326,-0.371c-0.071,-0.082 -0.22,-0.314 -0.232,-0.343c-0.395,0.064 -0.814,0.096 -1.265,0.089c-1.815,-0.022 -2.671,-1.034 -3.019,-1.637c-0.121,-0.209 -0.214,-0.42 -0.277,-0.631c-1.306,0.186 -2.567,-0.121 -3,-0.871c-0.27,-0.468 -0.309,-1.099 -0.023,-1.808c-0.407,-0.215 -0.701,-0.457 -0.901,-0.803c-0.179,-0.309 -0.243,-0.681 -0.203,-1.083c-1.329,-0.736 -2.998,-1.643 -3.716,-1.994c-0.844,-0.527 -1.537,-1.18 -2.056,-1.937c-0.456,-0.663 -0.774,-0.953 -1.143,-1.299c-0.743,-0.697 -1.669,-1.56 -3.697,-4.569c-0.682,-0.189 -1.329,-0.627 -1.817,-1.473c-0.163,-0.282 -0.309,-0.468 -0.417,-0.597c-1.482,0.094 -2.695,-0.409 -3.281,-1.424c-0.22,-0.382 -0.315,-0.807 -0.286,-1.253c-0.425,-0.139 -0.757,-0.377 -0.949,-0.711c-0.038,-0.066 -0.07,-0.13 -0.097,-0.2c-0.596,-0.276 -1.015,-0.681 -1.257,-1.101c-0.237,-0.41 -0.328,-0.872 -0.282,-1.355c-0.844,-0.124 -1.562,-0.501 -2.065,-1.12c-0.229,-0.279 -0.382,-0.485 -0.46,-0.62c-0.073,-0.125 -0.127,-0.262 -0.161,-0.404c-0.362,-0.25 -0.665,-0.572 -0.889,-0.96c-0.048,-0.084 -0.093,-0.17 -0.133,-0.256c-0.182,-0.062 -0.364,-0.142 -0.548,-0.233c-0.498,-0.257 -0.997,-0.566 -1.297,-1.087c-0.607,-1.05 -0.046,-2.259 0.362,-2.93c-0.139,-0.579 -0.649,-1.74 -1.066,-2.647c-1.205,-0.261 -1.819,-1.224 -2.154,-1.754l-0.329,-0.545c-0.357,-0.618 -0.87,-1.507 -0.903,-2.539c-0.065,-0.079 -0.123,-0.163 -0.176,-0.254c-0.24,-0.417 -0.302,-0.902 -0.209,-1.414c-0.171,-0.187 -0.332,-0.406 -0.477,-0.658c-0.239,-0.415 -0.74,-1.408 -0.774,-2.45c-0.255,-0.224 -0.463,-0.483 -0.628,-0.77c-0.273,-0.472 -0.416,-1.005 -0.427,-1.589c-0.658,-2.191 -1.562,-4.296 -2.695,-6.258l-0.52,-0.867c-3.316,-6.248 -3.646,-7.029 -4.247,-8.449c-0.322,-0.751 -0.719,-1.683 -1.748,-3.836c-0.511,-1.061 -1.102,-2.371 -1.436,-3.236c-0.682,0.099 -1.54,0.244 -2.058,0.332c-4.333,0.731 -8.157,1.335 -11.946,1.931c-10.286,1.629 -10.695,0.096 -29.865,4.03c-14.432,2.976 -22.066,2.122 -36.425,3.991c-1.024,0.085 -2.089,0.244 -3.048,0.441c-3.155,0.719 -7.869,-0.404 -8.85,-2.103c-0.498,-0.862 -0.256,-1.999 0.517,-3.043c0.183,-0.809 0.616,-1.632 1.231,-2.343c1.658,-2.125 1.658,-2.125 18.249,-10.021c1.514,-0.701 3.056,-1.286 4.266,-1.639c2.125,-0.76 4.231,-1.74 6.254,-2.915c0.219,-0.126 0.449,-0.241 0.679,-0.338c0.265,-0.197 0.553,-0.381 0.861,-0.545c0.916,-0.49 1.782,-1.078 2.57,-1.748c1.885,-1.709 0.187,-1.924 2.986,-2.654c1.219,-0.734 2.518,-1.31 3.839,-1.696c0.397,-0.348 0.859,-0.676 1.369,-0.97c0.823,-0.476 1.66,-0.794 2.434,-0.949c0.344,-0.214 0.74,-0.437 1.174,-0.634c0.312,-0.242 0.67,-0.481 1.074,-0.714c0.82,-0.474 1.651,-0.792 2.42,-0.95c1.779,-1.133 3.196,-1.499 4.203,-1.562c0.413,-0.218 1.087,-0.592 2.165,-1.224c1.702,-1.106 3.5,-2.064 5.338,-2.852c0.229,-0.1 0.463,-0.182 0.686,-0.249c0.216,-0.116 0.478,-0.267 0.792,-0.455c1.833,-1.049 3.743,-2.049 5.685,-2.976c2.594,-1.236 -0.653,-1.645 5.757,-5.325c2.403,-1.382 4.917,-2.824 7.452,-4.264c-0.114,-3.917 0.164,-7.987 0.822,-12.132c0.015,-0.109 0.038,-0.287 0.071,-0.424c-0.025,-0.035 -0.052,-0.073 -0.074,-0.11c-0.27,-0.468 -0.297,-1.029 -0.129,-1.611c-0.036,-0.485 0.097,-1.018 0.391,-1.561c0.314,-0.929 0.543,-1.861 0.689,-2.854c1.513,-7.763 2.763,-11.344 4.78,-13.697c0.143,-0.165 0.281,-0.33 0.391,-0.476c0.195,-0.757 0.644,-1.501 0.992,-1.999c0.23,-0.327 0.716,-1.023 1.527,-1.68c0.076,-0.096 0.149,-0.188 0.231,-0.283c0.284,-0.382 0.518,-0.776 0.682,-1.132c1.027,-2.334 2.68,-4.721 4.788,-6.918c0.351,-0.906 0.846,-1.791 1.405,-2.546c0.652,-0.983 3.286,-4.886 4.328,-6.244l1.67,-2.182c2.296,-3.014 5.765,-7.564 7.902,-10.163c1.91,-2.321 2.791,-3.497 3.186,-4.066c0.02,-0.688 0.341,-1.471 0.946,-2.273c0.491,-0.648 1.132,-1.254 1.862,-1.772c0.376,-0.494 0.869,-0.961 1.455,-1.358c0.17,-0.119 0.356,-0.235 0.556,-0.35c0.225,-0.192 0.412,-0.415 0.53,-0.639c0.124,-0.231 0.276,-0.456 0.449,-0.677c0.843,-1.057 1.817,-2.07 2.889,-3.006c0.54,-0.471 0.999,-0.98 1.486,-1.684c1.023,-1.356 2.269,-2.649 3.535,-3.695c0.455,-0.407 0.827,-0.73 1.129,-0.999c0.029,-0.941 0.557,-2.004 1.529,-3.03c-0.744,-1.474 0.415,-3.084 1.665,-4.032c2.066,-1.57 3.865,-1.449 5.092,-1.09c0.075,-0.073 1.369,-1.273 1.842,-1.708c0.047,-1.516 1.89,-3.179 3.307,-4.459c2.198,-1.982 3.79,-2.968 5.33,-3.28c0.283,-0.376 0.617,-0.757 1.01,-1.137c0.352,-0.306 0.704,-0.562 1.041,-0.78c0.198,-0.262 0.418,-0.521 0.664,-0.784c1.168,-1.242 3.087,-2.706 5.14,-3.388c0.038,-0.045 0.071,-0.088 0.112,-0.135c0.036,-1.015 0.785,-2.268 1.961,-3.174l-0.001,-0.002c1.359,-1.029 2.669,-2.126 3.851,-3.215c1.252,-1.173 2.638,-2.255 4.128,-3.224c0.248,-0.32 0.538,-0.617 0.854,-0.885c0.051,-0.064 0.106,-0.129 0.163,-0.191c0.51,-0.571 1.117,-1.042 1.85,-1.413c0.825,-1.129 1.723,-1.862 2.564,-2.341c0.309,-0.382 0.708,-0.792 1.216,-1.226c0.619,-0.525 1.299,-0.997 2.074,-1.43c1.864,-2.164 5.032,-4.132 5.094,-4.167c0.164,-0.095 0.323,-0.181 0.478,-0.265c0.125,-0.154 0.265,-0.309 0.41,-0.469c0.025,-1.782 2.591,-3.555 4.064,-4.57c0.926,-0.644 2.132,-1.475 3.515,-1.788c0.46,-0.743 1.297,-1.573 2.71,-2.389c0.62,-0.358 1.206,-0.622 1.752,-0.811c0.842,-0.687 1.854,-1.215 2.826,-1.661c1.158,-1.645 3.355,-3.267 5.103,-4.117c1.945,-1.982 4.311,-3.713 6.943,-5.07c0.555,-0.335 1.071,-0.719 1.537,-1.141c0.378,-0.389 0.781,-0.768 1.204,-1.137c0.732,-0.634 1.657,-1.109 2.567,-1.367c0.412,-0.632 1.038,-1.24 1.81,-1.727l1.982,-1.238c1.057,-0.634 2.086,-1.326 3.064,-2.055c2.123,-2.043 5.005,-3.589 7.816,-4.171Z" style="fill:#39bdc8;fill-rule:nonzero;"/></svg>