<?xml version="1.0" encoding="UTF-8" standalone="no"?><!DOCTYPE svg PUBLIC "-//W3C//DTD SVG 1.1//EN" "http://www.w3.org/Graphics/SVG/1.1/DTD/svg11.dtd"><svg width="100%" height="100%" viewBox="0 0 500 416" version="1.1" xmlns="http://www.w3.org/2000/svg" xmlns:xlink="http://www.w3.org/1999/xlink" xml:space="preserve" xmlns:serif="http://www.serif.com/" style="fill-rule:evenodd;clip-rule:evenodd;stroke-linejoin:round;stroke-miterlimit:2;"><path d="M497.692,84.929c-0.13,-0.196 -0.352,-0.441 -0.512,-0.608c-0.32,-0.65 -0.689,-4.164 -0.843,-5.513c-0.053,-2.173 -0.494,-4.297 -1.413,-6.547c-0.377,-0.79 -0.584,-1.644 -0.628,-2.619c-0.119,-1.974 -0.569,-3.904 -1.323,-5.735c-0.1,-0.232 -0.216,-0.459 -0.36,-0.675c-0.235,-0.361 -0.399,-0.77 -0.53,-1.418c-0.383,-1.573 -1.017,-3.53 -1.591,-5.288c-0.376,-1.151 -0.733,-2.19 -0.905,-2.876c0.046,-0.913 -0.193,-1.831 -0.72,-2.618c-0.234,-0.356 -0.544,-0.671 -0.908,-0.944c-0.339,-0.714 -0.824,-1.35 -1.436,-1.864c-0.382,-0.445 -0.705,-0.969 -1.031,-1.714c-2.095,-4.154 -4.775,-7.969 -8.11,-11.478c-0.644,-0.619 -1.223,-1.304 -1.723,-2.039c-0.48,-1.06 -1.328,-1.918 -2.395,-2.417c-1.454,-0.924 -2.738,-2.058 -3.829,-3.393c-0.205,-0.427 -0.468,-0.818 -0.789,-1.162c-0.198,-0.536 -0.468,-0.947 -0.695,-1.229c-0.887,-1.114 -2.561,-1.763 -3.973,-1.615c-0.229,0.024 -0.459,0.065 -0.7,0.124l-0.025,-0.161c-1.031,-0.717 -2.163,-1.289 -3.359,-1.708c-0.148,-0.051 -0.296,-0.099 -0.45,-0.129c-0.945,-0.5 -1.947,-0.704 -2.941,-0.6c-0.522,0.055 -1.057,0.229 -1.558,0.491c-0.974,-0.267 -1.966,-0.451 -2.96,-0.347c-0.265,0.028 -0.524,0.076 -0.773,0.144c-0.212,-0.103 -0.417,-0.22 -0.615,-0.354c-0.938,-0.794 -2.207,-1.184 -3.545,-1.044l-0.067,0.007c-0.528,-0.166 -1.082,-0.259 -1.542,-0.282c-0.629,-0.763 -1.913,-1.382 -2.887,-1.557c-0.723,-0.229 -1.465,-0.386 -2.272,-0.456c-0.316,-0.294 -0.66,-0.543 -1.038,-0.75c-1.044,-2.073 -3.074,-2.492 -4.263,-2.367c-0.547,0.057 -1.017,0.207 -1.428,0.406c-0.722,-0.377 -1.548,-0.542 -2.373,-0.455c-0.75,0.079 -1.348,0.326 -1.862,0.657c-0.348,-0.081 -0.701,-0.132 -1.059,-0.153c-0.812,-0.51 -1.756,-0.8 -2.747,-0.821c-0.597,-0.059 -1.177,-0.195 -1.718,-0.394c-0.645,-0.242 -1.321,-0.422 -2.004,-0.535c-0.334,-1.067 -1.161,-2.044 -2.499,-2.93c-1.296,-0.811 -2.845,-1.163 -4.358,-1.004c-1.376,0.145 -2.643,0.684 -3.669,1.529c-0.719,-0.314 -1.513,-0.452 -2.288,-0.371c-0.245,0.026 -0.587,0.075 -1.115,0.201c-0.486,-0.368 -1.245,-0.883 -2.222,-1.178c-0.048,-0.092 -0.095,-0.183 -0.147,-0.278c-0.813,-1.402 -2.159,-2.367 -3.779,-2.707c-0.638,-0.139 -1.191,-0.173 -1.742,-0.115c-1.239,0.13 -2.556,0.914 -3.25,1.967c-1.131,-0.078 -2.254,-0.24 -3.364,-0.48c-0.586,-0.994 -1.507,-1.744 -2.505,-2.07c-1.169,-0.476 -2.167,-0.644 -3.132,-0.543c-0.651,0.069 -1.344,0.33 -1.957,0.713c-1.695,-0.303 -3.42,-0.369 -5.156,-0.187c-0.22,0.023 -0.431,0.049 -0.646,0.081c-1.143,-0.597 -2.422,-0.848 -3.708,-0.721c-0.81,-0.493 -1.738,-0.793 -2.692,-0.856c-0.807,-0.393 -1.752,-0.571 -2.747,-0.466c-0.182,0.019 -0.364,0.046 -0.548,0.083c-0.562,-0.163 -1.151,-0.227 -1.75,-0.185c-0.497,-0.187 -1.023,-0.29 -1.562,-0.309c-2.43,-2.196 -6.934,-1.756 -6.987,-1.75c-0.382,0.04 -0.743,0.107 -1.082,0.197c-0.887,-0.552 -1.969,-0.798 -3.096,-0.68c-1.376,0.145 -2.303,0.728 -2.903,1.319c-1.472,-0.65 -3.345,-0.453 -4.978,-0.281l-1.753,0.218c-0.406,0.08 -0.823,0.141 -1.233,0.184c-1.09,0.114 -2.185,0.099 -3.263,-0.03c-0.748,-0.223 -1.601,-0.406 -2.55,-0.306c-0.298,0.031 -0.581,0.09 -0.858,0.169c-0.926,-0.321 -1.866,-0.411 -2.602,-0.484c-1.126,-0.112 -2.255,-0.287 -3.283,-0.501c-1.039,-0.239 -2.097,-0.337 -3.156,-0.284c-0.788,-0.404 -1.716,-0.587 -2.69,-0.484c-0.186,0.019 -0.441,0.071 -0.698,0.131l-0.691,0.086c-2.536,0.266 -5.093,0.174 -7.6,-0.279c-0.25,-0.069 -0.504,-0.135 -0.762,-0.196c-0.446,-0.095 -0.892,-0.12 -1.336,-0.073c-0.68,0.071 -1.338,0.308 -1.912,0.704c-0.062,0.044 -0.125,0.084 -0.184,0.124c-0.625,-0.295 -1.323,-0.435 -2.031,-0.39c-2.218,0.141 -5.141,0.192 -7.627,0.14c-0.495,-0.011 -0.958,0.012 -1.356,0.054c-0.638,0.067 -1.186,0.196 -1.67,0.373c-0.497,-0.183 -1.018,-0.279 -1.525,-0.276l-0.824,0.007c-1.184,0.02 -2.643,0.048 -3.751,-0.054c-0.61,-0.057 -1.091,-0.049 -1.443,-0.012c-0.882,0.093 -1.846,0.53 -2.585,1.156c-0.202,-0.008 -0.406,0.001 -0.609,0.022c-0.871,0.092 -2.988,0.595 -3.949,3.369c-0.289,0.877 -0.368,1.756 -0.252,2.586c-0.664,-0.022 -1.327,-0.112 -1.98,-0.265c-1.588,-0.717 -3.216,-0.621 -3.738,-0.566c-0.816,0.085 -1.481,0.302 -2.02,0.589c-2.065,-0.667 -4.264,-0.901 -6.423,-0.674l-0.715,0.092c-0.346,0.053 -0.651,0.139 -0.952,0.268c-0.9,-0.585 -2.038,-0.897 -3.033,-0.792c-0.464,0.049 -0.905,0.162 -1.314,0.335c-0.476,-0.068 -0.976,-0.077 -1.485,-0.024c-0.688,0.072 -1.335,0.253 -1.906,0.519c-0.676,-0.335 -1.419,-0.501 -2.169,-0.422c-1.285,0.135 -2.216,0.799 -2.893,1.372c-0.059,-0.002 -0.126,-0.003 -0.193,-0c-2.371,0.044 -4.773,0.187 -7.131,0.435c0,0 -2.606,0.316 -3.062,0.364c-1.943,0.204 -3.91,0.273 -5.849,0.2c-1.272,-0.264 -2.945,-0.516 -4.329,-0.371c-0.957,0.101 -1.759,0.403 -2.405,0.832c-0.582,0.006 -1.48,-0.004 -2.835,-0.067c-0.511,-0.076 -1.027,-0.085 -1.541,-0.031c-0.253,0.027 -0.5,0.066 -0.745,0.125c-1.571,-0.359 -3.293,-0.232 -4.444,-0.145c-0.516,0.037 -0.972,0.077 -1.378,0.12c-0.73,0.076 -1.379,0.195 -1.946,0.342c-0.535,-0.19 -1.162,-0.296 -1.875,-0.221c-0.44,0.046 -0.867,0.162 -1.263,0.342c-1.622,0.032 -3.241,0.135 -4.853,0.304c-1.997,0.21 -3.996,0.525 -5.964,0.942c-1.062,-0.5 -2.474,-0.746 -4.294,-0.554c-0.932,0.098 -1.749,0.292 -2.459,0.589c-0.621,-0.127 -1.261,-0.156 -1.9,-0.089c-0.58,0.061 -1.135,0.198 -1.666,0.409c-1.215,-0.123 -2.508,0.013 -3.672,0.135c-1.049,0.11 -3.443,0.408 -5.358,1.045l-0.098,-0.011c-2.097,-0.144 -4.217,-0.105 -6.306,0.114c-1.537,0.162 -3.081,0.424 -4.585,0.779c-4.89,0.674 -9.297,1.271 -10.499,1.397c-0.008,0.001 -5.349,0.529 -7.359,0.74c-6.145,0.646 -8.648,0.989 -10.136,1.581c-0.638,-0.168 -1.366,-0.284 -2.158,-0.201c-0.829,0.087 -1.585,0.385 -2.22,0.837c-0.131,-0.007 -0.265,-0.006 -0.398,-0c-3.286,0.152 -6.619,0.411 -9.896,0.755c-3.809,0.4 -7.64,0.933 -11.434,1.588c-0.979,-0.694 -2.209,-0.963 -3.676,-0.808c-1.62,0.17 -2.971,0.911 -3.825,2.036c-0.35,0.02 -0.707,0.049 -1.059,0.086c-1.475,0.155 -2.935,0.455 -4.098,0.833c-0.646,0.155 -1.295,0.27 -1.95,0.339c-0.402,0.042 -0.797,0.067 -1.224,0.078c-0.522,0.013 -1.042,0.047 -1.556,0.101c-1.264,0.133 -2.507,0.385 -3.721,0.755c-0.505,-0.143 -1.026,-0.198 -1.498,-0.148c-0.481,0.051 -1.346,0.23 -2.18,0.866c-0.777,-0.136 -1.715,-0.168 -2.842,-0.049l-0.86,0.107c-0.804,0.118 -2.402,0.345 -3.777,1.097c-0.357,-0.055 -0.748,-0.064 -1.171,-0.02c-1.603,0.169 -2.649,1.104 -2.903,1.353c-0.334,0.253 -0.707,0.447 -1.084,0.574c-0.677,0.214 -2.35,0.755 -3.368,2.311c-0.358,0.063 -0.708,0.167 -1.039,0.319l-0.046,0.005c-2.399,0.252 -4.331,2.206 -5.186,4.387c-0.312,0.066 -0.606,0.143 -0.869,0.225c-0.8,0.205 -1.613,0.358 -2.507,0.461c-3.586,0.485 -7.17,1.222 -10.659,2.192c-0.207,0.056 -0.413,0.132 -0.605,0.223c-0.252,0.11 -0.504,0.221 -0.479,0.222c-1.827,0.511 -11.078,5.019 -13.385,6.347c-0.513,0.343 -1.065,0.593 -1.647,0.755c-0.159,0.004 -0.317,0.017 -0.474,0.033c-0.576,0.061 -1.148,0.2 -1.702,0.426c-0.356,-0.042 -0.701,-0.052 -1,-0.02c-2.304,0.242 -5.543,2.27 -5.755,5.352c-1.419,1.129 -2.775,2.373 -4.1,3.765c-0.86,0.941 -1.822,1.792 -2.872,2.522c-1.049,0.513 -1.869,1.395 -2.463,2.4c-1,0.529 -1.784,1.365 -2.21,2.369c-1.291,1.954 -2.847,3.697 -4.642,5.185c-1.068,0.531 -1.908,1.465 -2.348,2.656c-0.412,0.902 -0.966,1.726 -1.63,2.429c-1.4,1.471 -2.491,3.165 -3.249,5.042c-0.049,0.131 -0.094,0.261 -0.134,0.396c-1.233,1.227 -1.96,2.879 -1.999,4.345c-0.075,0.72 -0.271,1.411 -0.597,2.057c-0.599,1.194 -1.067,2.446 -1.437,3.901c-0.219,1.07 -0.63,2.102 -1.199,3.025c-1.044,0.625 -1.849,1.661 -2.223,2.923c-0.385,1.319 -0.272,2.677 0.26,3.836c-0.124,0.725 -0.398,1.751 -0.639,2.405c-0.375,0.295 -0.701,0.631 -0.931,0.986c-1.312,1.994 -0.618,4.208 -0.449,4.735c0.042,0.164 0.026,0.328 -0.061,0.505c-0.338,0.685 -0.624,1.398 -0.849,2.126c-0.782,0.45 -1.586,1.247 -2.077,2.643c-0.229,0.645 -0.324,1.3 -0.293,1.946c-0.431,0.804 -0.628,1.759 -0.523,2.762c0.138,1.313 0.667,2.317 1.403,3.028c-0.234,4.264 -0.211,8.556 0.063,12.792c0.008,0.155 0.028,0.307 0.057,0.459c1.874,10.541 5.264,20.748 10.076,30.342l1.352,2.661c3.285,6.497 7.012,13.856 9.766,18.615c4.016,7.668 8.69,15.066 13.896,21.989l0.087,0.108c3.26,7.865 24.097,35.061 25.757,36.625c0.137,0.115 0.257,0.258 0.322,0.355c0.562,0.964 1.28,1.814 1.93,2.337c0.671,0.641 2.224,2.23 3.984,4.026c4.867,4.969 6.748,6.84 7.844,7.739c1.118,1.986 3.658,3.001 6.021,2.883c0.464,0.462 1.156,1.189 2.177,2.334c9.329,10.391 13.467,14.2 15.773,15.537c0.357,0.449 0.762,0.829 1.186,1.12c4.203,3.199 8.642,6.168 13.201,8.839c0.156,0.089 0.32,0.176 0.49,0.242c1.324,0.561 2.57,1.292 3.73,2.206c0.881,0.686 1.803,1.327 2.762,1.917c0.522,1.261 1.658,2.101 2.421,2.666c1.007,0.774 2.143,1.375 3.349,1.768c0.682,0.837 1.651,1.519 2.605,2.19c2.069,1.466 3.21,2.272 4.246,2.608c0.801,0.996 1.839,1.629 2.466,2.011c0.873,0.536 1.754,1.026 2.701,1.266c0.667,0.764 1.551,1.321 2.309,1.798c1.253,0.798 2.938,1.686 4.975,1.572c0.905,0.604 1.849,1.13 2.822,1.576c0.838,2.354 3.212,3.14 6.896,4.11c0.344,0.479 0.83,0.956 1.519,1.378c1.793,3.465 8.365,5.606 11.479,6.448c2.199,0.594 5.182,1.432 8.282,2.309c11.952,3.374 14.815,4.112 16.132,4.162c1.182,0.047 2.992,0.079 4.386,0.109l0.797,0.013c0.176,0.001 0.625,-0.033 0.674,-0.042c0.271,0.344 0.605,0.686 1.022,1.028c1.67,1.379 3.815,1.388 4.947,1.269c0.394,-0.042 0.764,-0.106 1.107,-0.192c0.926,1.122 2.482,1.893 3.891,1.744c0.878,-0.092 1.769,-0.466 2.473,-1.139c0.66,0.173 1.254,0.245 1.905,0.177c0.579,-0.061 1.142,-0.25 1.652,-0.539c2.199,0.549 4.937,1.249 6.061,1.576c1.477,0.309 2.989,0.423 4.484,0.337c1.312,-0.075 1.993,-0.017 2.796,0.045c1.617,0.124 3.624,0.282 9.538,-0.089c0.872,0.403 2.051,0.618 3.638,0.451c0.531,-0.055 0.915,-0.062 1.188,-0.062c1.21,1.197 2.988,1.806 4.894,1.606c0.717,-0.075 1.379,-0.275 1.959,-0.583c0.573,0.237 1.196,0.339 1.821,0.273c0.125,-0.013 0.24,-0.029 0.359,-0.054c0.914,0.281 1.842,0.343 2.629,0.26c0.771,-0.081 1.48,-0.306 2.094,-0.651c0.931,0.568 2.091,0.878 3.384,0.868c0.586,-0.004 1.003,-0.018 1.256,-0.045c0.237,-0.024 0.471,-0.07 0.694,-0.135c0.666,0.118 1.377,0.144 2.106,0.067c0.158,-0.016 0.315,-0.037 0.467,-0.062c0.249,0.1 0.523,0.189 0.812,0.272c0.798,0.217 1.668,0.402 2.646,0.299c1.972,-0.207 3.107,-1.411 3.649,-2.155c0.91,-0.264 2.947,-0.616 4.554,-0.877c1.441,0.757 3.303,0.612 4.325,0.53l1.037,-0.097c1.16,-0.122 2.83,-0.297 4.259,-0.933c0.167,-0.001 0.334,-0.01 0.504,-0.028c0.783,-0.082 1.497,-0.346 2.109,-0.745c0.408,0.011 0.85,-0.006 1.322,-0.055c0.779,-0.082 2.579,-0.335 4.024,-0.976c0.534,0.053 1.073,0.046 1.612,-0.011c0.887,-0.093 1.738,-0.325 2.542,-0.69c3.567,-0.898 7.24,-1.553 10.924,-1.94l1.647,-0.156c11.473,-1.457 12.829,-1.705 15.3,-2.153c1.308,-0.234 2.932,-0.526 6.783,-1.115c1.901,-0.288 4.211,-0.673 5.688,-0.971c0.481,0.587 1.058,1.338 1.408,1.792c2.92,3.795 5.553,7.117 8.166,10.408c7.077,8.938 13.766,17.372 25.737,34.607c8.994,12.985 18.761,25.667 29.191,37.886c0.809,0.84 1.555,1.759 2.153,2.622c1.874,2.883 7.654,5.782 10.845,5.446c1.62,-0.17 2.944,-1.084 3.662,-2.345c0.932,-0.66 1.659,-1.519 2.069,-2.446c1.386,-2.635 1.386,-2.635 -2.881,-20.428c-0.416,-1.611 -1.016,-3.169 -1.627,-4.324c-0.889,-2.119 -1.46,-4.363 -1.694,-6.668c-0.026,-0.249 -0.077,-0.499 -0.153,-0.738c0.028,-0.33 0.018,-0.668 -0.039,-1.01c-0.161,-1.018 -0.145,-2.059 0.052,-3.093c0.617,-2.541 0.727,-8.745 -0.809,-11.361c-0.106,-1.405 -0.496,-2.772 -1.165,-4.034c0.112,-0.527 0.141,-1.092 0.08,-1.671c-0.099,-0.937 -0.423,-1.783 -0.91,-2.477c-0.021,-0.4 -0.077,-0.847 -0.201,-1.307c0.047,-0.395 0.048,-0.822 -0,-1.282c-0.098,-0.933 -0.417,-1.775 -0.896,-2.466c-0.069,-2.091 -0.853,-3.413 -1.676,-4.227c-0.077,-0.457 -0.178,-1.213 -0.295,-2.445c-0.036,-2.016 -0.358,-4.01 -0.949,-5.925c-0.072,-0.24 -0.171,-0.472 -0.282,-0.687c-0.038,-0.239 -0.069,-0.537 -0.099,-0.899c-0.231,-2.079 -0.599,-4.185 -1.095,-6.27c-0.665,-2.783 -1.416,-9.654 -2.21,-16.932c-0.296,-2.73 -0.608,-5.584 -0.943,-8.452c5.418,-2.421 10.689,-5.242 15.72,-8.402c0.134,-0.081 0.355,-0.213 0.51,-0.326c0.071,-0.003 0.147,-0.007 0.217,-0.014c0.878,-0.093 1.664,-0.43 2.302,-0.933c0.691,-0.282 1.294,-0.727 1.766,-1.3c0.976,-0.836 2.034,-1.609 3.25,-2.357c9.168,-6.134 12.898,-9.387 14.269,-12.443c0.095,-0.216 0.194,-0.427 0.293,-0.605c0.851,-0.634 1.456,-1.456 1.818,-2.043c0.235,-0.385 0.74,-1.205 0.899,-2.248c0.062,-0.119 0.122,-0.234 0.176,-0.358c0.261,-0.463 0.584,-0.895 0.92,-1.248c2.24,-2.284 3.986,-5.082 5.064,-8.108c0.912,-0.849 1.667,-1.796 2.187,-2.71c0.744,-1.129 3.662,-5.651 4.564,-7.321l1.452,-2.679c2.017,-3.693 5.059,-9.271 6.656,-12.577c1.424,-2.952 2.225,-4.382 2.64,-5.05c0.916,-0.456 1.688,-1.204 2.23,-2.182c0.436,-0.792 0.679,-1.672 0.724,-2.565c0.33,-0.604 0.518,-1.282 0.528,-1.987c0.008,-0.206 -0.002,-0.423 -0.026,-0.65c0.057,-0.296 0.19,-0.582 0.388,-0.816c0.2,-0.243 0.37,-0.504 0.513,-0.779c0.673,-1.324 1.167,-2.72 1.47,-4.143c0.152,-0.716 0.428,-1.394 0.944,-2.219c0.916,-1.655 1.545,-3.439 1.821,-5.081c0.141,-0.61 0.245,-1.102 0.336,-1.506c1.25,-0.626 2.217,-1.712 2.731,-3.115c2.671,-0.373 3.81,-2.294 3.968,-3.861c0.264,-2.591 -1.524,-3.895 -3.119,-4.607c0.03,-0.104 0.491,-1.866 0.654,-2.508c2.014,-1.007 2.608,-3.487 3.065,-5.395c0.703,-2.956 0.605,-4.811 -0.362,-6.192c0.254,-0.459 0.469,-0.959 0.63,-1.504c0.097,-0.467 0.127,-0.901 0.119,-1.298c0.176,-0.32 0.329,-0.655 0.463,-1.013c0.631,-1.691 0.885,-4.102 -0.043,-6.116c0.027,-0.057 0.055,-0.11 0.082,-0.172c1.345,-0.677 2.369,-2.055 2.536,-3.539l0.004,-0c0.169,-1.702 0.475,-3.41 0.884,-5.016c0.462,-1.712 0.679,-3.469 0.648,-5.234c0.211,-0.395 0.351,-0.807 0.429,-1.222c0.042,-0.08 0.079,-0.163 0.113,-0.247c0.314,-0.757 0.405,-1.525 0.246,-2.325c0.787,-1.357 0.971,-2.516 0.863,-3.468c0.238,-0.482 0.434,-1.051 0.565,-1.718c0.153,-0.812 0.18,-1.636 0.067,-2.509c1.254,-2.817 1.063,-6.509 1.055,-6.579c-0.019,-0.187 -0.046,-0.364 -0.072,-0.537c0.096,-0.195 0.18,-0.401 0.266,-0.615c2.396,-1.161 2.484,-4.266 2.532,-6.048c0.037,-1.122 0.076,-2.58 -0.748,-3.843c0.591,-0.829 0.963,-2.003 0.794,-3.611c-0.074,-0.704 -0.244,-1.323 -0.481,-1.864c0.171,-1.086 -0.026,-2.201 -0.298,-3.232c1.187,-1.943 1.403,-4.668 0.978,-6.555c0.933,-2.763 1.145,-5.688 0.612,-8.577c-0.047,-0.641 0.007,-1.283 0.159,-1.911c0.186,-0.539 0.338,-1.092 0.455,-1.653c0.2,-0.967 0.009,-1.982 -0.463,-2.846c0.486,-0.721 0.746,-1.591 0.71,-2.496l-0.109,-2.314c-0.095,-1.217 -0.086,-2.45 0.021,-3.668c0.855,-2.939 0.351,-6.141 -1.398,-8.672Z" style="fill:#39bdc8;fill-rule:nonzero;"/></svg>