<svg width="100%" height="100%" viewBox="0 0 226 57" version="1.1" xmlns="http://www.w3.org/2000/svg" xmlns:xlink="http://www.w3.org/1999/xlink" xml:space="preserve" xmlns:serif="http://www.serif.com/" style="fill-rule:evenodd;clip-rule:evenodd;stroke-linejoin:round;stroke-miterlimit:2;"><g><path d="M34.627,0.636c8.502,0.095 13.417,3.885 13.417,3.885l-37.125,17.313l13.15,28.2l0.269,-0.131l2.353,-4.198l-0.116,-0.267l-3.555,1.651l6.341,-6.064l-0.124,-0.26l-7.531,3.502l10.371,-7.935l-0.129,-0.267l-11.555,5.385l14.336,-9.791l-0.123,-0.269l-15.532,7.237l18.264,-11.623l-0.121,-0.265l-19.432,9.056l22.117,-13.418l-0.118,-0.267l-23.343,10.874l26.116,-15.287l-0.117,-0.263l-27.276,12.714l30.055,-17.128l-0.119,-0.261l-31.243,14.57l34.001,-18.974l-0.117,-0.259l-35.195,16.405l35.933,-19.696c0,0 9.748,5.583 9.748,19.146c0,17.298 -17.29,32.605 -34.162,32.605c-16.249,0 -23.928,-12.554 -23.928,-22.236c0,-20.613 19.136,-33.589 34.001,-33.684l0.489,0Z" style="fill: #FFFFFF;fill-rule:nonzero;"/><path d="M80.302,18.381c0,-3.381 -1.827,-5.901 -5.124,-5.901c-3.297,0 -5.124,2.52 -5.124,5.901c0,3.381 1.827,5.922 5.124,5.922c3.297,0 5.124,-2.541 5.124,-5.922Zm-2.856,-0.021c0,2.268 -0.756,3.612 -2.268,3.612c-1.512,0 -2.268,-1.344 -2.268,-3.612c0,-2.268 0.756,-3.633 2.268,-3.633c1.512,0 2.268,1.365 2.268,3.633Z" style="fill: #FFFFFF;fill-rule:nonzero;"/><path d="M98.173,24.051l0,-7.833c0,-2.289 -1.512,-3.738 -4.011,-3.738c-1.701,0 -3.087,0.609 -3.801,1.155c-0.651,-0.588 -1.806,-1.155 -3.633,-1.155c-1.617,0 -3.108,0.357 -4.263,0.819l0,10.752l2.856,0l0,-9.009c0.399,-0.168 0.924,-0.273 1.575,-0.273c1.218,0 1.974,0.609 1.974,1.617l0,7.665l2.877,0l0,-8.715c0.399,-0.357 0.966,-0.567 1.68,-0.567c1.155,0 1.869,0.63 1.869,1.743l0,7.539l2.877,0Z" style="fill: #FFFFFF;fill-rule:nonzero;"/><path d="M110.5,18.087c0,-3.465 -1.995,-5.502 -4.935,-5.502c-0.672,0 -1.491,0.147 -1.995,0.378l0,-5.397l-2.856,0l0,15.918c0.924,0.441 2.436,0.819 4.011,0.819c3.612,0 5.775,-1.974 5.775,-6.216Zm-2.877,0.231c0,2.499 -1.092,3.738 -2.73,3.738c-0.525,0 -1.05,-0.105 -1.323,-0.231l0,-6.762c0.357,-0.168 0.924,-0.294 1.449,-0.294c1.617,0 2.604,1.323 2.604,3.549Z" style="fill: #FFFFFF;fill-rule:nonzero;"/><path d="M121.945,23.484l0,-10.752l-2.856,0l0,8.967c-0.315,0.126 -0.924,0.252 -1.659,0.252c-1.26,0 -1.911,-0.567 -1.911,-1.785l0,-7.434l-2.856,0l0,7.371c0,2.94 1.638,4.2 4.767,4.2c1.764,0 3.528,-0.336 4.515,-0.819Z" style="fill: #FFFFFF;fill-rule:nonzero;"/><path d="M133.894,23.484l0,-15.918l-2.877,0l0,5.292c-0.357,-0.126 -1.008,-0.231 -1.617,-0.231c-3.465,0 -5.292,2.352 -5.292,5.838c0,3.675 1.995,5.838 5.649,5.838c1.722,0 3.318,-0.378 4.137,-0.819Zm-2.877,-1.659c-0.231,0.126 -0.819,0.231 -1.323,0.231c-1.764,0 -2.73,-1.344 -2.73,-3.633c0,-2.142 0.945,-3.633 2.73,-3.633c0.504,0 1.092,0.105 1.323,0.21l0,6.825Z" style="fill: #FFFFFF;fill-rule:nonzero;"/><path d="M144.079,20.796c0,-2.289 -1.827,-2.919 -3.318,-3.465c-0.987,-0.357 -1.722,-0.693 -1.722,-1.554c0,-0.672 0.588,-1.176 1.596,-1.176c0.756,0 1.764,0.357 2.247,0.651l0.882,-1.953c-0.861,-0.462 -2.037,-0.819 -3.486,-0.819c-2.646,0 -4.158,1.344 -4.158,3.339c0,2.226 1.806,2.898 3.234,3.423c1.008,0.357 1.743,0.714 1.743,1.554c0,0.756 -0.672,1.239 -1.701,1.239c-0.819,0 -2.079,-0.378 -2.646,-0.735l-0.924,2.184c0.84,0.441 2.247,0.819 3.654,0.819c3.024,0 4.599,-1.386 4.599,-3.507Z" style="fill: #FFFFFF;fill-rule:nonzero;"/><path d="M161.887,24.051l0,-7.833c0,-2.289 -1.512,-3.738 -4.011,-3.738c-1.701,0 -3.087,0.609 -3.801,1.155c-0.651,-0.588 -1.806,-1.155 -3.633,-1.155c-1.617,0 -3.108,0.357 -4.263,0.819l0,10.752l2.856,0l0,-9.009c0.399,-0.168 0.924,-0.273 1.575,-0.273c1.218,0 1.974,0.609 1.974,1.617l0,7.665l2.877,0l0,-8.715c0.399,-0.357 0.966,-0.567 1.68,-0.567c1.155,0 1.869,0.63 1.869,1.743l0,7.539l2.877,0Z" style="fill: #FFFFFF;fill-rule:nonzero;"/><path d="M173.248,23.484l0,-6.972c0,-2.898 -1.617,-4.032 -4.515,-4.032c-1.638,0 -3.255,0.42 -4.201,0.819l0.714,1.932c0.798,-0.336 2.101,-0.672 3.172,-0.672c1.302,0 2.121,0.441 2.121,1.617l0,0.588c-3.423,0.189 -6.636,0.798 -6.636,3.885c0,2.31 1.701,3.654 5.103,3.654c1.701,0 3.402,-0.378 4.242,-0.819Zm-2.709,-1.449c-0.294,0.126 -1.009,0.231 -1.617,0.231c-1.491,0 -2.331,-0.609 -2.331,-1.68c0,-1.701 1.848,-1.89 3.948,-1.995l0,3.444Z" style="fill: #FFFFFF;fill-rule:nonzero;"/><path d="M185.217,24.051l0,-7.749c0,-2.436 -1.554,-3.822 -4.913,-3.822c-1.869,0 -3.318,0.336 -4.515,0.819l0,10.752l2.855,0l0,-9.009c0.379,-0.147 1.029,-0.273 1.702,-0.273c1.301,0 1.995,0.693 1.995,1.827l0,7.455l2.876,0Z" style="fill: #FFFFFF;fill-rule:nonzero;"/><path d="M77.651,37.954l-1.023,0l-2.304,6.48c-0.209,0.576 -0.385,1.248 -0.385,1.248l-0.031,0c0,0 -0.16,-0.672 -0.369,-1.248l-2.304,-6.48l-1.023,0l3.183,8.624l1.073,0l3.183,-8.624Z" style="fill: #FFFFFF;fill-rule:nonzero;"/><path d="M85.956,41.362c0,-2.272 -1.329,-3.568 -3.328,-3.568c-2.256,0 -3.648,1.808 -3.648,4.464c0,2.928 1.552,4.48 4.016,4.48c1.088,0 2.112,-0.256 2.688,-0.592l-0.32,-0.736c-0.544,0.32 -1.472,0.544 -2.336,0.544c-1.824,0 -3.008,-1.072 -3.136,-3.184l6.048,-0.896c0.016,-0.192 0.016,-0.352 0.016,-0.512Zm-0.912,-0.064l-5.2,0.752c0.048,-2.112 1.088,-3.504 2.784,-3.504c1.44,0 2.4,0.88 2.416,2.752Z" style="fill: #FFFFFF;fill-rule:nonzero;"/><path d="M91.86,37.826c-0.08,-0.016 -0.385,-0.032 -0.736,-0.032c-1.072,0 -2.256,0.24 -2.976,0.592l0,8.192l0.943,0l0,-7.648c0.449,-0.208 1.232,-0.336 1.921,-0.336c0.224,0 0.448,0.016 0.639,0.048l0.209,-0.816Zm0.128,-2.752l-0.449,-0.384l-1.631,1.456l-1.632,-1.456l-0.448,0.384l1.584,1.6c0.16,0.16 0.32,0.256 0.496,0.256c0.176,0 0.32,-0.096 0.479,-0.256l1.601,-1.6Z" style="fill: #FFFFFF;fill-rule:nonzero;"/><path d="M100.035,41.362c0,-2.272 -1.328,-3.568 -3.327,-3.568c-2.256,0 -3.648,1.808 -3.648,4.464c0,2.928 1.552,4.48 4.016,4.48c1.087,0 2.112,-0.256 2.688,-0.592l-0.32,-0.736c-0.544,0.32 -1.472,0.544 -2.336,0.544c-1.825,0 -3.008,-1.072 -3.136,-3.184l6.048,-0.896c0.015,-0.192 0.015,-0.352 0.015,-0.512Zm-0.911,-0.064l-5.2,0.752c0.048,-2.112 1.088,-3.504 2.784,-3.504c1.44,0 2.4,0.88 2.416,2.752Z" style="fill: #FFFFFF;fill-rule:nonzero;"/><path d="M103.604,35.378c0,-0.368 -0.288,-0.656 -0.656,-0.656c-0.368,0 -0.672,0.288 -0.672,0.656c0,0.368 0.304,0.656 0.672,0.656c0.368,0 0.656,-0.288 0.656,-0.656Zm-0.192,10.384l0,-7.808l-0.944,0l0,7.808c0,2.048 -1.024,3.104 -2.208,3.504l0,0.848c1.664,-0.4 3.152,-1.648 3.152,-4.352Z" style="fill: #FFFFFF;fill-rule:nonzero;"/><path d="M112.356,46.578l0,-5.936c0,-1.776 -1.152,-2.848 -3.296,-2.848c-1.184,0 -2.256,0.24 -3.04,0.592l0,8.192l0.944,0l0,-7.648c0.48,-0.192 1.232,-0.352 2.096,-0.352c1.568,0 2.352,0.832 2.352,2.112l0,5.888l0.944,0Z" style="fill: #FFFFFF;fill-rule:nonzero;"/><path d="M121.539,37.954l-1.023,0l-2.369,6.672c-0.191,0.528 -0.32,1.152 -0.32,1.152l-0.031,0c0,0 -0.113,-0.624 -0.304,-1.152l-2.369,-6.672l-1.023,0l3.248,8.624l-1.296,3.44l0.976,0l4.511,-12.064Zm-1.903,-3.12c-0.064,-0.208 -0.24,-0.304 -0.464,-0.304c-0.208,0 -0.464,0.096 -0.64,0.304l-1.2,2.096l0.768,0l1.536,-2.096Z" style="fill: #FFFFFF;fill-rule:nonzero;"/><path d="M134.659,42.258c0,-2.544 -1.216,-4.464 -3.552,-4.464c-2.336,0 -3.552,1.92 -3.552,4.464c0,2.544 1.216,4.48 3.552,4.48c2.336,0 3.552,-1.936 3.552,-4.48Zm-0.944,0c0,2.112 -0.832,3.68 -2.608,3.68c-1.776,0 -2.608,-1.568 -2.608,-3.68c0,-2.112 0.832,-3.68 2.608,-3.68c1.776,0 2.608,1.568 2.608,3.68Z" style="fill: #FFFFFF;fill-rule:nonzero;"/><path d="M142.195,46.146l-0.336,-0.72c-0.416,0.288 -1.04,0.496 -1.648,0.496c-1.296,0 -2.736,-0.96 -2.736,-3.664c0,-2.704 1.424,-3.664 2.736,-3.664c0.608,0 1.232,0.208 1.648,0.496l0.336,-0.704c-0.496,-0.336 -1.248,-0.592 -2.048,-0.592c-1.744,0 -3.632,1.248 -3.632,4.464c0,3.216 1.888,4.48 3.632,4.48c0.8,0 1.52,-0.24 2.048,-0.592Z" style="fill: #FFFFFF;fill-rule:nonzero;"/><path d="M150.563,46.578l0,-5.936c0,-1.84 -1.248,-2.832 -3.216,-2.832c-0.768,0 -1.584,0.24 -2.176,0.56l0,-4.352l-0.944,0l0,12.56l0.944,0l0,-7.408c0.544,-0.336 1.344,-0.56 2.048,-0.56c1.456,0 2.4,0.672 2.4,2.08l0,5.888l0.944,0Z" style="fill: #FFFFFF;fill-rule:nonzero;"/><path d="M156.803,37.826c-0.08,-0.016 -0.384,-0.032 -0.736,-0.032c-1.072,0 -2.256,0.24 -2.976,0.592l0,8.192l0.944,0l0,-7.648c0.448,-0.208 1.232,-0.336 1.92,-0.336c0.224,0 0.448,0.016 0.64,0.048l0.208,-0.816Z" style="fill: #FFFFFF;fill-rule:nonzero;"/><path d="M164.259,46.146l0,-5.648c0,-1.984 -1.296,-2.704 -3.104,-2.704c-0.976,0 -2.032,0.288 -2.656,0.592l0.288,0.704c0.544,-0.288 1.504,-0.544 2.304,-0.544c1.28,0 2.256,0.432 2.256,1.888l0,0.752c-2.608,0.144 -5.36,0.464 -5.36,2.976c0,1.568 1.152,2.576 3.408,2.576c1.072,0 2.272,-0.256 2.864,-0.592Zm-0.912,-0.48c-0.352,0.176 -1.232,0.32 -1.968,0.32c-1.68,0 -2.48,-0.736 -2.48,-1.84c0,-2.016 2.384,-2.128 4.448,-2.24l0,3.76Zm-0.272,-10.832c-0.064,-0.208 -0.24,-0.304 -0.464,-0.304c-0.208,0 -0.464,0.096 -0.64,0.304l-1.2,2.096l0.768,0l1.536,-2.096Z" style="fill: #FFFFFF;fill-rule:nonzero;"/><path d="M173.123,46.578l0,-5.936c0,-1.776 -1.152,-2.848 -3.296,-2.848c-1.184,0 -2.256,0.24 -3.04,0.592l0,8.192l0.944,0l0,-7.648c0.48,-0.192 1.232,-0.352 2.096,-0.352c1.568,0 2.352,0.832 2.352,2.112l0,5.888l0.944,0Z" style="fill: #FFFFFF;fill-rule:nonzero;"/><path d="M180.995,46.146l-0.336,-0.72c-0.416,0.288 -1.04,0.496 -1.648,0.496c-1.296,0 -2.736,-0.96 -2.736,-3.664c0,-2.704 1.424,-3.664 2.736,-3.664c0.608,0 1.232,0.208 1.648,0.496l0.336,-0.704c-0.496,-0.336 -1.248,-0.592 -2.048,-0.592c-1.744,0 -3.632,1.248 -3.632,4.464c0,3.216 1.888,4.48 3.632,4.48c0.8,0 1.52,-0.24 2.048,-0.592Z" style="fill: #FFFFFF;fill-rule:nonzero;"/><path d="M189.411,41.362c0,-2.272 -1.328,-3.568 -3.328,-3.568c-2.256,0 -3.648,1.808 -3.648,4.464c0,2.928 1.552,4.48 4.016,4.48c1.088,0 2.112,-0.256 2.688,-0.592l-0.32,-0.736c-0.544,0.32 -1.472,0.544 -2.336,0.544c-1.824,0 -3.008,-1.072 -3.136,-3.184l6.048,-0.896c0.016,-0.192 0.016,-0.352 0.016,-0.512Zm-0.912,-0.064l-5.2,0.752c0.048,-2.112 1.088,-3.504 2.784,-3.504c1.44,0 2.4,0.88 2.416,2.752Z" style="fill: #FFFFFF;fill-rule:nonzero;"/><path d="M202.723,42.146c0,-2.592 -1.472,-4.352 -4.016,-4.352c-0.992,0 -2.064,0.288 -2.592,0.592l0,11.632l0.944,0l0,-3.584c0.336,0.128 1.008,0.256 1.68,0.256c2.544,0 3.984,-1.92 3.984,-4.544Zm-0.944,0c0,2.144 -1.072,3.76 -3.088,3.76c-0.592,0 -1.344,-0.144 -1.632,-0.256l0,-6.752c0.304,-0.16 1.008,-0.32 1.664,-0.32c1.968,0 3.056,1.44 3.056,3.568Z" style="fill: #FFFFFF;fill-rule:nonzero;"/><path d="M208.611,37.826c-0.08,-0.016 -0.384,-0.032 -0.736,-0.032c-1.072,0 -2.256,0.24 -2.976,0.592l0,8.192l0.944,0l0,-7.648c0.448,-0.208 1.232,-0.336 1.92,-0.336c0.224,0 0.448,0.016 0.64,0.048l0.208,-0.816Z" style="fill: #FFFFFF;fill-rule:nonzero;"/><path d="M216.067,46.146l0,-5.648c0,-1.984 -1.296,-2.704 -3.104,-2.704c-0.976,0 -2.032,0.288 -2.656,0.592l0.288,0.704c0.544,-0.288 1.504,-0.544 2.304,-0.544c1.28,0 2.256,0.432 2.256,1.888l0,0.752c-2.608,0.144 -5.36,0.464 -5.36,2.976c0,1.568 1.152,2.576 3.408,2.576c1.072,0 2.272,-0.256 2.864,-0.592Zm-0.912,-0.48c-0.352,0.176 -1.232,0.32 -1.968,0.32c-1.68,0 -2.48,-0.736 -2.48,-1.84c0,-2.016 2.384,-2.128 4.448,-2.24l0,3.76Zm-0.272,-10.832c-0.064,-0.208 -0.24,-0.304 -0.464,-0.304c-0.208,0 -0.464,0.096 -0.64,0.304l-1.2,2.096l0.768,0l1.536,-2.096Z" style="fill: #FFFFFF;fill-rule:nonzero;"/><path d="M225.171,37.954l-1.024,0l-2.304,6.48c-0.208,0.576 -0.384,1.248 -0.384,1.248l-0.032,0c0,0 -0.16,-0.672 -0.368,-1.248l-2.304,-6.48l-1.024,0l3.184,8.624l1.072,0l3.184,-8.624Z" style="fill: #FFFFFF;fill-rule:nonzero;"/></g></svg>
