<?xml version="1.0" encoding="UTF-8" standalone="no"?>
<!DOCTYPE svg PUBLIC "-//W3C//DTD SVG 1.1//EN" "http://www.w3.org/Graphics/SVG/1.1/DTD/svg11.dtd">
<svg width="100%" height="100%" viewBox="0 0 1066 233" version="1.1" xmlns="http://www.w3.org/2000/svg" xmlns:xlink="http://www.w3.org/1999/xlink" xml:space="preserve" xmlns:serif="http://www.serif.com/" style="fill-rule:evenodd;clip-rule:evenodd;stroke-linejoin:round;stroke-miterlimit:2;">
    <g id="Vrstva-1" serif:id="Vrstva 1" transform="matrix(4.16667,0,0,4.16667,0,0)">
        <g transform="matrix(1,0,0,1,34.4897,55.92)">
            <path d="M0,-55.92C8.502,-55.825 13.417,-52.035 13.417,-52.035L-23.708,-34.722L-10.558,-6.522L-10.289,-6.652L-7.936,-10.851L-8.052,-11.117L-11.606,-9.467L-5.266,-15.53L-5.39,-15.791L-12.921,-12.289L-2.549,-20.224L-2.679,-20.49L-14.234,-15.106L0.102,-24.897L-0.021,-25.166L-15.553,-17.929L2.711,-29.552L2.591,-29.817L-16.841,-20.761L5.275,-34.179L5.157,-34.446L-18.185,-23.572L7.93,-38.859L7.813,-39.122L-19.462,-26.408L10.592,-43.535L10.473,-43.797L-20.77,-29.227L13.231,-48.2L13.114,-48.46L-22.081,-32.054L13.852,-51.751C13.852,-51.751 23.6,-46.167 23.6,-32.605C23.6,-15.307 6.311,0 -10.562,0C-26.811,0 -34.49,-12.554 -34.49,-22.235C-34.49,-42.849 -15.354,-55.825 -0.489,-55.92L0,-55.92Z" style="fill:white;fill-rule:nonzero;"/>
        </g>
        <g transform="matrix(1,0,0,1,77.2979,16.2517)">
            <path d="M0,-1.869C-0.231,-1.973 -0.819,-2.079 -1.323,-2.079C-3.107,-2.079 -4.052,-0.588 -4.052,1.554C-4.052,3.842 -3.086,5.186 -1.323,5.186C-0.819,5.186 -0.231,5.081 0,4.955L0,-1.869ZM-1.26,7.433C-4.913,7.433 -6.908,5.27 -6.908,1.596C-6.908,-1.89 -5.081,-4.241 -1.617,-4.241C-1.008,-4.241 -0.357,-4.137 0,-4.011L0,-9.302L2.876,-9.302L2.876,6.613C2.058,7.055 0.462,7.433 -1.26,7.433" style="fill:white;fill-rule:nonzero;"/>
        </g>
        <g transform="matrix(1,0,0,1,87.5249,17.1753)">
            <path d="M0,-3.233C-1.491,-3.233 -2.541,-2.141 -2.583,-0.021L2.163,-0.671C2.163,-2.373 1.323,-3.233 0,-3.233M0.882,-6.614C0.63,-6.34 0.315,-6.194 -0.042,-6.194C-0.399,-6.194 -0.735,-6.34 -0.987,-6.614L-3.17,-8.818L-2.058,-9.742L-0.042,-8.02L1.953,-9.742L3.065,-8.818L0.882,-6.614ZM4.892,0.798L-2.394,1.785C-2.142,3.444 -0.924,4.262 0.735,4.262C1.869,4.262 3.087,3.968 3.884,3.548L4.703,5.69C3.759,6.173 2.163,6.509 0.525,6.509C-3.212,6.509 -5.186,4.074 -5.186,0.588C-5.186,-2.877 -3.233,-5.312 0.063,-5.312C3.191,-5.312 4.935,-3.254 4.935,-0.168C4.935,0.147 4.935,0.462 4.892,0.798" style="fill:white;fill-rule:nonzero;"/>
        </g>
        <g transform="matrix(1,0,0,1,98.5923,8.7775)">
            <path d="M0,14.823C-2.184,14.823 -3.213,13.626 -3.213,11.254L-3.213,5.479L-4.661,5.479L-4.661,3.338L-3.213,3.338L-3.213,0.818L-0.398,0L-0.398,3.338L1.722,3.338L1.722,5.479L-0.398,5.479L-0.398,11.064C-0.398,11.988 0.168,12.303 0.902,12.303C1.197,12.303 1.533,12.219 1.722,12.135L1.722,14.508C1.386,14.676 0.693,14.823 0,14.823" style="fill:white;fill-rule:nonzero;"/>
        </g>
        <g transform="matrix(1,0,0,1,105.375,11.8634)">
            <path d="M0,11.821C-1.407,11.821 -2.814,11.443 -3.654,11.002L-2.73,8.818C-2.163,9.175 -0.903,9.553 -0.084,9.553C0.944,9.553 1.616,9.07 1.616,8.314C1.616,7.474 0.881,7.118 -0.127,6.76C-1.555,6.236 -3.359,5.564 -3.359,3.339C-3.359,1.343 -1.848,0 0.797,0C2.246,0 3.422,0.357 4.283,0.819L3.4,2.771C2.918,2.477 1.91,2.121 1.154,2.121C0.146,2.121 -0.441,2.625 -0.441,3.297C-0.441,4.157 0.293,4.493 1.28,4.85C2.771,5.396 4.598,6.026 4.598,8.314C4.598,10.435 3.023,11.821 0,11.821" style="fill:white;fill-rule:nonzero;"/>
        </g>
        <g transform="matrix(1,0,0,1,119.045,6.9505)">
            <path d="M0,16.482L-4.074,10.771L-4.115,10.771L-4.115,16.482L-6.95,16.482L-6.95,0L-4.115,0L-4.115,10.12L-4.074,10.12L-0.336,5.165L2.96,5.165L-1.113,10.456L3.232,16.482L0,16.482Z" style="fill:white;fill-rule:nonzero;"/>
        </g>
        <g transform="matrix(1,0,0,1,129.293,24.5453)">
            <path d="M0,-13.732L-1.975,-13.732L-0.504,-16.503C-0.084,-16.944 0.545,-17.133 1.092,-17.133C1.637,-17.133 2.12,-16.902 2.246,-16.503L0,-13.732ZM-0.987,3.401L-3.99,3.401L-2.289,-1.113L-6.551,-12.43L-3.318,-12.43L-1.197,-5.312C-0.945,-4.472 -0.819,-3.528 -0.819,-3.528L-0.777,-3.528C-0.777,-3.528 -0.651,-4.472 -0.399,-5.312L1.721,-12.43L4.934,-12.43L-0.987,3.401Z" style="fill:white;fill-rule:nonzero;"/>
        </g>
        <g transform="matrix(1,0,0,1,145.757,21.4372)">
            <path d="M0,-7.327C-1.512,-7.327 -2.268,-5.963 -2.268,-3.695C-2.268,-1.428 -1.512,-0.084 0,-0.084C1.512,-0.084 2.268,-1.428 2.268,-3.695C2.268,-5.963 1.512,-7.327 0,-7.327M0,2.247C-3.296,2.247 -5.123,-0.294 -5.123,-3.674C-5.123,-7.055 -3.296,-9.574 0,-9.574C3.296,-9.574 5.123,-7.055 5.123,-3.674C5.123,-0.294 3.296,2.247 0,2.247" style="fill:white;fill-rule:nonzero;"/>
        </g>
        <g transform="matrix(1,0,0,1,165.874,11.8635)">
            <path d="M0,11.569L0,4.031C0,2.919 -0.714,2.289 -1.869,2.289C-2.582,2.289 -3.149,2.499 -3.549,2.855L-3.549,11.569L-6.425,11.569L-6.425,3.905C-6.425,2.897 -7.181,2.289 -8.398,2.289C-9.049,2.289 -9.574,2.393 -9.973,2.561L-9.973,11.569L-12.828,11.569L-12.828,0.819C-11.674,0.357 -10.184,0 -8.566,0C-6.74,0 -5.585,0.567 -4.934,1.155C-4.221,0.609 -2.834,0 -1.134,0C1.365,0 2.877,1.449 2.877,3.737L2.877,11.569L0,11.569Z" style="fill:white;fill-rule:nonzero;"/>
        </g>
        <g transform="matrix(1,0,0,1,175.597,16.4822)">
            <path d="M0,-2.33C-0.524,-2.33 -1.092,-2.204 -1.448,-2.036L-1.448,4.725C-1.176,4.851 -0.651,4.955 -0.126,4.955C1.512,4.955 2.604,3.717 2.604,1.218C2.604,-1.008 1.616,-2.33 0,-2.33M-0.294,7.202C-1.868,7.202 -3.38,6.824 -4.304,6.383L-4.304,-9.532L-1.448,-9.532L-1.448,-4.136C-0.944,-4.367 -0.126,-4.514 0.546,-4.514C3.485,-4.514 5.479,-2.477 5.479,0.987C5.479,5.229 3.317,7.202 -0.294,7.202" style="fill:white;fill-rule:nonzero;"/>
        </g>
        <g transform="matrix(1,0,0,1,188.008,12.1154)">
            <path d="M0,11.569C-3.129,11.569 -4.766,10.309 -4.766,7.37L-4.766,0L-1.91,0L-1.91,7.432C-1.91,8.65 -1.26,9.217 0,9.217C0.734,9.217 1.344,9.091 1.658,8.965L1.658,0L4.514,0L4.514,10.75C3.527,11.233 1.764,11.569 0,11.569" style="fill:white;fill-rule:nonzero;"/>
        </g>
        <g transform="matrix(1,0,0,1,201.594,16.2517)">
            <path d="M0,-1.869C-0.23,-1.973 -0.818,-2.079 -1.322,-2.079C-3.107,-2.079 -4.052,-0.588 -4.052,1.554C-4.052,3.842 -3.086,5.186 -1.322,5.186C-0.818,5.186 -0.23,5.081 0,4.955L0,-1.869ZM-1.26,7.433C-4.912,7.433 -6.907,5.27 -6.907,1.596C-6.907,-1.89 -5.08,-4.241 -1.616,-4.241C-1.008,-4.241 -0.356,-4.137 0,-4.011L0,-9.302L2.877,-9.302L2.877,6.613C2.059,7.055 0.463,7.433 -1.26,7.433" style="fill:white;fill-rule:nonzero;"/>
        </g>
        <g transform="matrix(1,0,0,1,210.057,11.8634)">
            <path d="M0,11.821C-1.406,11.821 -2.813,11.443 -3.652,11.002L-2.729,8.818C-2.162,9.175 -0.902,9.553 -0.084,9.553C0.945,9.553 1.617,9.07 1.617,8.314C1.617,7.474 0.883,7.118 -0.125,6.76C-1.553,6.236 -3.359,5.564 -3.359,3.339C-3.359,1.343 -1.848,0 0.799,0C2.247,0 3.423,0.357 4.283,0.819L3.402,2.771C2.919,2.477 1.911,2.121 1.155,2.121C0.147,2.121 -0.44,2.625 -0.44,3.297C-0.44,4.157 0.295,4.493 1.281,4.85C2.771,5.396 4.599,6.026 4.599,8.314C4.599,10.435 3.023,11.821 0,11.821" style="fill:white;fill-rule:nonzero;"/>
        </g>
        <g transform="matrix(1,0,0,1,229.586,11.8635)">
            <path d="M0,11.569L0,4.031C0,2.919 -0.714,2.289 -1.869,2.289C-2.582,2.289 -3.149,2.499 -3.549,2.855L-3.549,11.569L-6.425,11.569L-6.425,3.905C-6.425,2.897 -7.181,2.289 -8.398,2.289C-9.049,2.289 -9.574,2.393 -9.973,2.561L-9.973,11.569L-12.828,11.569L-12.828,0.819C-11.674,0.357 -10.184,0 -8.566,0C-6.74,0 -5.585,0.567 -4.934,1.155C-4.221,0.609 -2.834,0 -1.134,0C1.365,0 2.877,1.449 2.877,3.737L2.877,11.569L0,11.569Z" style="fill:white;fill-rule:nonzero;"/>
        </g>
        <g transform="matrix(1,0,0,1,241.116,17.5745)">
            <path d="M0,0.399C-2.1,0.503 -3.947,0.693 -3.947,2.393C-3.947,3.464 -3.107,4.073 -1.617,4.073C-1.008,4.073 -0.294,3.968 0,3.842L0,0.399ZM-1.533,6.11C-4.934,6.11 -6.635,4.766 -6.635,2.457C-6.635,-0.63 -3.422,-1.239 0,-1.428L0,-2.016C0,-3.192 -0.818,-3.632 -2.121,-3.632C-3.191,-3.632 -4.493,-3.296 -5.291,-2.96L-6.005,-4.892C-5.061,-5.291 -3.443,-5.711 -1.806,-5.711C1.092,-5.711 2.709,-4.578 2.709,-1.68L2.709,5.291C1.869,5.732 0.168,6.11 -1.533,6.11" style="fill:white;fill-rule:nonzero;"/>
        </g>
        <g transform="matrix(1,0,0,1,252.918,11.8635)">
            <path d="M0,11.569L0,4.115C0,2.981 -0.693,2.289 -1.995,2.289C-2.667,2.289 -3.318,2.415 -3.695,2.561L-3.695,11.569L-6.551,11.569L-6.551,0.819C-5.354,0.336 -3.906,0 -2.037,0C1.322,0 2.876,1.385 2.876,3.821L2.876,11.569L0,11.569Z" style="fill:white;fill-rule:nonzero;"/>
        </g>
        <g transform="matrix(1,0,0,1,74.1905,45.3271)">
            <path d="M0,-7.38C-1.777,-7.38 -2.609,-5.811 -2.609,-3.698C-2.609,-1.585 -1.777,-0.017 0,-0.017C1.776,-0.017 2.609,-1.585 2.609,-3.698C2.609,-5.811 1.776,-7.38 0,-7.38M0,0.784C-2.337,0.784 -3.554,-1.153 -3.554,-3.698C-3.554,-6.243 -2.337,-8.164 0,-8.164C2.337,-8.164 3.553,-6.243 3.553,-3.698C3.553,-1.153 2.337,0.784 0,0.784" style="fill:white;fill-rule:nonzero;"/>
        </g>
        <g transform="matrix(1,0,0,1,83.2305,37.1632)">
            <path d="M0,8.948C-1.745,8.948 -3.634,7.683 -3.634,4.466C-3.634,1.249 -1.745,0 0,0C0.8,0 1.552,0.257 2.049,0.593L1.712,1.297C1.296,1.009 0.672,0.801 0.064,0.801C-1.249,0.801 -2.673,1.761 -2.673,4.466C-2.673,7.171 -1.233,8.132 0.064,8.132C0.672,8.132 1.296,7.924 1.712,7.636L2.049,8.355C1.521,8.708 0.8,8.948 0,8.948" style="fill:white;fill-rule:nonzero;"/>
        </g>
        <g transform="matrix(1,0,0,1,92.7027,33.386)">
            <path d="M0,12.565L0,6.674C0,5.266 -0.944,4.593 -2.4,4.593C-3.105,4.593 -3.905,4.818 -4.449,5.154L-4.449,12.565L-5.394,12.565L-5.394,0L-4.449,0L-4.449,4.353C-3.857,4.034 -3.041,3.794 -2.272,3.794C-0.304,3.794 0.945,4.786 0.945,6.627L0.945,12.565L0,12.565Z" style="fill:white;fill-rule:nonzero;"/>
        </g>
        <g transform="matrix(1,0,0,1,99.6773,45.1016)">
            <path d="M0,-7.09C-0.191,-7.122 -0.416,-7.138 -0.64,-7.138C-1.328,-7.138 -2.112,-7.01 -2.561,-6.802L-2.561,0.849L-3.505,0.849L-3.505,-7.346C-2.785,-7.698 -1.601,-7.939 -0.527,-7.939C-0.176,-7.939 0.129,-7.922 0.208,-7.906L0,-7.09Z" style="fill:white;fill-rule:nonzero;"/>
        </g>
        <g transform="matrix(1,0,0,1,104.797,43.7117)">
            <path d="M0,-7.413L-0.769,-7.413L0.433,-9.51C0.608,-9.718 0.864,-9.813 1.072,-9.813C1.297,-9.813 1.473,-9.718 1.537,-9.51L0,-7.413ZM1.809,-2.434C-0.256,-2.323 -2.641,-2.211 -2.641,-0.194C-2.641,0.91 -1.841,1.647 -0.16,1.647C0.576,1.647 1.457,1.503 1.809,1.326L1.809,-2.434ZM-0.144,2.4C-2.401,2.4 -3.554,1.391 -3.554,-0.178C-3.554,-2.691 -0.8,-3.011 1.809,-3.155L1.809,-3.907C1.809,-5.364 0.832,-5.796 -0.448,-5.796C-1.248,-5.796 -2.209,-5.54 -2.753,-5.252L-3.041,-5.956C-2.417,-6.261 -1.36,-6.549 -0.384,-6.549C1.425,-6.549 2.721,-5.828 2.721,-3.844L2.721,1.807C2.129,2.143 0.929,2.4 -0.144,2.4" style="fill:white;fill-rule:nonzero;"/>
        </g>
        <g transform="matrix(1,0,0,1,115.439,37.163)">
            <path d="M0,8.788L0,2.897C0,1.617 -0.785,0.784 -2.354,0.784C-3.218,0.784 -3.97,0.944 -4.45,1.137L-4.45,8.788L-5.395,8.788L-5.395,0.593C-4.61,0.24 -3.538,0 -2.354,0C-0.209,0 0.944,1.072 0.944,2.85L0.944,8.788L0,8.788Z" style="fill:white;fill-rule:nonzero;"/>
        </g>
        <g transform="matrix(1,0,0,1,122.206,37.1632)">
            <path d="M0,8.948C-1.744,8.948 -3.633,7.683 -3.633,4.466C-3.633,1.249 -1.744,0 0,0C0.801,0 1.553,0.257 2.049,0.593L1.713,1.297C1.297,1.009 0.673,0.801 0.064,0.801C-1.248,0.801 -2.673,1.761 -2.673,4.466C-2.673,7.171 -1.232,8.132 0.064,8.132C0.673,8.132 1.297,7.924 1.713,7.636L2.049,8.355C1.521,8.708 0.801,8.948 0,8.948" style="fill:white;fill-rule:nonzero;"/>
        </g>
        <g transform="matrix(1,0,0,1,129.342,45.3579)">
            <path d="M0,-7.442C-1.697,-7.442 -2.737,-6.049 -2.785,-3.937L2.417,-4.689C2.4,-6.562 1.44,-7.442 0,-7.442M3.313,-4.113L-2.737,-3.216C-2.609,-1.104 -1.425,-0.031 0.399,-0.031C1.265,-0.031 2.192,-0.255 2.737,-0.576L3.057,0.161C2.48,0.496 1.456,0.753 0.368,0.753C-2.097,0.753 -3.649,-0.799 -3.649,-3.729C-3.649,-6.386 -2.257,-8.195 0,-8.195C2.001,-8.195 3.329,-6.898 3.329,-4.626C3.329,-4.465 3.329,-4.305 3.313,-4.113" style="fill:white;fill-rule:nonzero;"/>
        </g>
        <g transform="matrix(1,0,0,1,141.982,48.6081)">
            <path d="M0,-10.661C-0.656,-10.661 -1.361,-10.501 -1.665,-10.341L-1.665,-3.586C-1.377,-3.474 -0.625,-3.33 -0.032,-3.33C1.984,-3.33 3.057,-4.946 3.057,-7.091C3.057,-9.22 1.969,-10.661 0,-10.661M0.016,-2.546C-0.656,-2.546 -1.329,-2.674 -1.665,-2.802L-1.665,0.784L-2.609,0.784L-2.609,-10.852C-2.081,-11.157 -1.009,-11.445 -0.017,-11.445C2.528,-11.445 4.001,-9.684 4.001,-7.091C4.001,-4.466 2.561,-2.546 0.016,-2.546" style="fill:white;fill-rule:nonzero;"/>
        </g>
        <g transform="matrix(1,0,0,1,151.662,45.1016)">
            <path d="M0,-7.09C-0.191,-7.122 -0.416,-7.138 -0.64,-7.138C-1.328,-7.138 -2.112,-7.01 -2.561,-6.802L-2.561,0.849L-3.505,0.849L-3.505,-7.346C-2.785,-7.698 -1.601,-7.939 -0.527,-7.939C-0.176,-7.939 0.129,-7.922 0.208,-7.906L0,-7.09Z" style="fill:white;fill-rule:nonzero;"/>
        </g>
        <g transform="matrix(1,0,0,1,156.782,43.7117)">
            <path d="M0,-7.413L-0.769,-7.413L0.433,-9.51C0.608,-9.718 0.864,-9.813 1.072,-9.813C1.297,-9.813 1.473,-9.718 1.537,-9.51L0,-7.413ZM1.809,-2.434C-0.256,-2.323 -2.641,-2.211 -2.641,-0.194C-2.641,0.91 -1.841,1.647 -0.16,1.647C0.576,1.647 1.457,1.503 1.809,1.326L1.809,-2.434ZM-0.144,2.4C-2.401,2.4 -3.554,1.391 -3.554,-0.178C-3.554,-2.691 -0.8,-3.011 1.809,-3.155L1.809,-3.907C1.809,-5.364 0.832,-5.796 -0.448,-5.796C-1.248,-5.796 -2.209,-5.54 -2.753,-5.252L-3.041,-5.956C-2.417,-6.261 -1.36,-6.549 -0.384,-6.549C1.425,-6.549 2.721,-5.828 2.721,-3.844L2.721,1.807C2.129,2.143 0.929,2.4 -0.144,2.4" style="fill:white;fill-rule:nonzero;"/>
        </g>
        <g transform="matrix(1,0,0,1,165.421,37.323)">
            <path d="M0,8.628L-1.072,8.628L-4.258,0L-3.233,0L-0.929,6.482C-0.721,7.059 -0.561,7.732 -0.561,7.732L-0.528,7.732C-0.528,7.732 -0.353,7.059 -0.145,6.482L2.161,0L3.186,0L0,8.628Z" style="fill:white;fill-rule:nonzero;"/>
        </g>
        <g transform="matrix(1,0,0,1,180.27,41.2294)">
            <path d="M0,-2.962C-0.288,-3.073 -1.041,-3.202 -1.633,-3.202C-3.65,-3.202 -4.706,-1.617 -4.706,0.527C-4.706,2.656 -3.634,4.098 -1.665,4.098C-1.057,4.098 -0.272,3.921 0,3.761L0,-2.962ZM-1.649,4.882C-4.194,4.882 -5.65,3.137 -5.65,0.544C-5.65,-2.081 -4.227,-3.986 -1.681,-3.986C-1.009,-3.986 -0.337,-3.858 0,-3.731L0,-7.844L0.944,-7.844L0.944,4.289C0.479,4.577 -0.608,4.882 -1.649,4.882" style="fill:white;fill-rule:nonzero;"/>
        </g>
        <g transform="matrix(1,0,0,1,187.453,44.1268)">
            <path d="M0,-8.084C-0.159,-7.924 -0.304,-7.828 -0.479,-7.828C-0.656,-7.828 -0.815,-7.924 -0.976,-8.084L-2.561,-9.685L-2.112,-10.068L-0.479,-8.612L1.153,-10.068L1.602,-9.685L0,-8.084ZM-0.399,-6.211C-2.097,-6.211 -3.137,-4.818 -3.185,-2.706L2.018,-3.458C2.001,-5.331 1.041,-6.211 -0.399,-6.211M2.914,-2.882L-3.137,-1.985C-3.009,0.127 -1.824,1.2 0,1.2C0.865,1.2 1.793,0.976 2.338,0.655L2.657,1.392C2.081,1.728 1.057,1.984 -0.031,1.984C-2.496,1.984 -4.049,0.432 -4.049,-2.498C-4.049,-5.155 -2.656,-6.964 -0.399,-6.964C1.602,-6.964 2.93,-5.667 2.93,-3.395C2.93,-3.234 2.93,-3.074 2.914,-2.882" style="fill:white;fill-rule:nonzero;"/>
        </g>
        <g transform="matrix(1,0,0,1,195.389,34.8261)">
            <path d="M0,11.205C-1.281,11.205 -2.193,10.501 -2.193,9.044L-2.193,3.218L-3.538,3.218L-3.538,2.497L-2.193,2.497L-2.193,0.352L-1.281,0L-1.281,2.497L0.672,2.497L0.672,3.218L-1.281,3.218L-1.281,9.012C-1.281,9.973 -0.625,10.372 0.144,10.372C0.336,10.372 0.544,10.341 0.672,10.292L0.672,11.108C0.528,11.173 0.304,11.205 0,11.205" style="fill:white;fill-rule:nonzero;"/>
        </g>
        <g transform="matrix(1,0,0,1,0,23.9289)">
            <path d="M198.06,13.394L199.004,13.394L199.004,22.022L198.06,22.022L198.06,13.394ZM198.604,12.37L197.835,12.37L199.037,10.273C199.212,10.065 199.468,9.969 199.676,9.969C199.901,9.969 200.077,10.065 200.141,10.273L198.604,12.37Z" style="fill:white;fill-rule:nonzero;"/>
        </g>
    </g>
</svg>
